<?xml version="1.0" encoding="UTF-8"?>
<svg version="1.1" xmlns="http://www.w3.org/2000/svg" width="2850" height="839">
<path d="M0 0 C40.92 0 81.84 0 124 0 C129.61 9.57 135.22 19.14 141 29 C147.28478244 39.36764992 147.28478244 39.36764992 153.58984375 49.72265625 C158.44184788 57.69054396 163.18816767 65.7206564 167.9375 73.75 C174.8448645 85.45036623 174.8448645 85.45036623 182 97 C186.86041137 104.64617735 191.44955442 112.45327747 196.0625 120.25 C202.17271085 130.57666535 208.31980984 140.87782436 214.5625 151.125 C220.79576442 161.35788629 226.98109891 171.61818452 233.13653564 181.89807129 C238.53500427 190.91206002 243.97145985 199.90184923 249.4375 208.875 C256.64002472 220.69988838 263.72261393 232.59374409 270.75756836 244.51904297 C271.14470001 245.173927 271.53183167 245.82881104 271.93069458 246.50354004 C272.9789049 248.27684127 274.0252866 250.05122306 275.0715332 251.82568359 C276.96201712 254.93747899 278.98031229 257.97046843 281 261 C281.33 174.87 281.66 88.74 282 0 C322.92 0 363.84 0 406 0 C406 158.4 406 316.8 406 480 C364.75 480 323.5 480 281 480 C274.73 469.44 268.46 458.88 262 448 C256.05855651 438.34481163 256.05855651 438.34481163 250.1015625 428.69921875 C245.43884436 421.12201705 240.90486613 413.46963248 236.375 405.8125 C229.2658983 393.797067 222.07358768 381.83771486 214.78955078 369.92724609 C211.45720518 364.47638337 208.13216734 359.02109054 204.8125 353.5625 C204.28663803 352.69806274 204.28663803 352.69806274 203.75015259 351.81616211 C197.36198616 341.30810051 191.08368541 330.73645663 184.82168579 320.15286255 C180.27548352 312.47203476 175.70122715 304.8194143 170.91088867 297.28759766 C165.97894862 289.47460265 161.33762829 281.48296839 156.63659668 273.52990723 C150.31532175 262.84084367 143.89232924 252.22304674 137.33935547 241.67431641 C133.10186878 234.84328365 129.05441304 227.95042235 125 221 C124.67 306.47 124.34 391.94 124 480 C83.08 480 42.16 480 0 480 C0 321.6 0 163.2 0 0 Z " fill="#0066B5" transform="translate(2136,62)"/>
<path d="M0 0 C45.87 0 91.74 0 139 0 C139 59.4 139 118.8 139 180 C187.84 180 236.68 180 287 180 C287 120.6 287 61.2 287 0 C333.2 0 379.4 0 427 0 C427 160.38 427 320.76 427 486 C380.8 486 334.6 486 287 486 C287 421.65 287 357.3 287 291 C238.16 291 189.32 291 139 291 C139 355.35 139 419.7 139 486 C93.13 486 47.26 486 0 486 C0 325.62 0 165.24 0 0 Z " fill="#0066B5" transform="translate(537,62)"/>
<path d="M0 0 C1.12277344 -0.00570007 2.24554687 -0.01140015 3.40234375 -0.01727295 C5.77570672 -0.02667737 8.14908249 -0.03323868 10.52246094 -0.03710938 C14.05949506 -0.04669743 17.59591723 -0.07771608 21.1328125 -0.109375 C41.65281138 -0.20556249 62.05751404 1.35648782 82.125 5.828125 C83.26960693 6.07973389 84.41421387 6.33134277 85.59350586 6.59057617 C121.34262632 14.82339482 153.4874748 30.93575995 180.125 56.203125 C180.61436035 56.65993652 181.1037207 57.11674805 181.60791016 57.58740234 C226.13274519 99.36670099 244.06615478 161.69846117 246.125 221.203125 C247.23902047 261.22679748 244.92105821 301.71758049 233.125 340.203125 C232.73489746 341.47687988 232.73489746 341.47687988 232.33691406 342.77636719 C223.70394532 370.30254048 209.84616692 395.66893388 190.23828125 416.90234375 C188.32904395 418.98097734 186.50523356 421.10733246 184.6875 423.265625 C150.4299609 462.27250475 96.20380108 479.11523324 46.125 483.203125 C37.17105327 483.67431629 28.21339682 483.64064208 19.25 483.578125 C18.06910797 483.57380463 16.88821594 483.56948425 15.67153931 483.56503296 C-1.33577373 483.49213523 -18.08405703 483.15531596 -34.875 480.203125 C-35.91672363 480.02620117 -36.95844727 479.84927734 -38.03173828 479.66699219 C-71.70634321 473.81449444 -103.4954119 463.06902077 -130.875 442.203125 C-131.761875 441.54183594 -132.64875 440.88054687 -133.5625 440.19921875 C-154.62385346 423.79319494 -170.65014599 403.18778245 -183.875 380.203125 C-184.23932129 379.5829248 -184.60364258 378.96272461 -184.97900391 378.32373047 C-202.85084598 347.7378046 -211.14090433 311.24057876 -213.875 276.203125 C-213.96112549 275.14593262 -214.04725098 274.08874023 -214.13598633 272.99951172 C-214.88925824 262.93397451 -215.0761685 252.91800985 -215.0625 242.828125 C-215.06189575 241.99752563 -215.0612915 241.16692627 -215.06066895 240.31115723 C-214.926837 172.16458147 -197.41084032 107.32128304 -149.3125 57.390625 C-144.77111088 53.01377896 -139.82262934 49.10603579 -134.875 45.203125 C-133.46541016 44.08550781 -133.46541016 44.08550781 -132.02734375 42.9453125 C-94.90008123 14.2628782 -46.63725823 0.18912326 0 0 Z M-45.875 134.203125 C-46.63683594 134.94046875 -47.39867187 135.6778125 -48.18359375 136.4375 C-76.02959276 165.20043832 -77.54583072 212.60521413 -77.0625 250.1171875 C-76.27285965 286.52947815 -71.05018713 326.51412295 -43.875 353.203125 C-22.41252205 372.35995214 2.51210166 375.35797414 30.125 374.203125 C34.96903459 373.77410113 39.50573726 372.72656397 44.125 371.203125 C45.75501953 370.67525391 45.75501953 370.67525391 47.41796875 370.13671875 C69.14434616 362.41914272 84.54758985 348.01768612 94.46484375 327.234375 C114.0348582 281.66632266 115.83327776 211.8064173 97.49487305 165.54833984 C88.19189408 143.46001482 73.31772684 126.359066 51.375 116.390625 C17.70834286 103.63273387 -19.80276127 108.59721899 -45.875 134.203125 Z " fill="#0066B5" transform="translate(1828.875,61.796875)"/>
<path d="M0 0 C0.83240707 -0.00983917 1.66481415 -0.01967834 2.52244568 -0.02981567 C20.67047504 -0.20014242 38.27287001 -0.157477 55.99609375 4.23828125 C56.99914551 4.48497559 58.00219727 4.73166992 59.03564453 4.98583984 C88.61355286 12.45019502 116.53542588 23.90239608 144.12109375 36.80078125 C144.99781738 37.20603027 145.87454102 37.6112793 146.77783203 38.02880859 C147.57431152 38.40859863 148.37079102 38.78838867 149.19140625 39.1796875 C150.2280542 39.66997437 150.2280542 39.66997437 151.28564453 40.17016602 C152.99609375 41.23828125 152.99609375 41.23828125 154.99609375 44.23828125 C155.32453636 46.98497312 155.54353942 49.65272745 155.68212891 52.40991211 C155.73118881 53.24273209 155.78024872 54.07555206 155.83079529 54.93360901 C155.99094657 57.68969427 156.13813331 60.44631075 156.28515625 63.203125 C156.39363839 65.11743929 156.50289158 67.03171003 156.61288452 68.94593811 C156.90045166 73.98934755 157.17688779 79.03331008 157.45123291 84.07745361 C157.67691553 88.19399219 157.91020594 92.31008246 158.14396095 96.4261694 C158.62683231 104.92942074 159.10463948 113.43296407 159.56884766 121.93725586 C159.61245926 122.72232513 159.65607086 123.50739441 159.70100403 124.31625366 C159.88023202 127.63170668 159.99609375 130.91659844 159.99609375 134.23828125 C153.38146448 132.97767832 146.86008401 131.50601435 140.34375 129.8125 C138.51040333 129.3425157 136.67690124 128.87313735 134.84326172 128.40429688 C133.8985199 128.16235596 132.95377808 127.92041504 131.98040771 127.67114258 C114.41997942 123.19143774 96.93167093 118.945155 78.99609375 116.23828125 C77.98192383 116.0789209 76.96775391 115.91956055 75.92285156 115.75537109 C46.79213722 111.30929696 9.98107838 107.66165312 -16.00390625 124.23828125 C-22.747391 129.28570212 -26.62664589 134.47375696 -28.50390625 142.73828125 C-29.41354753 149.14109609 -28.10571571 152.89859628 -24.73046875 158.26171875 C-17.18443932 168.25925013 -2.657218 172.37365587 8.703125 176.42578125 C9.98445807 176.88981561 11.26551254 177.35461989 12.54631042 177.82012939 C15.24163948 178.79804913 17.93873947 179.77083478 20.63745117 180.73937988 C24.86669227 182.25752676 29.09085938 183.78946681 33.31445312 185.32324219 C44.726333 189.46435778 56.14690145 193.58086362 67.57878113 197.66645813 C109.05754205 212.49747601 148.2094269 228.66494754 168.99609375 270.23828125 C176.03157574 285.35395718 180.09195017 301.50898782 180.19921875 318.2265625 C180.20627838 318.96307541 180.21333801 319.69958832 180.22061157 320.4584198 C180.45079062 351.52502807 180.45079062 351.52502807 176.99609375 365.23828125 C176.69807861 366.44145996 176.69807861 366.44145996 176.39404297 367.66894531 C166.66451914 405.66874847 142.51198524 434.96986177 109.07543945 454.86450195 C70.53894999 477.02358515 26.6868071 482.47998186 -17.00390625 482.42578125 C-17.91464905 482.425177 -18.82539185 482.42457275 -19.76373291 482.4239502 C-37.23664764 482.39279673 -54.59604696 481.76370158 -72.00390625 480.23828125 C-72.69987915 480.17747375 -73.39585205 480.11666626 -74.11291504 480.05401611 C-92.87236306 478.38782818 -111.4401114 475.8426127 -130.00390625 472.67578125 C-130.87249268 472.52807281 -131.7410791 472.38036438 -132.63598633 472.22817993 C-142.19857787 470.58849173 -151.62659785 468.75828312 -161.00390625 466.23828125 C-161.08455596 454.08502942 -160.8643259 441.97524303 -160.3828125 429.83203125 C-160.3176925 428.12968909 -160.2528334 426.42733694 -160.18821716 424.72497559 C-160.05329001 421.18879817 -159.91612068 417.65271801 -159.77709961 414.11669922 C-159.6011358 409.63959004 -159.42954182 405.16232723 -159.25949192 400.68498993 C-159.12607186 397.17912832 -158.99096985 393.67333311 -158.85532951 390.16755676 C-158.79160989 388.51895986 -158.72822687 386.87034991 -158.66522408 385.22172546 C-158.23012874 373.88626164 -157.66555247 362.56278241 -157.00390625 351.23828125 C-150.94591607 352.38917466 -144.98138995 353.72155261 -139.01855469 355.29345703 C-124.48013424 359.1037122 -109.86166755 361.98967123 -95.00390625 364.23828125 C-94.02671631 364.38713776 -94.02671631 364.38713776 -93.02978516 364.53900146 C-73.34853898 367.50448006 -53.8419418 368.62395895 -33.94140625 368.67578125 C-32.93573608 368.68195465 -31.93006592 368.68812805 -30.8939209 368.69448853 C-7.62372999 368.78668685 19.78204482 367.02726728 37.99609375 350.4140625 C42.97185696 344.90005568 44.4215411 340.12118854 44.24609375 332.73046875 C43.61112637 326.40063764 40.32387231 321.6938332 35.99609375 317.23828125 C25.91837557 309.9418965 14.09752355 305.96567327 2.49609375 301.80078125 C0.62077799 301.11638138 -1.25404895 300.43064082 -3.12841797 299.74365234 C-7.06352767 298.30320441 -11.00094322 296.86935176 -14.94042969 295.44091797 C-100.99006377 264.21975346 -100.99006377 264.21975346 -118.00390625 249.23828125 C-118.82117187 248.5525 -119.6384375 247.86671875 -120.48046875 247.16015625 C-146.39330558 224.85746697 -158.65458358 193.39234276 -161.17236328 160.00439453 C-163.2531343 122.45474843 -149.58957773 83.13820151 -124.58520508 55.14404297 C-93.21162255 20.94124009 -46.51260765 0.4555937 0 0 Z " fill="#0067B5" transform="translate(1392.00390625,61.76171875)"/>
<path d="M0 0 C3.29013484 0.01610897 6.57904197 0.00001732 9.86914062 -0.01904297 C59.29943326 -0.06869093 108.79583986 12.55849905 144.86523438 47.90283203 C167.169209 70.35537602 197.29101562 113.58508248 197.29101562 146.39111328 C180.88800001 146.64848694 164.48564274 146.84224768 148.08109379 146.96104717 C140.46344935 147.01768367 132.84706194 147.09484234 125.23022461 147.22094727 C118.58847343 147.33085583 111.94763271 147.40161489 105.30499738 147.42608672 C101.78967384 147.44038591 98.27695394 147.47378702 94.76246834 147.55414391 C90.83147888 147.64328838 86.90299683 147.64498607 82.97094727 147.63989258 C81.81576096 147.67944061 80.66057465 147.71898865 79.47038269 147.75973511 C74.38866779 147.68864876 71.46174381 147.44161453 67.59319878 143.97034645 C65.30547503 141.19954273 63.26632007 138.39009245 61.29101562 135.39111328 C55.26486223 127.18851035 47.37641397 121.66946766 38.41601562 117.07861328 C37.79299561 116.75328613 37.16997559 116.42795898 36.52807617 116.09277344 C26.60434685 111.22634141 16.43064822 109.84990609 5.47851562 109.95361328 C4.33995117 109.96191162 3.20138672 109.97020996 2.02832031 109.97875977 C-16.63957986 110.35227728 -32.7832124 116.87554606 -46.70898438 129.39111328 C-47.30839844 129.89771484 -47.9078125 130.40431641 -48.52539062 130.92626953 C-72.93123434 153.06706974 -77.94461448 191.0182207 -79.56835938 221.99853516 C-81.22493413 261.96340123 -82.98581985 317.68837046 -54.81054688 350.16064453 C-54.11703125 350.89669922 -53.42351562 351.63275391 -52.70898438 352.39111328 C-51.99484375 353.15810547 -51.28070313 353.92509766 -50.54492188 354.71533203 C-41.1787992 363.940493 -28.56898461 369.88940906 -15.70898438 372.39111328 C-14.84015625 372.57158203 -13.97132813 372.75205078 -13.07617188 372.93798828 C6.99404402 375.6388526 27.98122444 373.40446792 45.29101562 362.39111328 C48.89752705 359.62252775 52.12846943 356.65322112 55.29101562 353.39111328 C55.86335938 352.82779297 56.43570312 352.26447266 57.02539062 351.68408203 C64.87712652 343.36690819 67.5641953 333.29839459 70.29101562 322.39111328 C112.20101563 322.39111328 154.11101562 322.39111328 197.29101562 322.39111328 C196.63614649 328.28493549 195.9150047 333.68353719 194.50585938 339.37158203 C194.32942902 340.09852264 194.15299866 340.82546326 193.97122192 341.57443237 C193.39926069 343.91148395 192.81592564 346.24539904 192.22851562 348.57861328 C192.02749237 349.37935272 191.82646912 350.18009216 191.61935425 351.00509644 C185.12214196 376.71818565 176.59596016 400.8773466 159.29101562 421.39111328 C158.32036189 422.5755163 157.35033053 423.76042959 156.38085938 424.94580078 C126.06007004 461.60249788 83.56378919 478.65862931 37.04237366 483.18193054 C32.25387748 483.54599466 27.47038756 483.57359127 22.66992188 483.59423828 C21.58019073 483.60125259 20.49045959 483.60826691 19.3677063 483.61549377 C15.86293377 483.63293332 12.35832997 483.63934739 8.85351562 483.64111328 C7.65916901 483.64178802 6.46482239 483.64246277 5.23428345 483.64315796 C-11.92082069 483.62772409 -28.77121956 483.39259551 -45.70898438 480.39111328 C-46.73040527 480.21418945 -47.75182617 480.03726562 -48.80419922 479.85498047 C-84.45739087 473.48853545 -116.98364223 460.27463513 -143.23339844 434.81982422 C-144.59611617 433.500396 -145.97604479 432.19880569 -147.35742188 430.89892578 C-163.67733238 415.19680369 -176.2581409 395.36075157 -186.70898438 375.39111328 C-187.21075195 374.44461914 -187.21075195 374.44461914 -187.72265625 373.47900391 C-202.83749236 344.5751945 -209.71072589 311.64577287 -212.70898438 279.39111328 C-212.80324707 278.40643066 -212.89750977 277.42174805 -212.99462891 276.40722656 C-219.08033675 203.93395804 -209.56244295 124.06721348 -161.70898438 66.39111328 C-134.78990936 35.00531697 -98.7639928 14.76316887 -58.58398438 5.70361328 C-57.75809814 5.51323486 -56.93221191 5.32285645 -56.08129883 5.12670898 C-37.55897966 1.18429017 -18.89544832 -0.10946561 0 0 Z " fill="#0067B5" transform="translate(274.708984375,61.60888671875)"/>
<path d="M0 0 C42.24 0 84.48 0 128 0 C128 160.38 128 320.76 128 486 C85.76 486 43.52 486 0 486 C0 325.62 0 165.24 0 0 Z " fill="#0066B5" transform="translate(1038,62)"/>
<path d="M0 0 C6.361574 7.05795931 7.16900313 14.42682674 6.85546875 23.57421875 C6.00385201 31.782182 2.18792609 37.57807146 -3.7734375 43.12109375 C-6.18984562 45.02878437 -8.71805314 46.35117828 -11.5546875 47.52734375 C-10.84183594 47.95144531 -10.12898438 48.37554688 -9.39453125 48.8125 C1.17762791 55.28670244 7.5815674 60.98152677 11.1953125 73.02734375 C12.3591943 84.66616179 10.51665417 94.00944414 3.4453125 103.52734375 C-4.12732471 112.2324959 -15.32032331 116.1962862 -26.5546875 117.52734375 C-32.12189099 117.81794045 -37.69689136 117.77387861 -43.26977539 117.7331543 C-45.87851641 117.71476389 -48.48690364 117.71264606 -51.09570312 117.71289062 C-52.76562806 117.70797882 -54.4355506 117.70215197 -56.10546875 117.6953125 C-56.87949539 117.69419968 -57.65352203 117.69308685 -58.45100403 117.69194031 C-62.35848197 117.6577033 -65.68660582 117.30096009 -69.5546875 116.52734375 C-69.5546875 74.94734375 -69.5546875 33.36734375 -69.5546875 -9.47265625 C-47.29332935 -13.52017591 -17.98039851 -17.03168402 0 0 Z M-52.5546875 2.52734375 C-52.5546875 15.72734375 -52.5546875 28.92734375 -52.5546875 42.52734375 C-47.6665625 42.62015625 -47.6665625 42.62015625 -42.6796875 42.71484375 C-41.67437988 42.74215576 -40.66907227 42.76946777 -39.63330078 42.79760742 C-30.0951463 42.88394657 -22.16885725 41.14531642 -15.18359375 34.4140625 C-11.33871715 29.96064428 -9.9992961 25.26505355 -10.27734375 19.50390625 C-11.11323565 13.54670479 -13.78626581 9.43440565 -18.4296875 5.81640625 C-28.50549519 -0.2957565 -41.39347456 0.66714159 -52.5546875 2.52734375 Z M-52.5546875 55.52734375 C-52.5546875 71.36734375 -52.5546875 87.20734375 -52.5546875 103.52734375 C-41.12288007 105.81370524 -27.79238668 105.52752995 -17.33984375 99.796875 C-11.77469649 95.83916634 -8.15785886 90.49293628 -6.8046875 83.83984375 C-6.16509041 77.33526197 -7.4292707 71.7411447 -11.0546875 66.27734375 C-17.88033036 58.02078298 -27.39262257 56.55287324 -37.5546875 55.52734375 C-42.5046875 55.52734375 -47.4546875 55.52734375 -52.5546875 55.52734375 Z " fill="#A0A0A0" transform="translate(1595.5546875,656.47265625)"/>
<path d="M0 0 C3.39723443 3.39723443 5.84587607 7.30754295 8.375 11.375 C8.70371094 10.86710938 9.03242188 10.35921875 9.37109375 9.8359375 C14.45344697 2.48098731 20.66509369 -2.30025448 29.375 -4.625 C39.07701284 -5.53576207 48.33645451 -5.86255989 56.375 0.375 C64.97887315 7.73258786 68.38801606 17.27387372 69.375 28.375 C69.51058086 32.97821018 69.49127805 37.57874091 69.47265625 42.18359375 C69.47078833 43.51880337 69.4693662 44.85401369 69.46836853 46.18922424 C69.46457277 49.68262668 69.454768 53.17598673 69.44366455 56.66937256 C69.4333868 60.2424665 69.42885735 63.81556737 69.42382812 67.38867188 C69.41314275 74.38413362 69.39557017 81.3795604 69.375 88.375 C63.765 88.375 58.155 88.375 52.375 88.375 C52.345271 86.12212158 52.345271 86.12212158 52.31494141 83.82373047 C52.23822174 78.1914134 52.14961271 72.55933263 52.05761719 66.92724609 C52.01959921 64.50086165 51.98470176 62.07442604 51.953125 59.64794922 C53.25859866 35.51065008 53.25859866 35.51065008 44.375 14.375 C40.13055251 11.19393657 35.69813107 9.65997387 30.3828125 10.00390625 C25.45444655 10.91479101 21.81077047 12.64958386 18.57421875 16.5390625 C14.90248285 21.9196015 13.26294097 25.8385862 13.16967773 32.40698242 C13.14973251 33.64804245 13.12978729 34.88910248 13.10923767 36.16777039 C13.09225473 37.5220019 13.07537587 38.87623473 13.05859375 40.23046875 C13.03801772 41.61624259 13.01702108 43.00201025 12.99562073 44.38777161 C12.94046699 48.03240953 12.89102826 51.67710346 12.84277344 55.32183838 C12.79250944 59.0420835 12.73684896 62.76224743 12.68164062 66.48242188 C12.57414098 73.77988104 12.47317671 81.07740836 12.375 88.375 C6.765 88.375 1.155 88.375 -4.625 88.375 C-4.654729 85.97009277 -4.654729 85.97009277 -4.68505859 83.51660156 C-4.76159045 77.52279945 -4.85023198 71.52922517 -4.94238281 65.53564453 C-4.98047705 62.95007857 -5.01536264 60.36446314 -5.046875 57.77880859 C-5.09295278 54.04506848 -5.1508743 50.31166328 -5.2109375 46.578125 C-5.22248871 45.43700256 -5.23403992 44.29588013 -5.24594116 43.12017822 C-5.26387836 28.25116243 -5.26387836 28.25116243 -11.625 15.375 C-16.0617959 11.37106224 -19.3851479 9.99752542 -25.4375 10.09765625 C-30.66885789 10.7609177 -34.98128693 13.31778154 -38.4375 17.25 C-44.95603103 26.56218718 -44.78374267 35.0811826 -44.94140625 46.08984375 C-44.96218735 47.30072159 -44.98296844 48.51159943 -45.00437927 49.75917053 C-45.06953024 53.6102251 -45.12859914 57.46134527 -45.1875 61.3125 C-45.230718 63.93034521 -45.27433332 66.54818388 -45.31835938 69.16601562 C-45.42517622 75.56894393 -45.52654006 81.97193795 -45.625 88.375 C-51.235 88.375 -56.845 88.375 -62.625 88.375 C-62.625 58.345 -62.625 28.315 -62.625 -2.625 C-57.675 -2.625 -52.725 -2.625 -47.625 -2.625 C-47.39713542 -0.34635417 -47.16927083 1.93229167 -46.94140625 4.2109375 C-46.73409886 6.41772805 -46.73409886 6.41772805 -45.625 8.375 C-45.29628906 7.92769531 -44.96757812 7.48039063 -44.62890625 7.01953125 C-34.02348122 -6.4599927 -14.41866279 -8.92583887 0 0 Z " fill="#33A1DA" transform="translate(2274.625,684.625)"/>
<path d="M0 0 C1.26481201 0.00241699 1.26481201 0.00241699 2.55517578 0.00488281 C11.24306066 0.17585797 18.36855183 2.18692905 24.75 8.375 C25.74 9.695 26.73 11.015 27.75 12.375 C28.41 9.075 29.07 5.775 29.75 2.375 C34.7 2.375 39.65 2.375 44.75 2.375 C44.80986347 19.03034742 44.69326734 35.68490846 44.51428032 52.33921814 C44.46935431 56.54351042 44.43004569 60.74769606 44.40356445 64.95214844 C44.37737185 69.08621732 44.3369279 73.21992928 44.28681374 77.35377502 C44.27033422 78.9068204 44.25870382 80.4599263 44.25238609 82.01304626 C44.19026435 95.84184859 42.9561607 110.16807512 33.26953125 120.9375 C21.13681456 132.41523712 6.64523213 133.1848478 -9.2265625 132.76953125 C-17.84810002 132.34638006 -26.42022409 131.03673822 -33.25 125.375 C-32.71148032 120.09750715 -31.47656164 116.11854436 -29.25 111.375 C-27.91195312 111.89900391 -27.91195312 111.89900391 -26.546875 112.43359375 C-25.37640625 112.88863281 -24.2059375 113.34367188 -23 113.8125 C-21.83984375 114.26496094 -20.6796875 114.71742188 -19.484375 115.18359375 C-10.25405242 118.58365219 2.91851112 119.56391637 12.125 115.6875 C19.06549545 111.74309962 22.80921624 106.02205468 25.35546875 98.61328125 C25.94095219 95.29167719 25.85378467 91.9849369 25.8125 88.625 C25.80798828 87.92761719 25.80347656 87.23023438 25.79882812 86.51171875 C25.7871002 84.79944197 25.76916653 83.08720967 25.75 81.375 C25.00492188 82.14457031 24.25984375 82.91414062 23.4921875 83.70703125 C21.31827514 85.82210553 19.42254071 87.47160839 16.875 89.0625 C16.25882813 89.45824219 15.64265625 89.85398437 15.0078125 90.26171875 C5.76211712 94.82058239 -6.3164085 94.99744521 -16.125 91.9375 C-26.4594288 87.52399958 -33.93859544 78.67043818 -38.5 68.62109375 C-43.12474188 56.04757677 -43.34254932 39.85995962 -38.25 27.375 C-37.9096875 26.529375 -37.569375 25.68375 -37.21875 24.8125 C-32.10592749 13.48137984 -23.93687374 5.99660496 -12.5234375 1.23828125 C-8.29725228 0.12373837 -4.35449448 -0.00859723 0 0 Z M-16.08984375 22.49609375 C-23.20016342 32.52703373 -25.11273884 42.85721726 -23.625 55 C-21.82904099 64.9722987 -17.45766701 71.47153459 -9.25 77.375 C-3.91257593 80.31058324 1.77207983 80.65756002 7.6875 79.8125 C14.64636155 77.73032095 20.15282228 74.05253493 23.75 67.6875 C27.2037257 60.7440723 27.03925151 54.46360427 27.125 46.8125 C27.16238281 45.57435547 27.19976563 44.33621094 27.23828125 43.06054688 C27.32245685 34.22678527 26.14803342 27.06588068 19.93505859 20.43920898 C13.71141994 14.66191938 7.68071728 13.7927909 -0.66796875 13.94140625 C-7.22152082 14.73469336 -11.79225831 17.54155258 -16.08984375 22.49609375 Z " fill="#33A1DA" transform="translate(2748.25,679.625)"/>
<path d="M0 0 C1.26481201 0.00241699 1.26481201 0.00241699 2.55517578 0.00488281 C11.24306066 0.17585797 18.36855183 2.18692905 24.75 8.375 C25.74 9.695 26.73 11.015 27.75 12.375 C28.41 9.075 29.07 5.775 29.75 2.375 C34.7 2.375 39.65 2.375 44.75 2.375 C44.80986347 19.03034742 44.69326734 35.68490846 44.51428032 52.33921814 C44.46935431 56.54351042 44.43004569 60.74769606 44.40356445 64.95214844 C44.37737185 69.08621732 44.3369279 73.21992928 44.28681374 77.35377502 C44.27033422 78.9068204 44.25870382 80.4599263 44.25238609 82.01304626 C44.19026435 95.84184859 42.9561607 110.16807512 33.26953125 120.9375 C21.13681456 132.41523712 6.64523213 133.1848478 -9.2265625 132.76953125 C-17.84810002 132.34638006 -26.42022409 131.03673822 -33.25 125.375 C-32.71148032 120.09750715 -31.47656164 116.11854436 -29.25 111.375 C-27.91195312 111.89900391 -27.91195312 111.89900391 -26.546875 112.43359375 C-25.37640625 112.88863281 -24.2059375 113.34367188 -23 113.8125 C-21.83984375 114.26496094 -20.6796875 114.71742188 -19.484375 115.18359375 C-10.25405242 118.58365219 2.91851112 119.56391637 12.125 115.6875 C19.06549545 111.74309962 22.80921624 106.02205468 25.35546875 98.61328125 C25.94095219 95.29167719 25.85378467 91.9849369 25.8125 88.625 C25.80798828 87.92761719 25.80347656 87.23023438 25.79882812 86.51171875 C25.7871002 84.79944197 25.76916653 83.08720967 25.75 81.375 C25.00492188 82.14457031 24.25984375 82.91414062 23.4921875 83.70703125 C21.31827514 85.82210553 19.42254071 87.47160839 16.875 89.0625 C16.25882813 89.45824219 15.64265625 89.85398437 15.0078125 90.26171875 C5.76211712 94.82058239 -6.3164085 94.99744521 -16.125 91.9375 C-26.4594288 87.52399958 -33.93859544 78.67043818 -38.5 68.62109375 C-43.12474188 56.04757677 -43.34254932 39.85995962 -38.25 27.375 C-37.9096875 26.529375 -37.569375 25.68375 -37.21875 24.8125 C-32.10592749 13.48137984 -23.93687374 5.99660496 -12.5234375 1.23828125 C-8.29725228 0.12373837 -4.35449448 -0.00859723 0 0 Z M-16.08984375 22.49609375 C-23.20016342 32.52703373 -25.11273884 42.85721726 -23.625 55 C-21.82904099 64.9722987 -17.45766701 71.47153459 -9.25 77.375 C-3.91257593 80.31058324 1.77207983 80.65756002 7.6875 79.8125 C14.64636155 77.73032095 20.15282228 74.05253493 23.75 67.6875 C27.2037257 60.7440723 27.03925151 54.46360427 27.125 46.8125 C27.16238281 45.57435547 27.19976563 44.33621094 27.23828125 43.06054688 C27.32245685 34.22678527 26.14803342 27.06588068 19.93505859 20.43920898 C13.71141994 14.66191938 7.68071728 13.7927909 -0.66796875 13.94140625 C-7.22152082 14.73469336 -11.79225831 17.54155258 -16.08984375 22.49609375 Z " fill="#33A1DA" transform="translate(2495.25,679.625)"/>
<path d="M0 0 C5.61 0 11.22 0 17 0 C17.33 44.22 17.66 88.44 18 134 C12.72 134 7.44 134 2 134 C1.01 128.06 1.01 128.06 0 122 C-0.94875 123.216875 -1.8975 124.43375 -2.875 125.6875 C-9.49625167 133.19956264 -18.16484415 136.22861523 -28 137 C-39.70451508 137.13114303 -48.34565921 133.51324284 -56.7421875 125.40625 C-67.22907524 114.22991289 -69.5924453 101.50592608 -69.40234375 86.62255859 C-68.97802396 73.3649761 -65.49872667 61.60787184 -56.3125 51.6875 C-46.10540435 42.12941043 -35.98947733 40.51161302 -22.65625 40.7265625 C-12.8207916 41.12013671 -8.59787096 45.35186291 -1 52 C-0.67 34.84 -0.34 17.68 0 0 Z M-43.83984375 63.0859375 C-51.03735769 73.11670264 -52.86800603 84.46204159 -51.375 96.5625 C-49.84752751 105.07992939 -46.91339237 112.46176723 -39.875 117.81640625 C-33.60155245 121.77652002 -27.3677242 122.98541879 -20 122 C-12.42220033 120.11497521 -7.17334076 115.50492551 -3 109 C1.79531426 98.05767215 1.94909653 81.30971623 -2 70 C-4.82029962 63.66288953 -9.0991878 59.56764587 -15 56 C-25.70817839 52.4306072 -36.36632059 54.61277112 -43.83984375 63.0859375 Z " fill="#A0A0A0" transform="translate(2081,639)"/>
<path d="M0 0 C6.27 0 12.54 0 19 0 C22.02905998 7.3231135 24.60348356 14.69114208 26.9765625 22.25 C27.52750832 23.99069511 27.52750832 23.99069511 28.08958435 25.76655579 C29.07070264 28.87121944 30.04812658 31.97700965 31.0231514 35.08359146 C31.62710771 37.00671138 32.23251734 38.92936811 32.83834839 40.85189819 C48.17478521 89.5342265 48.17478521 89.5342265 52 105 C52.2433609 104.23831512 52.4867218 103.47663025 52.73745728 102.69186401 C58.9737645 83.20039099 65.37101171 63.7686036 71.93408203 44.38476562 C73.15529847 40.77729643 74.37042617 37.16780523 75.58426476 33.55784798 C76.54049246 30.7171004 77.50063703 27.87768811 78.4618721 25.03863144 C78.91212157 23.70682073 79.36101925 22.37455208 79.80842209 21.04178238 C82.22384257 13.85187177 84.7831322 6.8715999 88 0 C93.94 0 99.88 0 106 0 C104.63839075 6.78688583 102.68883763 13.11290013 100.31640625 19.609375 C99.94882706 20.62997513 99.58124786 21.65057526 99.20252991 22.70210266 C97.99430958 26.05327682 96.77847494 29.40163267 95.5625 32.75 C94.71544259 35.09412443 93.86893428 37.43844734 93.02294922 39.78295898 C91.70369542 43.43853066 90.38391898 47.09390682 89.06201172 50.7485199 C85.91674949 59.44575089 82.79705774 68.15183388 79.69140625 76.86328125 C78.83328903 79.26791688 77.97513524 81.67253946 77.11694336 84.07714844 C75.88125671 87.53974631 74.64630997 91.00259642 73.41409302 94.46643066 C65.57789531 116.48543169 65.57789531 116.48543169 61 127 C54.73 127 48.46 127 42 127 C38.02404195 117.5255829 34.8490648 107.81093171 31.625 98.0625 C31.00822393 96.20391029 30.39136024 94.34534966 29.77441406 92.48681641 C19.58071709 61.74232711 9.55970728 30.94790028 0 0 Z " fill="#33A1DA" transform="translate(1039,646)"/>
<path d="M0 0 C11.32273101 12.16525727 12.70422173 26.20793856 12.43359375 42.0234375 C12.18469029 48.55689522 11.16596242 54.04498921 8.125 59.875 C7.62742187 60.8340625 7.12984375 61.793125 6.6171875 62.78125 C0.69751631 73.02365783 -7.95961546 79.14453734 -19.01171875 82.95703125 C-30.40009618 85.66306633 -44.40658873 85.34237301 -54.875 79.875 C-66.53699875 72.54770996 -73.30959662 62.45376826 -76.48242188 49.05932617 C-78.93714776 35.40109701 -77.51935694 19.89966185 -70.125 8 C-62.13755806 -2.74310941 -53.0221913 -8.99391931 -39.75 -11.53125 C-25.10617542 -13.65075093 -10.94177838 -10.04819982 0 0 Z M-52.41015625 11.69140625 C-59.43804676 22.16764837 -61.03270766 34.52454656 -58.70703125 46.828125 C-56.08420897 56.4328263 -51.33305677 63.63916809 -42.875 68.859375 C-37.50095595 71.58838174 -31.20585834 71.86831918 -25.46484375 70.15625 C-17.07097706 66.68099301 -12.30548493 60.62163577 -7.875 52.875 C-3.76448322 42.10936082 -4.08845684 30.33832102 -8.1015625 19.58984375 C-11.75784416 11.70048733 -15.69836546 7.23913276 -23.1875 3 C-34.34959465 -0.40538481 -45.14916855 2.38025732 -52.41015625 11.69140625 Z " fill="#A0A0A0" transform="translate(1880.875,691.125)"/>
<path d="M0 0 C6.27 0 12.54 0 19 0 C23.73085574 12.06000531 28.32563758 24.15806077 32.77197266 36.32568359 C33.75987508 39.02700241 34.75287093 41.72641476 35.74609375 44.42578125 C36.38832759 46.1795752 37.03026551 47.93347754 37.671875 49.6875 C37.96253845 50.47624512 38.2532019 51.26499023 38.55267334 52.07763672 C40.58511338 57.65876987 42.34630481 63.29564069 44 69 C44.30591064 68.07703125 44.61182129 67.1540625 44.92700195 66.203125 C50.38076362 49.75736545 55.85177336 33.31738286 61.46444702 16.92504883 C61.94642139 15.51686102 62.42739926 14.10833176 62.90737915 12.69946289 C63.57454274 10.74259679 64.24559986 8.78711395 64.91796875 6.83203125 C65.29719482 5.72577393 65.6764209 4.6195166 66.06713867 3.47973633 C67 1 67 1 68 0 C69.34267413 -0.08631874 70.68974322 -0.10706473 72.03515625 -0.09765625 C72.84404297 -0.09443359 73.65292969 -0.09121094 74.48632812 -0.08789062 C75.33646484 -0.07951172 76.18660156 -0.07113281 77.0625 -0.0625 C77.91650391 -0.05798828 78.77050781 -0.05347656 79.65039062 -0.04882812 C81.76695663 -0.03700373 83.88348685 -0.01906769 86 0 C85.35821491 5.41788548 83.59130826 10.08646005 81.60546875 15.12109375 C81.09026421 16.44778831 81.09026421 16.44778831 80.56465149 17.80128479 C79.44444617 20.68220548 78.31616372 23.55988373 77.1875 26.4375 C76.40965408 28.4314448 75.63231386 30.42558694 74.85546875 32.41992188 C73.6836175 35.42759103 72.51116358 38.43501439 71.33627319 41.4414978 C69.04025929 47.31798558 66.76542665 53.20184054 64.51953125 59.09765625 C40.90827857 121.02580189 40.90827857 121.02580189 17.984375 131.359375 C15.32951076 132.37406133 12.76641711 133.34681818 10 134 C8 133 8 133 7.1484375 130.890625 C6.89320312 130.01921875 6.63796875 129.1478125 6.375 128.25 C6.11460938 127.38890625 5.85421875 126.5278125 5.5859375 125.640625 C5.00060132 123.00270994 4.89348264 120.69198424 5 118 C5.79664063 117.62488281 6.59328125 117.24976563 7.4140625 116.86328125 C19.34485617 111.10108528 28.06010617 103.78560756 33 91 C33.51806672 85.60774768 32.00111223 81.71141728 29.97070312 76.83911133 C29.6488353 76.04326126 29.32696747 75.24741119 28.99534607 74.42744446 C27.93349775 71.80832275 26.85728404 69.19535289 25.78125 66.58203125 C25.04032483 64.75976271 24.30047177 62.93705792 23.56164551 61.11393738 C21.61738435 56.32260006 19.66160036 51.53606052 17.70245361 46.75079346 C14.56406248 39.0818788 11.43971475 31.40726801 8.32200623 23.72992516 C7.23005449 21.04730325 6.13107333 18.36763942 5.03137207 15.68818665 C4.36377594 14.04978964 3.69640519 12.41130077 3.02929688 10.77270508 C2.7207225 10.02615662 2.41214813 9.27960815 2.09422302 8.51043701 C0.88262618 5.51964307 0 3.25940795 0 0 Z " fill="#A0A0A0" transform="translate(1712,682)"/>
<path d="M0 0 C0.59941406 0.40992188 1.19882813 0.81984375 1.81640625 1.2421875 C9.76534915 7.31978099 14.05718862 16.39387707 16 26 C16 32.27 16 38.54 16 45 C-5.12 45 -26.24 45 -48 45 C-45.79937753 59.42295088 -45.79937753 59.42295088 -37 70 C-21.84615631 78.96031294 -7.39043112 75.82443393 9 72 C9.36708396 73.39249204 9.71806563 74.78923333 10.0625 76.1875 C10.25972656 76.96480469 10.45695312 77.74210938 10.66015625 78.54296875 C11.03916297 81.28314378 10.67704634 83.33442595 10 86 C-5.1453575 91.05597627 -25.41160804 93.81499776 -40.50390625 87.37890625 C-52.05006392 81.00051242 -58.80876014 73.54866635 -63.4375 61.125 C-67.48780066 46.41416772 -66.31203158 29.62406315 -59.4921875 15.984375 C-53.28994122 5.42613249 -45.09180951 -1.44791312 -33.328125 -4.75 C-22.67306406 -7.05379696 -9.14199814 -6.49619633 0 0 Z M-40.46484375 14.1328125 C-45.2664393 19.97292108 -46.93671614 25.55701298 -48 33 C-32.16 33 -16.32 33 0 33 C-1.97849246 19.89987684 -1.97849246 19.89987684 -9.8125 10.625 C-20.08916746 5.38591463 -31.87592436 5.97029337 -40.46484375 14.1328125 Z " fill="#33A1D9" transform="translate(1450,685)"/>
<path d="M0 0 C0.59941406 0.40992188 1.19882813 0.81984375 1.81640625 1.2421875 C9.76534915 7.31978099 14.05718862 16.39387707 16 26 C16 32.27 16 38.54 16 45 C-5.12 45 -26.24 45 -48 45 C-45.79937753 59.42295088 -45.79937753 59.42295088 -37 70 C-21.84615631 78.96031294 -7.39043112 75.82443393 9 72 C9.36708396 73.39249204 9.71806563 74.78923333 10.0625 76.1875 C10.25972656 76.96480469 10.45695312 77.74210938 10.66015625 78.54296875 C11.03916297 81.28314378 10.67704634 83.33442595 10 86 C-5.1453575 91.05597627 -25.41160804 93.81499776 -40.50390625 87.37890625 C-52.05006392 81.00051242 -58.80876014 73.54866635 -63.4375 61.125 C-67.48780066 46.41416772 -66.31203158 29.62406315 -59.4921875 15.984375 C-53.28994122 5.42613249 -45.09180951 -1.44791312 -33.328125 -4.75 C-22.67306406 -7.05379696 -9.14199814 -6.49619633 0 0 Z M-40.46484375 14.1328125 C-45.2664393 19.97292108 -46.93671614 25.55701298 -48 33 C-32.16 33 -16.32 33 0 33 C-1.97849246 19.89987684 -1.97849246 19.89987684 -9.8125 10.625 C-20.08916746 5.38591463 -31.87592436 5.97029337 -40.46484375 14.1328125 Z " fill="#A0A0A0" transform="translate(1687,685)"/>
<path d="M0 0 C0.94294922 -0.02900391 1.88589844 -0.05800781 2.85742188 -0.08789062 C12.50914333 -0.17412594 20.45529451 2.59220923 27.5546875 9.24609375 C32.54713947 15.11499839 35.37924803 22.18146853 35.50195312 29.85546875 C35.51867065 30.75160889 35.53538818 31.64774902 35.5526123 32.57104492 C35.56618774 33.5376001 35.57976318 34.50415527 35.59375 35.5 C35.61215942 36.51231689 35.63056885 37.52463379 35.64953613 38.56762695 C35.70822111 41.81585921 35.76090058 45.06414801 35.8125 48.3125 C36.05748762 63.33230188 36.44947611 78.31431785 37.3125 93.3125 C32.0325 93.3125 26.7525 93.3125 21.3125 93.3125 C20.6525 90.3425 19.9925 87.3725 19.3125 84.3125 C18.85101562 84.77140625 18.38953125 85.2303125 17.9140625 85.703125 C9.96997532 93.17621887 2.97078689 95.63664232 -7.8125 95.75 C-8.56450684 95.76023193 -9.31651367 95.77046387 -10.09130859 95.78100586 C-17.94983345 95.65792053 -24.32577094 93.38000371 -30.1484375 88.0625 C-35.61488712 81.84684155 -37.06401869 74.63136112 -36.95703125 66.578125 C-36.2701716 58.25617333 -33.29014855 51.69389759 -27.0703125 46.09375 C-13.43071604 35.89759264 1.92783954 34.77692393 18.3125 35.3125 C17.02249694 25.01585703 17.02249694 25.01585703 10.765625 17.06640625 C3.81393826 12.77359115 -4.92218818 13.3332409 -12.671875 14.92578125 C-15.87016779 15.84836571 -18.82687861 16.85801455 -21.7734375 18.4140625 C-23.6875 19.3125 -23.6875 19.3125 -26.6875 19.3125 C-27.22432668 18.09023359 -27.74125532 16.85921915 -28.25 15.625 C-28.54003906 14.94050781 -28.83007812 14.25601563 -29.12890625 13.55078125 C-29.85532959 10.640008 -29.82739674 9.10547409 -28.6875 6.3125 C-25.921875 4.765625 -25.921875 4.765625 -22.4375 3.5625 C-20.72820313 2.95148437 -20.72820313 2.95148437 -18.984375 2.328125 C-12.58625716 0.35714083 -6.65346267 0.06684658 0 0 Z M-17.1875 57.875 C-19.43320055 63.0213971 -19.43047364 67.78568589 -18.6875 73.3125 C-16.94891451 77.12401433 -15.46926637 78.74047583 -12.125 81.1875 C-5.94840075 83.20893248 0.52122254 83.45702807 6.5625 80.8125 C12.26634298 77.47939011 16.28778493 72.85201126 18.75 66.75 C19.93402718 60.42245692 19.46285127 53.72748766 19.3125 47.3125 C5.77556062 46.71430464 -7.32616784 47.76713454 -17.1875 57.875 Z " fill="#33A1DA" transform="translate(2398.6875,679.6875)"/>
<path d="M0 0 C0.94294922 -0.02900391 1.88589844 -0.05800781 2.85742188 -0.08789062 C12.50914333 -0.17412594 20.45529451 2.59220923 27.5546875 9.24609375 C32.54713947 15.11499839 35.37924803 22.18146853 35.50195312 29.85546875 C35.51867065 30.75160889 35.53538818 31.64774902 35.5526123 32.57104492 C35.56618774 33.5376001 35.57976318 34.50415527 35.59375 35.5 C35.61215942 36.51231689 35.63056885 37.52463379 35.64953613 38.56762695 C35.70822111 41.81585921 35.76090058 45.06414801 35.8125 48.3125 C36.05748762 63.33230188 36.44947611 78.31431785 37.3125 93.3125 C32.0325 93.3125 26.7525 93.3125 21.3125 93.3125 C20.6525 90.3425 19.9925 87.3725 19.3125 84.3125 C18.85101562 84.77140625 18.38953125 85.2303125 17.9140625 85.703125 C9.96997532 93.17621887 2.97078689 95.63664232 -7.8125 95.75 C-8.56450684 95.76023193 -9.31651367 95.77046387 -10.09130859 95.78100586 C-17.94983345 95.65792053 -24.32577094 93.38000371 -30.1484375 88.0625 C-35.61488712 81.84684155 -37.06401869 74.63136112 -36.95703125 66.578125 C-36.2701716 58.25617333 -33.29014855 51.69389759 -27.0703125 46.09375 C-13.43071604 35.89759264 1.92783954 34.77692393 18.3125 35.3125 C17.02249694 25.01585703 17.02249694 25.01585703 10.765625 17.06640625 C3.81393826 12.77359115 -4.92218818 13.3332409 -12.671875 14.92578125 C-15.87016779 15.84836571 -18.82687861 16.85801455 -21.7734375 18.4140625 C-23.6875 19.3125 -23.6875 19.3125 -26.6875 19.3125 C-27.22432668 18.09023359 -27.74125532 16.85921915 -28.25 15.625 C-28.54003906 14.94050781 -28.83007812 14.25601563 -29.12890625 13.55078125 C-29.85532959 10.640008 -29.82739674 9.10547409 -28.6875 6.3125 C-25.921875 4.765625 -25.921875 4.765625 -22.4375 3.5625 C-20.72820312 2.95148437 -20.72820312 2.95148437 -18.984375 2.328125 C-12.58625716 0.35714083 -6.65346267 0.06684658 0 0 Z M-17.1875 57.875 C-19.43320055 63.0213971 -19.43047364 67.78568589 -18.6875 73.3125 C-16.94891451 77.12401433 -15.46926637 78.74047583 -12.125 81.1875 C-5.94840075 83.20893248 0.52122254 83.45702807 6.5625 80.8125 C12.26634298 77.47939011 16.28778493 72.85201126 18.75 66.75 C19.93402718 60.42245692 19.46285127 53.72748766 19.3125 47.3125 C5.77556062 46.71430464 -7.32616784 47.76713454 -17.1875 57.875 Z " fill="#33A1DA" transform="translate(1180.6875,679.6875)"/>
<path d="M0 0 C1.9921875 1.12109375 1.9921875 1.12109375 3.875 2.4375 C4.93074219 3.16646484 4.93074219 3.16646484 6.0078125 3.91015625 C13.97521582 10.12825884 17.39493102 18.6072373 18.875 28.4375 C19.13880124 33.32470689 19.10901459 38.20527076 19.0703125 43.09765625 C19.06657474 44.4972666 19.06373138 45.89687961 19.06173706 47.29649353 C19.05416061 50.95103387 19.03456486 54.60541108 19.0123291 58.2598877 C18.99174041 62.00070999 18.98270771 65.74155906 18.97265625 69.48242188 C18.95131222 76.80086365 18.91618024 84.11913803 18.875 91.4375 C13.265 91.4375 7.655 91.4375 1.875 91.4375 C1.845271 89.12347168 1.845271 89.12347168 1.81494141 86.76269531 C1.73837937 80.99252081 1.649743 75.22258198 1.55761719 69.45263672 C1.51953523 66.96407758 1.48464769 64.47546728 1.453125 61.98681641 C1.40702001 58.39206766 1.34910367 54.79766486 1.2890625 51.203125 C1.27751129 50.10575012 1.26596008 49.00837524 1.25405884 47.87774658 C1.06028805 32.33065385 1.06028805 32.33065385 -5.125 18.4375 C-10.30782732 14.39489469 -15.55161373 13.04564389 -22.125 13.4375 C-28.38123671 14.83801249 -32.83806774 17.39122232 -36.87109375 22.36328125 C-41.48131628 29.98953721 -41.59257231 36.42845941 -41.63671875 45.24609375 C-41.65358663 46.58132049 -41.67173968 47.91653155 -41.69111633 49.25172424 C-41.73839432 52.74505717 -41.76834632 56.23832652 -41.79455566 59.73187256 C-41.82447418 63.3051 -41.87096533 66.87810885 -41.91601562 70.45117188 C-42.00179556 77.44650419 -42.06771849 84.44187683 -42.125 91.4375 C-47.735 91.4375 -53.345 91.4375 -59.125 91.4375 C-59.25705062 82.67334244 -59.38772646 73.90916709 -59.51615143 65.14495564 C-59.57587142 61.07294279 -59.63613406 57.00093966 -59.69775391 52.92895508 C-59.96216601 35.43114854 -60.21773799 17.9379312 -60.125 0.4375 C-55.175 0.4375 -50.225 0.4375 -45.125 0.4375 C-43.90806124 2.87137753 -43.80540104 4.85588846 -43.5625 7.5625 C-43.43681641 8.92761719 -43.43681641 8.92761719 -43.30859375 10.3203125 C-43.24800781 11.01898437 -43.18742187 11.71765625 -43.125 12.4375 C-42.54105469 11.65826172 -42.54105469 11.65826172 -41.9453125 10.86328125 C-32.40216009 -1.03267602 -14.46231993 -5.95806842 0 0 Z " fill="#33A1DA" transform="translate(2669.125,681.5625)"/>
<path d="M0 0 C1.9921875 1.12109375 1.9921875 1.12109375 3.875 2.4375 C4.93074219 3.16646484 4.93074219 3.16646484 6.0078125 3.91015625 C13.97521582 10.12825884 17.39493102 18.6072373 18.875 28.4375 C19.13880124 33.32470689 19.10901459 38.20527076 19.0703125 43.09765625 C19.06657474 44.4972666 19.06373138 45.89687961 19.06173706 47.29649353 C19.05416061 50.95103387 19.03456486 54.60541108 19.0123291 58.2598877 C18.99174041 62.00070999 18.98270771 65.74155906 18.97265625 69.48242188 C18.95131222 76.80086365 18.91618024 84.11913803 18.875 91.4375 C13.265 91.4375 7.655 91.4375 1.875 91.4375 C1.845271 89.12347168 1.845271 89.12347168 1.81494141 86.76269531 C1.73837937 80.99252081 1.649743 75.22258198 1.55761719 69.45263672 C1.51953523 66.96407758 1.48464769 64.47546728 1.453125 61.98681641 C1.40702001 58.39206766 1.34910367 54.79766486 1.2890625 51.203125 C1.27751129 50.10575012 1.26596008 49.00837524 1.25405884 47.87774658 C1.06028805 32.33065385 1.06028805 32.33065385 -5.125 18.4375 C-10.30782732 14.39489469 -15.55161373 13.04564389 -22.125 13.4375 C-28.38123671 14.83801249 -32.83806774 17.39122232 -36.87109375 22.36328125 C-41.48131628 29.98953721 -41.59257231 36.42845941 -41.63671875 45.24609375 C-41.65358663 46.58132049 -41.67173968 47.91653155 -41.69111633 49.25172424 C-41.73839432 52.74505717 -41.76834632 56.23832652 -41.79455566 59.73187256 C-41.82447418 63.3051 -41.87096533 66.87810885 -41.91601562 70.45117188 C-42.00179556 77.44650419 -42.06771849 84.44187683 -42.125 91.4375 C-47.735 91.4375 -53.345 91.4375 -59.125 91.4375 C-59.25705062 82.67334244 -59.38772646 73.90916709 -59.51615143 65.14495564 C-59.57587142 61.07294279 -59.63613406 57.00093966 -59.69775391 52.92895508 C-59.96216601 35.43114854 -60.21773799 17.9379312 -60.125 0.4375 C-55.175 0.4375 -50.225 0.4375 -45.125 0.4375 C-43.90806124 2.87137753 -43.80540104 4.85588846 -43.5625 7.5625 C-43.43681641 8.92761719 -43.43681641 8.92761719 -43.30859375 10.3203125 C-43.24800781 11.01898437 -43.18742187 11.71765625 -43.125 12.4375 C-42.54105469 11.65826172 -42.54105469 11.65826172 -41.9453125 10.86328125 C-32.40216009 -1.03267602 -14.46231993 -5.95806842 0 0 Z " fill="#A0A0A0" transform="translate(1973.125,681.5625)"/>
<path d="M0 0 C5.61 0 11.22 0 17 0 C17.01981934 1.47162598 17.03963867 2.94325195 17.06005859 4.45947266 C17.13679793 9.97997607 17.22540346 15.50023905 17.31738281 21.02050781 C17.35539283 23.39838881 17.39029149 25.77632184 17.421875 28.15429688 C16.40137374 51.62561216 16.40137374 51.62561216 24 73 C28.72124822 77.38401621 33.73262518 78.22383482 40 78 C46.3860798 76.89292412 51.99077065 73.02264874 56 68 C59.4893651 60.77241501 59.47183897 54.02696675 59.51171875 46.09375 C59.52859218 44.75995255 59.54674595 43.42617075 59.56611633 42.09240723 C59.61333418 38.60730887 59.64332472 35.12227395 59.66955566 31.63696289 C59.69950496 28.07034785 59.74598531 24.50395087 59.79101562 20.9375 C59.8767269 13.95844362 59.94268322 6.9793468 60 0 C65.61 0 71.22 0 77 0 C77.13205062 8.76415756 77.26272646 17.52833291 77.39115143 26.29254436 C77.45087142 30.36455721 77.51113406 34.43656034 77.57275391 38.50854492 C77.83716601 56.00635146 78.09273799 73.4995688 78 91 C73.05 91 68.1 91 63 91 C61.78306124 88.56612247 61.68040104 86.58161154 61.4375 83.875 C61.35371094 82.96492187 61.26992187 82.05484375 61.18359375 81.1171875 C61.12300781 80.41851563 61.06242187 79.71984375 61 79 C60.61070313 79.51949219 60.22140625 80.03898438 59.8203125 80.57421875 C54.59391339 87.08915404 48.86852734 90.37715755 41 93 C21.68629758 94.17578428 21.68629758 94.17578428 14 89 C12.948125 88.34 11.89625 87.68 10.8125 87 C3.17176902 80.08290371 0.35019923 68.62717594 -0.17370605 58.71278381 C-0.23025804 54.96053718 -0.22500523 51.21348974 -0.1953125 47.4609375 C-0.19157337 46.08517667 -0.18873066 44.70941315 -0.18673706 43.33364868 C-0.17917132 39.74652503 -0.15958531 36.15956833 -0.1373291 32.57250977 C-0.11671681 28.89862322 -0.10770275 25.22470919 -0.09765625 21.55078125 C-0.07633122 14.36710327 -0.04120852 7.18359648 0 0 Z " fill="#33A1DA" transform="translate(1287,682)"/>
<path d="M0 0 C5.61 0 11.22 0 17 0 C17 44.22 17 88.44 17 134 C11.39 134 5.78 134 0 134 C0 89.78 0 45.56 0 0 Z " fill="#33A1D9" transform="translate(1243,639)"/>
<path d="M0 0 C5.61 0 11.22 0 17 0 C17 41.91 17 83.82 17 127 C11.39 127 5.78 127 0 127 C0 85.09 0 43.18 0 0 Z " fill="#33A1DA" transform="translate(2166,646)"/>
<path d="M0 0 C5.61 0 11.22 0 17 0 C17 30.03 17 60.06 17 91 C11.39 91 5.78 91 0 91 C0 60.97 0 30.94 0 0 Z " fill="#33A1DA" transform="translate(2565,682)"/>
<path d="M0 0 C3.125 1.8125 3.125 1.8125 5 5 C5.85217965 9.40623123 6.27509479 13.8346572 3.92578125 17.82421875 C1.23972356 20.39253145 -1.46131381 21.315499 -5.0625 21.5 C-8.99815028 21.00023489 -10.96573718 20.49880468 -14 18 C-16.56632517 14.57823311 -16.36435051 11.15359579 -16 7 C-12.57491987 -0.33945742 -7.48613085 -1.09669433 0 0 Z " fill="#33A1DA" transform="translate(2578,646)"/>
</svg>
