<?xml version="1.0" encoding="UTF-8"?>
<svg version="1.1" xmlns="http://www.w3.org/2000/svg" width="900" height="900">
<path d="M0 0 C297 0 594 0 900 0 C900 297 900 594 900 900 C603 900 306 900 0 900 C0 603 0 306 0 0 Z " fill="#FEFEFE" transform="translate(0,0)"/>
<path d="M0 0 C1.12664062 0.350625 2.25328125 0.70125 3.4140625 1.0625 C18.27348576 6.26872129 30.03077078 14.91391645 41 26 C42.23363281 27.20076172 42.23363281 27.20076172 43.4921875 28.42578125 C60.42625141 45.85790587 66.66089194 69.19635323 66.47192383 92.89624023 C65.81417775 118.60239867 56.61445879 140.11812787 39 159 C18.84338094 177.98855347 -5.42726432 186.81648371 -32.8425293 186.60009766 C-41.65131887 186.30594195 -55.88469253 185.71017048 -62.72314453 179.41333008 C-63.14450684 178.94693115 -63.56586914 178.48053223 -64 178 C-63.2874707 177.70359619 -62.57494141 177.40719238 -61.84082031 177.10180664 C-54.13767016 173.89507387 -46.4398356 170.67603474 -38.75 167.4375 C-37.07164063 166.73463867 -37.07164063 166.73463867 -35.359375 166.01757812 C-30.6431667 164.02931814 -25.98510901 162.04248735 -21.453125 159.66015625 C-18 158 -18 158 -14 158 C-14 157.34 -14 156.68 -14 156 C-12.87464844 155.65388672 -12.87464844 155.65388672 -11.7265625 155.30078125 C-5.63613736 153.36012941 0.01995695 151.18510914 5.6484375 148.1484375 C8 147 8 147 14 145 C14.33 111.01 14.66 77.02 15 42 C11.7 41.01 8.4 40.02 5 39 C2.05209941 37.89940661 -0.86401513 36.77694673 -3.77734375 35.59375 C-4.57861694 35.27239075 -5.37989014 34.95103149 -6.20544434 34.61993408 C-8.78454669 33.58424676 -11.3610701 32.54231552 -13.9375 31.5 C-15.72587042 30.7799693 -17.51436432 30.06024524 -19.30297852 29.34082031 C-23.72308939 27.56139751 -28.14089695 25.77634572 -32.55761719 23.98852539 C-34.82321465 23.07155177 -37.08925301 22.15567867 -39.35546875 21.24023438 C-43.05088904 19.74695704 -46.74462011 18.24955057 -50.4375 16.75 C-51.49380615 16.32138672 -52.5501123 15.89277344 -53.63842773 15.45117188 C-59.47407248 13.07048485 -65.25932539 10.60164969 -71 8 C-70 5 -70 5 -68.2409668 4.04858398 C-67.48468994 3.78376221 -66.72841309 3.51894043 -65.94921875 3.24609375 C-65.11205322 2.94968994 -64.2748877 2.65328613 -63.41235352 2.34790039 C-62.51315186 2.04746826 -61.6139502 1.74703613 -60.6875 1.4375 C-59.76831787 1.1273999 -58.84913574 0.8172998 -57.90209961 0.49780273 C-38.84632587 -5.77684374 -19.162452 -6.01253039 0 0 Z " fill="#167DBC" transform="translate(159,352)"/>
<path d="M0 0 C0.78226959 -0.0065712 1.56453918 -0.0131424 2.37051392 -0.01991272 C4.97438649 -0.03971089 7.57820093 -0.05132898 10.18212891 -0.0612793 C11.07215229 -0.06535482 11.96217567 -0.06943035 12.87916946 -0.07362938 C17.59913147 -0.09452797 22.31906417 -0.10880746 27.0390625 -0.11816406 C31.89546485 -0.12917517 36.7514022 -0.16350214 41.60764122 -0.20333576 C45.35512078 -0.22961451 49.10249212 -0.23786634 52.85005569 -0.24144554 C54.63845549 -0.24629051 56.42685114 -0.25784427 58.21516037 -0.27648354 C70.16158667 -0.39315578 82.03745676 -0.18872857 91.53369141 8.17700195 C96.23978046 13.82180557 97.35051525 19.43093435 97.09228516 26.66137695 C96.24943473 35.01591277 94.05056156 43.21664802 92.11181641 51.3684082 C90.90418011 56.45661102 89.88881669 61.54325736 88.98681641 66.69311523 C86.47920057 80.78494345 80.83026399 89.23103421 69.84619141 98.42700195 C58.08814041 104.63880248 46.83681343 104.72172115 33.88916016 104.56762695 C32.02444572 104.56014968 30.15972333 104.55446379 28.29499817 104.55047607 C23.43038538 104.53533661 18.56626423 104.49615823 13.70184326 104.45166016 C8.72073005 104.41045263 3.73953598 104.39241109 -1.24169922 104.37231445 C-10.98344952 104.32965048 -20.72483789 104.26154411 -30.46630859 104.17700195 C-30.16792949 101.96061319 -29.86433724 99.74492589 -29.55859375 97.52954102 C-29.39009918 96.29560608 -29.22160461 95.06167114 -29.04800415 93.79034424 C-28.38990664 89.70241275 -27.36671466 85.83140824 -26.21142578 81.86254883 C-24.89276705 77.10984697 -24.01997178 72.26818538 -23.09130859 67.42700195 C-20.7193999 55.30340373 -18.12205786 43.24169148 -15.46630859 31.17700195 C-4.90630859 31.17700195 5.65369141 31.17700195 16.53369141 31.17700195 C15.89582142 36.27996181 15.22147625 41.11219821 14.20166016 46.1184082 C14.07236618 46.75412247 13.9430722 47.38983673 13.80986023 48.04481506 C12.23069216 55.7508952 10.53964045 63.43290462 8.84619141 71.11450195 C8.52249553 72.58778109 8.19892727 74.06108827 7.87548828 75.53442383 C7.09635178 79.08227253 6.31551875 82.62974512 5.53369141 86.17700195 C10.55126327 86.10791778 15.56801821 86.01985176 20.58496094 85.91455078 C22.28994653 85.88139559 23.99503939 85.85333458 25.70019531 85.83056641 C28.15817774 85.79684627 30.61518547 85.74452401 33.07275391 85.6887207 C33.82924225 85.68233078 34.58573059 85.67594086 35.36514282 85.6693573 C42.18534791 85.48193349 47.71187391 83.13069822 52.53369141 78.17700195 C53.7604577 75.40413266 54.42765188 72.56530735 55.09619141 69.61450195 C55.40133667 68.36769653 55.40133667 68.36769653 55.71264648 67.09570312 C57.52160294 59.58391087 59.11183671 52.02003101 60.63916016 44.4465332 C61.22777277 41.55024293 61.89379452 38.68839584 62.62744141 35.82543945 C63.79080927 31.14188089 64.28206003 27.91006613 62.34619141 23.42700195 C60.16568905 20.72017145 58.83208653 20.20827724 55.53369141 19.17700195 C52.281102 18.85176502 52.281102 18.85176502 48.72387695 18.8581543 C48.05990402 18.84810867 47.39593109 18.83806305 46.71183777 18.82771301 C44.53137018 18.79698246 42.3510248 18.77987456 40.17041016 18.76293945 C38.65296891 18.74421961 37.13553799 18.72464558 35.61811829 18.70425415 C31.63485814 18.65301305 27.65156428 18.61334459 23.66815186 18.57611084 C19.59915887 18.53602074 15.53030518 18.48495128 11.46142578 18.43481445 C3.48560962 18.33815021 -4.49027571 18.25371525 -12.46630859 18.17700195 C-11.88434776 13.9278137 -11.22846211 9.90400087 -9.96630859 5.80200195 C-9.70849609 4.94864258 -9.45068359 4.0952832 -9.18505859 3.21606445 C-7.63460615 -1.18250171 -4.05879676 0.01463192 0 0 Z " fill="#0E70A8" transform="translate(281.46630859375,418.822998046875)"/>
<path d="M0 0 C1.06548569 -0.00953201 2.13097137 -0.01906403 3.22874451 -0.02888489 C4.3869722 -0.02797348 5.54519989 -0.02706207 6.73852539 -0.02612305 C8.52632164 -0.03255074 8.52632164 -0.03255074 10.35023499 -0.03910828 C12.88143275 -0.04486365 15.41264705 -0.04534301 17.94384766 -0.04101562 C21.78911308 -0.03788018 25.63359095 -0.06121505 29.47875977 -0.08666992 C31.94034734 -0.08894545 34.40193698 -0.08964524 36.86352539 -0.08862305 C38.57353981 -0.10243767 38.57353981 -0.10243767 40.31809998 -0.11653137 C49.74265595 -0.06286468 59.48649062 0.92135161 66.89868164 7.2746582 C72.83403022 14.34208962 73.50848569 20.15796624 72.89868164 29.2746582 C72.0789282 35.18240572 70.77169683 41.00835999 69.52368164 46.8371582 C69.2022472 48.37533564 68.88192871 49.91374671 68.56274414 51.45239258 C68.09672862 53.69814458 67.62994291 55.94369391 67.15847778 58.18830872 C66.16222393 62.94080182 65.25909583 67.7022333 64.4128418 72.48388672 C63.30497146 78.49721331 62.02264805 84.47687379 60.77368164 90.4621582 C59.82493164 95.0202832 58.87618164 99.5784082 57.89868164 104.2746582 C47.66868164 104.2746582 37.43868164 104.2746582 26.89868164 104.2746582 C28.02467785 94.14069236 28.02467785 94.14069236 28.87915039 89.7277832 C29.070979 88.73198242 29.26280762 87.73618164 29.46044922 86.71020508 C29.66694092 85.65897461 29.87343262 84.60774414 30.08618164 83.5246582 C30.30105225 82.41155273 30.51592285 81.29844727 30.73730469 80.15161133 C31.95175761 73.913523 33.22579091 67.69069774 34.56274414 61.4777832 C34.83707275 60.19226563 35.11140137 58.90674805 35.39404297 57.58227539 C35.92637432 55.10177352 36.4674478 52.62312658 37.01855469 50.14672852 C39.14339903 40.29412468 39.14339903 40.29412468 38.89868164 30.2746582 C36.58745983 26.80782548 35.79984019 26.42977917 31.89868164 25.2746582 C26.35502176 24.35806848 20.40305032 23.97648578 14.89868164 25.2746582 C11.525068 27.91186738 10.5092514 31.38707604 8.89868164 35.2746582 C7.41243313 37.96651485 5.80543233 40.58321824 4.21118164 43.2121582 C3.33343851 44.69882329 2.45849686 46.1871455 1.58618164 47.67700195 C1.14145508 48.43609863 0.69672852 49.19519531 0.23852539 49.97729492 C-1.50727384 52.97072982 -3.23638882 55.97361509 -4.96533203 58.97680664 C-9.88692592 67.52173225 -14.9029786 76.00638578 -19.97631836 84.4621582 C-20.60691162 85.51338867 -21.23750488 86.56461914 -21.88720703 87.64770508 C-23.08259391 89.63528876 -24.29466687 91.61295872 -25.52539062 93.57885742 C-27.13887416 96.17429298 -27.13887416 96.17429298 -28.06591797 98.77124023 C-29.14942508 101.34673862 -29.83254836 102.61557678 -32.10131836 104.2746582 C-37.73427318 105.26896487 -43.22104884 105.0269034 -48.91381836 104.7746582 C-50.48078542 104.73450862 -52.04785058 104.69801035 -53.61499023 104.6652832 C-57.44619228 104.57732319 -61.27268168 104.43942615 -65.10131836 104.2746582 C-63.92957108 100.49439039 -62.63820349 97.17490038 -60.58959961 93.7902832 C-59.8353772 92.53139282 -59.8353772 92.53139282 -59.06591797 91.24707031 C-58.5207251 90.34867432 -57.97553223 89.45027832 -57.41381836 88.5246582 C-56.23287328 86.55275456 -55.05323984 84.58006493 -53.87475586 82.60668945 C-52.94808105 81.05715576 -52.94808105 81.05715576 -52.00268555 79.47631836 C-48.79967996 74.08286494 -45.66831704 68.64849384 -42.53881836 63.2121582 C-41.90782227 62.11726074 -41.27682617 61.02236328 -40.62670898 59.89428711 C-37.70762054 54.82353828 -34.79775312 49.74777002 -31.90600586 44.66137695 C-25.54354201 33.47094392 -19.02028961 22.3940061 -12.35522461 11.38110352 C-11.1645185 9.38082853 -10.01843546 7.36112274 -8.88256836 5.3293457 C-6.21781508 0.75952757 -5.15591109 0.0252864 0 0 Z " fill="#1073AF" transform="translate(438.101318359375,418.725341796875)"/>
<path d="M0 0 C10.23 0 20.46 0 31 0 C30.11742178 6.17804757 29.18176126 12.33947928 28.1875 18.5 C28.03474609 19.48742187 27.88199219 20.47484375 27.72460938 21.4921875 C26.80348812 27.15726525 25.60740401 32.64124617 24.08203125 38.17578125 C21.97492392 45.84645576 20.40499133 53.56478857 18.93438721 61.37948608 C18.49047325 63.73811812 18.03981977 66.09537775 17.58740234 68.45239258 C16.99198306 71.55639634 16.39864223 74.66078156 15.80761719 77.765625 C14.764114 83.24301959 13.70391461 88.71696886 12.625 94.1875 C12.46966797 94.99340576 12.31433594 95.79931152 12.15429688 96.62963867 C11.11525553 101.88474447 11.11525553 101.88474447 10 103 C5.99694331 103.33946098 1.98990979 103.39978111 -2.02612305 103.45996094 C-4.03055245 103.49937185 -6.03399833 103.5813788 -8.03710938 103.6640625 C-18.96160951 103.81831666 -18.96160951 103.81831666 -23.6484375 99.77734375 C-24.80042441 98.5499874 -25.92204592 97.29286211 -27 96 C-27.82628906 95.14535156 -28.65257812 94.29070312 -29.50390625 93.41015625 C-30.18324219 92.63542969 -30.86257813 91.86070312 -31.5625 91.0625 C-32.31144531 90.21300781 -33.06039062 89.36351562 -33.83203125 88.48828125 C-34.54746094 87.66714844 -35.26289062 86.84601563 -36 86 C-36.64324219 85.27167969 -37.28648437 84.54335938 -37.94921875 83.79296875 C-39.64342471 81.87090863 -41.32403432 79.93796528 -43 78 C-43.50917969 77.41992188 -44.01835938 76.83984375 -44.54296875 76.2421875 C-48 72.23319328 -48 72.23319328 -48 70 C-52.50539372 71.26714199 -55.1936319 73.81440932 -58.5703125 76.87890625 C-61.41139838 79.35914681 -64.37502403 81.65537387 -67.375 83.9375 C-72.13617339 87.56310026 -76.84081036 91.24424826 -81.48828125 95.015625 C-82.31714844 95.67046875 -83.14601563 96.3253125 -84 97 C-84.49226074 97.51320801 -84.98452148 98.02641602 -85.49169922 98.55517578 C-91.0722745 103.7755153 -96.84180759 103.67904659 -104.078125 103.52734375 C-105.55210612 103.47722839 -107.02606447 103.42643893 -108.5 103.375 C-110.0051549 103.34485801 -111.51036803 103.31748966 -113.015625 103.29296875 C-116.6783068 103.2273173 -120.33877611 103.12403382 -124 103 C-123.74035615 101.39484331 -123.46359791 99.79244898 -123.1796875 98.19140625 C-123.02741699 97.29881104 -122.87514648 96.40621582 -122.71826172 95.48657227 C-121.47804109 91.19301443 -118.5561902 89.4499588 -115 87 C-113.18371335 85.65091646 -111.37161659 84.29618348 -109.5625 82.9375 C-108.53125 82.17179687 -107.5 81.40609375 -106.4375 80.6171875 C-102.56320675 77.70015246 -98.81411569 74.63473154 -95.0625 71.5625 C-89.11238531 66.69043271 -83.08529165 61.94715261 -76.97265625 57.28125 C-68.87526601 51.23286455 -68.87526601 51.23286455 -61.5390625 44.3359375 C-56.82321166 40.42809151 -50.64628188 40.95877679 -44.8125 40.9375 C-43.59900879 40.93057129 -42.38551758 40.92364258 -41.13525391 40.91650391 C-34.67712846 41.12889049 -29.92532294 41.51791572 -25.22924805 46.20532227 C-22.72849801 49.28854374 -20.7788943 52.44221141 -19 56 C-16.69 56 -14.38 56 -12 56 C-5.92788608 28.01540068 -5.92788608 28.01540068 0 0 Z " fill="#0D72AC" transform="translate(645,420)"/>
<path d="M0 0 C35.97 0 71.94 0 109 0 C108.40353033 5.36822699 107.80468306 10.66897475 107 16 C106.835 17.11375 106.67 18.2275 106.5 19.375 C106 22 106 22 105 23 C102.56700213 23.12492389 100.16095077 23.18601507 97.72631836 23.20532227 C96.58493156 23.22017166 96.58493156 23.22017166 95.42048645 23.23532104 C92.8936377 23.26702624 90.36677012 23.2917289 87.83984375 23.31640625 C86.09248859 23.33696801 84.34513849 23.35796426 82.59779358 23.37937927 C77.98973682 23.43468041 73.38163459 23.48405408 68.77349854 23.53222656 C64.07486911 23.58238303 59.37630606 23.63809958 54.67773438 23.69335938 C45.45187956 23.80103924 36.22596722 23.90246223 27 24 C26.36111271 26.35475603 25.72507017 28.71022197 25.09057617 31.06616211 C24.8226186 32.05206455 24.8226186 32.05206455 24.54924774 33.05788422 C22.8184274 39.50065068 21.52175571 46.0029682 20.3125 52.5625 C20.10044922 53.68462891 19.88839844 54.80675781 19.66992188 55.96289062 C19.10350395 58.97366099 18.54237561 61.98480784 18 65 C17.68957764 65.96413818 17.37915527 66.92827637 17.05932617 67.92163086 C16.98174893 71.94702761 17.89342088 73.71155926 20.66265869 76.59255981 C25.95595581 79.77994158 32.67587407 78.96316239 38.6796875 78.90234375 C40.21813057 78.91173439 41.75655769 78.92419563 43.29495239 78.93959045 C47.3295881 78.97176161 51.36308501 78.96239486 55.39776611 78.94421387 C59.52051159 78.93304029 63.6429679 78.96137435 67.765625 78.98632812 C75.8439872 79.02943044 83.92157497 79.02862859 92 79 C91.03137596 87.0110906 89.86750338 94.44021836 87 102 C75.77757504 102.09277991 64.55524169 102.16380571 53.33251095 102.20724869 C48.12103136 102.22810175 42.90981464 102.25637792 37.69848633 102.30175781 C32.66695645 102.34529663 27.63567905 102.36915426 22.6039753 102.37950897 C20.68666168 102.3868859 18.7693615 102.4012914 16.85215569 102.42292023 C14.16147133 102.4520611 11.47182325 102.45595156 8.78100586 102.45410156 C7.99265854 102.46848267 7.20431122 102.48286377 6.39207458 102.49768066 C-0.11452391 102.44944044 -4.28222731 100.49005403 -9.14453125 96.03515625 C-9.69496094 95.38417969 -10.24539063 94.73320313 -10.8125 94.0625 C-11.37582031 93.41410156 -11.93914063 92.76570312 -12.51953125 92.09765625 C-17.42570092 85.14617046 -16.69722123 76.93930213 -15.55383301 68.8392334 C-14.9417529 65.6397295 -14.24837753 62.47087622 -13.515625 59.296875 C-13.25875916 58.1348053 -13.00189331 56.9727356 -12.73724365 55.77545166 C-11.92094147 52.09731038 -11.08576047 48.42376286 -10.25 44.75 C-9.7044951 42.30366027 -9.16021495 39.8570471 -8.6171875 37.41015625 C-5.83403449 24.91809631 -2.93151801 12.45895154 0 0 Z " fill="#066397" transform="translate(698,420)"/>
<path d="M0 0 C8.415 1.98 8.415 1.98 17 4 C20.07828125 4.71736328 20.07828125 4.71736328 23.21875 5.44921875 C24.97919396 5.86186273 26.73961171 6.27461858 28.5 6.6875 C29.41652344 6.89955078 30.33304687 7.11160156 31.27734375 7.33007812 C32.57865234 7.63655273 32.57865234 7.63655273 33.90625 7.94921875 C34.67259766 8.12799561 35.43894531 8.30677246 36.22851562 8.4909668 C38 9 38 9 39 10 C39.09507821 12.58639038 39.12556376 15.1459856 39.11352539 17.73266602 C39.11367142 18.5423584 39.11381744 19.35205078 39.1139679 20.1862793 C39.11326854 22.87551508 39.1054751 25.56468249 39.09765625 28.25390625 C39.09579215 30.11335716 39.09436821 31.97280856 39.09336853 33.83226013 C39.08954271 38.73629096 39.07971188 43.64029236 39.06866455 48.54431152 C39.05845181 53.54451092 39.05387121 58.54471506 39.04882812 63.54492188 C39.03808967 73.36329421 39.02101248 83.18164466 39 93 C38.21052979 93.32620331 37.42105957 93.65240662 36.60766602 93.98849487 C22.05806673 100.00144485 7.51065404 106.01849734 -7 112.125 C-8.96478764 112.95140808 -10.92967806 113.77756956 -12.89477539 114.60324097 C-14.61236215 115.32497662 -16.32963243 116.04746531 -18.046875 116.77001953 C-19.02140625 117.17591309 -19.9959375 117.58180664 -21 118 C-21.91056152 118.38833008 -22.82112305 118.77666016 -23.75927734 119.17675781 C-26.39438763 120.14489813 -27.43182027 120.06743273 -30 119 C-34.98008095 115.61172575 -39.53760244 110.92091668 -43 106 C-43 105.34 -43 104.68 -43 104 C-36.61663456 100.98240906 -30.12474733 98.59411151 -23.46020508 96.29370117 C-18.04286929 94.40907283 -12.76488791 92.29764338 -7.515625 89.98046875 C-5 89 -5 89 0 88 C0 58.96 0 29.92 0 0 Z " fill="#107AB9" transform="translate(98,395)"/>
<path d="M0 0 C9.9 0 19.8 0 30 0 C29.3153748 6.846252 28.46913056 13.28241457 27.0390625 19.9609375 C26.84782806 20.87275787 26.65659363 21.78457825 26.45956421 22.72402954 C26.05690429 24.63880879 25.65173139 26.55306117 25.24414062 28.46679688 C24.62830335 31.35948362 24.0205173 34.25377076 23.4140625 37.1484375 C20.21025142 52.36402033 20.21025142 52.36402033 18.44140625 59.1484375 C16.30787329 67.42364542 14.87009558 75.85175503 13.3125 84.25 C12.98926386 85.97792664 12.6656985 87.70579173 12.34179688 89.43359375 C11.55740581 93.62169686 10.77745639 97.81060428 10 102 C6.58248347 103.13917218 3.96512063 103.11338481 0.36328125 103.09765625 C-1.58481445 103.09282227 -1.58481445 103.09282227 -3.57226562 103.08789062 C-4.94401108 103.07953531 -6.31575587 103.07107037 -7.6875 103.0625 C-9.07096195 103.05748335 -10.45442563 103.05292073 -11.83789062 103.04882812 C-15.22530395 103.03702529 -18.61263033 103.02056019 -22 103 C-20.70575318 94.80632098 -19.1547767 86.7023068 -17.390625 78.59765625 C-17.1430545 77.44868362 -16.89548401 76.299711 -16.64041138 75.11592102 C-15.84605273 71.43091474 -15.04806169 67.74670589 -14.25 64.0625 C-13.16246179 59.02508398 -12.07695118 53.98723291 -10.9921875 48.94921875 C-10.72882599 47.72688538 -10.46546448 46.504552 -10.19412231 45.24517822 C-8.74985592 38.52974134 -7.32356199 31.81133719 -5.9453125 25.08203125 C-5.80371704 24.39079666 -5.66212158 23.69956207 -5.51623535 22.98738098 C-4.90442521 19.99163293 -4.29904533 16.99470451 -3.70019531 13.99633789 C-3.49749023 12.99465576 -3.29478516 11.99297363 -3.0859375 10.9609375 C-2.8391626 9.72029541 -2.8391626 9.72029541 -2.58740234 8.45458984 C-1.90147814 5.58830475 -0.93199154 2.79597461 0 0 Z " fill="#0D70A9" transform="translate(826,420)"/>
<path d="M0 0 C1.25159912 0.00523682 2.50319824 0.01047363 3.79272461 0.01586914 C4.78942421 0.01799156 4.78942421 0.01799156 5.80625916 0.02015686 C7.93590735 0.02577021 10.06545175 0.03832485 12.19506836 0.05102539 C13.63582205 0.05603868 15.07657739 0.06060188 16.51733398 0.06469727 C20.05577938 0.07574394 23.59416375 0.09301747 27.13256836 0.11352539 C26.45260481 6.02734067 25.50702589 11.84167385 24.39038086 17.68774414 C24.13682327 19.01803398 24.13682327 19.01803398 23.87814331 20.37519836 C23.52163465 22.2369214 23.1635484 24.09834297 22.80395508 25.95947266 C22.25747164 28.80152841 21.7243218 31.64589746 21.19116211 34.49047852 C20.84172503 36.30639235 20.49149197 38.12215324 20.14038086 39.93774414 C19.98401154 40.78366623 19.82764221 41.62958832 19.66653442 42.50114441 C18.20985214 49.88766847 15.7448046 53.94421921 9.82006836 58.73852539 C9.300979 59.16093506 8.78188965 59.58334473 8.24707031 60.01855469 C6.54992986 61.39343734 4.84258889 62.75470364 3.13256836 64.11352539 C2.23344727 64.83161377 2.23344727 64.83161377 1.31616211 65.56420898 C-16.9273734 80.11352539 -16.9273734 80.11352539 -19.86743164 80.11352539 C-18.30488322 72.2655252 -16.71406403 64.423404 -15.11743164 56.58227539 C-14.7219404 54.63874131 -14.32644935 52.69520718 -13.93096924 50.75167084 C-13.10447053 46.69022484 -12.27767253 42.62883976 -11.45092773 38.56744385 C-10.76772107 35.21112085 -10.08458184 31.85478415 -9.40161133 28.49841309 C-8.89200032 25.99406847 -8.3822429 23.48975363 -7.87231445 20.98547363 C-7.63867188 19.83728149 -7.4050293 18.68908936 -7.16430664 17.50610352 C-6.94323242 16.42337158 -6.7221582 15.34063965 -6.49438477 14.22509766 C-6.08244171 12.18062168 -5.67980393 10.13424455 -5.28735352 8.0859375 C-5.11268555 7.17658447 -4.93801758 6.26723145 -4.75805664 5.33032227 C-4.60884766 4.53589722 -4.45963867 3.74147217 -4.3059082 2.92297363 C-3.57963447 -0.07411865 -3.20959412 0.12707205 0 0 Z " fill="#11803F" transform="translate(545.867431640625,419.886474609375)"/>
<path d="M0 0 C16.5 0 33 0 50 0 C50 9.03244838 50 9.03244838 47.6875 12.375 C47.25824219 13.02210938 46.82898438 13.66921875 46.38671875 14.3359375 C44.52369025 16.57157171 42.86714939 17.89920571 39.93086243 18.24050903 C39.1381041 18.23606781 38.34534576 18.23162659 37.52856445 18.22705078 C36.17750359 18.22682419 36.17750359 18.22682419 34.79914856 18.22659302 C33.83031235 18.21627045 32.86147614 18.20594788 31.86328125 18.1953125 C30.37141548 18.19106766 30.37141548 18.19106766 28.84941101 18.18673706 C25.6703187 18.17553489 22.49150728 18.15043014 19.3125 18.125 C17.15820719 18.11497025 15.00390997 18.10584439 12.84960938 18.09765625 C7.56631028 18.07559546 2.28317521 18.04211756 -3 18 C-2.8831456 16.49934346 -2.75597952 14.9994897 -2.625 13.5 C-2.55539062 12.6646875 -2.48578125 11.829375 -2.4140625 10.96875 C-1.89691329 7.26088771 -0.90799346 3.63197383 0 0 Z " fill="#10833A" transform="translate(730,462)"/>
<path d="M0 0 C0.66 0 1.32 0 2 0 C2 29.7 2 59.4 2 90 C-1.30706341 87.79529106 -1.56295124 87.19226065 -2.75390625 83.59765625 C-3.05031006 82.71343994 -3.34671387 81.82922363 -3.65209961 80.91821289 C-4.1027478 79.50463501 -4.1027478 79.50463501 -4.5625 78.0625 C-4.8726001 77.09755615 -5.1827002 76.1326123 -5.50219727 75.13842773 C-13.8699641 48.63265815 -9.76497342 25.42014623 0 0 Z " fill="#177DB1" transform="translate(46,398)"/>
<path d="M0 0 C1.12067871 0.01047363 2.24135742 0.02094727 3.39599609 0.03173828 C5.21357422 0.04140625 5.21357422 0.04140625 7.06787109 0.05126953 C8.33888672 0.06802734 9.60990234 0.08478516 10.91943359 0.10205078 C12.19818359 0.11107422 13.47693359 0.12009766 14.79443359 0.12939453 C17.96128526 0.15302775 21.12776783 0.18597449 24.29443359 0.22705078 C24.15374599 1.64150086 24.00826743 3.05547481 23.86083984 4.46923828 C23.780354 5.25669434 23.69986816 6.04415039 23.61694336 6.85546875 C22.68384222 13.71704667 20.22299876 18.2780729 14.91772461 22.77392578 C9.61209789 25.71288252 3.6882132 24.93707819 -2.20556641 24.66455078 C-3.50494141 24.63296875 -4.80431641 24.60138672 -6.14306641 24.56884766 C-9.33292547 24.4867557 -12.51804681 24.37196699 -15.70556641 24.22705078 C-14.37001408 18.6307962 -12.23735027 14.28187152 -9.20556641 9.41455078 C-8.80208984 8.74746094 -8.39861328 8.08037109 -7.98291016 7.39306641 C-3.64929594 0.30624844 -3.64929594 0.30624844 0 0 Z " fill="#117F38" transform="translate(443.70556640625,472.77294921875)"/>
<path d="M0 0 C0.66 0.33 1.32 0.66 2 1 C-2.90250265 7.4432892 -8.93100439 11.9386083 -15.34814453 16.74462891 C-18.7403768 19.32264521 -22.00822723 22.05318837 -25.29296875 24.765625 C-27.1841214 26.3265764 -29.08323233 27.87791379 -30.98828125 29.421875 C-31.96152344 30.21078125 -32.93476562 30.9996875 -33.9375 31.8125 C-34.81277344 32.52019531 -35.68804688 33.22789062 -36.58984375 33.95703125 C-37.38519531 34.63121094 -38.18054688 35.30539062 -39 36 C-39.78503906 36.62261719 -40.57007813 37.24523437 -41.37890625 37.88671875 C-43.36470384 39.98845144 -43.36470384 39.98845144 -42.75 43.25 C-42.5025 44.1575 -42.255 45.065 -42 46 C-38.99900412 46.10890711 -36.00203622 46.18773555 -33 46.25 C-31.74123047 46.30027344 -31.74123047 46.30027344 -30.45703125 46.3515625 C-24.99768245 46.43620357 -21.32189071 45.63963364 -16.59375 42.86621094 C-15 42 -15 42 -13 42 C-14.4109931 45.4099 -15.79637528 47.14324946 -19 49 C-22.39160156 49.34057617 -22.39160156 49.34057617 -26.390625 49.29296875 C-27.09523865 49.28872391 -27.79985229 49.28447906 -28.52581787 49.28010559 C-30.76760712 49.26336538 -33.00848431 49.22572404 -35.25 49.1875 C-36.77342448 49.17244704 -38.29686311 49.1587597 -39.8203125 49.14648438 C-43.54716941 49.11347791 -47.27349563 49.06172854 -51 49 C-50.74035615 47.39484331 -50.46359791 45.79244898 -50.1796875 44.19140625 C-50.02741699 43.29881104 -49.87514648 42.40621582 -49.71826172 41.48657227 C-48.47804109 37.19301443 -45.5561902 35.4499588 -42 33 C-40.18371335 31.65091646 -38.37161659 30.29618348 -36.5625 28.9375 C-35.53125 28.17179687 -34.5 27.40609375 -33.4375 26.6171875 C-28.86304915 23.1729894 -24.45608132 19.52336454 -20.02734375 15.89526367 C-14.56087762 11.42742822 -8.99764184 7.10205143 -3.37890625 2.828125 C-1.16668597 1.20995646 -1.16668597 1.20995646 0 0 Z " fill="#154563" transform="translate(572,474)"/>
<path d="M0 0 C0.66 0.33 1.32 0.66 2 1 C0.59410189 4.02268093 -0.73410523 6.68092628 -2.875 9.25 C-5.90984288 13.17744373 -7.86642609 17.53691173 -10 22 C-10.66395527 23.33468559 -11.32964586 24.66851678 -12 26 C-12.66 26 -13.32 26 -14 26 C-14.10183594 26.55171875 -14.20367187 27.1034375 -14.30859375 27.671875 C-15.15504596 30.52207567 -16.50020034 32.72372821 -18.0625 35.25 C-18.61035156 36.14203125 -19.15820312 37.0340625 -19.72265625 37.953125 C-20.35494141 38.96632813 -20.35494141 38.96632813 -21 40 C-17.88856433 41.03714522 -15.50531904 41.20031861 -12.23828125 41.31640625 C-10.56088867 41.37924805 -10.56088867 41.37924805 -8.84960938 41.44335938 C-7.68236328 41.48267578 -6.51511719 41.52199219 -5.3125 41.5625 C-4.13365234 41.60568359 -2.95480469 41.64886719 -1.74023438 41.69335938 C1.17305883 41.79951176 4.08643757 41.90156242 7 42 C7.3079248 41.21665283 7.61584961 40.43330566 7.93310547 39.6262207 C9.32489051 36.20026381 11.12618788 33.1854806 13 30 C13.66 30 14.32 30 15 30 C15.2475 29.154375 15.495 28.30875 15.75 27.4375 C17.11484075 23.68418794 18.9580244 20.4081895 21 17 C21.75275569 15.68907852 22.50285503 14.37662733 23.25 13.0625 C23.8275 12.051875 24.405 11.04125 25 10 C25.66 10 26.32 10 27 10 C23.40462028 21.20706683 18.0870098 36.8291781 8 44 C-1.97332601 48.01982258 -14.72291891 45.65480736 -25 44 C-23.78914587 40.06677246 -22.39340755 36.65567926 -20.27734375 33.12890625 C-19.47538574 31.78252075 -19.47538574 31.78252075 -18.65722656 30.40893555 C-18.0897168 29.46961182 -17.52220703 28.53028809 -16.9375 27.5625 C-16.35838867 26.59417236 -15.77927734 25.62584473 -15.18261719 24.62817383 C-14.01274371 22.67347516 -12.84040657 20.72024873 -11.66552734 18.76855469 C-10.16188333 16.26909366 -8.66658278 13.76494708 -7.17578125 11.2578125 C-6.36741981 9.90090324 -5.55884315 8.54412217 -4.75 7.1875 C-4.19493774 6.25562866 -4.19493774 6.25562866 -3.62866211 5.30493164 C-1.11666452 1.11666452 -1.11666452 1.11666452 0 0 Z " fill="#335E78" transform="translate(398,479)"/>
<path d="M0 0 C35.97 0 71.94 0 109 0 C108 9 108 9 107 13 C106.01 13 105.02 13 104 13 C104.33 12.278125 104.66 11.55625 105 10.8125 C106.01335535 7.96243809 106.08031402 5.98667749 106 3 C98.50012397 2.82746247 91.00012961 2.66114339 83.5 2.5 C81.82516037 2.46398682 81.82516037 2.46398682 80.1164856 2.42724609 C65.29062125 2.11366588 50.48096561 1.94301617 35.65234375 2.01953125 C24.08343855 2.05661107 12.55056684 1.62543392 1 1 C0.67 1.66 0.34 2.32 0 3 C0 2.01 0 1.02 0 0 Z " fill="#0D6BAA" transform="translate(698,420)"/>
<path d="M0 0 C1.125 3.75 1.125 3.75 0 6 C22.44 5.67 44.88 5.34 68 5 C68 5.66 68 6.32 68 7 C68.721875 6.855625 69.44375 6.71125 70.1875 6.5625 C73 7 73 7 75.65625 9.9375 C78.65737018 14.35875809 78.58464474 18.24162884 78.3125 23.4375 C78.28994141 24.26443359 78.26738281 25.09136719 78.24414062 25.94335938 C78.18576847 27.96303577 78.09610632 29.98176721 78 32 C77.01 32 76.02 32 75 32 C74.67 32.33 74.34 32.66 74 33 C74.04125 33.94875 74.0825 34.8975 74.125 35.875 C74 39 74 39 72.4921875 40.6953125 C71.99976563 41.12585938 71.50734375 41.55640625 71 42 C71.3422161 36.559944 72.03744763 31.49416594 73.5625 26.25 C75.02628408 21.13036111 75.99231234 17.29798648 73.8125 12.25 C71.63199765 9.54316949 70.29839512 9.03127529 67 8 C63.74741059 7.67476306 63.74741059 7.67476306 60.19018555 7.68115234 C59.52621262 7.67110672 58.86223969 7.6610611 58.17814636 7.65071106 C55.99767877 7.6199805 53.81733339 7.6028726 51.63671875 7.5859375 C50.11927751 7.56721765 48.60184658 7.54764363 47.08442688 7.5272522 C43.10116673 7.47601109 39.11787287 7.43634264 35.13446045 7.39910889 C31.06546746 7.35901879 26.99661377 7.30794933 22.92773438 7.2578125 C14.95191821 7.16114826 6.97603289 7.07671329 -1 7 C-0.67 4.69 -0.34 2.38 0 0 Z " fill="#357FA9" transform="translate(270,430)"/>
<path d="M0 0 C0.66 0.66 1.32 1.32 2 2 C4.06874034 2.6425235 4.06874034 2.6425235 6 3 C6.33 4.32 6.66 5.64 7 7 C10.00099588 7.10890711 12.99796378 7.18773555 16 7.25 C17.25876953 7.30027344 17.25876953 7.30027344 18.54296875 7.3515625 C24.00231755 7.43620357 27.67810929 6.63963364 32.40625 3.86621094 C34 3 34 3 36 3 C34.5890069 6.4099 33.20362472 8.14324946 30 10 C26.60839844 10.34057617 26.60839844 10.34057617 22.609375 10.29296875 C21.90476135 10.28872391 21.20014771 10.28447906 20.47418213 10.28010559 C18.23239288 10.26336538 15.99151569 10.22572404 13.75 10.1875 C12.22657552 10.17244704 10.70313689 10.1587597 9.1796875 10.14648438 C5.45283059 10.11347791 1.72650437 10.06172854 -2 10 C-1.34 6.7 -0.68 3.4 0 0 Z " fill="#3A697E" transform="translate(523,513)"/>
<path d="M0 0 C0.99 0.495 0.99 0.495 2 1 C2 1.66 2 2.32 2 3 C2.66 3 3.32 3 4 3 C4.8353125 4.1446875 4.8353125 4.1446875 5.6875 5.3125 C8.83330025 8.96843002 12.35722031 10.63284517 17.08462524 11.28961182 C19.40021263 11.42389838 21.70009186 11.46718105 24.01953125 11.4765625 C25.30569588 11.49993179 25.30569588 11.49993179 26.61784363 11.52377319 C29.34938534 11.57098376 32.08068293 11.59886516 34.8125 11.625 C38.38160489 11.67410871 41.95056199 11.73100518 45.51953125 11.7890625 C46.39054474 11.8018927 47.26155823 11.8147229 48.15896606 11.82794189 C56.78774506 11.97301398 65.38902339 12.44555767 74 13 C74 13.33 74 13.66 74 14 C66.29799166 14.09293429 58.59604192 14.16388328 50.89359951 14.20724869 C47.31647791 14.22806871 43.73974166 14.25628224 40.1628418 14.30175781 C36.70687671 14.34541779 33.25128083 14.36917906 29.79506111 14.37950897 C27.84359168 14.39042916 25.8922695 14.42162308 23.94102478 14.45318604 C15.64378224 14.45527379 10.95709788 13.69887456 4.78515625 7.9296875 C4.21667969 7.25164063 3.64820313 6.57359375 3.0625 5.875 C2.47597656 5.19179688 1.88945313 4.50859375 1.28515625 3.8046875 C0 2 0 2 0 0 Z " fill="#03436A" transform="translate(684,508)"/>
<path d="M0 0 C1.17860285 3.53580855 0.44609161 5.41972777 -0.51953125 8.92578125 C-1.14956122 11.64566672 -1.13890759 14.22184817 -1 17 C0.093125 16.979375 1.18625 16.95875 2.3125 16.9375 C6 17 6 17 9 18 C9.33 17.34 9.66 16.68 10 16 C15.28 16.33 20.56 16.66 26 17 C26 17.66 26 18.32 26 19 C23.12981559 20.43509221 20.66456277 20.11158506 17.4609375 20.09765625 C16.15898438 20.09443359 14.85703125 20.09121094 13.515625 20.08789062 C12.13541601 20.07953466 10.75520768 20.07106971 9.375 20.0625 C7.98698074 20.05748501 6.59895978 20.0529221 5.2109375 20.04882812 C1.80724868 20.03700976 -1.59635439 20.02053434 -5 20 C-4.70569317 18.09815072 -4.40495503 16.19729605 -4.1015625 14.296875 C-3.93479004 13.23823242 -3.76801758 12.17958984 -3.59619141 11.08886719 C-2.83278315 7.13364964 -1.56663476 3.70295488 0 0 Z " fill="#2C5A77" transform="translate(809,503)"/>
<path d="M0 0 C0 0.33 0 0.66 0 1 C-18.81 1 -37.62 1 -57 1 C-52.53007079 -1.23496461 -49.2454526 -1.2415226 -44.40234375 -1.16015625 C-43.15633141 -1.1523539 -43.15633141 -1.1523539 -41.88514709 -1.14439392 C-39.23575202 -1.12660836 -36.58674664 -1.09543827 -33.9375 -1.0625 C-31.28472112 -1.03486939 -28.63199745 -1.01016218 -25.97914124 -0.99131775 C-24.32970739 -0.9790754 -22.68030272 -0.96148611 -21.0309906 -0.93800354 C-3.7086764 -0.78668893 -3.7086764 -0.78668893 0 0 Z " fill="#054773" transform="translate(320,521)"/>
<path d="M0 0 C13.86 0 27.72 0 42 0 C41.67 0.66 41.34 1.32 41 2 C34.06816224 3.19514444 27.16970219 3.049765 20.16015625 2.9375 C17.09857527 2.771779 17.09857527 2.771779 15 4 C15 3.34 15 2.68 15 2 C14.360625 2.165 13.72125 2.33 13.0625 2.5 C9.02413348 3.15932515 5.08192742 3.08003779 1 3 C0.67 2.01 0.34 1.02 0 0 Z " fill="#006BA6" transform="translate(304,420)"/>
<path d="M0 0 C0.66 0.33 1.32 0.66 2 1 C0.59410189 4.02268093 -0.73410523 6.68092628 -2.875 9.25 C-5.90984288 13.17744373 -7.86642609 17.53691173 -10 22 C-10.66395527 23.33468559 -11.32964586 24.66851678 -12 26 C-12.66 26 -13.32 26 -14 26 C-14.15662109 26.82757813 -14.15662109 26.82757813 -14.31640625 27.671875 C-15.14560384 30.49588509 -16.4279965 32.72554916 -17.9375 35.25 C-18.46214844 36.14203125 -18.98679687 37.0340625 -19.52734375 37.953125 C-20.01332031 38.62859375 -20.49929688 39.3040625 -21 40 C-21.66 40 -22.32 40 -23 40 C-21.56538745 36.15383015 -19.78337109 32.6953314 -17.734375 29.140625 C-17.09113281 28.02429688 -16.44789063 26.90796875 -15.78515625 25.7578125 C-15.45016113 25.18063477 -15.11516602 24.60345703 -14.77001953 24.00878906 C-13.76253237 22.27160918 -12.76207841 20.53035653 -11.76171875 18.7890625 C-8.05142749 12.37166013 -4.2187938 6.09645414 0 0 Z " fill="#1C5479" transform="translate(398,479)"/>
<path d="M0 0 C0.99 0 1.98 0 3 0 C2.67 27.06 2.34 54.12 2 82 C1.67 82 1.34 82 1 82 C0.67 54.94 0.34 27.88 0 0 Z " fill="#0C75AB" transform="translate(134,405)"/>
<path d="M0 0 C0.99 0.33 1.98 0.66 3 1 C-0.65181821 4.01833954 -4.32031197 7.01573542 -8 10 C-8.8981543 10.72944824 -8.8981543 10.72944824 -9.81445312 11.47363281 C-11.66229368 12.96880979 -13.51756518 14.45426553 -15.375 15.9375 C-15.95717285 16.40969971 -16.5393457 16.88189941 -17.13916016 17.3684082 C-20.28972777 19.86846293 -23.16767619 21.74408864 -27 23 C-26.01 21.515 -26.01 21.515 -25 20 C-24.34 20 -23.68 20 -23 20 C-22.67 19.01 -22.34 18.02 -22 17 C-20.00390625 15.17578125 -20.00390625 15.17578125 -17.5625 13.3125 C-16.75941406 12.68988281 -15.95632813 12.06726563 -15.12890625 11.42578125 C-13 10 -13 10 -11 10 C-10.67 9.01 -10.34 8.02 -10 7 C-7.8203125 5.140625 -7.8203125 5.140625 -5.125 3.25 C-4.24070312 2.61578125 -3.35640625 1.9815625 -2.4453125 1.328125 C-1.23488281 0.67070312 -1.23488281 0.67070312 0 0 Z " fill="#13618D" transform="translate(593,488)"/>
<path d="M0 0 C9.9 0 19.8 0 30 0 C30 1.32 30 2.64 30 4 C29.34 4 28.68 4 28 4 C28 3.34 28 2.68 28 2 C27.02417969 2.16757812 26.04835938 2.33515625 25.04296875 2.5078125 C20.0449638 3.22486833 15.08436114 2.98520364 10.05273438 2.78515625 C6.65628251 2.71849975 4.4352203 2.73954258 1.48046875 4.5078125 C0.74763672 5.24644531 0.74763672 5.24644531 0 6 C0 4.02 0 2.04 0 0 Z " fill="#1B773F" transform="translate(543,420)"/>
<path d="M0 0 C0.66 0 1.32 0 2 0 C0.63913365 4.59065583 -1.2346559 8.39109317 -3.6953125 12.4921875 C-4.22377274 13.37839279 -4.22377274 13.37839279 -4.76290894 14.28250122 C-5.87819411 16.14997058 -7.0014302 18.01250592 -8.125 19.875 C-8.88725147 21.1481187 -9.64897555 22.42155331 -10.41015625 23.6953125 C-12.26735463 26.80055067 -14.13171012 29.90141934 -16 33 C-16.66 32.67 -17.32 32.34 -18 32 C-16.43358249 27.69235185 -14.31663844 23.93828536 -12 20 C-11.34 20 -10.68 20 -10 20 C-9.7525 19.154375 -9.505 18.30875 -9.25 17.4375 C-7.88515925 13.68418794 -6.0419756 10.4081895 -4 7 C-3.24724431 5.68907852 -2.49714497 4.37662733 -1.75 3.0625 C-0.88375 1.5465625 -0.88375 1.5465625 0 0 Z " fill="#155784" transform="translate(423,489)"/>
<path d="M0 0 C2.67733998 2.67031284 3.00280229 4.03721441 3.29296875 7.890625 C3.27314945 9.34404009 3.23754845 10.79731167 3.1875 12.25 C3.17396484 12.99507813 3.16042969 13.74015625 3.14648438 14.5078125 C3.11127204 16.33885416 3.05746851 18.16952169 3 20 C-0.99582132 17.33611912 -1.75593479 14.51837572 -3 10 C-3.1875 7 -3.1875 7 -3 5 C-2.01 5 -1.02 5 0 5 C0 3.35 0 1.7 0 0 Z " fill="#1B77A5" transform="translate(45,468)"/>
<path d="M0 0 C1.92536938 1.60558484 2.91074167 2.47769478 3.34057617 4.99291992 C3.32486572 5.73131104 3.30915527 6.46970215 3.29296875 7.23046875 C3.28330078 8.03291016 3.27363281 8.83535156 3.26367188 9.66210938 C3.23853516 10.49548828 3.21339844 11.32886719 3.1875 12.1875 C3.17396484 13.03248047 3.16042969 13.87746094 3.14648438 14.74804688 C3.11115799 16.83230384 3.05735139 18.91623277 3 21 C2.01 21 1.02 21 0 21 C-0.33 21.33 -0.66 21.66 -1 22 C-0.938125 23.423125 -0.938125 23.423125 -0.875 24.875 C-1 28 -1 28 -2.5078125 29.6953125 C-3.00023437 30.12585938 -3.49265625 30.55640625 -4 31 C-3.66224649 25.63088379 -2.99805322 20.66013117 -1.4375 15.5 C0.10835188 10.23960113 0.31916639 5.44947051 0 0 Z " fill="#1F7CB2" transform="translate(345,441)"/>
<path d="M0 0 C0.66 0 1.32 0 2 0 C2 7.59 2 15.18 2 23 C1.67 23 1.34 23 1 23 C0.67 20.36 0.34 17.72 0 15 C-0.99 14.67 -1.98 14.34 -3 14 C-3 14.66 -3 15.32 -3 16 C-3.66 16 -4.32 16 -5 16 C-3.41078475 10.63904723 -1.81027062 5.29156027 0 0 Z " fill="#1A78A3" transform="translate(45,400)"/>
<path d="M0 0 C0.66 0.33 1.32 0.66 2 1 C-2.70127774 7.09895491 -8.18647581 12.29476026 -15 16 C-17.3359375 15.71875 -17.3359375 15.71875 -19 15 C-17.69675781 14.00419922 -17.69675781 14.00419922 -16.3671875 12.98828125 C-15.2030743 12.09642033 -14.03901467 11.2044895 -12.875 10.3125 C-12.30523438 9.87744141 -11.73546875 9.44238281 -11.1484375 8.99414062 C-7.35374828 6.0834415 -3.65577385 3.08351746 0 0 Z " fill="#21648B" transform="translate(572,474)"/>
<path d="M0 0 C-1.36983503 3.16115776 -1.9890638 3.9927092 -5 6 C-6.99291992 6.22705078 -6.99291992 6.22705078 -9.23046875 6.1953125 C-10.03291016 6.18886719 -10.83535156 6.18242188 -11.66210938 6.17578125 C-12.49548828 6.15902344 -13.32886719 6.14226563 -14.1875 6.125 C-15.03248047 6.11597656 -15.87746094 6.10695313 -16.74804688 6.09765625 C-18.83215243 6.07410703 -20.91611217 6.03823647 -23 6 C-22.67 5.34 -22.34 4.68 -22 4 C-20.83984375 4.06960938 -20.83984375 4.06960938 -19.65625 4.140625 C-12.1929742 4.39925337 -6.40536793 0 0 0 Z " fill="#01425E" transform="translate(559,516)"/>
<path d="M0 0 C2 2 2 2 2.23046875 5.08203125 C2.21628906 6.31308594 2.20210938 7.54414063 2.1875 8.8125 C2.18105469 10.03582031 2.17460937 11.25914062 2.16796875 12.51953125 C2.02525813 15.47662799 1.68369865 18.12846565 1 21 C-1 19 -1 19 -1.23046875 15.91796875 C-1.21628906 14.68691406 -1.20210938 13.45585937 -1.1875 12.1875 C-1.18105469 10.96417969 -1.17460937 9.74085938 -1.16796875 8.48046875 C-1.02525813 5.52337201 -0.68369865 2.87153435 0 0 Z " fill="#1A81B9" transform="translate(376,434)"/>
<path d="M0 0 C0.99 0.495 0.99 0.495 2 1 C2 1.66 2 2.32 2 3 C2.66 3 3.32 3 4 3 C4.8353125 4.1446875 4.8353125 4.1446875 5.6875 5.3125 C8.52089058 8.60535933 10.90550012 9.63516671 15 11 C17.79340157 11.25390222 17.79340157 11.25390222 20 11 C20.33 11.99 20.66 12.98 21 14 C15.31808612 14.4638297 11.44261858 13.53456687 7 10 C4.46269893 7.48752575 2.07331888 4.91146906 0 2 C0 1.34 0 0.68 0 0 Z " fill="#174162" transform="translate(684,508)"/>
<path d="M0 0 C1.2536419 3.51180455 0.77956527 5.33464859 -0.75 8.6875 C-1.09546875 9.47511719 -1.4409375 10.26273437 -1.796875 11.07421875 C-3 13 -3 13 -6 14 C-6 14.66 -6 15.32 -6 16 C-6.66 16 -7.32 16 -8 16 C-6.57250019 12.20950293 -4.83763458 8.72877544 -2.875 5.1875 C-2.33617187 4.21167969 -1.79734375 3.23585938 -1.2421875 2.23046875 C-0.83226562 1.49441406 -0.42234375 0.75835937 0 0 Z " fill="#2B793A" transform="translate(437,478)"/>
<path d="M0 0 C0.33 0 0.66 0 1 0 C0.89558594 0.96099609 0.89558594 0.96099609 0.7890625 1.94140625 C0.40182453 7.29180033 0.40182453 7.29180033 2.3359375 12.15234375 C3.41254463 13.34773148 4.52869422 14.50911295 5.6875 15.625 C7 17 7 17 7 19 C3.69353695 18.08153804 2.00899474 17.00899474 -0.4375 14.5625 C-2.70802319 9.38570713 -1.40298688 5.32755827 0 0 Z " fill="#175077" transform="translate(714,481)"/>
<path d="M0 0 C0.33 0 0.66 0 1 0 C1 2.31 1 4.62 1 7 C1.66 7.33 2.32 7.66 3 8 C2.34 8.66 1.68 9.32 1 10 C0.83330682 13.45828022 0.83330682 13.45828022 1 17 C1 17.99 1 18.98 1 20 C0.01 20.66 -0.98 21.32 -2 22 C-3.04239682 18.87280954 -2.97104316 17.70741726 -2.44140625 14.55078125 C-2.30283203 13.70322266 -2.16425781 12.85566406 -2.02148438 11.98242188 C-1.87001953 11.10134766 -1.71855469 10.22027344 -1.5625 9.3125 C-1.41490234 8.41982422 -1.26730469 7.52714844 -1.11523438 6.60742188 C-0.74992619 4.40378863 -0.37795112 2.201494 0 0 Z " fill="#3387CA" transform="translate(478,450)"/>
<path d="M0 0 C2.62538284 0.14053872 5.25017427 0.28718947 7.875 0.4375 C8.99455078 0.49647461 8.99455078 0.49647461 10.13671875 0.55664062 C15.7734375 0.88671875 15.7734375 0.88671875 18 2 C18 2.66 18 3.32 18 4 C11.73 3.67 5.46 3.34 -1 3 C-0.67 2.01 -0.34 1.02 0 0 Z " fill="#3987BA" transform="translate(454,440)"/>
<path d="M0 0 C3.3 0 6.6 0 10 0 C8.61423347 2.77153305 6.65868859 3.48074938 4 5 C3.01 5.66 2.02 6.32 1 7 C0.34 6.67 -0.32 6.34 -1 6 C-0.67 4.02 -0.34 2.04 0 0 Z " fill="#0262A0" transform="translate(273,420)"/>
<path d="M0 0 C0.99 0 1.98 0 3 0 C4 3 4 3 3.22265625 5.04296875 C2.83980469 5.75066406 2.45695312 6.45835937 2.0625 7.1875 C1.68222656 7.90292969 1.30195313 8.61835938 0.91015625 9.35546875 C0.45962891 10.16951172 0.45962891 10.16951172 0 11 C-2 10 -2 10 -2.8125 7.75 C-3.05334301 4.21763586 -2.18746212 2.73432765 0 0 Z " fill="#F3F7F0" transform="translate(432,478)"/>
<path d="M0 0 C0.33 0 0.66 0 1 0 C0.5414571 5.73178619 -0.85478 9.85478 -5 14 C-7.33297433 14.04092937 -9.66705225 14.04241723 -12 14 C-12 13.34 -12 12.68 -12 12 C-9.69 12 -7.38 12 -5 12 C-4.67 10.35 -4.34 8.7 -4 7 C-3.34 7 -2.68 7 -2 7 C-2 6.01 -2 5.02 -2 4 C-1.34 4 -0.68 4 0 4 C0 2.68 0 1.36 0 0 Z " fill="#11864C" transform="translate(779,465)"/>
<path d="M0 0 C1.65 0 3.3 0 5 0 C4.01 4.95 3.02 9.9 2 15 C1.34 15 0.68 15 0 15 C-0.12524851 8.48707753 -0.12524851 8.48707753 0.5625 5.8125 C1.10021722 3.58481439 0.69281526 2.15542525 0 0 Z " fill="#107EBB" transform="translate(671,422)"/>
<path d="M0 0 C5.91577376 2.74660925 10.90479475 5.93467666 16 10 C15.67 10.99 15.34 11.98 15 13 C14.44570312 12.57847656 13.89140625 12.15695312 13.3203125 11.72265625 C12.59585938 11.17480469 11.87140625 10.62695312 11.125 10.0625 C10.40570313 9.51722656 9.68640625 8.97195313 8.9453125 8.41015625 C7.05642921 6.96035376 7.05642921 6.96035376 5 6 C5 5.34 5 4.68 5 4 C2.525 3.01 2.525 3.01 0 2 C0 1.34 0 0.68 0 0 Z " fill="#2879AC" transform="translate(176,360)"/>
<path d="M0 0 C0.60972656 0.19851563 1.21945312 0.39703125 1.84765625 0.6015625 C-2.60402772 4.90440597 -6.04814474 7.3558076 -12.15234375 8.6015625 C-3.21168751 -0.59454106 -3.21168751 -0.59454106 0 0 Z " fill="#164A6D" transform="translate(554.15234375,490.3984375)"/>
<path d="M0 0 C0.33 0 0.66 0 1 0 C1.99 3.3 2.98 6.6 4 10 C3.01 10.66 2.02 11.32 1 12 C-0.19232613 14.05003955 -0.19232613 14.05003955 -1 16 C-2.03038433 12.0585998 -1.87693282 9.16384848 -1.0625 5.1875 C-0.86785156 4.21167969 -0.67320312 3.23585938 -0.47265625 2.23046875 C-0.31667969 1.49441406 -0.16070312 0.75835937 0 0 Z " fill="#2D80B7" transform="translate(474,473)"/>
<path d="M0 0 C3.92972173 5.89458259 2.33804251 14.05022999 1 20.75 C0.67862048 22.16942621 0.350033 23.58736684 0 25 C-0.66 24.67 -1.32 24.34 -2 24 C-2.25263158 18.44210526 -2.25263158 18.44210526 -1 16.25 C0.42600189 13.04149576 0.18961967 10.23946201 0.125 6.75 C0.10695313 5.48671875 0.08890625 4.2234375 0.0703125 2.921875 C0.04710937 1.95765625 0.02390625 0.9934375 0 0 Z " fill="#2E8CC4" transform="translate(509,433)"/>
<path d="M0 0 C0 1.32 0 2.64 0 4 C-2.97 3.67 -5.94 3.34 -9 3 C-9 2.01 -9 1.02 -9 0 C-5.67465243 -1.10844919 -3.37817425 -0.84454356 0 0 Z " fill="#1C6E9C" transform="translate(105,529)"/>
<path d="M0 0 C1.98 0.66 3.96 1.32 6 2 C5.23883449 3.15227823 4.46567307 4.2966386 3.6875 5.4375 C3.25824219 6.07558594 2.82898438 6.71367187 2.38671875 7.37109375 C1 9 1 9 -2 10 C-1.46274105 6.62294375 -0.88935377 3.303314 0 0 Z " fill="#267CAE" transform="translate(826,420)"/>
<path d="M0 0 C0.66 0 1.32 0 2 0 C3.28571429 7.42857143 3.28571429 7.42857143 2 11 C0 10 0 10 -2 8 C-1.69347955 5.0574037 -1.32728846 2.65457692 0 0 Z " fill="#0974B2" transform="translate(342,470)"/>
<path d="M0 0 C3.12857014 1.3881735 5.28189174 3.01101878 7.6875 5.4375 C8.28949219 6.03433594 8.89148438 6.63117188 9.51171875 7.24609375 C11 9 11 9 12 12 C11.01 12.33 10.02 12.66 9 13 C9 12.01 9 11.02 9 10 C8.34 10 7.68 10 7 10 C6.67 9.01 6.34 8.02 6 7 C4.00334402 5.32932867 2.00348966 3.66247014 0 2 C0 1.34 0 0.68 0 0 Z " fill="#267FB4" transform="translate(194,374)"/>
<path d="M0 0 C0.66 0.33 1.32 0.66 2 1 C1.01 1.66 0.02 2.32 -1 3 C-0.67 2.01 -0.34 1.02 0 0 Z M-3 3 C-2.34 3.33 -1.68 3.66 -1 4 C-6.14285714 9.57142857 -6.14285714 9.57142857 -10 10 C-9.67 8.35 -9.34 6.7 -9 5 C-7.7934375 4.7834375 -7.7934375 4.7834375 -6.5625 4.5625 C-4.07896294 4.25864751 -4.07896294 4.25864751 -3 3 Z " fill="#053C60" transform="translate(534,506)"/>
<path d="M0 0 C2.60334924 2.71182212 2.99456691 3.89133813 3.1875 7.75 C3.125625 8.8225 3.06375 9.895 3 11 C-0.86107457 8.42595029 -0.94319692 6.38979741 -2 2 C-1.34 2 -0.68 2 0 2 C0 1.34 0 0.68 0 0 Z " fill="#3D809E" transform="translate(45,477)"/>
<path d="M0 0 C0.66 0 1.32 0 2 0 C1.48594831 4.96916636 0.76615118 9.29026351 -1 14 C-1.66 13.67 -2.32 13.34 -3 13 C-2.01 8.71 -1.02 4.42 0 0 Z " fill="#23884A" transform="translate(466,474)"/>
<path d="M0 0 C0.33 0 0.66 0 1 0 C1.04254356 1.99954746 1.04080783 4.00041636 1 6 C0.67 6.33 0.34 6.66 0 7 C-0.36760731 9.32817964 -0.70241581 11.6618385 -1 14 C-1.66 14 -2.32 14 -3 14 C-3 14.66 -3 15.32 -3 16 C-3.66 16 -4.32 16 -5 16 C-3.41078475 10.63904723 -1.81027062 5.29156027 0 0 Z " fill="#3786B1" transform="translate(45,400)"/>
<path d="M0 0 C-1.4258086 3.45195767 -3.09746334 5.1014256 -6.125 7.25 C-7.21167969 8.03117187 -7.21167969 8.03117187 -8.3203125 8.828125 C-8.87460937 9.21484375 -9.42890625 9.6015625 -10 10 C-10.66 9.67 -11.32 9.34 -12 9 C-11.0409375 8.5978125 -11.0409375 8.5978125 -10.0625 8.1875 C-7.66868314 7.11332248 -7.66868314 7.11332248 -7 4 C-2.54285714 0 -2.54285714 0 0 0 Z " fill="#195E84" transform="translate(578,501)"/>
<path d="M0 0 C0.33 0 0.66 0 1 0 C0.88490339 1.41750563 0.75746342 2.83401169 0.625 4.25 C0.55539062 5.03890625 0.48578125 5.8278125 0.4140625 6.640625 C0 9 0 9 -2 13 C-2.33 10.03 -2.66 7.06 -3 4 C-2.34 4 -1.68 4 -1 4 C-0.67 2.68 -0.34 1.36 0 0 Z " fill="#2E8CC3" transform="translate(502,485)"/>
<path d="M0 0 C0 0.66 0 1.32 0 2 C-1.390625 3.32421875 -1.390625 3.32421875 -3.25 4.6875 C-3.85328125 5.14511719 -4.4565625 5.60273438 -5.078125 6.07421875 C-7 7 -7 7 -9.234375 6.64453125 C-9.81703125 6.43183594 -10.3996875 6.21914063 -11 6 C-9.73608512 4.99126984 -8.46359117 3.99328178 -7.1875 3 C-6.47980469 2.443125 -5.77210938 1.88625 -5.04296875 1.3125 C-3 0 -3 0 0 0 Z " fill="#21557A" transform="translate(564,483)"/>
<path d="M0 0 C0.66 0 1.32 0 2 0 C0.58707905 4.8274799 -1.42974154 8.7162359 -4 13 C-5.40318642 8.79044073 -3.88224523 6.90391604 -2 3 C-1.34 2.01 -0.68 1.02 0 0 Z " fill="#156395" transform="translate(423,489)"/>
<path d="M0 0 C-0.77904328 10.55808656 -0.77904328 10.55808656 -3 15 C-4.52961198 11.94077605 -3.50723611 9.32521452 -3 6 C-2.96454703 4.33371045 -2.94951812 2.66590197 -3 1 C-1 0 -1 0 0 0 Z " fill="#1A7FBC" transform="translate(854,431)"/>
<path d="M0 0 C0 0.33 0 0.66 0 1 C-5.28 1 -10.56 1 -16 1 C-13.26143669 -4.47712661 -4.81484803 -1.0213314 0 0 Z " fill="#055789" transform="translate(320,521)"/>
<path d="M0 0 C-2.21368294 2.21368294 -3.93016625 3.86552921 -7.11328125 4.265625 C-9.07746787 4.25166986 -11.0402625 4.13286356 -13 4 C-10.56272708 2.37515139 -8.62713877 1.34310925 -5.9375 0.3125 C-5.24527344 0.04050781 -4.55304688 -0.23148437 -3.83984375 -0.51171875 C-2 -1 -2 -1 0 0 Z " fill="#307BA5" transform="translate(87,488)"/>
<path d="M0 0 C3.63 0 7.26 0 11 0 C11 0.33 11 0.66 11 1 C9.9275 1.28875 8.855 1.5775 7.75 1.875 C4.90599636 2.72820109 2.56491017 3.5636503 0 5 C0 3.35 0 1.7 0 0 Z " fill="#056AA7" transform="translate(645,421)"/>
<path d="M0 0 C2.97 0.33 5.94 0.66 9 1 C9 1.33 9 1.66 9 2 C7.576875 2.3403125 7.576875 2.3403125 6.125 2.6875 C2.80676612 3.69083714 2.80676612 3.69083714 1.625 6.625 C1.41875 7.40875 1.2125 8.1925 1 9 C0.67 9 0.34 9 0 9 C0 6.03 0 3.06 0 0 Z " fill="#0874B0" transform="translate(99,397)"/>
<path d="M0 0 C0.99 0 1.98 0 3 0 C3.33 2.31 3.66 4.62 4 7 C2.35 7 0.7 7 -1 7 C-0.67 4.69 -0.34 2.38 0 0 Z " fill="#0471B4" transform="translate(469,503)"/>
<path d="M0 0 C0.33 0 0.66 0 1 0 C1 1.98 1 3.96 1 6 C1.66 6 2.32 6 3 6 C3 6.66 3 7.32 3 8 C1.35 8.66 -0.3 9.32 -2 10 C-1.34 6.7 -0.68 3.4 0 0 Z " fill="#417C5C" transform="translate(528,490)"/>
<path d="M0 0 C-2.6860286 1.79068573 -4.6626589 2.66055791 -7.6875 3.625 C-8.49574219 3.88539063 -9.30398437 4.14578125 -10.13671875 4.4140625 C-10.75160156 4.60742188 -11.36648437 4.80078125 -12 5 C-12 4.01 -12 3.02 -12 2 C-7.82262526 0.40861915 -4.46839215 -0.21278058 0 0 Z " fill="#2E8ABE" transform="translate(135,488)"/>
<path d="M0 0 C1.65 0 3.3 0 5 0 C4.67 1.32 4.34 2.64 4 4 C2.02 4 0.04 4 -2 4 C-1.34 2.68 -0.68 1.36 0 0 Z " fill="#0676AF" transform="translate(151,531)"/>
<path d="M0 0 C-1.04983947 2.86319855 -1.73398952 3.8499428 -4.4375 5.375 C-5.7059375 5.684375 -5.7059375 5.684375 -7 6 C-7.99 5.34 -8.98 4.68 -10 4 C-8.71086513 3.32845067 -7.41859796 2.66291141 -6.125 2 C-5.40570312 1.62875 -4.68640625 1.2575 -3.9453125 0.875 C-2 0 -2 0 0 0 Z " fill="#11526C" transform="translate(559,516)"/>
<path d="M0 0 C0.66 0 1.32 0 2 0 C0.4169423 4.2742558 -2.50568404 6.26531794 -6 9 C-6 8.01 -6 7.02 -6 6 C-4.68 5.34 -3.36 4.68 -2 4 C-2 3.34 -2 2.68 -2 2 C-1.34 2 -0.68 2 0 2 C0 1.34 0 0.68 0 0 Z " fill="#0D7BB4" transform="translate(361,504)"/>
<path d="M0 0 C1.5 1.25 1.5 1.25 3 3 C3 4.32 3 5.64 3 7 C1.68 7.33 0.36 7.66 -1 8 C-0.67 5.36 -0.34 2.72 0 0 Z " fill="#076A9A" transform="translate(42,466)"/>
<path d="M0 0 C-1.3697164 3.99500618 -3.25722422 6.80009492 -6 10 C-5.38909774 3.52443609 -5.38909774 3.52443609 -3.5625 1.0625 C-2 0 -2 0 0 0 Z " fill="#1C7FBE" transform="translate(447,452)"/>
<path d="M0 0 C0.66 0 1.32 0 2 0 C1.49287967 3.71888239 0.88391785 6.73454239 -1 10 C-2.25 3.375 -2.25 3.375 0 0 Z " fill="#298BC8" transform="translate(669,447)"/>
<path d="M0 0 C0.66 0.99 1.32 1.98 2 3 C2.66 3 3.32 3 4 3 C4 3.99 4 4.98 4 6 C4.66 6.33 5.32 6.66 6 7 C3.69 7 1.38 7 -1 7 C-0.67 4.69 -0.34 2.38 0 0 Z " fill="#046398" transform="translate(271,429)"/>
<path d="M0 0 C3.3 0.33 6.6 0.66 10 1 C9.01 2.485 9.01 2.485 8 4 C5.375 4.1875 5.375 4.1875 3 4 C3 3.34 3 2.68 3 2 C2.01 2 1.02 2 0 2 C0 1.34 0 0.68 0 0 Z " fill="#0472B1" transform="translate(285,431)"/>
<path d="M0 0 C0.99 0 1.98 0 3 0 C2.34 3.63 1.68 7.26 1 11 C0.01 11 -0.98 11 -2 11 C-1.67 10.29875 -1.34 9.5975 -1 8.875 C0.09044562 5.73996884 0.15322643 3.29436818 0 0 Z " fill="#157DB1" transform="translate(804,422)"/>
<path d="M0 0 C2.97 0 5.94 0 9 0 C8.67 1.32 8.34 2.64 8 4 C5.36 3.01 2.72 2.02 0 1 C0 0.67 0 0.34 0 0 Z " fill="#0E6D98" transform="translate(781,499)"/>
<path d="M0 0 C1.32 0.33 2.64 0.66 4 1 C1.36 2.98 -1.28 4.96 -4 7 C-3.67 5.68 -3.34 4.36 -3 3 C-2.01 2.67 -1.02 2.34 0 2 C0 1.34 0 0.68 0 0 Z " fill="#24678F" transform="translate(582,496)"/>
<path d="M0 0 C0.33 0.66 0.66 1.32 1 2 C0.22265625 3.9453125 0.22265625 3.9453125 -0.9375 6.125 C-1.31777344 6.84945313 -1.69804687 7.57390625 -2.08984375 8.3203125 C-2.39019531 8.87460937 -2.69054687 9.42890625 -3 10 C-3.99 10 -4.98 10 -6 10 C-4.02 6.7 -2.04 3.4 0 0 Z " fill="#2878A8" transform="translate(423,435)"/>
<path d="M0 0 C0.66 0.33 1.32 0.66 2 1 C-0.31 2.65 -2.62 4.3 -5 6 C-5 5.34 -5 4.68 -5 4 C-5.66 3.67 -6.32 3.34 -7 3 C-4.69631264 1.93347808 -2.35981813 0.93578995 0 0 Z " fill="#297BA9" transform="translate(64,495)"/>
<path d="M0 0 C0.66 0.33 1.32 0.66 2 1 C1.34 1.66 0.68 2.32 0 3 C0.66 3.33 1.32 3.66 2 4 C2 4.66 2 5.32 2 6 C0.02 5.34 -1.96 4.68 -4 4 C-3.67 3.01 -3.34 2.02 -3 1 C-2.01 0.67 -1.02 0.34 0 0 Z " fill="#4282AC" transform="translate(92,356)"/>
<path d="M0 0 C3.3 0 6.6 0 10 0 C6.09567131 1.95216435 3.27786748 2.50639991 -1 3 C-0.67 2.01 -0.34 1.02 0 0 Z " fill="#1573AC" transform="translate(117,349)"/>
<path d="M0 0 C0.99 0.33 1.98 0.66 3 1 C2.67 3.31 2.34 5.62 2 8 C1.34 8 0.68 8 0 8 C0 5.36 0 2.72 0 0 Z " fill="#107DB8" transform="translate(503,469)"/>
<path d="M0 0 C0.66 0 1.32 0 2 0 C1.67 2.97 1.34 5.94 1 9 C-1.14809171 5.77786243 -1.29386153 4.72224599 -1 1 C-0.67 0.67 -0.34 0.34 0 0 Z " fill="#177FBE" transform="translate(664,468)"/>
<path d="M0 0 C0.66 0.33 1.32 0.66 2 1 C1.01 1.33 0.02 1.66 -1 2 C-1.73323796 4.01508358 -1.73323796 4.01508358 -2 6 C-3.32 5.67 -4.64 5.34 -6 5 C-3.375 1.125 -3.375 1.125 0 0 Z " fill="#1F7EB5" transform="translate(97,354)"/>
<path d="M0 0 C1.125 3.75 1.125 3.75 0 6 C-0.66 6 -1.32 6 -2 6 C-2 6.99 -2 7.98 -2 9 C-2.66 9 -3.32 9 -4 9 C-2.94124926 5.59687262 -1.99097846 2.98646769 0 0 Z " fill="#46854E" transform="translate(437,478)"/>
<path d="M0 0 C0.66 0 1.32 0 2 0 C1.34 2.97 0.68 5.94 0 9 C-0.33 9 -0.66 9 -1 9 C-1.125 2.25 -1.125 2.25 0 0 Z " fill="#0E6E96" transform="translate(296,451)"/>
</svg>
