<?xml version="1.0" standalone="no"?>
<!DOCTYPE svg PUBLIC "-//W3C//DTD SVG 20010904//EN"
 "http://www.w3.org/TR/2001/REC-SVG-20010904/DTD/svg10.dtd">
<svg version="1.0" xmlns="http://www.w3.org/2000/svg"
 width="225.000000pt" height="225.000000pt" viewBox="0 0 225.000000 225.000000"
 preserveAspectRatio="xMidYMid meet">

<g transform="translate(0.000000,225.000000) scale(0.100000,-0.100000)"
fill="#000000" stroke="none">
<path d="M295 1376 c-5 -3 -23 -7 -39 -11 -39 -8 -28 -16 87 -60 l98 -39 -3
-130 -3 -130 -92 -40 c-99 -43 -103 -56 -18 -56 140 0 248 121 232 260 -10 82
-53 142 -129 181 -37 19 -112 33 -133 25z"/>
<path d="M250 1149 c0 -102 -1 -108 -22 -115 -12 -3 -37 -13 -56 -21 -32 -13
-33 -15 -18 -32 16 -18 20 -17 101 17 l85 36 0 102 0 101 -45 10 -45 10 0
-108z"/>
<path d="M101 1203 c-14 -48 -13 -78 3 -128 13 -38 13 -36 14 63 0 56 -1 102
-3 102 -2 0 -9 -17 -14 -37z"/>
<path d="M680 1180 c0 -18 7 -20 84 -20 107 0 111 -5 88 -96 l-17 -69 -59 -3
-59 -3 6 33 c3 18 9 48 13 66 l7 33 -38 -3 -38 -3 -18 -75 c-10 -41 -18 -81
-19 -88 0 -10 23 -12 113 -6 155 9 167 18 189 144 12 71 12 73 -11 91 -20 16
-40 19 -132 19 -102 0 -109 -1 -109 -20z"/>
<path d="M1017 1087 c-89 -153 -88 -149 -41 -145 37 3 40 6 97 106 60 105 74
116 111 89 17 -13 17 -17 2 -91 -21 -101 -21 -96 18 -96 l34 0 18 93 c10 50
17 101 16 112 -2 33 -31 45 -113 45 l-77 0 -65 -113z"/>
<path d="M1355 1178 c-17 -72 -33 -163 -30 -166 2 -2 21 10 43 28 31 24 41 41
46 73 4 23 9 52 13 65 5 20 1 22 -31 22 -29 0 -37 -4 -41 -22z"/>
<path d="M1615 1188 c-2 -7 -9 -39 -15 -70 -13 -67 -21 -75 -45 -48 -34 38
-78 27 -166 -41 -86 -67 -98 -89 -47 -89 23 0 48 13 89 45 l57 45 35 -40 c29
-34 40 -40 74 -40 l40 0 25 125 25 125 -34 0 c-18 0 -35 -6 -38 -12z"/>
<path d="M1745 1188 c-14 -47 -36 -173 -33 -195 5 -43 37 -53 147 -46 53 3 99
11 103 17 20 30 8 36 -77 36 -99 0 -102 3 -89 83 l9 52 99 5 c99 5 100 5 107
33 l7 27 -134 0 c-99 0 -136 -3 -139 -12z"/>
<path d="M2065 1178 c-3 -13 -16 -70 -29 -126 -24 -111 -23 -117 26 -110 23 3
29 21 72 231 5 25 3 27 -29 27 -28 0 -36 -5 -40 -22z"/>
<path d="M1827 1083 c-4 -3 -7 -12 -7 -20 0 -9 16 -13 53 -13 49 0 77 12 77
32 0 10 -114 11 -123 1z"/>
<path d="M1088 1040 l-17 -30 34 0 c24 0 39 7 49 22 23 32 20 38 -16 38 -26 0
-37 -6 -50 -30z"/>
</g>
</svg>
