<?xml version="1.0" encoding="UTF-8"?>
<svg version="1.1" xmlns="http://www.w3.org/2000/svg" width="600" height="186">
<path d="M0 0 C0.94746094 0.67289063 0.94746094 0.67289063 1.9140625 1.359375 C11.26666049 8.61938258 17.1707475 18.996958 21 30 C21.4125 31.11375 21.825 32.2275 22.25 33.375 C25.81923412 50.62629824 23.28962902 67.5230535 13.81640625 82.45703125 C3.86005837 96.39591828 -9.59303202 105.81450663 -26.5 109.3125 C-38.75229627 111.11020159 -49.19402492 109.13333936 -61 106 C-60 103 -60 103 -57.60180664 101.68481445 C-56.54856201 101.2487085 -55.49531738 100.81260254 -54.41015625 100.36328125 C-53.240896 99.87182617 -52.07163574 99.38037109 -50.86694336 98.87402344 C-49.59887857 98.35331346 -48.33072917 97.83280948 -47.0625 97.3125 C-45.14138404 96.51136965 -43.22176935 95.7067147 -41.30220032 94.90188599 C-40.02205031 94.36549897 -38.74135802 93.83040434 -37.46012878 93.29660034 C-31.32950451 90.73800928 -25.27338146 88.02424997 -19.24438477 85.2355957 C-16.31036038 83.90318658 -14.26349968 83 -11 83 C-11.33 61.55 -11.66 40.1 -12 18 C-24.53265717 13.00265559 -24.53265717 13.00265559 -37.06689453 8.00927734 C-46.77091286 4.13788109 -56.42670166 0.18543238 -66 -4 C-66 -4.66 -66 -5.32 -66 -6 C-42.95254676 -15.73940766 -20.56909055 -15.17055848 0 0 Z " fill="#1E7FC3" transform="translate(141,37)"/>
<path d="M0 0 C7.31086741 -0.09296088 14.62160595 -0.16389624 21.93294621 -0.20724869 C25.32847638 -0.22806311 28.72360015 -0.25626588 32.11889648 -0.30175781 C36.02843243 -0.35380789 39.93780773 -0.37299618 43.84765625 -0.390625 C45.05833267 -0.41127014 46.26900909 -0.43191528 47.51637268 -0.45318604 C54.25363796 -0.45497053 58.56276679 -0.1085701 64 4 C67.92944697 8.23966647 69.31611348 11.53032759 69.23632812 17.34667969 C68.74868728 22.82155648 67.45317985 28.16919342 66.22900391 33.51855469 C65.75027218 35.62380309 65.29442233 37.73317156 64.83984375 39.84375 C64.53522711 41.20082974 64.22928221 42.55761216 63.921875 43.9140625 C63.64956055 45.1304541 63.37724609 46.3468457 63.09667969 47.60009766 C61.36322902 52.97410344 58.41272005 56.99581079 54.1875 60.6875 C53.24970703 61.52861328 53.24970703 61.52861328 52.29296875 62.38671875 C45.0020965 67.51641251 38.54542869 67.40420826 29.84765625 67.29296875 C28.59238632 67.28872391 27.33711639 67.28447906 26.04380798 67.28010559 C22.72770663 67.26620628 19.41223948 67.23931502 16.09631348 67.20599365 C12.7042383 67.1751492 9.31209726 67.16156975 5.91992188 67.14648438 C-0.72022553 67.11347638 -7.3600762 67.06332215 -14 67 C-12.89738294 60.19684163 -11.74873721 53.41988081 -10.30859375 46.6796875 C-10.158423 45.96894073 -10.00825226 45.25819397 -9.85353088 44.52590942 C-9.54141332 43.05215696 -9.22801604 41.57867493 -8.91333008 40.10546875 C-8.4310122 37.84458822 -7.9545528 35.58252287 -7.47851562 33.3203125 C-7.17222003 31.87753087 -6.86559211 30.43481975 -6.55859375 28.9921875 C-6.41691269 28.31832001 -6.27523163 27.64445251 -6.1292572 26.95016479 C-5.11495728 22.22991457 -5.11495728 22.22991457 -4 20 C3.26 20 10.52 20 18 20 C16.29419799 31.47539533 13.63743376 42.70876931 11 54 C14.75059803 53.89000392 18.50020344 53.75940131 22.25 53.625 C23.84521484 53.57859375 23.84521484 53.57859375 25.47265625 53.53125 C26.49746094 53.49257812 27.52226562 53.45390625 28.578125 53.4140625 C29.52075195 53.3826416 30.46337891 53.3512207 31.43457031 53.31884766 C34.11667136 52.98549935 35.76138425 52.50400686 38 51 C41.11248591 44.41975684 42.38588733 37.35411757 43.8125 30.25 C44.05419922 29.12722656 44.29589844 28.00445312 44.54492188 26.84765625 C44.76341797 25.76871094 44.98191406 24.68976563 45.20703125 23.578125 C45.50830933 22.11487793 45.50830933 22.11487793 45.81567383 20.62207031 C46.02591564 17.6313457 45.86718073 16.34945488 44 14 C39.49899131 12.35379024 34.28440095 12.87424804 29.54296875 12.90234375 C28.18852409 12.90446617 28.18852409 12.90446617 26.80671692 12.90663147 C23.93361037 12.91221177 21.06058284 12.92476066 18.1875 12.9375 C16.23502717 12.94251755 14.28255311 12.94708001 12.33007812 12.95117188 C7.55335515 12.96217475 2.77669096 12.97942582 -2 13 C-1.85769192 11.58297487 -1.71099254 10.1663904 -1.5625 8.75 C-1.48128906 7.96109375 -1.40007812 7.1721875 -1.31640625 6.359375 C-1.02365007 4.17635361 -0.57935581 2.1226818 0 0 Z " fill="#1872AF" transform="translate(193,70)"/>
<path d="M0 0 C0.90049072 0.04535889 1.80098145 0.09071777 2.72875977 0.13745117 C5.480423 0.27529049 8.22180812 0.32180928 10.9765625 0.3515625 C12.74036495 0.392502 14.50405769 0.43855434 16.26757812 0.49023438 C17.48816673 0.52043922 17.48816673 0.52043922 18.7334137 0.55125427 C24.33781439 0.85270484 27.78327686 2.14437883 32.41992188 5.33789062 C36.16864034 9.67851201 37.33005111 13.69507863 37.41992188 19.33789062 C36.96443219 23.22561057 36.16069979 27.01484536 35.33007812 30.83789062 C35.10670273 31.91417725 34.88332733 32.99046387 34.65318298 34.09936523 C33.94148879 37.51482722 33.21224761 40.9262621 32.48242188 44.33789062 C31.99492799 46.66186514 31.50858734 48.98608189 31.0234375 51.31054688 C29.83772803 56.98979119 28.6283326 62.66324483 27.41992188 68.33789062 C20.15992188 68.33789062 12.89992188 68.33789062 5.41992188 68.33789062 C6.28617187 64.14585937 6.28617187 64.14585937 7.16992188 59.86914062 C7.72778961 57.14230555 8.28296606 54.41493536 8.83789062 51.6875 C9.22310359 49.80150765 9.61108408 47.91607826 10.00195312 46.03125 C10.56534865 43.31200423 11.11855091 40.59084679 11.66992188 37.86914062 C11.84491211 37.03547974 12.01990234 36.20181885 12.20019531 35.34289551 C13.21943925 30.25052107 13.85690678 25.53283615 13.41992188 20.33789062 C9.99897946 18.05726235 8.73804965 18.11864056 4.73242188 18.21289062 C3.73855469 18.2309375 2.7446875 18.24898437 1.72070312 18.26757812 C0.96144531 18.29078125 0.2021875 18.31398438 -0.58007812 18.33789062 C-0.96639404 19.01029785 -1.35270996 19.68270508 -1.75073242 20.37548828 C-9.30328261 33.51355802 -16.88967338 46.62777789 -24.62963867 59.65673828 C-25.39014526 60.93750244 -25.39014526 60.93750244 -26.16601562 62.24414062 C-26.60993652 62.98986328 -27.05385742 63.73558594 -27.51123047 64.50390625 C-28.2424458 65.75856353 -28.93064133 67.03901703 -29.58007812 68.33789062 C-37.17007812 68.33789062 -44.76007813 68.33789062 -52.58007812 68.33789062 C-51.12885359 64.70982929 -49.70463627 61.59560278 -47.81445312 58.22460938 C-47.26096191 57.23557617 -46.7074707 56.24654297 -46.13720703 55.22753906 C-45.54085449 54.17083008 -44.94450195 53.11412109 -44.33007812 52.02539062 C-43.40267822 50.37651855 -43.40267822 50.37651855 -42.45654297 48.69433594 C-38.09337738 40.96088694 -33.6732433 33.26118526 -29.20507812 25.58789062 C-28.65948242 24.65033936 -28.11388672 23.71278809 -27.55175781 22.74682617 C-26.47258255 20.90282854 -25.3714676 19.07149529 -24.2487793 17.25366211 C-22.47721048 14.29708213 -22.47721048 14.29708213 -21.09301758 10.78344727 C-16.19869635 0.30418631 -10.68465942 -0.29199116 0 0 Z " fill="#1A75B3" transform="translate(309.580078125,68.662109375)"/>
<path d="M0 0 C23.76 0 47.52 0 72 0 C70.68 5.28 69.36 10.56 68 16 C51.5 16 35 16 18 16 C17.67 18.64 17.34 21.28 17 24 C16.69597082 25.50938383 16.36603945 27.01419006 15.9921875 28.5078125 C15.81042969 29.26707031 15.62867188 30.02632812 15.44140625 30.80859375 C15.06155635 32.36204885 14.67606931 33.91413564 14.28515625 35.46484375 C13.23566075 39.89688588 12.49869043 43.55017254 14 48 C16.79324792 49.78519327 19.02805588 50.25954318 22.30957031 50.31884766 C23.15013977 50.33871735 23.99070923 50.35858704 24.85675049 50.37905884 C25.75480408 50.39061005 26.65285767 50.40216125 27.578125 50.4140625 C28.5046991 50.43342865 29.43127319 50.4527948 30.38592529 50.4727478 C33.34052371 50.53244767 36.29516129 50.57889068 39.25 50.625 C41.25522517 50.6631886 43.26043409 50.70224085 45.265625 50.7421875 C50.17695111 50.8381414 55.088354 50.92220803 60 51 C59.52013969 56.56890517 58.70084819 61.67067568 57 67 C49.27708255 67.07613917 41.55426212 67.12863758 33.83105469 67.16479492 C31.20439029 67.1798702 28.57775101 67.20033366 25.95117188 67.22631836 C22.17311396 67.26275576 18.39538923 67.27973938 14.6171875 67.29296875 C13.44509735 67.30845261 12.2730072 67.32393646 11.06539917 67.33988953 C4.48075106 67.34124507 -0.59112635 67.18215521 -5.64453125 62.46484375 C-10.123157 56.60817931 -10.43286371 53.25592466 -10 46 C-9.45339317 42.27543265 -8.65323062 38.62909538 -7.8125 34.9609375 C-7.61591797 34.06673096 -7.41933594 33.17252441 -7.21679688 32.2512207 C-6.48932146 28.95659647 -5.74362867 25.66601591 -5 22.375 C-2.525 11.299375 -2.525 11.299375 0 0 Z " fill="#14659D" transform="translate(464,70)"/>
<path d="M0 0 C0.87454834 0.00523682 1.74909668 0.01047363 2.65014648 0.01586914 C3.59438477 0.0190918 4.53862305 0.02231445 5.51147461 0.02563477 C6.50469727 0.03401367 7.49791992 0.04239258 8.52124023 0.05102539 C9.51833008 0.05553711 10.51541992 0.06004883 11.54272461 0.06469727 C14.01478872 0.07652532 16.48673541 0.0930069 18.95874023 0.11352539 C16.24581296 15.30791293 13.33436035 30.45663608 10.25073242 45.57980347 C9.88877714 47.35536125 9.52810429 49.13118094 9.16870117 50.90725708 C8.66010145 53.41697543 8.14623559 55.92555372 7.63061523 58.43383789 C7.47663269 59.19616226 7.32265015 59.95848663 7.16400146 60.74391174 C6.07356362 65.99870201 6.07356362 65.99870201 4.95874023 67.11352539 C1.7188868 67.44766171 -1.53639429 67.43852047 -4.79125977 67.48852539 C-6.15250977 67.54459961 -6.15250977 67.54459961 -7.54125977 67.60180664 C-14.28938087 67.69059771 -14.28938087 67.69059771 -17.83032227 64.97290039 C-18.55993164 64.02930664 -19.28954102 63.08571289 -20.04125977 62.11352539 C-20.96210052 61.10278988 -21.89218087 60.10041118 -22.83032227 59.10571289 C-23.77680657 58.06771768 -24.72211094 57.02864538 -25.66625977 55.98852539 C-28.40572278 52.97511607 -31.14615964 49.97913741 -34.04125977 47.11352539 C-35.90377088 48.53534591 -37.76574865 49.95783527 -39.6262207 51.38232422 C-41.20396483 52.58528044 -42.78673194 53.78167514 -44.37426758 54.97167969 C-48.3059845 57.9334487 -51.84040818 60.90978925 -55.29125977 64.42602539 C-58.71653862 66.6974448 -61.15204209 67.46547249 -65.24829102 67.52758789 C-66.68350098 67.55212036 -66.68350098 67.55212036 -68.14770508 67.57714844 C-72.4533345 67.53909902 -76.74396983 67.38096718 -81.04125977 67.11352539 C-80.75822516 59.86936929 -80.75822516 59.86936929 -77.59204102 56.53149414 C-76.5234082 55.79543945 -75.45477539 55.05938477 -74.35375977 54.30102539 C-73.160086 53.45081671 -71.96741059 52.59920496 -70.77563477 51.74633789 C-70.1575293 51.31482422 -69.53942383 50.88331055 -68.90258789 50.4387207 C-66.48460228 48.71720629 -64.15771593 46.89550629 -61.83398438 45.04956055 C-60.67478501 44.12933257 -59.5088059 43.21758463 -58.33642578 42.31420898 C-55.31964832 39.98225203 -52.44792419 37.59493242 -49.67797852 34.97290039 C-42.58696879 28.46049736 -37.04024002 25.71057596 -27.25268555 25.99414062 C-22.57381691 26.42989268 -19.82973458 27.29440319 -16.66625977 30.98852539 C-16.22540039 31.70782227 -15.78454102 32.42711914 -15.33032227 33.16821289 C-13.81495559 35.45503896 -12.49337693 35.99132779 -10.04125977 37.11352539 C-9.90026855 36.37827637 -9.75927734 35.64302734 -9.61401367 34.88549805 C-8.96516643 31.50309618 -8.31571683 28.12081022 -7.66625977 24.73852539 C-7.44454102 23.58223633 -7.22282227 22.42594727 -6.99438477 21.23461914 C-6.55493037 18.94687124 -6.11387367 16.6594305 -5.67114258 14.37231445 C-5.26497736 12.27096046 -4.86296908 10.16879663 -4.46606445 8.06567383 C-4.29236328 7.16107422 -4.11866211 6.25647461 -3.93969727 5.32446289 C-3.78936035 4.53088379 -3.63902344 3.73730469 -3.48413086 2.91967773 C-2.86249511 0.38447306 -2.63883207 0.14675959 0 0 Z " fill="#1A73B1" transform="translate(433.041259765625,69.886474609375)"/>
<path d="M0 0 C18 4 18 4 27 7 C27 24.82 27 42.64 27 61 C21.163125 63.43375 15.32625 65.8675 9.3125 68.375 C7.47856689 69.13989746 5.64463379 69.90479492 3.75512695 70.69287109 C2.29119021 71.30308827 0.82724238 71.91327884 -0.63671875 72.5234375 C-1.3884436 72.83708252 -2.14016846 73.15072754 -2.91467285 73.47387695 C-4.33084349 74.06396758 -5.7477344 74.65233446 -7.1655426 75.23847961 C-8.73590618 75.89036931 -10.30046312 76.55621683 -11.86376953 77.22485352 C-14.70333172 78.25520894 -16.16714783 78.0133414 -19 77 C-21.23828125 75.15234375 -21.23828125 75.15234375 -23.3125 72.9375 C-24.35857422 71.83728516 -24.35857422 71.83728516 -25.42578125 70.71484375 C-25.94527344 70.14894531 -26.46476562 69.58304687 -27 69 C-26.67 68.01 -26.34 67.02 -26 66 C-13.13 61.05 -13.13 61.05 0 56 C0 37.52 0 19.04 0 0 Z " fill="#1B7CC0" transform="translate(81,54)"/>
<path d="M0 0 C6.93 0 13.86 0 21 0 C20.38071911 4.95424712 19.76253559 9.5066358 18.69311523 14.32421875 C18.43292099 15.50483887 18.17272675 16.68545898 17.90464783 17.90185547 C17.62544998 19.15111816 17.34625214 20.40038086 17.05859375 21.6875 C16.76824031 22.99878998 16.47821169 24.31015192 16.18849182 25.62158203 C15.43056757 29.04826922 14.66827706 32.47397029 13.9050293 35.8994751 C13.12476827 39.40504734 12.34870108 42.9115476 11.57226562 46.41796875 C10.05224753 53.27955341 8.52722078 60.1400143 7 67 C0.07 67 -6.86 67 -14 67 C-12.87490049 56.87410437 -12.87490049 56.87410437 -11.80078125 51.97705078 C-11.56383545 50.88627228 -11.32688965 49.79549377 -11.08276367 48.67166138 C-10.82857666 47.52446625 -10.57438965 46.37727112 -10.3125 45.1953125 C-9.91865112 43.39391312 -9.91865112 43.39391312 -9.5168457 41.55612183 C-8.96423894 39.03270832 -8.40943152 36.50977584 -7.85253906 33.98730469 C-6.99836505 30.11759307 -6.15095383 26.24644784 -5.3046875 22.375 C-4.76601659 19.91918491 -4.22696741 17.46345275 -3.6875 15.0078125 C-3.43331299 13.84847198 -3.17912598 12.68913147 -2.91723633 11.49465942 C-2.68029053 10.42279388 -2.44334473 9.35092834 -2.19921875 8.24658203 C-1.99127686 7.30332062 -1.78333496 6.3600592 -1.5690918 5.38821411 C-1 3 -1 3 0 0 Z " fill="#1771AF" transform="translate(546,70)"/>
<path d="M0 0 C6.93 0 13.86 0 21 0 C20.24892538 7.51074621 19.36719709 14.73097491 18 22.125 C17.76216797 23.67380859 17.76216797 23.67380859 17.51953125 25.25390625 C15.9582017 33.47970288 12.65503705 37.12988159 6 42 C4.80399753 42.96367876 3.60976768 43.92956499 2.41796875 44.8984375 C1.34383691 45.72745682 0.26708195 46.55309061 -0.8125 47.375 C-1.63137695 48.01115234 -1.63137695 48.01115234 -2.46679688 48.66015625 C-5.21248806 50.76507549 -7.88444342 52.51106107 -11 54 C-7.6164858 35.93339664 -3.9173253 17.95777304 0 0 Z " fill="#1F8A4C" transform="translate(365,70)"/>
<path d="M0 0 C11.22 0 22.44 0 34 0 C33 9 33 9 30.87817383 11.53808594 C27.32520878 13.34274746 24.92691282 13.45833043 20.94921875 13.390625 C20.29041214 13.38496521 19.63160553 13.37930542 18.95283508 13.37347412 C16.86362784 13.35121239 14.77618227 13.3010433 12.6875 13.25 C11.26499886 13.22992144 9.84247063 13.21167304 8.41992188 13.1953125 C4.94540207 13.15479332 1.47465522 13.07650617 -2 13 C-1.34 8.71 -0.68 4.42 0 0 Z " fill="#1B8848" transform="translate(484,97)"/>
<path d="M0 0 C0.66 0 1.32 0 2 0 C2 19.47 2 38.94 2 59 C1.34 59 0.68 59 0 59 C-7.47000613 40.55307647 -9.72608822 23.91910623 -2.19384766 4.97216797 C-1.48236393 3.30618344 -0.74383923 1.65179198 0 0 Z " fill="#1B78B7" transform="translate(49,56)"/>
<path d="M0 0 C2.57631173 -0.10617308 5.09765316 -0.04702124 7.6730957 0.07543945 C8.56577148 0.09799805 9.45844727 0.12055664 10.37817383 0.14379883 C12.58233842 0.20273371 14.78312242 0.28493128 16.9855957 0.38793945 C15.8204707 10.3175869 15.8204707 10.3175869 12.5480957 14.51293945 C9.12780978 17.01558769 6.66118312 17.51327897 2.53637695 17.4855957 C1.68881836 17.48237305 0.84125977 17.47915039 -0.03198242 17.47583008 C-1.35359375 17.46326172 -1.35359375 17.46326172 -2.7019043 17.45043945 C-3.59458008 17.44592773 -4.48725586 17.44141602 -5.40698242 17.43676758 C-7.60952416 17.42498928 -9.81193029 17.4085411 -12.0144043 17.38793945 C-10.91063468 15.49187493 -9.80637117 13.59609791 -8.7019043 11.70043945 C-7.77958008 10.11682617 -7.77958008 10.11682617 -6.83862305 8.5012207 C-6.23663086 7.47383789 -5.63463867 6.44645508 -5.0144043 5.38793945 C-4.6431543 4.43918945 -4.2719043 3.49043945 -3.8894043 2.51293945 C-2.0144043 0.38793945 -2.0144043 0.38793945 0 0 Z " fill="#1C8848" transform="translate(302.014404296875,103.612060546875)"/>
<path d="M0 0 C23.76 0 47.52 0 72 0 C70.68 5.28 69.36 10.56 68 16 C51.83 16 35.66 16 19 16 C18.67 15.34 18.34 14.68 18 14 C33.84 14 49.68 14 66 14 C67.20309688 9.18761248 67.26721988 5.7470459 66 1 C64.96601074 1.0729126 63.93202148 1.1458252 62.86669922 1.22094727 C54.15580306 1.79231419 45.48808091 2.07898948 36.7578125 2.02734375 C35.80638367 2.02183502 34.85495483 2.01632629 33.87469482 2.01065063 C29.95363574 1.98306542 26.03273114 1.9475761 22.11181641 1.90405273 C19.20214238 1.87396573 16.29259158 1.85614861 13.3828125 1.83984375 C12.05481125 1.81965431 12.05481125 1.81965431 10.69998169 1.79905701 C9.87746918 1.79567825 9.05495667 1.7922995 8.20751953 1.78881836 C7.48903839 1.78136093 6.77055725 1.7739035 6.03030396 1.76622009 C3.67128085 2.03785046 2.05197109 2.83428186 0 4 C0 2.68 0 1.36 0 0 Z " fill="#1D7EC6" transform="translate(464,70)"/>
<path d="M0 0 C6.93 0 13.86 0 21 0 C19.875 9 19.875 9 19 13 C18.67 13 18.34 13 18 13 C17.67 9.37 17.34 5.74 17 2 C12.38 2 7.76 2 3 2 C1.83830958 5.9595774 1.83830958 5.9595774 2 10 C1.34 10 0.68 10 0 10 C-0.13277344 10.66386719 -0.26554688 11.32773438 -0.40234375 12.01171875 C-2 20 -2 20 -2.56640625 22.64453125 C-3.09051895 25.09256403 -3.09051895 25.09256403 -3 28 C-3.52283428 31.34613938 -4.5696266 32.70645727 -7 35 C-6.34844387 27.28854454 -4.73113675 19.95745735 -2.9375 12.4375 C-2.65583984 11.23802734 -2.37417969 10.03855469 -2.08398438 8.80273438 C-1.39400203 5.86738577 -0.69764822 2.93353609 0 0 Z " fill="#2E89C9" transform="translate(546,70)"/>
<path d="M0 0 C0.53238281 0.24621094 1.06476563 0.49242188 1.61328125 0.74609375 C0.82953125 1.36484375 0.04578125 1.98359375 -0.76171875 2.62109375 C-3.35509522 4.64468036 -3.35509522 4.64468036 -5.38671875 6.74609375 C-6.93359375 7.64328125 -6.93359375 7.64328125 -8.51171875 8.55859375 C-9.46046875 9.28046875 -10.40921875 10.00234375 -11.38671875 10.74609375 C-11.38671875 12.39609375 -11.38671875 14.04609375 -11.38671875 15.74609375 C-6.76671875 15.74609375 -2.14671875 15.74609375 2.61328125 15.74609375 C2.94328125 14.75609375 3.27328125 13.76609375 3.61328125 12.74609375 C5.59328125 12.41609375 7.57328125 12.08609375 9.61328125 11.74609375 C9.61328125 11.08609375 9.61328125 10.42609375 9.61328125 9.74609375 C10.27328125 9.74609375 10.93328125 9.74609375 11.61328125 9.74609375 C10.20864827 13.14062346 8.73704977 14.81371443 5.61328125 16.74609375 C3.23144531 17.08666992 3.23144531 17.08666992 0.62890625 17.0390625 C-0.30566406 17.02939453 -1.24023438 17.01972656 -2.203125 17.00976562 C-3.17121094 16.98462891 -4.13929688 16.95949219 -5.13671875 16.93359375 C-6.12027344 16.92005859 -7.10382813 16.90652344 -8.1171875 16.89257812 C-10.5409229 16.85728101 -12.9635402 16.80797429 -15.38671875 16.74609375 C-15.11911587 9.53610759 -15.11911587 9.53610759 -11.8046875 5.9609375 C-10.73863281 5.20941406 -9.67257812 4.45789063 -8.57421875 3.68359375 C-7.51589844 2.90886719 -6.45757812 2.13414063 -5.3671875 1.3359375 C-2.38671875 -0.25390625 -2.38671875 -0.25390625 0 0 Z " fill="#3A5E83" transform="translate(367.38671875,120.25390625)"/>
<path d="M0 0 C0.66 0.33 1.32 0.66 2 1 C2 1.99 2 2.98 2 4 C1.34 4 0.68 4 0 4 C-0.06058594 4.66386719 -0.12117187 5.32773438 -0.18359375 6.01171875 C-0.26738281 6.89472656 -0.35117187 7.77773437 -0.4375 8.6875 C-0.51871094 9.55761719 -0.59992187 10.42773438 -0.68359375 11.32421875 C-0.98843609 13.90220641 -1.49089259 16.45446295 -2 19 C3.28 19 8.56 19 14 19 C14.33 17.02 14.66 15.04 15 13 C15.33 13 15.66 13 16 13 C16 15.64 16 18.28 16 21 C9.07 21 2.14 21 -5 21 C-3.85635359 10.70718232 -3.85635359 10.70718232 -3.0625 7.125 C-2.90910156 6.40570313 -2.75570312 5.68640625 -2.59765625 4.9453125 C-2 3 -2 3 0 0 Z " fill="#2B587E" transform="translate(537,116)"/>
<path d="M0 0 C3.86882056 1.46748366 5.29173197 3.25807955 7 7 C8.87502237 14.94014575 6.81408503 22.18113757 5.0625 30 C4.76769361 31.36042049 4.47406345 32.72109642 4.18164062 34.08203125 C3.46593289 37.39071292 2.73842667 40.69632807 2 44 C1.67 44 1.34 44 1 44 C0.80607799 38.47322267 1.2520497 34.24385089 3 29 C2.34 28.67 1.68 28.34 1 28 C1.66 26.35 2.32 24.7 3 23 C3.66 23 4.32 23 5 23 C5.0814222 20.77144426 5.13938079 18.54202345 5.1875 16.3125 C5.22230469 15.07113281 5.25710938 13.82976562 5.29296875 12.55078125 C4.97972188 8.7542292 4.30757653 6.98532629 2 4 C1.01 3.34 0.02 2.68 -1 2 C-0.67 1.34 -0.34 0.68 0 0 Z " fill="#4894CF" transform="translate(339,73)"/>
<path d="M0 0 C1.18613892 0.07069702 1.18613892 0.07069702 2.39624023 0.14282227 C3.67724609 0.21533203 3.67724609 0.21533203 4.98413086 0.28930664 C5.88196289 0.34538086 6.77979492 0.40145508 7.70483398 0.45922852 C8.6065332 0.51143555 9.50823242 0.56364258 10.43725586 0.61743164 C12.67259948 0.74753101 14.90754288 0.88250788 17.14233398 1.02172852 C17.47233398 2.01172852 17.80233398 3.00172852 18.14233398 4.02172852 C15.14233398 4.02172852 15.14233398 4.02172852 13.14233398 3.02172852 C9.47218124 2.88396002 5.8162205 2.9790089 2.14233398 3.02172852 C-0.49766602 7.64172852 -3.13766602 12.26172852 -5.85766602 17.02172852 C-6.18766602 17.02172852 -6.51766602 17.02172852 -6.85766602 17.02172852 C-6.85766602 14.05172852 -6.85766602 11.08172852 -6.85766602 8.02172852 C-5.53766602 7.36172852 -4.21766602 6.70172852 -2.85766602 6.02172852 C-2.87829102 5.21735352 -2.89891602 4.41297852 -2.92016602 3.58422852 C-2.83355418 0.03314316 -2.83355418 0.03314316 0 0 Z " fill="#3388CB" transform="translate(306.857666015625,83.978271484375)"/>
<path d="M0 0 C1.50747858 3.96750884 0.51035782 7.13109986 -0.43359375 11.171875 C-0.59038101 11.8542926 -0.74716827 12.53671021 -0.90870667 13.23980713 C-1.40981473 15.41194412 -1.92346009 17.58089096 -2.4375 19.75 C-2.78012868 21.22506745 -3.12193512 22.70032615 -3.46289062 24.17578125 C-4.29907554 27.78611951 -5.14652695 31.39370454 -6 35 C-6.33 35 -6.66 35 -7 35 C-7 29.72 -7 24.44 -7 19 C-6.01 19 -5.02 19 -4 19 C-4.01160156 18.39671875 -4.02320313 17.7934375 -4.03515625 17.171875 C-4.04869141 15.97304687 -4.04869141 15.97304687 -4.0625 14.75 C-4.07410156 13.96109375 -4.08570313 13.1721875 -4.09765625 12.359375 C-4.00332123 10.0802408 -3.61219051 8.18835265 -3 6 C-2.855625 5.113125 -2.71125 4.22625 -2.5625 3.3125 C-2.376875 2.549375 -2.19125 1.78625 -2 1 C-1.34 0.67 -0.68 0.34 0 0 Z " fill="#4793CF" transform="translate(563,84)"/>
<path d="M0 0 C0.66 0 1.32 0 2 0 C2 7.92 2 15.84 2 24 C1.67 24 1.34 24 1 24 C1 20.04 1 16.08 1 12 C-0.32 11.67 -1.64 11.34 -3 11 C-2.938125 12.093125 -2.87625 13.18625 -2.8125 14.3125 C-3 18 -3 18 -4.5 19.9375 C-4.995 20.288125 -5.49 20.63875 -6 21 C-5.55355616 13.41045469 -2.88499438 6.98360263 0 0 Z " fill="#338AC8" transform="translate(49,56)"/>
<path d="M0 0 C23.1 0 46.2 0 70 0 C70 0.33 70 0.66 70 1 C46.9 1 23.8 1 0 1 C0 0.67 0 0.34 0 0 Z " fill="#2B7FB5" transform="translate(465,68)"/>
<path d="M0 0 C0.99 0.33 1.98 0.66 3 1 C3.07427838 4.34252724 3.06546953 6.8035914 2 10 C11.57 10.33 21.14 10.66 31 11 C31 11.33 31 11.66 31 12 C20.11 12 9.22 12 -2 12 C-1.34 8.04 -0.68 4.08 0 0 Z " fill="#32648E" transform="translate(181,125)"/>
<path d="M0 0 C0.66 0 1.32 0 2 0 C2 21.12 2 42.24 2 64 C1.67 64 1.34 64 1 64 C0.67 42.88 0.34 21.76 0 0 Z " fill="#3985BC" transform="translate(127,55)"/>
<path d="M0 0 C4.62663327 0.11844608 9.25306042 0.24270772 13.87939453 0.37231445 C15.45259374 0.41557338 17.02583717 0.45725474 18.59912109 0.49731445 C20.86309115 0.55523662 23.12684051 0.61886714 25.390625 0.68359375 C26.09181458 0.70030624 26.79300415 0.71701874 27.51544189 0.73423767 C30.80233821 0.83351022 33.85142005 1.00812672 37 2 C36.67 2.99 36.34 3.98 36 5 C35.071875 4.7525 35.071875 4.7525 34.125 4.5 C31.44374614 4.07099938 29.19457167 3.98078164 26.5 4.03125 C20.91045125 4.05973178 15.43030273 3.57737697 9.875 3 C8.44027344 2.85691406 8.44027344 2.85691406 6.9765625 2.7109375 C4.65056246 2.4783375 2.32511041 2.24130321 0 2 C0 1.34 0 0.68 0 0 Z " fill="#2284C5" transform="translate(201,79)"/>
<path d="M0 0 C0 0.99 0 1.98 0 3 C-5.73913043 4.95652174 -5.73913043 4.95652174 -8.25 5.375 C-10.21801362 5.87032857 -10.21801362 5.87032857 -11.25 8.0625 C-11.4975 8.701875 -11.745 9.34125 -12 10 C-13.65 9.67 -15.3 9.34 -17 9 C-17 7.68 -17 6.36 -17 5 C-5.47835991 0.59225513 -5.47835991 0.59225513 0 0 Z " fill="#317FB5" transform="translate(72,115)"/>
<path d="M0 0 C-1.875 1.0625 -1.875 1.0625 -4 2 C-4.66 1.67 -5.32 1.34 -6 1 C-6 1.66 -6 2.32 -6 3 C-5.34 3.33 -4.68 3.66 -4 4 C-8.75 5.125 -8.75 5.125 -11 4 C-11 4.66 -11 5.32 -11 6 C-10.01 6.33 -9.02 6.66 -8 7 C-8 7.66 -8 8.32 -8 9 C-10.97 8.01 -13.94 7.02 -17 6 C-17 5.34 -17 4.68 -17 4 C-14.92227529 3.13227971 -12.83756823 2.28126381 -10.75 1.4375 C-9.58984375 0.96183594 -8.4296875 0.48617188 -7.234375 -0.00390625 C-4.13733356 -0.95770524 -2.92678299 -1.20983356 0 0 Z " fill="#398BCA" transform="translate(92,27)"/>
<path d="M0 0 C16.08845765 -1.22578725 16.08845765 -1.22578725 20.61328125 1.67578125 C22.375 3.8125 22.375 3.8125 23.7109375 5.95703125 C25.17004745 8.26949944 26.74943045 9.48206267 29 11 C27.35 11.33 25.7 11.66 24 12 C24 11.34 24 10.68 24 10 C23.01 9.67 22.02 9.34 21 9 C20.3125 6.9375 20.3125 6.9375 20 5 C18.68 5 17.36 5 16 5 C15.34 3.68 14.68 2.36 14 1 C9.38 1 4.76 1 0 1 C0 0.67 0 0.34 0 0 Z " fill="#3189C4" transform="translate(394,97)"/>
<path d="M0 0 C0.33 0 0.66 0 1 0 C1 19.14 1 38.28 1 58 C0.67 58 0.34 58 0 58 C0 38.86 0 19.72 0 0 Z " fill="#146DA8" transform="translate(52,57)"/>
<path d="M0 0 C18.81 0 37.62 0 57 0 C57 0.33 57 0.66 57 1 C38.19 1 19.38 1 0 1 C0 0.67 0 0.34 0 0 Z " fill="#297FB5" transform="translate(193,68)"/>
<path d="M0 0 C18.15 0 36.3 0 55 0 C55 0.33 55 0.66 55 1 C36.85 1 18.7 1 0 1 C0 0.67 0 0.34 0 0 Z " fill="#2D658D" transform="translate(180,138)"/>
<path d="M0 0 C17.82 0 35.64 0 54 0 C54 0.33 54 0.66 54 1 C36.18 1 18.36 1 0 1 C0 0.67 0 0.34 0 0 Z " fill="#27618A" transform="translate(467,138)"/>
<path d="M0 0 C2 2 2 2 2 5.8125 C1.98324219 6.5240625 1.96648437 7.235625 1.94921875 7.96875 C2.03734773 11.4939092 3.12167597 14.00711196 5.4375 16.625 C5.953125 17.07875 6.46875 17.5325 7 18 C8 19 9 20 10 21 C7.34303932 20.84817368 5.55765476 20.52675976 3.58984375 18.66796875 C0.1504288 14.54668728 -1.14035716 12.2828631 -1.125 7 C-1.12757813 6.113125 -1.13015625 5.22625 -1.1328125 4.3125 C-1 2 -1 2 0 0 Z " fill="#2D5375" transform="translate(455,114)"/>
<path d="M0 0 C2.125 1.5 2.125 1.5 4 4 C3.74623625 6.89070012 2.92790671 9.21627986 2 12 C1.34 12 0.68 12 0 12 C0.33 14.31 0.66 16.62 1 19 C-0.32 19.99 -1.64 20.98 -3 22 C-2.36783625 16.41588685 -1.46857681 10.93591941 -0.40234375 5.41796875 C0.08207028 2.9153173 0.08207028 2.9153173 0 0 Z " fill="#348BC6" transform="translate(239,85)"/>
<path d="M0 0 C0.33 0 0.66 0 1 0 C1 17.49 1 34.98 1 53 C0.67 53 0.34 53 0 53 C0 35.51 0 18.02 0 0 Z " fill="#418ABF" transform="translate(109,61)"/>
<path d="M0 0 C-0.14042877 1.64630328 -0.28749329 3.29204179 -0.4375 4.9375 C-0.51871094 5.85402344 -0.59992188 6.77054688 -0.68359375 7.71484375 C-1 10 -1 10 -2 11 C-3.4887186 11.08669432 -4.981445 11.10703494 -6.47265625 11.09765625 C-7.37177734 11.09443359 -8.27089844 11.09121094 -9.19726562 11.08789062 C-10.14279297 11.07951172 -11.08832031 11.07113281 -12.0625 11.0625 C-13.01189453 11.05798828 -13.96128906 11.05347656 -14.93945312 11.04882812 C-17.29303065 11.0370011 -19.64648477 11.02052025 -22 11 C-22 10.67 -22 10.34 -22 10 C-16.72 10 -11.44 10 -6 10 C-6 9.34 -6 8.68 -6 8 C-5.34 7.67 -4.68 7.34 -4 7 C-4.061875 6.21625 -4.12375 5.4325 -4.1875 4.625 C-4.0946875 3.325625 -4.0946875 3.325625 -4 2 C-1 0 -1 0 0 0 Z " fill="#3389C8" transform="translate(440,126)"/>
<path d="M0 0 C0.99 0 1.98 0 3 0 C3 0.66 3 1.32 3 2 C10.26 2 17.52 2 25 2 C25 2.33 25 2.66 25 3 C22.10452736 3.33675279 19.20868928 3.66951734 16.3125 4 C15.49587891 4.09539062 14.67925781 4.19078125 13.83789062 4.2890625 C9.87139948 4.73870522 5.99997537 5.13034543 2 5 C2 4.34 2 3.68 2 3 C1.34 3 0.68 3 0 3 C0 2.01 0 1.02 0 0 Z " fill="#23608C" transform="translate(200,123)"/>
<path d="M0 0 C16.17 0 32.34 0 49 0 C49 0.33 49 0.66 49 1 C32.83 1.33 16.66 1.66 0 2 C0 1.34 0 0.68 0 0 Z " fill="#052F91" transform="translate(483,87)"/>
<path d="M0 0 C0.66 0 1.32 0 2 0 C3.28571429 7.42857143 3.28571429 7.42857143 2 11 C1.34 11 0.68 11 0 11 C-0.04898438 11.71027344 -0.09796875 12.42054687 -0.1484375 13.15234375 C-0.22320312 14.07144531 -0.29796875 14.99054688 -0.375 15.9375 C-0.47941406 17.31228516 -0.47941406 17.31228516 -0.5859375 18.71484375 C-0.72257813 19.46894531 -0.85921875 20.22304687 -1 21 C-1.66 21.33 -2.32 21.66 -3 22 C-3.45755719 14.37404682 -1.74536299 7.3970146 0 0 Z " fill="#2D638F" transform="translate(186,102)"/>
<path d="M0 0 C0.66 0.33 1.32 0.66 2 1 C0.47793991 3.62901288 -0.84365964 5.84365964 -3 8 C-3.99 8 -4.98 8 -6 8 C-6.33 8.99 -6.66 9.98 -7 11 C-8.65 11.33 -10.3 11.66 -12 12 C-10.47940093 8.11985064 -8.13921469 6.26093438 -4.875 3.75 C-3.96492188 3.04359375 -3.05484375 2.3371875 -2.1171875 1.609375 C-1.41851562 1.07828125 -0.71984375 0.5471875 0 0 Z " fill="#3B7CAA" transform="translate(390,100)"/>
<path d="M0 0 C0.33 0 0.66 0 1 0 C1.02693575 2.12493141 1.04636628 4.24995912 1.0625 6.375 C1.07410156 7.55835937 1.08570313 8.74171875 1.09765625 9.9609375 C1 13 1 13 0 15 C-1.97888961 15.72693904 -3.97954558 16.39816251 -6 17 C-6.66 16.34 -7.32 15.68 -8 15 C-7.401875 14.835 -6.80375 14.67 -6.1875 14.5 C-2.12727715 11.71584719 -1.3695013 6.61236931 -0.3125 2 C-0.209375 1.34 -0.10625 0.68 0 0 Z " fill="#539BD1" transform="translate(235,108)"/>
<path d="M0 0 C3.86882056 1.46748366 5.29173197 3.25807955 7 7 C8.03083916 11.50650038 8.26507406 15.50195888 7 20 C6.67 20 6.34 20 6 20 C5.94392578 18.89591797 5.94392578 18.89591797 5.88671875 17.76953125 C5.51529355 10.35862959 5.51529355 10.35862959 2 4 C1.01 3.34 0.02 2.68 -1 2 C-0.67 1.34 -0.34 0.68 0 0 Z " fill="#599ED3" transform="translate(339,73)"/>
<path d="M0 0 C-1.32 4.95 -2.64 9.9 -4 15 C-5.05347893 11.83956322 -5.01739488 9.24317772 -4.96875 5.94140625 C-5.00265625 3.83498031 -5.33367222 1.99898333 -6 0 C-3 -1 -3 -1 0 0 Z " fill="#318ACA" transform="translate(536,71)"/>
<path d="M0 0 C1.41027742 2.29300663 2.04974027 3.5370946 1.7578125 6.25390625 C1.54898438 7.01574219 1.34015625 7.77757813 1.125 8.5625 C0.41105918 11.24203737 0 13.19688338 0 16 C-0.52283428 19.34613938 -1.5696266 20.70645727 -4 23 C-3.32545897 15.1753241 -1.73123042 7.65443386 0 0 Z " fill="#378CCA" transform="translate(543,82)"/>
<path d="M0 0 C13.2 0 26.4 0 40 0 C40 0.33 40 0.66 40 1 C26.8 1 13.6 1 0 1 C0 0.67 0 0.34 0 0 Z " fill="#2A7FB6" transform="translate(295,68)"/>
<path d="M0 0 C2.83363811 0.62364257 5.66690959 1.24887814 8.5 1.875 C9.68722656 2.13603516 9.68722656 2.13603516 10.8984375 2.40234375 C15.95470933 3.52135473 20.98142181 4.72233445 26 6 C26 6.33 26 6.66 26 7 C23.88660849 6.76139128 21.77326327 6.52236522 19.66015625 6.28125 C17.85783442 6.09069615 16.05277023 5.92475905 14.24609375 5.78125 C13.36050781 5.7090625 12.47492188 5.636875 11.5625 5.5625 C10.32693359 5.47162109 10.32693359 5.47162109 9.06640625 5.37890625 C7 5 7 5 5 3 C3.35008418 2.29289322 1.68437744 1.62056011 0 1 C0 0.67 0 0.34 0 0 Z " fill="#5A9FD2" transform="translate(81,54)"/>
<path d="M0 0 C3.86602445 3.61660352 4.92985578 5.52697133 5.1875 10.9375 C5.15827158 14.11170617 4.80180892 16.29728662 3 19 C2.08045602 15.91346865 1.94875128 13.27219204 2.0625 10.0625 C2.11328624 6.24224584 1.83462752 3.4399266 0 0 Z " fill="#4F97CF" transform="translate(257,75)"/>
<path d="M0 0 C-1.32 0.33 -2.64 0.66 -4 1 C-4.33 2.32 -4.66 3.64 -5 5 C-5.66 5 -6.32 5 -7 5 C-7 5.66 -7 6.32 -7 7 C-9.97 6.505 -9.97 6.505 -13 6 C-12 3 -12 3 -9.78515625 1.796875 C-8.43744141 1.27867187 -8.43744141 1.27867187 -7.0625 0.75 C-6.16660156 0.39421875 -5.27070312 0.0384375 -4.34765625 -0.328125 C-2 -1 -2 -1 0 0 Z " fill="#3F89BC" transform="translate(93,137)"/>
<path d="M0 0 C0.33 0 0.66 0 1 0 C1.33 2.31 1.66 4.62 2 7 C1.34 7 0.68 7 0 7 C0.18433594 7.57234375 0.36867188 8.1446875 0.55859375 8.734375 C1.28163726 12.44557179 0.02067687 15.39761105 -1 19 C-1.66 18.67 -2.32 18.34 -3 18 C-2.41509121 11.85845775 -1.45933748 5.99320151 0 0 Z " fill="#3A78A6" transform="translate(463,75)"/>
<path d="M0 0 C11.88 0 23.76 0 36 0 C36 0.33 36 0.66 36 1 C24.12 1 12.24 1 0 1 C0 0.67 0 0.34 0 0 Z " fill="#00226B" transform="translate(487,119)"/>
<path d="M0 0 C0 2 0 2 -1.625 4.125 C-4.62645376 6.49456876 -6.2676388 6.24341486 -10 6 C-10.99 6.495 -10.99 6.495 -12 7 C-12.66 6.34 -13.32 5.68 -14 5 C-12.04350603 4.16235732 -10.08474444 3.33000941 -8.125 2.5 C-6.48917969 1.80390625 -6.48917969 1.80390625 -4.8203125 1.09375 C-2 0 -2 0 0 0 Z " fill="#398BC9" transform="translate(116,126)"/>
<path d="M0 0 C0.66 0.33 1.32 0.66 2 1 C2 1.99 2 2.98 2 4 C1.34 4 0.68 4 0 4 C-0.03738281 4.69867188 -0.07476563 5.39734375 -0.11328125 6.1171875 C-0.17902344 7.02726562 -0.24476563 7.93734375 -0.3125 8.875 C-0.37050781 9.77992187 -0.42851563 10.68484375 -0.48828125 11.6171875 C-1 14 -1 14 -4 16 C-3.6083965 10.04492601 -2.62875405 5.37180176 0 0 Z " fill="#2C638F" transform="translate(537,116)"/>
<path d="M0 0 C0.6875 1.6875 0.6875 1.6875 1 4 C-0.52876916 7.13397678 -2.26516416 9.81213133 -5 12 C-7.1875 12.6875 -7.1875 12.6875 -9 13 C-9 12.34 -9 11.68 -9 11 C-7.68 10.67 -6.36 10.34 -5 10 C-4.87625 9.4225 -4.7525 8.845 -4.625 8.25 C-3.99351176 5.97664233 -3.11141809 4.0746471 -2 2 C-1.34 2 -0.68 2 0 2 C0 1.34 0 0.68 0 0 Z " fill="#439861" transform="translate(317,108)"/>
<path d="M0 0 C3.45854519 3.45854519 4 7.21904213 4 12 C4.66 12 5.32 12 6 12 C6.33 11.34 6.66 10.68 7 10 C7 12.31 7 14.62 7 17 C6.34 17 5.68 17 5 17 C4.15838146 14.91999989 3.32699237 12.83585854 2.5 10.75 C2.0359375 9.58984375 1.571875 8.4296875 1.09375 7.234375 C0 4 0 4 0 0 Z " fill="#4489BD" transform="translate(44,98)"/>
<path d="M0 0 C0.66 0.33 1.32 0.66 2 1 C1.835 1.928125 1.67 2.85625 1.5 3.8125 C0.92251612 6.95621353 0.92251612 6.95621353 1 10 C0 12.1875 0 12.1875 -1 14 C-1.66 14 -2.32 14 -3 14 C-2.58846263 9.02906176 -2.20399168 4.55491614 0 0 Z " fill="#37688F" transform="translate(459,97)"/>
<path d="M0 0 C2.41760876 0.11426509 4.83347218 0.24099661 7.25 0.375 C7.93191406 0.4059375 8.61382812 0.436875 9.31640625 0.46875 C12.98739038 0.68259374 15.86251616 1.01077055 19 3 C18.39671875 2.98839844 17.7934375 2.97679687 17.171875 2.96484375 C16.37265625 2.95582031 15.5734375 2.94679688 14.75 2.9375 C13.96109375 2.92589844 13.1721875 2.91429687 12.359375 2.90234375 C10.09308998 2.99614694 8.1711105 3.36758937 6 4 C6 3.67 6 3.34 6 3 C3.03 2.505 3.03 2.505 0 2 C0 1.34 0 0.68 0 0 Z " fill="#63A2D3" transform="translate(100,24)"/>
<path d="M0 0 C0.33 0 0.66 0 1 0 C0.45136137 6.7857936 -0.54267938 13.35009036 -2 20 C-2.33 20 -2.66 20 -3 20 C-3.55353075 6.3667426 -3.55353075 6.3667426 0 0 Z " fill="#4090CD" transform="translate(443,106)"/>
<path d="M0 0 C10.89 0 21.78 0 33 0 C33 0.33 33 0.66 33 1 C22.11 1 11.22 1 0 1 C0 0.67 0 0.34 0 0 Z " fill="#2A8B52" transform="translate(485,95)"/>
<path d="M0 0 C0.99 0.33 1.98 0.66 3 1 C3.08004482 4.5219721 3.04005702 7.61981469 2 11 C1.01 11 0.02 11 -1 11 C-0.67 7.37 -0.34 3.74 0 0 Z " fill="#295479" transform="translate(181,125)"/>
<path d="M0 0 C2.32590854 3.63423209 2.16265833 6.77088331 2 11 C0.02 11.99 0.02 11.99 -2 13 C-1.85769192 11.58297487 -1.71099254 10.1663904 -1.5625 8.75 C-1.48128906 7.96109375 -1.40007812 7.1721875 -1.31640625 6.359375 C-1.02365007 4.17635361 -0.57935581 2.1226818 0 0 Z " fill="#3D8ECD" transform="translate(322,102)"/>
<path d="M0 0 C1.37095624 3.69037278 0.60010967 5.70883835 -0.9375 9.25 C-1.31777344 10.14203125 -1.69804688 11.0340625 -2.08984375 11.953125 C-2.39019531 12.62859375 -2.69054687 13.3040625 -3 14 C-3.88063526 10.83891372 -3.954973 9.15141092 -3 6 C-2.855625 5.113125 -2.71125 4.22625 -2.5625 3.3125 C-2.376875 2.549375 -2.19125 1.78625 -2 1 C-1.34 0.67 -0.68 0.34 0 0 Z " fill="#3A8BC8" transform="translate(563,84)"/>
<path d="M0 0 C1 3 1 3 1 6 C0.360625 6.103125 -0.27875 6.20625 -0.9375 6.3125 C-1.618125 6.539375 -2.29875 6.76625 -3 7 C-3.33 7.99 -3.66 8.98 -4 10 C-4.66 10 -5.32 10 -6 10 C-2.62068966 1.31034483 -2.62068966 1.31034483 0 0 Z " fill="#376892" transform="translate(271,113)"/>
<path d="M0 0 C9.57 0 19.14 0 29 0 C29 0.33 29 0.66 29 1 C19.43 1 9.86 1 0 1 C0 0.67 0 0.34 0 0 Z " fill="#2F8A56" transform="translate(483,111)"/>
<path d="M0 0 C0.99 0 1.98 0 3 0 C3 3.3 3 6.6 3 10 C2.34 10 1.68 10 1 10 C0.63883954 8.5225254 0.28624952 7.04295325 -0.0625 5.5625 C-0.25972656 4.73878906 -0.45695312 3.91507812 -0.66015625 3.06640625 C-0.82837891 2.04353516 -0.82837891 2.04353516 -1 1 C-0.67 0.67 -0.34 0.34 0 0 Z " fill="#0A6DAC" transform="translate(47,100)"/>
<path d="M0 0 C1.61949011 2.57213134 2.04408751 3.67669159 1.625 6.75 C1.41875 7.4925 1.2125 8.235 1 9 C-0.32 9.33 -1.64 9.66 -3 10 C-2.88637738 8.5199159 -2.75877092 7.04089926 -2.625 5.5625 C-2.55539062 4.73878906 -2.48578125 3.91507812 -2.4140625 3.06640625 C-2.27742187 2.38449219 -2.14078125 1.70257813 -2 1 C-1.34 0.67 -0.68 0.34 0 0 Z " fill="#2E77AB" transform="translate(539,108)"/>
<path d="M0 0 C8.19256018 0.35010941 8.19256018 0.35010941 11.5625 3.0625 C12.036875 3.701875 12.51125 4.34125 13 5 C8.02693484 4.50269348 4.36200187 3.44697666 0 1 C0 0.67 0 0.34 0 0 Z " fill="#4894CE" transform="translate(244,70)"/>
<path d="M0 0 C2.45862401 -0.05383848 4.9160755 -0.09359038 7.375 -0.125 C8.42300781 -0.15013672 8.42300781 -0.15013672 9.4921875 -0.17578125 C11.32897486 -0.19344267 13.16601963 -0.10303261 15 0 C15.66 0.66 16.32 1.32 17 2 C15.66195313 1.96519531 15.66195313 1.96519531 14.296875 1.9296875 C12.54117187 1.90261719 12.54117187 1.90261719 10.75 1.875 C9.58984375 1.85179688 8.4296875 1.82859375 7.234375 1.8046875 C4.17213954 1.9896051 2.55797249 2.39176977 0 4 C0 2.68 0 1.36 0 0 Z " fill="#287DB9" transform="translate(464,70)"/>
<path d="M0 0 C0.33 0 0.66 0 1 0 C0.52013969 5.56890517 -0.29915181 10.67067568 -2 16 C-2.96070434 13.11788698 -3.10581883 11.30149956 -3.0625 8.3125 C-3.05347656 7.50425781 -3.04445313 6.69601563 -3.03515625 5.86328125 C-3.02355469 5.24839844 -3.01195312 4.63351563 -3 4 C-2.01 3.67 -1.02 3.34 0 3 C0 2.01 0 1.02 0 0 Z " fill="#468EC6" transform="translate(523,121)"/>
<path d="M0 0 C0.66 1.32 1.32 2.64 2 4 C1.01 5.485 1.01 5.485 0 7 C-0.66 7 -1.32 7 -2 7 C-2.66 8.32 -3.32 9.64 -4 11 C-4.33 10.34 -4.66 9.68 -5 9 C-4.00390625 6.8359375 -4.00390625 6.8359375 -2.5625 4.375 C-2.08941406 3.55773437 -1.61632812 2.74046875 -1.12890625 1.8984375 C-0.75636719 1.27195312 -0.38382812 0.64546875 0 0 Z " fill="#355C80" transform="translate(264,123)"/>
<path d="M0 0 C6.27 0 12.54 0 19 0 C19 0.99 19 1.98 19 3 C18.01 3 17.02 3 16 3 C16 2.34 16 1.68 16 1 C10.72 1 5.44 1 0 1 C0 0.67 0 0.34 0 0 Z " fill="#1877BE" transform="translate(504,121)"/>
<path d="M0 0 C1 2 1 2 0.3125 5 C-1 8 -1 8 -3.125 9.375 C-3.74375 9.58125 -4.3625 9.7875 -5 10 C-3.84414715 6.08788267 -2.64465038 3.1254959 0 0 Z " fill="#3E8DCB" transform="translate(295,70)"/>
<path d="M0 0 C0.66 0 1.32 0 2 0 C0.63016497 3.16115776 0.0109362 3.9927092 -3 6 C-4.32 6 -5.64 6 -7 6 C-6.67 5.01 -6.34 4.02 -6 3 C-4.02 2.67 -2.04 2.34 0 2 C0 1.34 0 0.68 0 0 Z " fill="#225782" transform="translate(377,130)"/>
<path d="M0 0 C7.26 0.33 14.52 0.66 22 1 C22 1.33 22 1.66 22 2 C14.74 2 7.48 2 0 2 C0 1.34 0 0.68 0 0 Z " fill="#7A94AF" transform="translate(205,121)"/>
<path d="M0 0 C0.85276722 2.41707906 1.12087895 3.64003451 0.29296875 6.10546875 C-0.25423828 7.13607422 -0.25423828 7.13607422 -0.8125 8.1875 C-1.34810547 9.22970703 -1.34810547 9.22970703 -1.89453125 10.29296875 C-3 12 -3 12 -5 13 C-4.42415568 10.61435923 -3.77772405 8.33317216 -3 6 C-2.34 6 -1.68 6 -1 6 C-0.67 4.02 -0.34 2.04 0 0 Z " fill="#4D99D2" transform="translate(255,114)"/>
<path d="M0 0 C3.87132028 0.57352893 6.08172796 2.48704352 9 5 C7.35 5.33 5.7 5.66 4 6 C4 5.34 4 4.68 4 4 C3.01 3.67 2.02 3.34 1 3 C0.67 2.01 0.34 1.02 0 0 Z " fill="#4690C9" transform="translate(414,103)"/>
<path d="M0 0 C0.33 0 0.66 0 1 0 C1.27615058 1.59987236 1.52007625 3.205333 1.75 4.8125 C1.88921875 5.70582031 2.0284375 6.59914063 2.171875 7.51953125 C2 10 2 10 0.015625 11.82421875 C-0.98210937 12.40623047 -0.98210937 12.40623047 -2 13 C-1.48041715 8.62065881 -0.94324258 4.31196609 0 0 Z " fill="#4897CF" transform="translate(238,94)"/>
<path d="M0 0 C7.26 0 14.52 0 22 0 C22 0.33 22 0.66 22 1 C14.74 1 7.48 1 0 1 C0 0.67 0 0.34 0 0 Z " fill="#2B5878" transform="translate(257,138)"/>
<path d="M0 0 C1.07310858 3.27185553 0.89263102 5.42947592 0.0625 8.75 C-0.22947266 9.94882813 -0.22947266 9.94882813 -0.52734375 11.171875 C-0.68332031 11.77515625 -0.83929688 12.3784375 -1 13 C-1.33 13 -1.66 13 -2 13 C-2.33 10.36 -2.66 7.72 -3 5 C-2.34 5 -1.68 5 -1 5 C-0.67 3.35 -0.34 1.7 0 0 Z " fill="#4E97D1" transform="translate(258,100)"/>
<path d="M0 0 C1.98 0 3.96 0 6 0 C4.68 0.33 3.36 0.66 2 1 C2.33 2.32 2.66 3.64 3 5 C2.34 5 1.68 5 1 5 C0.67 6.65 0.34 8.3 0 10 C-1.2380014 6.42355152 -0.74926071 3.66305234 0 0 Z " fill="#4B9E6A" transform="translate(484,97)"/>
<path d="M0 0 C6.93 0 13.86 0 21 0 C21 0.33 21 0.66 21 1 C14.07 1 7.14 1 0 1 C0 0.67 0 0.34 0 0 Z " fill="#335876" transform="translate(352,138)"/>
<path d="M0 0 C-0.33 0.99 -0.66 1.98 -1 3 C-4.0625 4.1875 -4.0625 4.1875 -7 5 C-7.66 4.34 -8.32 3.68 -9 3 C-2.25 0 -2.25 0 0 0 Z " fill="#3B8CC5" transform="translate(102,132)"/>
<path d="M0 0 C0.66 0 1.32 0 2 0 C0.7508258 3.45925163 -0.67527795 6.14693203 -3 9 C-3 7.68 -3 6.36 -3 5 C-3.66 4.67 -4.32 4.34 -5 4 C-4.01 3.67 -3.02 3.34 -2 3 C-1.34 2.01 -0.68 1.02 0 0 Z " fill="#3E81B1" transform="translate(293,109)"/>
<path d="M0 0 C2.0625 0.4375 2.0625 0.4375 4 1 C2.1875 3 2.1875 3 0 5 C-0.99 5 -1.98 5 -3 5 C-1.125 1.125 -1.125 1.125 0 0 Z " fill="#2F6C9D" transform="translate(381,107)"/>
<path d="M0 0 C6.93 0 13.86 0 21 0 C21 0.33 21 0.66 21 1 C14.07 1 7.14 1 0 1 C0 0.67 0 0.34 0 0 Z " fill="#01408C" transform="translate(189,88)"/>
<path d="M0 0 C6.93 0 13.86 0 21 0 C21 0.33 21 0.66 21 1 C14.07 1 7.14 1 0 1 C0 0.67 0 0.34 0 0 Z " fill="#3486BC" transform="translate(546,68)"/>
<path d="M0 0 C6.6 0 13.2 0 20 0 C20 0.33 20 0.66 20 1 C13.4 1 6.8 1 0 1 C0 0.67 0 0.34 0 0 Z " fill="#365C79" transform="translate(532,138)"/>
<path d="M0 0 C6.6 0 13.2 0 20 0 C20 0.33 20 0.66 20 1 C13.4 1 6.8 1 0 1 C0 0.67 0 0.34 0 0 Z " fill="#3485BA" transform="translate(418,138)"/>
<path d="M0 0 C6.6 0 13.2 0 20 0 C20 0.33 20 0.66 20 1 C13.4 1 6.8 1 0 1 C0 0.67 0 0.34 0 0 Z " fill="#2C81B9" transform="translate(316,138)"/>
<path d="M0 0 C0.66 0.66 1.32 1.32 2 2 C1 4 1 4 -2.0625 5.125 C-3.5165625 5.558125 -3.5165625 5.558125 -5 6 C-5.66 5.34 -6.32 4.68 -7 4 C-4.69 2.68 -2.38 1.36 0 0 Z " fill="#3588C4" transform="translate(234,119)"/>
<path d="M0 0 C6.6 0 13.2 0 20 0 C20 0.33 20 0.66 20 1 C13.4 1 6.8 1 0 1 C0 0.67 0 0.34 0 0 Z " fill="#3785BC" transform="translate(431,68)"/>
<path d="M0 0 C6.6 0 13.2 0 20 0 C20 0.33 20 0.66 20 1 C13.4 1 6.8 1 0 1 C0 0.67 0 0.34 0 0 Z " fill="#2C8953" transform="translate(366,68)"/>
<path d="M0 0 C1.32 0.33 2.64 0.66 4 1 C2.824375 1.928125 2.824375 1.928125 1.625 2.875 C-0.96837647 4.89858661 -0.96837647 4.89858661 -3 7 C-3 3.48283697 -2.17554415 2.62878252 0 0 Z " fill="#1B4F7C" transform="translate(365,120)"/>
<path d="M0 0 C0.66 0 1.32 0 2 0 C0.90931332 3.77545388 0.0916909 6.47043472 -3 9 C-2.25 2.25 -2.25 2.25 0 0 Z " fill="#4277A5" transform="translate(287,119)"/>
<path d="M0 0 C5.94 0.33 11.88 0.66 18 1 C18 1.33 18 1.66 18 2 C12.06 2 6.12 2 0 2 C0 1.34 0 0.68 0 0 Z " fill="#13713A" transform="translate(301,101)"/>
<path d="M0 0 C1.07310858 3.27185553 0.89263102 5.42947592 0.0625 8.75 C-0.22947266 9.94882813 -0.22947266 9.94882813 -0.52734375 11.171875 C-0.68332031 11.77515625 -0.83929687 12.3784375 -1 13 C-1.33 13 -1.66 13 -2 13 C-3.19876651 7.55106131 -2.91360308 4.77830905 0 0 Z " fill="#529DD5" transform="translate(566,70)"/>
<path d="M0 0 C3.24208567 0.35049575 4.61527704 0.56221181 6.8125 3.0625 C7.204375 3.701875 7.59625 4.34125 8 5 C5.125 4.75 5.125 4.75 2 4 C0.625 1.9375 0.625 1.9375 0 0 Z " fill="#247EC7" transform="translate(408,98)"/>
<path d="M0 0 C0.33 0 0.66 0 1 0 C1.24954005 1.43410368 1.47392642 2.87260072 1.6875 4.3125 C1.87892578 5.51326172 1.87892578 5.51326172 2.07421875 6.73828125 C2 9 2 9 -1 12 C-0.67 8.04 -0.34 4.08 0 0 Z " fill="#3C92CF" transform="translate(324,90)"/>
<path d="M0 0 C5.94 0 11.88 0 18 0 C18 0.33 18 0.66 18 1 C12.06 1 6.12 1 0 1 C0 0.67 0 0.34 0 0 Z " fill="#2A7FB6" transform="translate(394,95)"/>
<path d="M0 0 C0.99 0 1.98 0 3 0 C3 2.31 3 4.62 3 7 C2.01 6.67 1.02 6.34 0 6 C0 4.02 0 2.04 0 0 Z " fill="#254D70" transform="translate(353,129)"/>
<path d="M0 0 C2 4 2 4 1.25 7.1875 C0 10 0 10 -2 11 C-1.34 7.37 -0.68 3.74 0 0 Z " fill="#4F9BD2" transform="translate(543,82)"/>
<path d="M0 0 C0.66 0 1.32 0 2 0 C1.25 7.75 1.25 7.75 -1 10 C-1.125 2.25 -1.125 2.25 0 0 Z " fill="#4791CF" transform="translate(532,76)"/>
<path d="M0 0 C5.28 0 10.56 0 16 0 C16 0.33 16 0.66 16 1 C10.72 1 5.44 1 0 1 C0 0.67 0 0.34 0 0 Z " fill="#24864A" transform="translate(292,122)"/>
<path d="M0 0 C3.63 0 7.26 0 11 0 C11 0.33 11 0.66 11 1 C7.37 1 3.74 1 0 1 C0 0.67 0 0.34 0 0 Z " fill="#4A94BC" transform="translate(98,148)"/>
<path d="M0 0 C1.10844919 3.32534757 0.84454356 5.62182575 0 9 C-1.125 7.3125 -1.125 7.3125 -2 5 C-1.125 2.25 -1.125 2.25 0 0 Z " fill="#3F728B" transform="translate(318,112)"/>
<path d="M0 0 C3.3 0 6.6 0 10 0 C10 0.33 10 0.66 10 1 C6.7 1.33 3.4 1.66 0 2 C0 1.34 0 0.68 0 0 Z " fill="#135FAB" transform="translate(309,87)"/>
<path d="M0 0 C0.33 0 0.66 0 1 0 C1 3.63 1 7.26 1 11 C0.67 11 0.34 11 0 11 C0 7.37 0 3.74 0 0 Z " fill="#6A99C1" transform="translate(40,80)"/>
<path d="M0 0 C0.99 0.33 1.98 0.66 3 1 C3 3.31 3 5.62 3 8 C2.67 8 2.34 8 2 8 C1.34 5.36 0.68 2.72 0 0 Z " fill="#5785B4" transform="translate(320,88)"/>
<path d="M0 0 C0.33 0 0.66 0 1 0 C1 2.97 1 5.94 1 9 C0.67 9 0.34 9 0 9 C0 6.03 0 3.06 0 0 Z " fill="#32506A" transform="translate(452,117)"/>
<path d="M0 0 C0.66 0.66 1.32 1.32 2 2 C0.02 2.99 0.02 2.99 -2 4 C-2.33 3.34 -2.66 2.68 -3 2 C-2.01 1.34 -1.02 0.68 0 0 Z " fill="#566E69" transform="translate(358,122)"/>
<path d="M0 0 C0.33 0 0.66 0 1 0 C1 2.31 1 4.62 1 7 C0.67 7 0.34 7 0 7 C0 4.69 0 2.38 0 0 Z " fill="#255BA4" transform="translate(165,89)"/>
<path d="M0 0 C2.31 0 4.62 0 7 0 C7 0.33 7 0.66 7 1 C4.69 1 2.38 1 0 1 C0 0.67 0 0.34 0 0 Z " fill="#3B74A8" transform="translate(107,23)"/>
<path d="M0 0 C1.98 0 3.96 0 6 0 C6 0.33 6 0.66 6 1 C4.02 1 2.04 1 0 1 C0 0.67 0 0.34 0 0 Z " fill="#2D6397" transform="translate(91,147)"/>
<path d="M0 0 C0.33 0 0.66 0 1 0 C1 1.98 1 3.96 1 6 C0.67 6 0.34 6 0 6 C0 4.02 0 2.04 0 0 Z " fill="#5A98C4" transform="translate(263,83)"/>
<path d="M0 0 C0.33 0 0.66 0 1 0 C1 1.98 1 3.96 1 6 C0.67 6 0.34 6 0 6 C0 4.02 0 2.04 0 0 Z " fill="#366DAC" transform="translate(165,75)"/>
<path d="M0 0 C1.98 0 3.96 0 6 0 C6 0.33 6 0.66 6 1 C4.02 1 2.04 1 0 1 C0 0.67 0 0.34 0 0 Z " fill="#437DAF" transform="translate(93,23)"/>
<path d="M0 0 C1.65 0 3.3 0 5 0 C5 0.33 5 0.66 5 1 C3.35 1 1.7 1 0 1 C0 0.67 0 0.34 0 0 Z " fill="#2567A9" transform="translate(110,147)"/>
<path d="M0 0 C0.66 0.66 1.32 1.32 2 2 C1.01 2.33 0.02 2.66 -1 3 C-0.67 2.01 -0.34 1.02 0 0 Z " fill="#677674" transform="translate(362,119)"/>
<path d="M0 0 C0.33 0 0.66 0 1 0 C1 1.65 1 3.3 1 5 C0.67 5 0.34 5 0 5 C0 3.35 0 1.7 0 0 Z " fill="#4578A7" transform="translate(341,117)"/>
<path d="M0 0 C0.33 0 0.66 0 1 0 C1 1.65 1 3.3 1 5 C0.67 5 0.34 5 0 5 C0 3.35 0 1.7 0 0 Z " fill="#3866A4" transform="translate(443,116)"/>
<path d="M0 0 C0.66 0.66 1.32 1.32 2 2 C1.01 2.33 0.02 2.66 -1 3 C-0.67 2.01 -0.34 1.02 0 0 Z " fill="#63797C" transform="translate(367,115)"/>
<path d="M0 0 C0 0.99 0 1.98 0 3 C-0.66 2.34 -1.32 1.68 -2 1 C-1.34 0.67 -0.68 0.34 0 0 Z " fill="#5E7473" transform="translate(371,112)"/>
<path d="M0 0 C0.33 0 0.66 0 1 0 C1 1.65 1 3.3 1 5 C0.67 5 0.34 5 0 5 C0 3.35 0 1.7 0 0 Z " fill="#38744D" transform="translate(482,98)"/>
<path d="M0 0 C0.33 0 0.66 0 1 0 C1 1.65 1 3.3 1 5 C0.67 5 0.34 5 0 5 C0 3.35 0 1.7 0 0 Z " fill="#36618C" transform="translate(41,93)"/>
<path d="M0 0 C0.33 0 0.66 0 1 0 C1 1.65 1 3.3 1 5 C0.67 5 0.34 5 0 5 C0 3.35 0 1.7 0 0 Z " fill="#5477A1" transform="translate(41,73)"/>
<path d="M0 0 C4 1 4 1 4 1 Z " fill="#4071A4" transform="translate(116,146)"/>
<path d="M0 0 C1 4 1 4 1 4 Z " fill="#314156" transform="translate(350,133)"/>
<path d="M0 0 C1 4 1 4 1 4 Z " fill="#3C73B0" transform="translate(338,132)"/>
<path d="M0 0 C1 4 1 4 1 4 Z " fill="#466EA4" transform="translate(440,131)"/>
<path d="M0 0 C1 4 1 4 1 4 Z " fill="#4E87B1" transform="translate(314,131)"/>
<path d="M0 0 C1 4 1 4 1 4 Z " fill="#3B5068" transform="translate(178,130)"/>
<path d="M0 0 C1 4 1 4 1 4 Z " fill="#426183" transform="translate(555,129)"/>
<path d="M0 0 C1 4 1 4 1 4 Z " fill="#314C68" transform="translate(531,128)"/>
<path d="M0 0 C1 4 1 4 1 4 Z " fill="#2F6495" transform="translate(339,127)"/>
<path d="M0 0 C1 4 1 4 1 4 Z " fill="#4E7BAB" transform="translate(524,126)"/>
<path d="M0 0 C1 4 1 4 1 4 Z " fill="#3365AA" transform="translate(441,126)"/>
<path d="M0 0 C1 4 1 4 1 4 Z " fill="#243B55" transform="translate(179,126)"/>
<path d="M0 0 C1 4 1 4 1 4 Z " fill="#2B5173" transform="translate(556,124)"/>
<path d="M0 0 C1 4 1 4 1 4 Z " fill="#5787B1" transform="translate(315,126)"/>
<path d="M0 0 C1 4 1 4 1 4 Z " fill="#5A89B3" transform="translate(340,123)"/>
<path d="M0 0 C1 4 1 4 1 4 Z " fill="#284660" transform="translate(532,124)"/>
<path d="M0 0 C1 4 1 4 1 4 Z " fill="#2D4A67" transform="translate(180,121)"/>
<path d="M0 0 C1 4 1 4 1 4 Z " fill="#5D99CE" transform="translate(442,122)"/>
<path d="M0 0 C1 4 1 4 1 4 Z " fill="#37689A" transform="translate(316,122)"/>
<path d="M0 0 C1 4 1 4 1 4 Z " fill="#315779" transform="translate(533,119)"/>
<path d="M0 0 C1 4 1 4 1 4 Z " fill="#639072" transform="translate(353,118)"/>
<path d="M0 0 C1 4 1 4 1 4 Z " fill="#2D5380" transform="translate(206,116)"/>
<path d="M0 0 C1 4 1 4 1 4 Z " fill="#354A63" transform="translate(181,116)"/>
<path d="M0 0 C1 4 1 4 1 4 Z " fill="#405C86" transform="translate(558,115)"/>
<path d="M0 0 C1 4 1 4 1 4 Z " fill="#307041" transform="translate(354,114)"/>
<path d="M0 0 C1 4 1 4 1 4 Z " fill="#5F86BB" transform="translate(342,113)"/>
<path d="M0 0 C1 4 1 4 1 4 Z " fill="#3B6CA2" transform="translate(257,113)"/>
<path d="M0 0 C1 4 1 4 1 4 Z " fill="#4E84B2" transform="translate(232,113)"/>
<path d="M0 0 C1 4 1 4 1 4 Z " fill="#4D678A" transform="translate(534,114)"/>
<path d="M0 0 C1 4 1 4 1 4 Z " fill="#518AB7" transform="translate(559,111)"/>
<path d="M0 0 C1 4 1 4 1 4 Z " fill="#3F5886" transform="translate(535,110)"/>
<path d="M0 0 C1 4 1 4 1 4 Z " fill="#2F4764" transform="translate(453,112)"/>
<path d="M0 0 C1 4 1 4 1 4 Z " fill="#5D8CBD" transform="translate(444,112)"/>
<path d="M0 0 C1 4 1 4 1 4 Z " fill="#315172" transform="translate(478,108)"/>
<path d="M0 0 C1 4 1 4 1 4 Z " fill="#497DAC" transform="translate(445,107)"/>
<path d="M0 0 C1 4 1 4 1 4 Z " fill="#417253" transform="translate(355,109)"/>
<path d="M0 0 C1 4 1 4 1 4 Z " fill="#1E534D" transform="translate(319,107)"/>
<path d="M0 0 C1 4 1 4 1 4 Z " fill="#42688E" transform="translate(208,107)"/>
<path d="M0 0 C1 4 1 4 1 4 Z " fill="#364862" transform="translate(183,107)"/>
<path d="M0 0 C1 4 1 4 1 4 Z " fill="#3E76AB" transform="translate(560,106)"/>
<path d="M0 0 C0 3 0 3 0 3 Z " fill="#829695" transform="translate(376,108)"/>
<path d="M0 0 C1 4 1 4 1 4 Z " fill="#4B87BC" transform="translate(343,108)"/>
<path d="M0 0 C1 4 1 4 1 4 Z " fill="#438957" transform="translate(481,104)"/>
<path d="M0 0 C1 4 1 4 1 4 Z " fill="#497C9A" transform="translate(479,104)"/>
<path d="M0 0 C1 4 1 4 1 4 Z " fill="#337647" transform="translate(356,104)"/>
<path d="M0 0 C1 4 1 4 1 4 Z " fill="#4883B9" transform="translate(259,104)"/>
<path d="M0 0 C1 4 1 4 1 4 Z " fill="#3979BA" transform="translate(234,104)"/>
<path d="M0 0 C1 4 1 4 1 4 Z " fill="#456E94" transform="translate(536,105)"/>
<path d="M0 0 C1 4 1 4 1 4 Z " fill="#29475E" transform="translate(455,103)"/>
<path d="M0 0 C1 4 1 4 1 4 Z " fill="#4275AA" transform="translate(344,103)"/>
<path d="M0 0 C1 4 1 4 1 4 Z " fill="#3C8FAB" transform="translate(320,102)"/>
<path d="M0 0 C1 4 1 4 1 4 Z " fill="#3F6792" transform="translate(184,102)"/>
<path d="M0 0 C1 4 1 4 1 4 Z " fill="#4E7DB3" transform="translate(446,102)"/>
<path d="M0 0 C1 4 1 4 1 4 Z " fill="#2F734D" transform="translate(381,100)"/>
<path d="M0 0 C1 4 1 4 1 4 Z " fill="#366193" transform="translate(209,102)"/>
<path d="M0 0 C1 4 1 4 1 4 Z " fill="#3072A7" transform="translate(561,101)"/>
<path d="M0 0 C1 4 1 4 1 4 Z " fill="#3F546D" transform="translate(480,99)"/>
<path d="M0 0 C1 4 1 4 1 4 Z " fill="#417CAD" transform="translate(260,99)"/>
<path d="M0 0 C1 4 1 4 1 4 Z " fill="#388A50" transform="translate(519,98)"/>
<path d="M0 0 C1 4 1 4 1 4 Z " fill="#3A79B6" transform="translate(345,98)"/>
<path d="M0 0 C1 4 1 4 1 4 Z " fill="#5281B1" transform="translate(210,98)"/>
<path d="M0 0 C1 4 1 4 1 4 Z " fill="#5478A5" transform="translate(562,97)"/>
<path d="M0 0 C1 4 1 4 1 4 Z " fill="#4376A8" transform="translate(447,97)"/>
<path d="M0 0 C1 4 1 4 1 4 Z " fill="#587F60" transform="translate(357,99)"/>
<path d="M0 0 C1 4 1 4 1 4 Z " fill="#587BAC" transform="translate(235,99)"/>
<path d="M0 0 C1 4 1 4 1 4 Z " fill="#485F76" transform="translate(456,98)"/>
<path d="M0 0 C1 4 1 4 1 4 Z " fill="#426292" transform="translate(423,97)"/>
<path d="M0 0 C1 4 1 4 1 4 Z " fill="#4D785A" transform="translate(382,95)"/>
<path d="M0 0 C1 4 1 4 1 4 Z " fill="#4386B6" transform="translate(321,97)"/>
<path d="M0 0 C1 4 1 4 1 4 Z " fill="#4D698B" transform="translate(185,97)"/>
<path d="M0 0 C1 4 1 4 1 4 Z " fill="#406DA9" transform="translate(538,96)"/>
<path d="M0 0 C1 4 1 4 1 4 Z " fill="#315172" transform="translate(457,94)"/>
<path d="M0 0 C1 4 1 4 1 4 Z " fill="#388053" transform="translate(358,94)"/>
<path d="M0 0 C1 4 1 4 1 4 Z " fill="#4D8FB6" transform="translate(236,94)"/>
<path d="M0 0 C1 4 1 4 1 4 Z " fill="#3A699C" transform="translate(346,93)"/>
<path d="M0 0 C1 4 1 4 1 4 Z " fill="#5892C2" transform="translate(261,95)"/>
<path d="M0 0 C1 4 1 4 1 4 Z " fill="#376CA7" transform="translate(563,92)"/>
<path d="M0 0 C1 4 1 4 1 4 Z " fill="#5C8FBA" transform="translate(539,91)"/>
<path d="M0 0 C1 4 1 4 1 4 Z " fill="#517EAA" transform="translate(211,93)"/>
<path d="M0 0 C1 4 1 4 1 4 Z " fill="#345A77" transform="translate(186,93)"/>
<path d="M0 0 C1 4 1 4 1 4 Z " fill="#3D6D94" transform="translate(482,90)"/>
<path d="M0 0 C1 4 1 4 1 4 Z " fill="#406EA7" transform="translate(448,92)"/>
<path d="M0 0 C1 4 1 4 1 4 Z " fill="#33669F" transform="translate(424,92)"/>
<path d="M0 0 C1 4 1 4 1 4 Z " fill="#316D45" transform="translate(383,90)"/>
<path d="M0 0 C1 4 1 4 1 4 Z " fill="#4F89B9" transform="translate(262,90)"/>
<path d="M0 0 C1 4 1 4 1 4 Z " fill="#436385" transform="translate(458,89)"/>
<path d="M0 0 C1 4 1 4 1 4 Z " fill="#4B9669" transform="translate(359,89)"/>
<path d="M0 0 C1 4 1 4 1 4 Z " fill="#3468A8" transform="translate(347,88)"/>
<path d="M0 0 C1 4 1 4 1 4 Z " fill="#3B6B9A" transform="translate(237,90)"/>
<path d="M0 0 C1 4 1 4 1 4 Z " fill="#39699E" transform="translate(449,87)"/>
<path d="M0 0 C1 4 1 4 1 4 Z " fill="#537DAB" transform="translate(564,88)"/>
<path d="M0 0 C1 4 1 4 1 4 Z " fill="#3E709F" transform="translate(540,87)"/>
<path d="M0 0 C1 4 1 4 1 4 Z " fill="#456C58" transform="translate(384,85)"/>
<path d="M0 0 C1 4 1 4 1 4 Z " fill="#478E5F" transform="translate(360,84)"/>
<path d="M0 0 C1 4 1 4 1 4 Z " fill="#3771AB" transform="translate(565,83)"/>
<path d="M0 0 C1 4 1 4 1 4 Z " fill="#5E90BC" transform="translate(541,82)"/>
<path d="M0 0 C1 4 1 4 1 4 Z " fill="#2C74B0" transform="translate(426,82)"/>
<path d="M0 0 C4 1 4 1 4 1 Z " fill="#5A85B4" transform="translate(233,84)"/>
<path d="M0 0 C1 4 1 4 1 4 Z " fill="#357AB6" transform="translate(534,80)"/>
<path d="M0 0 C1 4 1 4 1 4 Z " fill="#2A673F" transform="translate(385,80)"/>
<path d="M0 0 C1 4 1 4 1 4 Z " fill="#365B7B" transform="translate(460,80)"/>
<path d="M0 0 C1 4 1 4 1 4 Z " fill="#4480B3" transform="translate(451,78)"/>
<path d="M0 0 C1 4 1 4 1 4 Z " fill="#316C41" transform="translate(361,80)"/>
<path d="M0 0 C1 4 1 4 1 4 Z " fill="#5B83AA" transform="translate(427,77)"/>
<path d="M0 0 C1 4 1 4 1 4 Z " fill="#396946" transform="translate(386,75)"/>
<path d="M0 0 C1 4 1 4 1 4 Z " fill="#2E6742" transform="translate(362,75)"/>
<path d="M0 0 C1 4 1 4 1 4 Z " fill="#3D70AA" transform="translate(567,74)"/>
<path d="M0 0 C1 4 1 4 1 4 Z " fill="#5187B9" transform="translate(543,73)"/>
<path d="M0 0 C1 4 1 4 1 4 Z " fill="#486888" transform="translate(461,75)"/>
<path d="M0 0 C1 4 1 4 1 4 Z " fill="#548AC0" transform="translate(452,73)"/>
<path d="M0 0 C1 4 1 4 1 4 Z " fill="#367DB8" transform="translate(428,72)"/>
<path d="M0 0 C1 4 1 4 1 4 Z " fill="#4676A7" transform="translate(190,74)"/>
<path d="M0 0 C1 4 1 4 1 4 Z " fill="#4A729B" transform="translate(536,71)"/>
<path d="M0 0 C1 4 1 4 1 4 Z " fill="#355B84" transform="translate(462,71)"/>
<path d="M0 0 C1 4 1 4 1 4 Z " fill="#549167" transform="translate(387,71)"/>
<path d="M0 0 C1 4 1 4 1 4 Z " fill="#4279AC" transform="translate(164,70)"/>
<path d="M0 0 C4 1 4 1 4 1 Z " fill="#6090C1" transform="translate(87,54)"/>
<path d="M0 0 C4 1 4 1 4 1 Z " fill="#5083B0" transform="translate(115,24)"/>
<path d="M0 0 C4 1 4 1 4 1 Z " fill="#3A7AB3" transform="translate(88,24)"/>
<path d="M0 0 C3 1 3 1 3 1 Z " fill="#5C80A8" transform="translate(87,146)"/>
<path d="M0 0 C3 1 3 1 3 1 Z " fill="#3B67A7" transform="translate(120,145)"/>
<path d="M0 0 C3 1 3 1 3 1 Z " fill="#536B98" transform="translate(123,144)"/>
<path d="M0 0 C3 1 3 1 3 1 Z " fill="#404A64" transform="translate(463,137)"/>
<path d="M0 0 C3 1 3 1 3 1 Z " fill="#5281AF" transform="translate(236,137)"/>
<path d="" fill="#1F2D4C" transform="translate(0,0)"/>
<path d="" fill="#38516B" transform="translate(0,0)"/>
<path d="" fill="#3D78AA" transform="translate(0,0)"/>
<path d="" fill="#4285B5" transform="translate(0,0)"/>
<path d="" fill="#276797" transform="translate(0,0)"/>
<path d="M0 0 C3 1 3 1 3 1 Z " fill="#597268" transform="translate(309,121)"/>
<path d="M0 0 C0.33 0.66 0.66 1.32 1 2 C0.34 1.67 -0.32 1.34 -1 1 C-0.67 0.67 -0.34 0.34 0 0 Z " fill="#7590BE" transform="translate(230,119)"/>
<path d="M0 0 C3 1 3 1 3 1 Z " fill="#000932" transform="translate(483,119)"/>
<path d="" fill="#6484B2" transform="translate(0,0)"/>
<path d="" fill="#0A2F5B" transform="translate(0,0)"/>
<path d="" fill="#34638D" transform="translate(0,0)"/>
<path d="" fill="#375F7F" transform="translate(0,0)"/>
<path d="M0 0 C3 1 3 1 3 1 Z " fill="#3C65A0" transform="translate(68,113)"/>
<path d="" fill="#5789B0" transform="translate(0,0)"/>
<path d="" fill="#5884B7" transform="translate(0,0)"/>
<path d="" fill="#304871" transform="translate(0,0)"/>
<path d="" fill="#5A8268" transform="translate(0,0)"/>
<path d="" fill="#4681BC" transform="translate(0,0)"/>
<path d="" fill="#5F94CC" transform="translate(0,0)"/>
<path d="" fill="#3382C1" transform="translate(0,0)"/>
<path d="" fill="#487091" transform="translate(0,0)"/>
<path d="" fill="#4C8CBD" transform="translate(0,0)"/>
<path d="" fill="#3B7391" transform="translate(0,0)"/>
<path d="" fill="#5B88B6" transform="translate(0,0)"/>
<path d="" fill="#416592" transform="translate(0,0)"/>
<path d="" fill="#92BCD3" transform="translate(0,0)"/>
<path d="" fill="#547DAD" transform="translate(0,0)"/>
<path d="" fill="#4A87B3" transform="translate(0,0)"/>
<path d="" fill="#4887C0" transform="translate(0,0)"/>
<path d="" fill="#5A80BC" transform="translate(0,0)"/>
<path d="" fill="#4E7FA6" transform="translate(0,0)"/>
<path d="" fill="#4289BA" transform="translate(0,0)"/>
<path d="" fill="#3F7AB3" transform="translate(0,0)"/>
<path d="" fill="#315E3D" transform="translate(0,0)"/>
<path d="" fill="#4E90BE" transform="translate(0,0)"/>
<path d="" fill="#4F75A5" transform="translate(0,0)"/>
<path d="" fill="#4889B5" transform="translate(0,0)"/>
<path d="" fill="#396CA6" transform="translate(0,0)"/>
<path d="M0 0 C3 1 3 1 3 1 Z " fill="#466696" transform="translate(103,58)"/>
<path d="M0 0 C3 1 3 1 3 1 Z " fill="#4F79AE" transform="translate(99,57)"/>
<path d="M0 0 C3 1 3 1 3 1 Z " fill="#477DAF" transform="translate(95,56)"/>
<path d="M0 0 C3 1 3 1 3 1 Z " fill="#4572A6" transform="translate(91,55)"/>
<path d="M0 0 C3 1 3 1 3 1 Z " fill="#2B6FA8" transform="translate(83,53)"/>
<path d="M0 0 C3 1 3 1 3 1 Z " fill="#637EA9" transform="translate(119,52)"/>
<path d="M0 0 C3 1 3 1 3 1 Z " fill="#6087B3" transform="translate(109,48)"/>
<path d="M0 0 C3 1 3 1 3 1 Z " fill="#4A72A3" transform="translate(99,44)"/>
<path d="M0 0 C3 1 3 1 3 1 Z " fill="#46739A" transform="translate(94,42)"/>
<path d="M0 0 C3 1 3 1 3 1 Z " fill="#3C74A1" transform="translate(119,25)"/>
<path d="M0 0 C2 1 2 1 2 1 Z " fill="#427CAA" transform="translate(84,145)"/>
<path d="M0 0 C2 1 2 1 2 1 Z " fill="#6A87A2" transform="translate(81,144)"/>
<path d="M0 0 C2 1 2 1 2 1 Z " fill="#4287C5" transform="translate(126,143)"/>
<path d="M0 0 C2 1 2 1 2 1 Z " fill="#414E75" transform="translate(128,142)"/>
<path d="M0 0 C2 1 2 1 2 1 Z " fill="#355187" transform="translate(130,141)"/>
<path d="M0 0 C2 1 2 1 2 1 Z " fill="#6F89BE" transform="translate(134,139)"/>
<path d="M0 0 C2 1 2 1 2 1 Z " fill="#1E3E66" transform="translate(82,138)"/>
<path d="M0 0 C2 1 2 1 2 1 Z " fill="#7C89AE" transform="translate(416,137)"/>
<path d="M0 0 C2 1 2 1 2 1 Z " fill="#5075AC" transform="translate(137,137)"/>
<path d="M0 0 C2 1 2 1 2 1 Z " fill="#446891" transform="translate(84,137)"/>
<path d="" fill="#2F4878" transform="translate(0,0)"/>
<path d="M0 0 C2 1 2 1 2 1 Z " fill="#445762" transform="translate(461,136)"/>
<path d="" fill="#37435A" transform="translate(0,0)"/>
<path d="M0 0 C2 1 2 1 2 1 Z " fill="#556D91" transform="translate(239,136)"/>
<path d="" fill="#576D89" transform="translate(0,0)"/>
<path d="M0 0 C2 1 2 1 2 1 Z " fill="#5C88B4" transform="translate(86,136)"/>
<path d="M0 0 C2 1 2 1 2 1 Z " fill="#325479" transform="translate(241,135)"/>
<path d="M0 0 C2 1 2 1 2 1 Z " fill="#76A3C9" transform="translate(88,135)"/>
<path d="" fill="#516B90" transform="translate(0,0)"/>
<path d="" fill="#576579" transform="translate(0,0)"/>
<path d="M0 0 C2 1 2 1 2 1 Z " fill="#4D89B9" transform="translate(243,134)"/>
<path d="M0 0 C2 1 2 1 2 1 Z " fill="#5672A8" transform="translate(141,134)"/>
<path d="M0 0 C2 1 2 1 2 1 Z " fill="#3A5A81" transform="translate(91,134)"/>
<path d="" fill="#697B98" transform="translate(0,0)"/>
<path d="M0 0 C2 1 2 1 2 1 Z " fill="#627A99" transform="translate(93,133)"/>
<path d="M0 0 C2 1 2 1 2 1 Z " fill="#677999" transform="translate(65,133)"/>
<path d="" fill="#354265" transform="translate(0,0)"/>
<path d="M0 0 C2 1 2 1 2 1 Z " fill="#8B9DBC" transform="translate(95,132)"/>
<path d="M0 0 C2 1 2 1 2 1 Z " fill="#3B4C6E" transform="translate(67,132)"/>
<path d="" fill="#133155" transform="translate(0,0)"/>
<path d="" fill="#2C3654" transform="translate(0,0)"/>
<path d="M0 0 C2 1 2 1 2 1 Z " fill="#266FA5" transform="translate(98,131)"/>
<path d="M0 0 C2 1 2 1 2 1 Z " fill="#6497B8" transform="translate(70,131)"/>
<path d="M0 0 C2 1 2 1 2 1 Z " fill="#467DB4" transform="translate(100,130)"/>
<path d="M0 0 C2 1 2 1 2 1 Z " fill="#3376B1" transform="translate(72,130)"/>
<path d="M0 0 C2 1 2 1 2 1 Z " fill="#4D5982" transform="translate(383,129)"/>
<path d="" fill="#6580A7" transform="translate(0,0)"/>
<path d="" fill="#44475A" transform="translate(0,0)"/>
<path d="M0 0 C2 1 2 1 2 1 Z " fill="#5C95C5" transform="translate(102,129)"/>
<path d="M0 0 C2 1 2 1 2 1 Z " fill="#23477B" transform="translate(74,129)"/>
<path d="M0 0 C2 1 2 1 2 1 Z " fill="#2E5185" transform="translate(105,128)"/>
<path d="M0 0 C2 1 2 1 2 1 Z " fill="#648DB0" transform="translate(77,128)"/>
<path d="" fill="#242D48" transform="translate(0,0)"/>
<path d="M0 0 C2 1 2 1 2 1 Z " fill="#51596B" transform="translate(353,127)"/>
<path d="" fill="#465171" transform="translate(0,0)"/>
<path d="" fill="#6F778B" transform="translate(0,0)"/>
<path d="M0 0 C2 1 2 1 2 1 Z " fill="#537DB5" transform="translate(107,127)"/>
<path d="M0 0 C2 1 2 1 2 1 Z " fill="#587494" transform="translate(79,127)"/>
<path d="" fill="#4F6386" transform="translate(0,0)"/>
<path d="M0 0 C2 1 2 1 2 1 Z " fill="#749AC9" transform="translate(109,126)"/>
<path d="M0 0 C2 1 2 1 2 1 Z " fill="#2E426A" transform="translate(81,126)"/>
<path d="M0 0 C2 1 2 1 2 1 Z " fill="#365086" transform="translate(112,125)"/>
<path d="M0 0 C2 1 2 1 2 1 Z " fill="#5580B8" transform="translate(84,125)"/>
<path d="" fill="#588BB9" transform="translate(0,0)"/>
<path d="" fill="#5E6FA1" transform="translate(0,0)"/>
<path d="M0 0 C2 1 2 1 2 1 Z " fill="#437CB5" transform="translate(114,124)"/>
<path d="M0 0 C2 1 2 1 2 1 Z " fill="#2E6AA3" transform="translate(86,124)"/>
<path d="M0 0 C2 1 2 1 2 1 Z " fill="#488EC0" transform="translate(116,123)"/>
<path d="M0 0 C2 1 2 1 2 1 Z " fill="#656D85" transform="translate(392,122)"/>
<path d="" fill="#485372" transform="translate(0,0)"/>
<path d="" fill="#40576F" transform="translate(0,0)"/>
<path d="" fill="#6181A9" transform="translate(0,0)"/>
<path d="M0 0 C2 1 2 1 2 1 Z " fill="#5E85B4" transform="translate(91,122)"/>
<path d="M0 0 C2 1 2 1 2 1 Z " fill="#496D99" transform="translate(121,121)"/>
<path d="M0 0 C2 1 2 1 2 1 Z " fill="#345880" transform="translate(93,121)"/>
<path d="" fill="#608CC4" transform="translate(0,0)"/>
<path d="M0 0 C2 1 2 1 2 1 Z " fill="#7A8AC3" transform="translate(123,120)"/>
<path d="M0 0 C2 1 2 1 2 1 Z " fill="#5996D2" transform="translate(96,120)"/>
<path d="M0 0 C2 1 2 1 2 1 Z " fill="#80A3C3" transform="translate(125,119)"/>
<path d="M0 0 C2 1 2 1 2 1 Z " fill="#4483BF" transform="translate(98,119)"/>
<path d="M0 0 C2 1 2 1 2 1 Z " fill="#536C85" transform="translate(479,118)"/>
<path d="" fill="#66776C" transform="translate(0,0)"/>
<path d="M0 0 C2 1 2 1 2 1 Z " fill="#48659A" transform="translate(100,118)"/>
<path d="M0 0 C2 1 2 1 2 1 Z " fill="#274783" transform="translate(56,118)"/>
<path d="" fill="#314366" transform="translate(0,0)"/>
<path d="M0 0 C2 1 2 1 2 1 Z " fill="#6C8CB8" transform="translate(103,117)"/>
<path d="M0 0 C2 1 2 1 2 1 Z " fill="#5A83A9" transform="translate(58,117)"/>
<path d="M0 0 C2 1 2 1 2 1 Z " fill="#4D7AB6" transform="translate(105,116)"/>
<path d="M0 0 C2 1 2 1 2 1 Z " fill="#3D5776" transform="translate(61,116)"/>
<path d="" fill="#496B91" transform="translate(0,0)"/>
<path d="" fill="#6477AE" transform="translate(0,0)"/>
<path d="M0 0 C2 1 2 1 2 1 Z " fill="#7285A4" transform="translate(63,115)"/>
<path d="M0 0 C2 1 2 1 2 1 Z " fill="#3F73A6" transform="translate(66,114)"/>
<path d="" fill="#6D91C0" transform="translate(0,0)"/>
<path d="" fill="#4568A3" transform="translate(0,0)"/>
<path d="M0 0 C2 1 2 1 2 1 Z " fill="#707A9C" transform="translate(71,112)"/>
<path d="" fill="#3D86CA" transform="translate(0,0)"/>
<path d="M0 0 C2 1 2 1 2 1 Z " fill="#3862A0" transform="translate(74,111)"/>
<path d="M0 0 C2 1 2 1 2 1 Z " fill="#4A5B4B" transform="translate(512,110)"/>
<path d="" fill="#3A527D" transform="translate(0,0)"/>
<path d="M0 0 C2 1 2 1 2 1 Z " fill="#5487B3" transform="translate(76,110)"/>
<path d="" fill="#6097C9" transform="translate(0,0)"/>
<path d="M0 0 C2 1 2 1 2 1 Z " fill="#3466A4" transform="translate(79,109)"/>
<path d="" fill="#2A4271" transform="translate(0,0)"/>
<path d="" fill="#587EA0" transform="translate(0,0)"/>
<path d="" fill="#3B7AAD" transform="translate(0,0)"/>
<path d="" fill="#5B799D" transform="translate(0,0)"/>
<path d="M0 0 C2 1 2 1 2 1 Z " fill="#5A99D4" transform="translate(420,105)"/>
<path d="M0 0 C2 1 2 1 2 1 Z " fill="#546170" transform="translate(381,105)"/>
<path d="" fill="#486B8D" transform="translate(0,0)"/>
<path d="" fill="#496290" transform="translate(0,0)"/>
<path d="" fill="#5A6D9E" transform="translate(0,0)"/>
<path d="" fill="#6082AE" transform="translate(0,0)"/>
<path d="M0 0 C2 1 2 1 2 1 Z " fill="#4D5E84" transform="translate(390,98)"/>
<path d="" fill="#37569B" transform="translate(0,0)"/>
<path d="" fill="#364C74" transform="translate(0,0)"/>
<path d="" fill="#56799D" transform="translate(0,0)"/>
<path d="" fill="#7698CC" transform="translate(0,0)"/>
<path d="" fill="#4C6593" transform="translate(0,0)"/>
<path d="" fill="#43516C" transform="translate(0,0)"/>
<path d="" fill="#6296C4" transform="translate(0,0)"/>
<path d="" fill="#193F7C" transform="translate(0,0)"/>
<path d="" fill="#6885B5" transform="translate(0,0)"/>
<path d="" fill="#486BA1" transform="translate(0,0)"/>
<path d="" fill="#4B6AA1" transform="translate(0,0)"/>
<path d="" fill="#6892C0" transform="translate(0,0)"/>
<path d="" fill="#3D6390" transform="translate(0,0)"/>
<path d="" fill="#315688" transform="translate(0,0)"/>
<path d="" fill="#6781B7" transform="translate(0,0)"/>
<path d="" fill="#558CC5" transform="translate(0,0)"/>
<path d="" fill="#7DABD8" transform="translate(0,0)"/>
<path d="" fill="#365F9F" transform="translate(0,0)"/>
<path d="" fill="#417FAE" transform="translate(0,0)"/>
<path d="M0 0 C2 1 2 1 2 1 Z " fill="#445E8A" transform="translate(339,71)"/>
<path d="M0 0 C2 1 2 1 2 1 Z " fill="#4F5A7C" transform="translate(254,71)"/>
<path d="M0 0 C2 1 2 1 2 1 Z " fill="#55668F" transform="translate(335,69)"/>
<path d="M0 0 C2 1 2 1 2 1 Z " fill="#526B9E" transform="translate(250,69)"/>
<path d="" fill="#7191B9" transform="translate(0,0)"/>
<path d="" fill="#6489B9" transform="translate(0,0)"/>
<path d="" fill="#669DC3" transform="translate(0,0)"/>
<path d="" fill="#295392" transform="translate(0,0)"/>
<path d="" fill="#54719D" transform="translate(0,0)"/>
<path d="" fill="#6B97C3" transform="translate(0,0)"/>
<path d="" fill="#344D7E" transform="translate(0,0)"/>
<path d="" fill="#6891C9" transform="translate(0,0)"/>
<path d="" fill="#83A6D5" transform="translate(0,0)"/>
<path d="M0 0 C2 1 2 1 2 1 Z " fill="#32628E" transform="translate(125,54)"/>
<path d="" fill="#636F9C" transform="translate(0,0)"/>
<path d="M0 0 C2 1 2 1 2 1 Z " fill="#5686B4" transform="translate(122,53)"/>
<path d="M0 0 C2 1 2 1 2 1 Z " fill="#6E7EA6" transform="translate(117,51)"/>
<path d="" fill="#5276B5" transform="translate(0,0)"/>
<path d="M0 0 C2 1 2 1 2 1 Z " fill="#8CABC9" transform="translate(114,50)"/>
<path d="M0 0 C2 1 2 1 2 1 Z " fill="#588CB8" transform="translate(112,49)"/>
<path d="M0 0 C2 1 2 1 2 1 Z " fill="#5E70A2" transform="translate(107,47)"/>
<path d="" fill="#779AC5" transform="translate(0,0)"/>
<path d="M0 0 C2 1 2 1 2 1 Z " fill="#2D4C79" transform="translate(105,46)"/>
<path d="M0 0 C2 1 2 1 2 1 Z " fill="#4F80B3" transform="translate(102,45)"/>
<path d="M0 0 C2 1 2 1 2 1 Z " fill="#5B81A6" transform="translate(97,43)"/>
<path d="M0 0 C2 1 2 1 2 1 Z " fill="#4079B2" transform="translate(92,41)"/>
<path d="M0 0 C2 1 2 1 2 1 Z " fill="#709EC6" transform="translate(89,40)"/>
<path d="M0 0 C2 1 2 1 2 1 Z " fill="#647999" transform="translate(87,39)"/>
<path d="M0 0 C2 1 2 1 2 1 Z " fill="#74A2C6" transform="translate(84,38)"/>
<path d="M0 0 C2 1 2 1 2 1 Z " fill="#98A6BD" transform="translate(142,37)"/>
<path d="M0 0 C2 1 2 1 2 1 Z " fill="#3C67A2" transform="translate(82,37)"/>
<path d="M0 0 C2 1 2 1 2 1 Z " fill="#6BA0C8" transform="translate(79,36)"/>
<path d="M0 0 C2 1 2 1 2 1 Z " fill="#5E6B95" transform="translate(77,35)"/>
<path d="M0 0 C2 1 2 1 2 1 Z " fill="#5A71AD" transform="translate(138,34)"/>
<path d="M0 0 C2 1 2 1 2 1 Z " fill="#437FBA" transform="translate(135,32)"/>
<path d="M0 0 C2 1 2 1 2 1 Z " fill="#6C9DD3" transform="translate(130,29)"/>
<path d="M0 0 C2 1 2 1 2 1 Z " fill="#3E689B" transform="translate(75,29)"/>
<path d="M0 0 C2 1 2 1 2 1 Z " fill="#709CCD" transform="translate(128,28)"/>
<path d="M0 0 C2 1 2 1 2 1 Z " fill="#687FA9" transform="translate(77,28)"/>
<path d="M0 0 C2 1 2 1 2 1 Z " fill="#365E8A" transform="translate(125,27)"/>
<path d="M0 0 C2 1 2 1 2 1 Z " fill="#7B9BBE" transform="translate(79,27)"/>
<path d="M0 0 C2 1 2 1 2 1 Z " fill="#5791C0" transform="translate(123,26)"/>
<path d="M0 0 C2 1 2 1 2 1 Z " fill="#4284BC" transform="translate(82,26)"/>
<path d="M0 0 C2 1 2 1 2 1 Z " fill="#4F82AD" transform="translate(85,25)"/>
<path d="" fill="#639AB7" transform="translate(0,0)"/>
<path d="" fill="#8BA3BB" transform="translate(0,0)"/>
<path d="" fill="#5B85C7" transform="translate(0,0)"/>
<path d="" fill="#4472A2" transform="translate(0,0)"/>
<path d="" fill="#000012" transform="translate(0,0)"/>
<path d="" fill="#172A4F" transform="translate(0,0)"/>
<path d="" fill="#88B6DB" transform="translate(0,0)"/>
<path d="" fill="#9DAEC1" transform="translate(0,0)"/>
<path d="" fill="#689AC7" transform="translate(0,0)"/>
<path d="" fill="#384A56" transform="translate(0,0)"/>
<path d="" fill="#90A6B8" transform="translate(0,0)"/>
<path d="" fill="#5D7CA8" transform="translate(0,0)"/>
<path d="" fill="#5B5F70" transform="translate(0,0)"/>
<path d="" fill="#4A6EB2" transform="translate(0,0)"/>
<path d="" fill="#000611" transform="translate(0,0)"/>
<path d="" fill="#99BED6" transform="translate(0,0)"/>
<path d="" fill="#203963" transform="translate(0,0)"/>
<path d="" fill="#96A0B8" transform="translate(0,0)"/>
<path d="" fill="#0E162A" transform="translate(0,0)"/>
<path d="" fill="#7687B5" transform="translate(0,0)"/>
<path d="" fill="#87A1C4" transform="translate(0,0)"/>
<path d="" fill="#4876AD" transform="translate(0,0)"/>
<path d="" fill="#A1B0C4" transform="translate(0,0)"/>
<path d="" fill="#6383A8" transform="translate(0,0)"/>
<path d="" fill="#36445D" transform="translate(0,0)"/>
<path d="" fill="#475990" transform="translate(0,0)"/>
<path d="" fill="#4C94D3" transform="translate(0,0)"/>
<path d="" fill="#013571" transform="translate(0,0)"/>
<path d="" fill="#033176" transform="translate(0,0)"/>
<path d="" fill="#576880" transform="translate(0,0)"/>
<path d="" fill="#A3CBE9" transform="translate(0,0)"/>
<path d="" fill="#4B96CD" transform="translate(0,0)"/>
<path d="" fill="#1E548F" transform="translate(0,0)"/>
<path d="" fill="#000814" transform="translate(0,0)"/>
<path d="" fill="#194891" transform="translate(0,0)"/>
<path d="" fill="#435276" transform="translate(0,0)"/>
<path d="" fill="#4C6A92" transform="translate(0,0)"/>
<path d="" fill="#93B7DF" transform="translate(0,0)"/>
<path d="" fill="#3084CC" transform="translate(0,0)"/>
<path d="" fill="#1E5B96" transform="translate(0,0)"/>
<path d="" fill="#4D6375" transform="translate(0,0)"/>
<path d="" fill="#4479AB" transform="translate(0,0)"/>
<path d="" fill="#96B5E3" transform="translate(0,0)"/>
<path d="" fill="#4487C9" transform="translate(0,0)"/>
<path d="" fill="#145386" transform="translate(0,0)"/>
<path d="" fill="#5985AB" transform="translate(0,0)"/>
<path d="" fill="#6F8CAB" transform="translate(0,0)"/>
<path d="" fill="#9597A9" transform="translate(0,0)"/>
<path d="" fill="#A6C9ED" transform="translate(0,0)"/>
<path d="" fill="#3282D2" transform="translate(0,0)"/>
<path d="" fill="#145384" transform="translate(0,0)"/>
<path d="" fill="#91A2B8" transform="translate(0,0)"/>
<path d="" fill="#3D6A96" transform="translate(0,0)"/>
<path d="" fill="#4087BD" transform="translate(0,0)"/>
<path d="" fill="#105385" transform="translate(0,0)"/>
<path d="" fill="#1D436D" transform="translate(0,0)"/>
<path d="" fill="#0D1D2A" transform="translate(0,0)"/>
<path d="" fill="#4E5E96" transform="translate(0,0)"/>
<path d="" fill="#4493CF" transform="translate(0,0)"/>
<path d="" fill="#195595" transform="translate(0,0)"/>
<path d="" fill="#94AFBF" transform="translate(0,0)"/>
<path d="" fill="#666A87" transform="translate(0,0)"/>
<path d="" fill="#546083" transform="translate(0,0)"/>
<path d="" fill="#7786B7" transform="translate(0,0)"/>
<path d="" fill="#89AACF" transform="translate(0,0)"/>
<path d="" fill="#2B5E9D" transform="translate(0,0)"/>
<path d="" fill="#18274B" transform="translate(0,0)"/>
<path d="" fill="#5A87B7" transform="translate(0,0)"/>
<path d="" fill="#538DBE" transform="translate(0,0)"/>
<path d="" fill="#1F487F" transform="translate(0,0)"/>
<path d="" fill="#34567D" transform="translate(0,0)"/>
<path d="" fill="#3B577D" transform="translate(0,0)"/>
<path d="" fill="#667E9D" transform="translate(0,0)"/>
<path d="" fill="#7585AB" transform="translate(0,0)"/>
<path d="" fill="#7F9BC2" transform="translate(0,0)"/>
<path d="" fill="#295F9F" transform="translate(0,0)"/>
<path d="" fill="#314D5A" transform="translate(0,0)"/>
<path d="" fill="#5172B2" transform="translate(0,0)"/>
<path d="" fill="#6A8EBB" transform="translate(0,0)"/>
<path d="" fill="#5F7FAB" transform="translate(0,0)"/>
<path d="" fill="#7C9DC0" transform="translate(0,0)"/>
<path d="" fill="#063E19" transform="translate(0,0)"/>
<path d="" fill="#6E8DAB" transform="translate(0,0)"/>
<path d="" fill="#759AD0" transform="translate(0,0)"/>
<path d="" fill="#6995BA" transform="translate(0,0)"/>
<path d="" fill="#59A0D3" transform="translate(0,0)"/>
<path d="" fill="#5C8CB7" transform="translate(0,0)"/>
<path d="" fill="#4A739C" transform="translate(0,0)"/>
<path d="" fill="#508F6A" transform="translate(0,0)"/>
<path d="" fill="#3C495B" transform="translate(0,0)"/>
<path d="" fill="#9AACC8" transform="translate(0,0)"/>
<path d="" fill="#263560" transform="translate(0,0)"/>
<path d="" fill="#0B3555" transform="translate(0,0)"/>
<path d="" fill="#001000" transform="translate(0,0)"/>
<path d="" fill="#92A9C4" transform="translate(0,0)"/>
<path d="" fill="#3A5A76" transform="translate(0,0)"/>
<path d="" fill="#3B7455" transform="translate(0,0)"/>
<path d="" fill="#535A6A" transform="translate(0,0)"/>
<path d="" fill="#6982AB" transform="translate(0,0)"/>
<path d="" fill="#5193CA" transform="translate(0,0)"/>
<path d="" fill="#3D6180" transform="translate(0,0)"/>
<path d="" fill="#213255" transform="translate(0,0)"/>
<path d="" fill="#143E1D" transform="translate(0,0)"/>
<path d="" fill="#5878AF" transform="translate(0,0)"/>
<path d="" fill="#182B3E" transform="translate(0,0)"/>
<path d="" fill="#49735E" transform="translate(0,0)"/>
<path d="" fill="#00061E" transform="translate(0,0)"/>
<path d="" fill="#4F5F79" transform="translate(0,0)"/>
<path d="" fill="#000016" transform="translate(0,0)"/>
<path d="" fill="#354A65" transform="translate(0,0)"/>
<path d="" fill="#536B56" transform="translate(0,0)"/>
<path d="" fill="#627396" transform="translate(0,0)"/>
<path d="" fill="#5F6890" transform="translate(0,0)"/>
<path d="" fill="#001700" transform="translate(0,0)"/>
<path d="" fill="#33804B" transform="translate(0,0)"/>
<path d="" fill="#002F00" transform="translate(0,0)"/>
<path d="" fill="#00133D" transform="translate(0,0)"/>
<path d="" fill="#002400" transform="translate(0,0)"/>
<path d="" fill="#4B5471" transform="translate(0,0)"/>
<path d="" fill="#265E39" transform="translate(0,0)"/>
<path d="" fill="#34814C" transform="translate(0,0)"/>
<path d="" fill="#8B959B" transform="translate(0,0)"/>
<path d="" fill="#04290F" transform="translate(0,0)"/>
<path d="" fill="#536581" transform="translate(0,0)"/>
<path d="" fill="#6B99CE" transform="translate(0,0)"/>
<path d="" fill="#4B5F8B" transform="translate(0,0)"/>
<path d="" fill="#00390F" transform="translate(0,0)"/>
<path d="" fill="#6B7B93" transform="translate(0,0)"/>
<path d="" fill="#2977CA" transform="translate(0,0)"/>
<path d="" fill="#557EA7" transform="translate(0,0)"/>
<path d="" fill="#4880BF" transform="translate(0,0)"/>
<path d="" fill="#739FC7" transform="translate(0,0)"/>
<path d="" fill="#1B2A5B" transform="translate(0,0)"/>
<path d="" fill="#223558" transform="translate(0,0)"/>
<path d="" fill="#264670" transform="translate(0,0)"/>
<path d="" fill="#3A6590" transform="translate(0,0)"/>
<path d="" fill="#467FB5" transform="translate(0,0)"/>
<path d="" fill="#56749C" transform="translate(0,0)"/>
<path d="" fill="#8EB5CF" transform="translate(0,0)"/>
<path d="" fill="#579BD1" transform="translate(0,0)"/>
<path d="" fill="#002555" transform="translate(0,0)"/>
<path d="" fill="#3C8BC7" transform="translate(0,0)"/>
<path d="" fill="#2D76AD" transform="translate(0,0)"/>
<path d="" fill="#5787CB" transform="translate(0,0)"/>
<path d="" fill="#40638A" transform="translate(0,0)"/>
<path d="" fill="#7281A2" transform="translate(0,0)"/>
<path d="" fill="#7C96BD" transform="translate(0,0)"/>
<path d="" fill="#4A6DA3" transform="translate(0,0)"/>
<path d="" fill="#4D7CB5" transform="translate(0,0)"/>
<path d="" fill="#4C4273" transform="translate(0,0)"/>
<path d="" fill="#6386BA" transform="translate(0,0)"/>
<path d="" fill="#597C9E" transform="translate(0,0)"/>
<path d="" fill="#67709C" transform="translate(0,0)"/>
<path d="" fill="#77A1D2" transform="translate(0,0)"/>
<path d="" fill="#529CD0" transform="translate(0,0)"/>
<path d="" fill="#1E6CBD" transform="translate(0,0)"/>
<path d="" fill="#4889BE" transform="translate(0,0)"/>
<path d="" fill="#08539B" transform="translate(0,0)"/>
<path d="" fill="#3178CB" transform="translate(0,0)"/>
<path d="" fill="#658FCC" transform="translate(0,0)"/>
<path d="" fill="#1763A7" transform="translate(0,0)"/>
<path d="" fill="#6E96C4" transform="translate(0,0)"/>
<path d="" fill="#4283BF" transform="translate(0,0)"/>
<path d="" fill="#6F9EC2" transform="translate(0,0)"/>
<path d="" fill="#6F90C0" transform="translate(0,0)"/>
<path d="" fill="#00265E" transform="translate(0,0)"/>
<path d="" fill="#7F8BB2" transform="translate(0,0)"/>
<path d="" fill="#2984CC" transform="translate(0,0)"/>
<path d="" fill="#2F99E5" transform="translate(0,0)"/>
<path d="" fill="#002469" transform="translate(0,0)"/>
<path d="" fill="#5A9BCB" transform="translate(0,0)"/>
<path d="" fill="#6788B6" transform="translate(0,0)"/>
<path d="" fill="#7481AF" transform="translate(0,0)"/>
<path d="" fill="#76A9CF" transform="translate(0,0)"/>
<path d="" fill="#4F74B8" transform="translate(0,0)"/>
<path d="" fill="#7884B4" transform="translate(0,0)"/>
<path d="" fill="#4C62B8" transform="translate(0,0)"/>
<path d="" fill="#AABDD5" transform="translate(0,0)"/>
<path d="" fill="#759EC7" transform="translate(0,0)"/>
<path d="" fill="#6595C9" transform="translate(0,0)"/>
<path d="" fill="#6097CF" transform="translate(0,0)"/>
<path d="" fill="#6799CF" transform="translate(0,0)"/>
<path d="" fill="#89A9D3" transform="translate(0,0)"/>
<path d="" fill="#AEC6E7" transform="translate(0,0)"/>
<path d="" fill="#437BB6" transform="translate(0,0)"/>
<path d="" fill="#488CD3" transform="translate(0,0)"/>
<path d="" fill="#669DDF" transform="translate(0,0)"/>
<path d="" fill="#4A74AA" transform="translate(0,0)"/>
<path d="" fill="#04376A" transform="translate(0,0)"/>
<path d="" fill="#5093D1" transform="translate(0,0)"/>
<path d="" fill="#536DA0" transform="translate(0,0)"/>
</svg>
