<?xml version="1.0" encoding="UTF-8"?>
<svg version="1.1" xmlns="http://www.w3.org/2000/svg" width="900" height="500">
<path d="M0 0 C0.99 0 1.98 0 3 0 C4.55602212 1.89923394 5.87971807 3.73889408 7.2109375 5.7890625 C7.81761009 6.69799507 7.81761009 6.69799507 8.4365387 7.62528992 C9.76093543 9.6178066 11.06871114 11.62057288 12.375 13.625 C13.28575363 15.00944757 14.19664316 16.39380575 15.10766602 17.77807617 C22.44379095 28.97103295 29.50676499 40.29388618 36 52 C36.81307617 53.46566406 36.81307617 53.46566406 37.64257812 54.9609375 C60.19137594 96.03476156 79.49215625 146.51446479 66.64160156 193.82324219 C61.60703877 210.9039735 52.91481294 224.97805843 41 238 C40.33226562 238.73863281 39.66453125 239.47726563 38.9765625 240.23828125 C6.64544594 274.27462548 -45.11830724 287.56845756 -90 293 C-88.74154772 290.31180306 -87.39604489 288.08289639 -85.48828125 285.8125 C-84.98578857 285.20728516 -84.4832959 284.60207031 -83.96557617 283.97851562 C-83.42006104 283.32560547 -82.8745459 282.67269531 -82.3125 282 C-63.8021792 259.46885646 -47.01857984 235.59140816 -33 210 C-32.5157959 209.12585449 -32.0315918 208.25170898 -31.53271484 207.35107422 C-23.45229885 192.68181179 -16.81963471 177.69834236 -11 162 C-10.69868164 161.19788086 -10.39736328 160.39576172 -10.08691406 159.56933594 C0.67610898 130.57636337 9.37717728 92.9975314 4 62 C3.79431396 63.08079834 3.58862793 64.16159668 3.37670898 65.27514648 C-0.60585402 86.1067907 -4.66999227 106.73148426 -11 127 C-11.26603027 127.87994629 -11.53206055 128.75989258 -11.80615234 129.66650391 C-28.69092826 185.31303174 -62.28702404 232.01090794 -100.8515625 274.58984375 C-102.76193839 276.73293815 -104.60644665 278.91433803 -106.4375 281.125 C-107.283125 282.07375 -108.12875 283.0225 -109 284 C-109.66 284 -110.32 284 -111 284 C-112.35712505 282.01606719 -113.68650019 280.01308123 -115 278 C-116.4679036 276.34594921 -117.96975728 274.72155323 -119.5 273.125 C-125.90929101 266.16286079 -131.45245393 258.65604763 -137 251 C-137.5573584 250.24041992 -138.1147168 249.48083984 -138.68896484 248.69824219 C-167.47812661 209.36416576 -184.51294397 165.90911853 -192.0847168 117.94604492 C-192.20579803 117.1792038 -192.32687927 116.41236267 -192.45162964 115.62228394 C-192.67909485 114.1709481 -192.90370595 112.71916116 -193.12503052 111.26687622 C-193.57040774 108.39736358 -194.07924914 105.76225257 -195 103 C-198.66761128 140.24036064 -189.61046112 175.98409295 -175 210 C-174.50161621 211.17272461 -174.50161621 211.17272461 -173.99316406 212.36914062 C-164.13485047 235.29884779 -150.1333471 256.21908123 -135.32958984 276.20019531 C-133.30906913 278.93528138 -131.31066829 281.68603995 -129.3125 284.4375 C-128.66925781 285.32308594 -128.02601563 286.20867187 -127.36328125 287.12109375 C-126.91339844 287.74113281 -126.46351563 288.36117188 -126 289 C-129.43944772 290.14648257 -130.75710979 289.81752846 -134.2421875 289.03125 C-135.29776855 288.79365967 -136.35334961 288.55606934 -137.44091797 288.3112793 C-138.57416504 288.04355713 -139.70741211 287.77583496 -140.875 287.5 C-142.04305176 287.22518799 -143.21110352 286.95037598 -144.41455078 286.66723633 C-180.14168474 278.03346277 -219.14878251 262.30716458 -239.2109375 229.4765625 C-252.67026245 206.21801239 -254.29636514 179.102219 -247.63720703 153.34082031 C-237.10584541 114.65319761 -214.80614822 80.07342595 -190 49 C-188.89578953 52.31263141 -189.00069885 54.58621127 -189.125 58.0625 C-189.17624558 73.48741956 -181.25870427 84.36385756 -170.8671875 95.171875 C-167.06062039 99.00145024 -162.92038818 102.35727564 -158.66796875 105.67773438 C-155.18970534 108.43509307 -151.79224079 111.2926823 -148.375 114.125 C-143.98497297 117.75266696 -139.59294206 121.36035143 -135.0625 124.8125 C-130.12382703 128.58913227 -125.57099488 132.79163101 -121 137 C-120.33355469 136.12859375 -119.66710937 135.2571875 -118.98046875 134.359375 C-104.55887967 115.65493086 -88.46878031 100.7880771 -69.45703125 86.81054688 C-65.8705377 84.16771736 -62.30990791 81.49097028 -58.75 78.8125 C-54.81336732 75.85348008 -50.87182251 72.90201394 -46.91015625 69.9765625 C-38.32641816 63.62235353 -29.99791447 57.08102648 -22 50 C-20.87851562 49.02353516 -20.87851562 49.02353516 -19.734375 48.02734375 C-6.49115057 35.74868488 -0.86604721 20.53456107 -0.078125 2.82421875 C-0.05234375 1.89222656 -0.0265625 0.96023437 0 0 Z M-127.25 160.25 C-137.82954321 176.87499647 -138.50675164 197.60222107 -134.4375 216.5625 C-131.62439112 228.22531542 -126.76244049 239.5121075 -117 247 C-112.52216666 249.73193064 -108.10306838 249.62370836 -103 249 C-97.10191501 246.39123164 -93.880044 241.59783199 -91 236 C-88.39106378 229.22504816 -86.32228595 222.27829112 -86 215 C-85.9484375 214.09507812 -85.896875 213.19015625 -85.84375 212.2578125 C-85.32604853 194.95795494 -88.61724848 175.28888883 -100.21875 161.8046875 C-104.56946174 157.39672955 -108.5855025 154.23326682 -114.94921875 153.80078125 C-119.95090741 154.28665958 -123.76404399 156.76404399 -127.25 160.25 Z " fill="#81C343" transform="translate(648,0)"/>
<path d="M0 0 C62.04 0 124.08 0 188 0 C188 10.23 188 20.46 188 31 C137.51 31 87.02 31 35 31 C35 42.88 35 54.76 35 67 C39.44782959 66.99476318 43.89565918 66.98952637 48.47827148 66.98413086 C63.13466117 66.96759924 77.79105122 66.95647967 92.44744778 66.94818783 C101.33809826 66.9430246 110.22873994 66.9359814 119.11938477 66.92456055 C126.86561227 66.91461452 134.61183339 66.90814677 142.3580671 66.90591151 C146.46220919 66.90460426 150.56633302 66.90151753 154.67046928 66.89426994 C158.5289464 66.88751101 162.38739765 66.88538278 166.24588013 66.88689232 C167.6661245 66.88661593 169.08636969 66.88461005 170.50660896 66.88079453 C172.4374187 66.87585933 174.36824215 66.87760197 176.29905701 66.87974548 C177.38216376 66.87882369 178.46527052 66.8779019 179.58119869 66.87695217 C182 67 182 67 183 68 C183 78.23 183 88.46 183 99 C134.16 99 85.32 99 35 99 C35 112.53 35 126.06 35 140 C85.82 140 136.64 140 189 140 C189 148.91 189 157.82 189 167 C165.20889806 167.11566649 141.41786367 167.20493274 117.62653732 167.25906086 C106.58019194 167.28485976 95.53402429 167.32004256 84.48779297 167.37719727 C74.86165572 167.42698054 65.23564717 167.45927874 55.60938478 167.47044247 C50.51068587 167.47696982 45.41235518 167.49234598 40.31377411 167.52865028 C35.51701022 167.56252953 30.72076705 167.57306931 25.92389488 167.56553841 C24.16140859 167.56691657 22.3989053 167.57689717 20.63652229 167.59602737 C18.23317284 167.62084049 15.8317992 167.6149498 13.42840576 167.60127258 C12.3778175 167.62311889 12.3778175 167.62311889 11.30600524 167.64540654 C7.74898556 167.59054198 6.27318585 167.2598498 3.66072464 164.77492046 C0.68176862 159.79735475 -0.24982176 156.26350944 -0.24050903 150.43840027 C-0.24222107 149.79455887 -0.24393311 149.15071747 -0.24569702 148.48736572 C-0.24899721 146.33155104 -0.2379773 144.17604977 -0.22705078 142.02026367 C-0.22643791 140.44772254 -0.22670545 138.87518085 -0.2277813 137.30263996 C-0.22823245 133.09492439 -0.2166484 128.88732279 -0.20256042 124.67963409 C-0.19116289 120.72998194 -0.19063377 116.78035737 -0.18920898 112.83068848 C-0.17871812 101.28294392 -0.15079578 89.73522051 -0.125 78.1875 C-0.08375 52.385625 -0.0425 26.58375 0 0 Z " fill="#57595B" transform="translate(18,333)"/>
<path d="M0 0 C47.05032067 0 47.05032067 0 54.44946289 5.97949219 C55.1171167 6.66172852 55.78477051 7.34396484 56.47265625 8.046875 C57.22740234 8.81 57.98214844 9.573125 58.75976562 10.359375 C59.51966797 11.14828125 60.27957031 11.9371875 61.0625 12.75 C62.2081543 13.91015625 62.2081543 13.91015625 63.37695312 15.09375 C67.54133709 19.34006795 71.52611141 23.69895954 75.41186523 28.20019531 C77.66703069 30.75593394 80.06104171 33.11842896 82.5 35.5 C85.55535564 38.50996119 88.54089242 41.535688 91.3125 44.8125 C94.66888249 48.75401455 98.32317428 52.36138499 102 56 C106.25346924 60.20926587 110.36380646 64.44024713 114.23046875 69.01171875 C116.99930556 72.12284002 119.99043111 75.01071079 122.95385742 77.93432617 C126.18031519 81.13417855 129.17945514 84.4508993 132.125 87.90625 C134.93600311 91.04520347 137.95267797 93.97350681 140.95092773 96.93139648 C144.20000607 100.15366448 147.22443863 103.49340645 150.19140625 106.97265625 C153.10236359 110.23569483 156.24308561 113.26300441 159.375 116.3125 C162.72493021 119.74219045 165.84296593 123.39196107 169 127 C169.495 64.135 169.495 64.135 170 0 C181.88 0 193.76 0 206 0 C206 55.11 206 110.22 206 167 C188.51 167 171.02 167 153 167 C142.44444444 156.44444444 142.44444444 156.44444444 137.84375 151.0625 C135.65203687 148.61075311 133.33932896 146.31114427 131 144 C128.06881809 141.10408042 125.23596826 138.19757429 122.5625 135.0625 C119.69827626 131.71074881 116.63665531 128.59443922 113.5 125.5 C110.40508128 122.44662382 107.38065703 119.37676292 104.5625 116.0625 C101.06356651 111.95652263 97.24167411 108.21418998 93.40698242 104.42651367 C90.0293548 101.07433357 86.85758681 97.61794352 83.7734375 93.9921875 C80.80550085 90.65816175 77.58444731 87.57739515 74.41015625 84.44140625 C71.73145468 81.72797273 69.25391882 78.89222977 66.77734375 75.99609375 C64.05022777 72.93333273 61.10595363 70.09776507 58.1875 67.21875 C55.60312871 64.59745912 53.22069794 61.84193685 50.828125 59.046875 C48.0311672 55.91523848 45.02547362 53.00378205 42.015625 50.078125 C40 48 40 48 37 44 C36.67 84.59 36.34 125.18 36 167 C24.12 167 12.24 167 0 167 C0 111.89 0 56.78 0 0 Z " fill="#585A5C" transform="translate(675,333)"/>
<path d="M0 0 C37.6509375 -0.0928125 37.6509375 -0.0928125 76.0625 -0.1875 C87.91748413 -0.22846802 87.91748413 -0.22846802 100.01196289 -0.27026367 C109.71960449 -0.28381348 109.71960449 -0.28381348 114.27513123 -0.28633118 C117.43287072 -0.28910767 120.59045638 -0.30027563 123.74815369 -0.31672668 C127.79354854 -0.33751872 131.83872423 -0.34343437 135.88416755 -0.33921683 C137.35786162 -0.3400969 138.83156447 -0.34591755 140.30521214 -0.35764539 C159.42539044 -0.50256911 178.33451645 2.89118773 192.75 16.3125 C208.96720776 33.39112988 209.14032201 59.92106576 210 82 C210.04382813 83.11503906 210.08765625 84.23007812 210.1328125 85.37890625 C210.57048135 108.85671411 208.46358347 136.6476689 192 155 C180.24986808 165.150509 168.58928302 168.19714371 153.48632812 167.90820312 C151.79926156 167.90593965 150.11218716 167.90722659 148.42512512 167.91174316 C143.89864489 167.91401416 139.37390269 167.8673855 134.84782219 167.8111515 C130.09806291 167.76072675 125.34825226 167.75640937 120.5982666 167.74694824 C111.62755566 167.72220362 102.657636 167.65672003 93.6872716 167.57615232 C81.54875381 167.46952471 69.41001562 167.42673283 57.27114677 167.38013458 C38.18017322 167.30518531 19.0908685 167.14573182 0 167 C0 111.89 0 56.78 0 0 Z M36 31 C36 66.97 36 102.94 36 140 C55.68651772 140.05819512 55.68651772 140.05819512 75.37304688 140.09765625 C83.40521927 140.10960051 91.43734631 140.12341261 99.46948242 140.15087891 C105.94690005 140.17264805 112.42426865 140.18457727 118.90172005 140.18975449 C121.36998326 140.19344291 123.83824386 140.20064547 126.30648613 140.21146011 C129.7700564 140.22602894 133.23342538 140.22797566 136.69702148 140.22705078 C137.71194672 140.23424133 138.72687195 140.24143188 139.77255249 140.24884033 C149.6754938 140.22032372 158.54533265 139.03488997 166 132 C174.65638044 119.40507177 174.18686917 103.87985654 174.18530273 89.22583008 C174.18747253 86.96611191 174.20564158 84.70689687 174.22460938 82.44726562 C174.25440039 74.81848321 173.97387441 67.3129451 173.09765625 59.73046875 C173.01783005 59.03614243 172.93800385 58.3418161 172.85575867 57.62644958 C171.74451553 48.9229914 168.9404973 40.74110261 162 35 C153.84120304 30.41279258 144.07307078 30.85382744 134.99414062 30.88647461 C133.92007965 30.88632858 132.84601868 30.88618256 131.7394104 30.8860321 C128.21166927 30.88672525 124.68398184 30.89448953 121.15625 30.90234375 C118.701457 30.90421006 116.24666362 30.90563296 113.79187012 30.90663147 C107.34752362 30.9104399 100.90319985 30.92025584 94.4588623 30.93133545 C86.71778839 30.94338948 78.97670685 30.94795978 71.23562622 30.95378876 C59.4904017 30.96346852 47.74522699 30.98263682 36 31 Z " fill="#57595B" transform="translate(223,333)"/>
<path d="M0 0 C1.10421047 3.31263141 0.99930115 5.58621127 0.875 9.0625 C0.82375442 24.48741956 8.74129573 35.36385756 19.1328125 46.171875 C22.93937961 50.00145024 27.07961182 53.35727564 31.33203125 56.67773438 C34.81029235 59.43509124 38.20782343 62.29260867 41.625 65.125 C45.96997527 68.71691552 50.31455645 72.28741517 54.8125 75.6875 C66.78975228 84.88473241 78.06457085 95.84666711 87 108 C86.67 108.66 86.34 109.32 86 110 C85.34 109.525625 84.68 109.05125 84 108.5625 C79.62793691 106.28538381 75.65706166 105.2597485 70.8828125 106.58984375 C64.48560522 109.40220091 61.38275071 113.51976596 58.84375 119.91015625 C47.25803707 153.301836 59.67270822 191.38373345 74 222 C74.60457031 223.14726562 75.20914063 224.29453125 75.83203125 225.4765625 C76.41017578 226.72566406 76.41017578 226.72566406 77 228 C76.67 228.66 76.34 229.32 76 230 C68.18382524 221.87610183 61.20776822 213.35945821 54.60644531 204.22314453 C53.51479723 202.71242304 52.41757965 201.2057137 51.31542969 199.70263672 C22.52342282 160.36765049 5.48744302 116.91156993 -2.0847168 68.94604492 C-2.20579803 68.1792038 -2.32687927 67.41236267 -2.45162964 66.62228394 C-2.67909485 65.1709481 -2.90370595 63.71916116 -3.12503052 62.26687622 C-3.57040774 59.39736358 -4.07924914 56.76225257 -5 54 C-8.66761128 91.24036064 0.38953888 126.98409295 15 161 C15.49838379 162.17272461 15.49838379 162.17272461 16.00683594 163.36914062 C25.86514953 186.29884779 39.8666529 207.21908123 54.67041016 227.20019531 C56.69093087 229.93528138 58.68933171 232.68603995 60.6875 235.4375 C61.33074219 236.32308594 61.97398437 237.20867187 62.63671875 238.12109375 C63.08660156 238.74113281 63.53648437 239.36117187 64 240 C60.56055228 241.14648257 59.24289021 240.81752846 55.7578125 240.03125 C54.70223145 239.79365967 53.64665039 239.55606934 52.55908203 239.3112793 C51.42583496 239.04355713 50.29258789 238.77583496 49.125 238.5 C47.95694824 238.22518799 46.78889648 237.95037598 45.58544922 237.66723633 C9.85831526 229.03346277 -29.14878251 213.30716458 -49.2109375 180.4765625 C-62.67026245 157.21801239 -64.29636514 130.102219 -57.63720703 104.34082031 C-47.10584541 65.65319761 -24.80614822 31.07342595 0 0 Z " fill="#E0E01E" transform="translate(458,49)"/>
<path d="M0 0 C1.70231625 0.05522689 3.40480412 0.10540841 5.10742188 0.15039062 C9.26337388 0.27114537 13.41104606 0.4605839 17.5625 0.6875 C17.93834229 1.34419678 18.31418457 2.00089355 18.70141602 2.67749023 C26.23235952 15.82106435 33.8420812 28.90568861 41.66137695 41.88037109 C46.74549141 50.31711528 51.78700903 58.77826859 56.8125 67.25 C57.61798852 68.6072667 58.42348987 69.96452579 59.22900391 71.32177734 C62.88715185 77.48662967 66.54263134 83.65305413 70.1943512 89.82171631 C72.19105999 93.19424149 74.18901581 96.56602663 76.1875 99.9375 C76.57990875 100.59965515 76.9723175 101.2618103 77.37661743 101.94403076 C83.01952562 111.46119828 88.7365648 120.93043141 94.5 130.375 C99.6242264 138.77496265 104.67244548 147.21120677 109.5625 155.75 C110.06128662 156.61906982 110.56007324 157.48813965 111.07397461 158.38354492 C114.43371063 164.3011319 114.43371063 164.3011319 115.5625 167.6875 C102.0325 167.6875 88.5025 167.6875 74.5625 167.6875 C70.8809375 161.3453125 70.8809375 161.3453125 67.125 154.875 C66.35099854 153.5449292 65.57699707 152.2148584 64.77954102 150.84448242 C64.17295654 149.79623291 63.56637207 148.7479834 62.94140625 147.66796875 C62.3182251 146.59442139 61.69504395 145.52087402 61.05297852 144.41479492 C59.5625 141.6875 59.5625 141.6875 58.5625 138.6875 C19.2925 138.6875 -19.9775 138.6875 -60.4375 138.6875 C-61.0975 140.3375 -61.7575 141.9875 -62.4375 143.6875 C-63.07459026 144.93660577 -63.73666309 146.17335748 -64.42578125 147.39453125 C-64.80283203 148.06419922 -65.17988281 148.73386719 -65.56835938 149.42382812 C-65.95830078 150.10896484 -66.34824219 150.79410156 -66.75 151.5 C-67.12833984 152.17353516 -67.50667969 152.84707031 -67.89648438 153.54101562 C-69.06132536 155.60067523 -70.23078342 157.65193632 -71.4375 159.6875 C-71.74450333 160.35095428 -72.05150665 161.01440857 -72.36781311 161.69796753 C-75.22819203 167.27089016 -75.22819203 167.27089016 -78.46665955 168.3865509 C-80.97915302 168.61481407 -83.37449385 168.58821136 -85.89453125 168.46875 C-86.79749435 168.45743042 -87.70045746 168.44611084 -88.63078308 168.43444824 C-91.50604311 168.38977241 -94.37625647 168.2894382 -97.25 168.1875 C-99.20240176 168.14736109 -101.15488196 168.11086102 -103.10742188 168.078125 C-107.88604976 167.99006691 -112.66092041 167.85208958 -117.4375 167.6875 C-114.33588546 161.29031641 -111.02387024 155.12429573 -107.3125 149.0625 C-106.25301529 147.31434175 -105.19449137 145.56560098 -104.13671875 143.81640625 C-103.55325684 142.85234863 -102.96979492 141.88829102 -102.36865234 140.89501953 C-99.00259399 135.30421363 -95.68024222 129.68747997 -92.35351562 124.07321167 C-86.20455925 113.69638955 -80.03405959 103.33351952 -73.8125 93 C-68.02117349 83.37703036 -62.32554732 73.70073021 -56.65682983 64.00531006 C-50.79964554 53.98897243 -44.873251 44.01694803 -38.87890625 34.08203125 C-37.34074255 31.52676201 -35.81023577 28.96702079 -34.28125 26.40625 C-33.75313721 25.52267822 -33.22502441 24.63910645 -32.6809082 23.72875977 C-31.68876584 22.06844307 -30.69761288 20.40753446 -29.70776367 18.74584961 C-28.78304644 17.20041164 -27.83845557 15.6666983 -26.87475586 14.14526367 C-25.34644465 11.65533172 -25.34644465 11.65533172 -24.17407227 8.67700195 C-18.98946716 -2.25752979 -10.64371846 -0.59913951 0 0 Z M-1.4375 38.6875 C-1.9015625 39.52925781 -2.365625 40.37101562 -2.84375 41.23828125 C-11.79169992 57.35574814 -21.29587443 73.15805066 -30.8046875 88.94921875 C-31.15471832 89.53088303 -31.50474915 90.1125473 -31.86538696 90.71183777 C-33.54583781 93.50380685 -35.22900874 96.29406841 -36.91650391 99.08178711 C-37.80861572 100.56110718 -37.80861572 100.56110718 -38.71875 102.0703125 C-39.24533203 102.94059082 -39.77191406 103.81086914 -40.31445312 104.70751953 C-41.51972739 106.45308657 -41.51972739 106.45308657 -41.4375 107.6875 C-14.7075 107.6875 12.0225 107.6875 39.5625 107.6875 C35.87928456 100.32106912 32.28158131 93.28460858 28 86.3125 C26.94977092 84.58248627 25.90032065 82.85199957 24.8515625 81.12109375 C24.31305664 80.23405762 23.77455078 79.34702148 23.21972656 78.43310547 C20.40359593 73.76748892 17.64097997 69.07045931 14.875 64.375 C13.79319254 62.54283659 12.71116607 60.71080248 11.62890625 58.87890625 C10.12913348 56.34021617 8.62962628 53.80137863 7.13232422 51.26123047 C5.86268304 49.10947462 4.58837732 46.96056214 3.3125 44.8125 C2.94165283 44.18174561 2.57080566 43.55099121 2.1887207 42.90112305 C1.34129558 41.47952417 0.45636479 40.08036698 -0.4375 38.6875 C-0.7675 38.6875 -1.0975 38.6875 -1.4375 38.6875 Z " fill="#57595B" transform="translate(543.4375,332.3125)"/>
</svg>
