<?xml version="1.0" encoding="UTF-8"?>
<svg version="1.1" xmlns="http://www.w3.org/2000/svg" width="1051" height="702">
<path d="M0 0 C3.03160404 0.00563878 6.06320248 0.00846039 9.09481049 0.0110817 C37.39723907 0.04665736 65.56027202 0.35936768 93.75484467 3.06482315 C96.5874284 3.33339396 99.42108646 3.58699589 102.25527191 3.83807755 C201.19894582 12.6652256 298.72307789 32.38399809 652.42568207 204.31805801 C653.25068207 205.10051895 654.07568207 205.88297989 654.92568207 206.68915176 C660.57785294 212.19413069 665.51624364 218.15046602 670.42568207 224.31805801 C671.08310394 225.10825333 671.74052582 225.89844864 672.41786957 226.71258926 C687.52868177 245.00941608 699.02487428 266.11913367 704.42568207 289.31805801 C704.66802582 290.29903458 704.91036957 291.28001114 705.16005707 292.29071426 C710.40373462 317.48162466 704.83737716 344.950612 691.17568207 366.56805801 C686.51200067 373.63314215 681.09044329 380.04272372 675.42568207 386.31805801 C674.77083832 387.04508926 674.11599457 387.77212051 673.44130707 388.52118301 C667.4150738 394.85645388 660.43032121 400.121368 653.42568207 405.31805801 C652.87621918 405.72781876 652.32675629 406.1375795 651.76064301 406.55975723 C584.40483611 455.99316812 490.5194593 466.39509645 409.42568207 471.31805801 C407.70260834 471.42609756 407.70260834 471.42609756 405.94472504 471.53631973 C303.31113784 477.65957695 197.9600291 465.36265648 -105.57431793 381.31805801 C-106.61697815 380.88263687 -106.61697815 380.88263687 -107.68070221 380.43841934 C-152.32524925 361.73850239 -195.71904011 339.92464548 -235.57431793 312.31805801 C-236.19838531 311.88686661 -236.8224527 311.4556752 -237.46543121 311.01141739 C-263.73721324 292.77315548 -289.8185315 271.62361484 -309.57431793 246.31805801 C-310.38642731 245.3113002 -311.19853668 244.30454239 -312.03525543 243.26727676 C-333.21381648 216.77670928 -347.88906531 183.62957574 -344.35166168 149.14764786 C-340.20940281 116.86282388 -322.45538833 90.46579128 -297.00400543 70.66180801 C-283.09845668 60.266152 -268.24720753 51.72961306 -252.57431793 44.31805801 C-251.55676422 43.83320938 -251.55676422 43.83320938 -250.51865387 43.33856583 C-228.07046742 32.73187688 -204.581169 25.47193635 -180.57431793 19.31805801 C-179.5438736 19.04896622 -178.51342926 18.77987442 -177.45175934 18.50262833 C-149.48408841 11.27837154 -120.58601294 7.04604317 -91.88681793 4.00555801 C-90.83923309 3.89265427 -90.83923309 3.89265427 -89.77048492 3.77746964 C-84.37808997 3.20660619 -78.97976951 2.74609884 -73.57431793 2.31805801 C-72.51719604 2.23192245 -71.46007416 2.1457869 -70.37091827 2.05704117 C-46.91680954 0.2021396 -23.51778678 -0.04442566 0 0 Z " fill="#0A53AA" transform="translate(344.5743179321289,114.68194198608398)"/>
<path d="M0 0 C3.03160404 0.00563878 6.06320248 0.00846039 9.09481049 0.0110817 C37.39723907 0.04665736 65.56027202 0.35936768 93.75484467 3.06482315 C96.5874284 3.33339396 99.42108646 3.58699589 102.25527191 3.83807755 C201.19894582 12.6652256 298.72307789 32.38399809 652.42568207 204.31805801 C653.25068207 205.10051895 654.07568207 205.88297989 654.92568207 206.68915176 C660.57785294 212.19413069 665.51624364 218.15046602 670.42568207 224.31805801 C671.08310394 225.10825333 671.74052582 225.89844864 672.41786957 226.71258926 C687.52868177 245.00941608 699.02487428 266.11913367 704.42568207 289.31805801 C704.66802582 290.29903458 704.91036957 291.28001114 705.16005707 292.29071426 C710.40373462 317.48162466 704.83737716 344.950612 691.17568207 366.56805801 C686.51200067 373.63314215 681.09044329 380.04272372 675.42568207 386.31805801 C674.77083832 387.04508926 674.11599457 387.77212051 673.44130707 388.52118301 C667.4150738 394.85645388 660.43032121 400.121368 653.42568207 405.31805801 C652.87621918 405.72781876 652.32675629 406.1375795 651.76064301 406.55975723 C584.40483611 455.99316812 490.5194593 466.39509645 409.42568207 471.31805801 C407.70260834 471.42609756 407.70260834 471.42609756 405.94472504 471.53631973 C303.31113784 477.65957695 197.9600291 465.36265648 -105.57431793 381.31805801 C-106.61697815 380.88263687 -106.61697815 380.88263687 -107.68070221 380.43841934 C-152.32524925 361.73850239 -195.71904011 339.92464548 -235.57431793 312.31805801 C-236.19838531 311.88686661 -236.8224527 311.4556752 -237.46543121 311.01141739 C-263.73721324 292.77315548 -289.8185315 271.62361484 -309.57431793 246.31805801 C-310.38642731 245.3113002 -311.19853668 244.30454239 -312.03525543 243.26727676 C-333.21381648 216.77670928 -347.88906531 183.62957574 -344.35166168 149.14764786 C-340.20940281 116.86282388 -322.45538833 90.46579128 -297.00400543 70.66180801 C-283.09845668 60.266152 -268.24720753 51.72961306 -252.57431793 44.31805801 C-251.55676422 43.83320938 -251.55676422 43.83320938 -250.51865387 43.33856583 C-228.07046742 32.73187688 -204.581169 25.47193635 -180.57431793 19.31805801 C-179.5438736 19.04896622 -178.51342926 18.77987442 -177.45175934 18.50262833 C-149.48408841 11.27837154 -120.58601294 7.04604317 -91.88681793 4.00555801 C-90.83923309 3.89265427 -90.83923309 3.89265427 -89.77048492 3.77746964 C-84.37808997 3.20660619 -78.97976951 2.74609884 -73.57431793 2.31805801 C-72.51719604 2.23192245 -71.46007416 2.1457869 -70.37091827 2.05704117 C-46.91680954 0.2021396 -23.51778678 -0.04442566 0 0 Z M-158.42099762 33.6310463 C-160.51689099 34.08767714 -162.61390217 34.53920829 -164.71201324 34.98553848 C-190.12597597 40.40776139 -214.79610417 47.78298165 -238.57431793 58.31805801 C-239.336315 58.65160294 -240.09831207 58.98514786 -240.88339996 59.3288002 C-272.94434738 73.46402817 -305.31001857 95.03198201 -319.57431793 128.31805801 C-328.70380207 152.48531126 -326.87864245 175.76082409 -316.57431793 199.31805801 C-308.82164483 216.15650486 -298.32242799 230.92362769 -285.57431793 244.31805801 C-284.37918809 245.68643147 -283.19105775 247.06096731 -282.01181793 248.44305801 C-263.09059143 270.16249407 -238.66521727 287.79151709 -214.57431793 303.31805801 C-213.55265533 303.98055557 -213.55265533 303.98055557 -212.51035309 304.65643692 C-201.87158362 311.5398058 -191.08284237 317.99544242 -179.94052887 324.02753067 C-177.49783173 325.35977346 -175.07050916 326.71717366 -172.64463043 328.07977676 C-107.45996827 364.49582352 -35.56489638 390.08917075 36.42568207 409.31805801 C37.05158234 409.48607925 37.6774826 409.65410049 38.32234955 409.82721329 C59.32620238 415.46344835 80.41728061 420.4705373 101.7064743 424.90787125 C106.5827762 425.92497135 111.44897367 426.97932795 116.31240082 428.05633926 C168.16846591 439.37227739 220.99200552 445.96457299 273.86318207 450.06805801 C274.55625458 450.12213318 275.24932709 450.17620834 275.96340179 450.23192215 C357.53880156 456.58508086 441.16489189 455.76544313 521.42568207 438.31805801 C522.37298187 438.11857559 523.32028168 437.91909317 524.29628754 437.71356583 C552.72770261 431.71733259 581.28183416 423.10898154 607.42568207 410.31805801 C608.32383636 409.88122696 609.22199066 409.4443959 610.14736176 408.99432755 C628.95036645 399.75770821 645.59911917 389.17991025 660.42568207 374.31805801 C661.76566254 372.99547989 661.76566254 372.99547989 663.13271332 371.64618301 C673.2040135 361.18812015 679.88241285 349.06288513 684.42568207 335.31805801 C684.65900238 334.6309877 684.89232269 333.94391739 685.13271332 333.23602676 C692.13688199 310.91338846 685.80708203 286.15304112 675.50478363 266.02460098 C668.32170795 252.37140168 659.18339098 240.13950241 648.72646332 228.82977676 C646.81937438 226.74784436 644.97829335 224.6322671 643.14052582 222.48993301 C639.5406479 218.3662264 635.68876555 214.59876286 631.67568207 210.88055801 C630.96959808 210.2244252 630.2635141 209.56829239 629.53603363 208.89227676 C624.01022082 203.79230179 618.38073972 198.91429329 612.42568207 194.31805801 C611.74086761 193.78776993 611.05605316 193.25748184 610.35048676 192.71112442 C570.21345429 161.7548224 524.75667302 134.91957197 477.60146332 116.02899551 C474.41204205 114.74990871 471.29231423 113.35465094 468.17177582 111.91571426 C462.25019951 109.20180769 456.23273726 106.77368267 450.17568207 104.38055801 C447.95818443 103.50047494 445.74073626 102.62026725 443.52333832 101.73993301 C442.46775726 101.32163223 441.41217621 100.90333145 440.32460785 100.47235489 C437.93532053 99.52098632 435.55138852 98.55890509 433.17177582 97.58368301 C423.94684425 93.81675157 414.59362271 90.51061725 405.17470551 87.26971817 C402.28792306 86.27036844 399.40719447 85.2548903 396.52724457 84.23602676 C387.37236291 81.00506788 378.26041508 77.8498997 368.89052582 75.29852676 C365.58517389 74.36319042 362.33106145 73.32883137 359.06630707 72.26337051 C346.96762007 68.3252073 334.68586632 65.19449905 322.35683441 62.06708145 C318.89157636 61.18157323 315.4395717 60.25606635 311.98818207 59.31805801 C309.46824205 58.64777094 306.94749393 57.98121582 304.42568207 57.31805801 C303.55218109 57.08683243 302.67868011 56.85560684 301.77870941 56.61737442 C255.95511195 44.57123695 209.06151177 35.96032017 162.09560394 29.80096817 C159.45258095 29.45318348 156.81095984 29.09900739 154.16982269 28.73749161 C133.69366717 25.94207954 113.21315371 23.73314605 92.61318207 22.06805801 C91.59068359 21.98515518 90.56818512 21.90225235 89.51470184 21.81683731 C86.54135976 21.57824337 83.56765722 21.34508899 80.59365082 21.11493301 C79.74688782 21.04848587 78.90012482 20.98203873 78.02770233 20.91357803 C61.80921722 19.6939182 45.64087531 19.14777928 29.37880707 19.11493301 C27.92236912 19.11069195 27.92236912 19.11069195 26.43650818 19.1063652 C21.28218075 19.09150027 16.12788031 19.08219499 10.97353363 19.07782364 C6.81068237 19.07347357 2.64804241 19.05969858 -1.51474762 19.03680801 C-54.15809224 18.75342664 -106.89159052 22.38957956 -158.42099762 33.6310463 Z " fill="#FDFDFE" transform="translate(344.5743179321289,114.68194198608398)"/>
<path d="M0 0 C2.54627086 1.97746373 4.99393619 4.02336895 7.41796875 6.1484375 C8.15015625 6.78523438 8.88234375 7.42203125 9.63671875 8.078125 C13.32008654 11.48377855 13.32008654 11.48377855 14.41796875 13.1484375 C14.14777036 17.4102566 11.18133781 19.76797567 8.2890625 22.5703125 C7.77996841 23.07516174 7.27087433 23.58001099 6.74635315 24.10015869 C5.12297755 25.70677729 3.48947175 27.30263572 1.85546875 28.8984375 C0.75126825 29.98758734 -0.3522557 31.07742355 -1.45507812 32.16796875 C-4.15628415 34.8361451 -6.86662188 37.49472041 -9.58203125 40.1484375 C-12.68959154 38.66421155 -14.88883205 37.08395202 -17.39453125 34.7109375 C-24.36091256 28.59784238 -29.83705674 27.4382894 -39.0703125 27.68359375 C-45.71770049 28.56350384 -50.02287115 31.38886125 -54.52734375 36.24609375 C-59.61862114 43.33836155 -59.6078579 50.70989826 -58.58203125 59.1484375 C-57.18510246 65.830822 -55.01790515 70.89485498 -49.4296875 75 C-42.54806709 79.27737082 -36.80284234 80.32606406 -28.984375 78.5625 C-16.55836391 74.66484472 -7.14396418 65.18248171 1.76538086 56.08227539 C3.24003347 54.57616877 4.72535957 53.08126947 6.21289062 51.58789062 C10.9436051 46.81826044 15.53386531 41.97003521 19.90893555 36.87133789 C22.94029101 33.41036467 26.28401287 30.26747677 29.57421875 27.0546875 C32.38924457 24.24365321 34.97214405 21.25147808 37.57519531 18.24511719 C41.26401505 14.048034 45.14329636 10.02610418 48.98828125 5.97265625 C49.61734375 5.30621094 50.24640625 4.63976562 50.89453125 3.953125 C51.45221191 3.36515137 52.00989258 2.77717773 52.58447266 2.17138672 C54.94359535 -0.43150151 57.1690631 -3.15287572 59.41796875 -5.8515625 C71.62796875 -5.8515625 83.83796875 -5.8515625 96.41796875 -5.8515625 C96.41796875 34.0784375 96.41796875 74.0084375 96.41796875 115.1484375 C84.53796875 115.1484375 72.65796875 115.1484375 60.41796875 115.1484375 C60.08796875 107.8884375 59.75796875 100.6284375 59.41796875 93.1484375 C53.52603576 92.89383193 47.65358206 92.67576355 41.76049805 92.54418945 C39.76309166 92.48930946 37.76611805 92.41456913 35.77026367 92.31860352 C22.36456335 91.43750252 22.36456335 91.43750252 10.59587097 96.91288757 C9.05598627 98.33329185 7.60903319 99.79649353 6.17919922 101.3269043 C-0.86581491 108.52577505 -10.81872871 113.03509294 -20.58203125 115.1484375 C-21.72260986 115.40318848 -21.72260986 115.40318848 -22.88623047 115.66308594 C-35.18765305 117.87783219 -50.30763891 117.75941415 -61.58203125 112.1484375 C-62.50628906 111.72433594 -63.43054688 111.30023438 -64.3828125 110.86328125 C-71.44546682 107.35637544 -76.96272062 102.63366479 -82.58203125 97.1484375 C-81.70543465 101.3449106 -80.81417463 105.45200737 -79.45703125 109.5234375 C-78.58203125 112.1484375 -78.58203125 112.1484375 -78.58203125 115.1484375 C-91.12203125 115.1484375 -103.66203125 115.1484375 -116.58203125 115.1484375 C-119.95343849 108.40562302 -119.95343849 108.40562302 -120.93359375 105.31640625 C-121.145 104.66349609 -121.35640625 104.01058594 -121.57421875 103.33789062 C-121.88746094 102.34692383 -121.88746094 102.34692383 -122.20703125 101.3359375 C-123.30965086 96.89974458 -123.30965086 96.89974458 -125.58203125 93.1484375 C-128.03033551 93.05999957 -130.45023724 93.03314998 -132.8984375 93.05078125 C-133.62949203 93.0521962 -134.36054657 93.05361115 -135.11375427 93.05506897 C-137.45738757 93.06068342 -139.80092664 93.07323828 -142.14453125 93.0859375 C-143.72981633 93.09095064 -145.31510291 93.09551387 -146.90039062 93.09960938 C-150.79430735 93.11065753 -154.6881533 93.12793178 -158.58203125 93.1484375 C-160.90135773 99.19856629 -162.87419284 105.27430085 -164.71484375 111.48828125 C-165.58203125 114.1484375 -165.58203125 114.1484375 -166.58203125 115.1484375 C-169.3209721 115.23702396 -172.03456395 115.26367229 -174.7734375 115.24609375 C-175.59327621 115.2446788 -176.41311493 115.24326385 -177.25779724 115.24180603 C-179.88674507 115.23619039 -182.51560898 115.22363529 -185.14453125 115.2109375 C-186.92252482 115.20592451 -188.70051971 115.20136126 -190.47851562 115.19726562 C-194.8463867 115.18621589 -199.21419473 115.16894081 -203.58203125 115.1484375 C-203.4480335 113.73776527 -203.30739113 112.32772349 -203.1640625 110.91796875 C-203.08647705 110.13268799 -203.0088916 109.34740723 -202.92895508 108.53833008 C-202.35068903 104.55476473 -200.9432601 100.92030071 -199.58203125 97.1484375 C-198.91246272 95.10772066 -198.24592961 93.06600603 -197.58203125 91.0234375 C-196.56233023 87.88785687 -195.46990194 84.89279485 -194.14453125 81.87109375 C-192.27718968 77.59216031 -190.94261252 73.17180161 -189.58203125 68.7109375 C-187.95434537 63.39976457 -186.25750993 58.15653486 -184.26953125 52.96850586 C-183.29448607 50.38719838 -182.43737636 47.77149585 -181.58203125 45.1484375 C-180.04281771 40.42818263 -178.34020396 35.78992932 -176.58203125 31.1484375 C-171.51424681 17.93913557 -171.51424681 17.93913557 -167.28515625 4.44921875 C-166.21877852 0.95979384 -164.86318671 -2.43514795 -163.58203125 -5.8515625 C-149.39203125 -5.8515625 -135.20203125 -5.8515625 -120.58203125 -5.8515625 C-119.26203125 -1.8915625 -117.94203125 2.0684375 -116.58203125 6.1484375 C-115.62935118 8.53013768 -114.67600365 10.91163519 -113.703125 13.28515625 C-112.29753998 16.8750302 -111.03476189 20.50718301 -109.76953125 24.1484375 C-106.60540928 33.24015159 -103.12072936 42.19699702 -99.58203125 51.1484375 C-99.32808594 50.08625 -99.07414062 49.0240625 -98.8125 47.9296875 C-95.09126952 32.55551288 -95.09126952 32.55551288 -92.58203125 27.1484375 C-92.02128906 25.91287109 -92.02128906 25.91287109 -91.44921875 24.65234375 C-83.57687173 8.79518761 -69.45314505 -2.98004299 -52.8125 -8.82421875 C-35.12695953 -13.91443455 -15.00970983 -10.76339252 0 0 Z " fill="#FDFDFE" transform="translate(585.58203125,282.8515625)"/>
<path d="M0 0 C1.60279192 0.00015914 3.20558896 0.00585476 4.80834961 0.01586914 C5.65038437 0.01728409 6.49241913 0.01869904 7.35997009 0.02015686 C10.06024671 0.02577276 12.76044163 0.03832791 15.46069336 0.05102539 C17.28686404 0.05603834 19.11303602 0.06060161 20.93920898 0.06469727 C25.42556878 0.07574735 29.9118672 0.0930226 34.39819336 0.11352539 C35.77965913 4.25792269 34.29339771 7.08822475 32.89038086 11.03930664 C32.6135849 11.84174301 32.33678894 12.64417938 32.05160522 13.47093201 C31.13380191 16.1256014 30.20345042 18.77569715 29.27319336 21.42602539 C28.63001798 23.27954659 27.9877769 25.13339224 27.34643555 26.98754883 C26.02160231 30.81494108 24.6924294 34.64078461 23.36010742 38.46557617 C20.69274849 46.13190263 18.07450997 53.81487833 15.45535278 61.49777222 C14.12325753 65.40209209 12.78613187 69.30468682 11.44897461 73.20727539 C9.9403276 77.61047019 8.43192138 82.01374242 6.92700195 86.41821289 C5.77811871 89.78052882 4.6267719 93.14199087 3.47351074 96.50280762 C2.86175112 98.28750655 2.25247535 100.07305631 1.64331055 101.85864258 C-4.64569775 120.1574165 -4.64569775 120.1574165 -6.60180664 122.11352539 C-9.26806694 122.202077 -11.90827778 122.22877212 -14.57446289 122.21118164 C-15.37210556 122.20976669 -16.16974823 122.20835175 -16.99156189 122.20689392 C-19.54918099 122.20127856 -22.10671382 122.18872351 -24.66430664 122.17602539 C-26.39412309 122.17101237 -28.1239409 122.16644912 -29.85375977 122.16235352 C-34.10314217 122.15130414 -38.35245976 122.13402925 -42.60180664 122.11352539 C-45.76038562 114.40734802 -48.63811326 106.61484438 -51.45336914 98.77758789 C-51.91679953 97.49127174 -52.38037518 96.20500792 -52.84408569 94.91879272 C-54.06161365 91.54031981 -55.2769871 88.16107568 -56.49194336 84.78167725 C-57.45436548 82.10584001 -58.41833619 79.43056209 -59.38241005 76.7553196 C-60.57331752 73.45045398 -61.76341384 70.14529644 -62.95336914 66.84008789 C-63.37043121 65.68167389 -63.78749329 64.52325989 -64.2171936 63.32974243 C-69.03477468 49.93239037 -73.8132792 36.52140222 -78.60180664 23.11352539 C-78.93180664 55.78352539 -79.26180664 88.45352539 -79.60180664 122.11352539 C-117.60180664 122.11352539 -117.60180664 122.11352539 -125.10180664 114.98852539 C-126.55932617 112.53686523 -126.55932617 112.53686523 -127.35961914 110.32446289 C-129.84198635 104.26189284 -133.37573103 99.0623266 -136.97680664 93.61352539 C-138.60198669 91.0427611 -140.21458581 88.4644585 -141.82592773 85.88500977 C-144.36346598 81.92485935 -146.98391621 78.02087227 -149.60180664 74.11352539 C-149.61211411 74.70012436 -149.62242157 75.28672333 -149.63304138 75.89109802 C-149.74087858 81.97390409 -149.8554942 88.05655513 -149.97412109 94.13916016 C-150.01754329 96.41191375 -150.0592128 98.68470152 -150.09912109 100.95751953 C-150.15664783 104.21665771 -150.22039216 107.4756227 -150.28540039 110.73461914 C-150.31046913 112.26897865 -150.31046913 112.26897865 -150.33604431 113.83433533 C-150.35598953 114.77523514 -150.37593475 115.71613495 -150.39648438 116.68554688 C-150.41202866 117.51827621 -150.42757294 118.35100555 -150.44358826 119.20896912 C-150.60180664 121.11352539 -150.60180664 121.11352539 -151.60180664 122.11352539 C-154.25636857 122.21448103 -156.8843584 122.25323538 -159.53930664 122.24633789 C-160.73221313 122.24777298 -160.73221313 122.24777298 -161.94921875 122.24923706 C-163.63387125 122.24991882 -165.31852635 122.24806482 -167.00317383 122.24389648 C-169.59079861 122.23854814 -172.1782498 122.24384158 -174.76586914 122.25024414 C-176.39868203 122.24958336 -178.0314948 122.24830219 -179.66430664 122.24633789 C-180.44346436 122.24836212 -181.22262207 122.25038635 -182.02539062 122.25247192 C-187.4868556 122.22847644 -187.4868556 122.22847644 -188.60180664 121.11352539 C-188.69768788 119.55732143 -188.72368697 117.99676085 -188.72206116 116.43760681 C-188.72343582 115.42653366 -188.72481049 114.41546051 -188.72622681 113.37374878 C-188.72263153 112.25525543 -188.71903625 111.13676208 -188.71533203 109.984375 C-188.71547806 108.81380051 -188.71562408 107.64322601 -188.71577454 106.43717957 C-188.71519559 103.21831596 -188.71016655 99.99949536 -188.70320058 96.78064036 C-188.69696621 93.42005139 -188.69636318 90.05946166 -188.69517517 86.6988678 C-188.6920621 80.33110197 -188.68384904 73.96335323 -188.67382568 67.59559494 C-188.66266379 60.3478281 -188.6571539 53.10006046 -188.65213025 45.85228717 C-188.64166641 30.93935704 -188.62406744 16.02644292 -188.60180664 1.11352539 C-183.60339363 0.8651523 -178.60860929 0.6843728 -173.60546875 0.56420898 C-171.90658999 0.5141041 -170.20813863 0.44599193 -168.51074219 0.35913086 C-154.39642096 -0.34472206 -154.39642096 -0.34472206 -149.97877502 3.24491882 C-148.18250988 5.80453757 -146.87159037 8.26287397 -145.60180664 11.11352539 C-144.75951087 12.44772323 -143.89802489 13.77035112 -143.00415039 15.07055664 C-142.1810843 16.35478377 -141.3595055 17.63996515 -140.53930664 18.92602539 C-136.12178019 25.80080094 -131.63262199 32.62539211 -127.10180664 39.42602539 C-126.50231201 40.32748291 -125.90281738 41.22894043 -125.28515625 42.15771484 C-124.43642944 43.42941528 -124.43642944 43.42941528 -123.57055664 44.72680664 C-123.06975586 45.47744385 -122.56895508 46.22808105 -122.05297852 47.00146484 C-120.62569931 49.07875159 -119.1140264 51.09723238 -117.60180664 53.11352539 C-117.27180664 35.95352539 -116.94180664 18.79352539 -116.60180664 1.11352539 C-92.51180664 1.11352539 -68.42180664 1.11352539 -43.60180664 1.11352539 C-39.70563938 12.80202717 -35.98257281 24.065871 -32.78930664 35.88305664 C-31.00191962 42.38467691 -28.79050972 48.73804514 -26.60180664 55.11352539 C-25.59693032 58.11190786 -24.59836857 61.11237023 -23.60180664 64.11352539 C-23.24989258 62.86442383 -22.89797852 61.61532227 -22.53540039 60.32836914 C-18.72685122 46.8702747 -14.73294156 33.47596181 -10.60180664 20.11352539 C-10.31208984 19.17444336 -10.02237305 18.23536133 -9.72387695 17.26782227 C-8.89583633 14.59002311 -8.06258008 11.91391996 -7.22680664 9.23852539 C-6.97608398 8.42947754 -6.72536133 7.62042969 -6.46704102 6.78686523 C-4.37457122 0.13788217 -4.37457122 0.13788217 0 0 Z " fill="#FDFDFE" transform="translate(381.601806640625,275.886474609375)"/>
<path d="M0 0 C1.90349464 -0.01441132 1.90349464 -0.01441132 3.84544373 -0.02911377 C5.24469829 -0.03396499 6.64395494 -0.03824302 8.04321289 -0.04199219 C9.47514345 -0.04774536 10.90707399 -0.05350307 12.33900452 -0.05926514 C15.35116942 -0.06979255 18.36330755 -0.07562194 21.37548828 -0.07910156 C25.21182497 -0.08455119 29.04780037 -0.10849487 32.88402462 -0.13707352 C35.84826128 -0.15583121 38.81241383 -0.1609127 41.77670479 -0.16243744 C43.18912262 -0.16544149 44.60153978 -0.17339296 46.01389885 -0.18662262 C60.65267031 -0.31381036 70.80877903 2.43436319 81.76586914 12.28613281 C88.34701007 19.26613077 91.84751774 27.73679298 92.18383789 37.27832031 C91.75550471 48.98609398 87.87657342 56.84763597 79.59008789 64.98535156 C77.80933281 67.04510796 77.80933281 67.04510796 78.31591797 69.51123047 C79.1221226 72.31319813 80.18233402 74.29432803 81.76586914 76.73535156 C82.29954102 77.56744141 82.83321289 78.39953125 83.38305664 79.25683594 C83.94250977 80.11212891 84.50196289 80.96742188 85.07836914 81.84863281 C86.18312364 83.56049318 87.28731817 85.27271509 88.39086914 86.98535156 C88.88200195 87.73905029 89.37313477 88.49274902 89.87915039 89.26928711 C91.07836914 91.16113281 91.07836914 91.16113281 92.07836914 93.16113281 C92.40836914 62.80113281 92.73836914 32.44113281 93.07836914 1.16113281 C116.50836914 1.16113281 139.93836914 1.16113281 164.07836914 1.16113281 C164.07836914 12.38113281 164.07836914 23.60113281 164.07836914 35.16113281 C163.07836914 36.16113281 163.07836914 36.16113281 160.02734375 36.2746582 C158.67845643 36.27449916 157.329563 36.26880893 155.98071289 36.25878906 C154.91742516 36.25666664 154.91742516 36.25666664 153.83265686 36.25450134 C151.56035202 36.24888724 149.28814439 36.23633244 147.01586914 36.22363281 C145.47876118 36.21861963 143.94165169 36.2140564 142.40454102 36.20996094 C138.62911272 36.19891324 134.85375743 36.18163923 131.07836914 36.16113281 C131.07836914 38.80113281 131.07836914 41.44113281 131.07836914 44.16113281 C132.52457642 44.15327759 132.52457642 44.15327759 134 44.14526367 C137.56509478 44.12721163 141.1301855 44.11570007 144.6953125 44.10620117 C146.2405668 44.10116142 147.7858163 44.09432962 149.33105469 44.08569336 C151.54761943 44.07361205 153.76412132 44.06790109 155.98071289 44.06347656 C156.67551254 44.05831528 157.37031219 44.05315399 158.08616638 44.0478363 C159.75066244 44.04764005 161.41502413 44.09924152 163.07836914 44.16113281 C164.07836914 45.16113281 164.07836914 45.16113281 164.19189453 48.12036133 C164.18665771 49.41385498 164.1814209 50.70734863 164.17602539 52.04003906 C164.17352783 53.29631104 164.17103027 54.55258301 164.16845703 55.84692383 C164.15935303 57.45623779 164.15024902 59.06555176 164.14086914 60.72363281 C164.12024414 65.81800781 164.09961914 70.91238281 164.07836914 76.16113281 C153.18836914 76.16113281 142.29836914 76.16113281 131.07836914 76.16113281 C131.07836914 79.13113281 131.07836914 82.10113281 131.07836914 85.16113281 C141.96836914 85.16113281 152.85836914 85.16113281 164.07836914 85.16113281 C164.1012781 90.26983092 164.12120516 95.37835207 164.13330078 100.48706055 C164.13834118 102.22632449 164.14517344 103.96558417 164.15380859 105.70483398 C164.16588706 108.19939218 164.17160022 110.69389455 164.17602539 113.18847656 C164.18118668 113.97077133 164.18634796 114.7530661 164.19166565 115.55906677 C164.1918614 117.42680396 164.14036608 119.29442485 164.07836914 121.16113281 C161.92494413 123.31455783 157.02479411 122.46821409 154.03564453 122.54443359 C153.08595795 122.5718866 152.13627136 122.5993396 151.1578064 122.62762451 C142.37009321 122.86789643 133.58055291 123.01103355 124.79036808 123.12407112 C118.8830021 123.20149801 112.98018256 123.31117914 107.07519531 123.49853516 C101.36769968 123.67879111 95.66437611 123.77484851 89.95422173 123.81298447 C87.78204553 123.8417822 85.61004524 123.90013937 83.43950081 123.98910904 C66.90401652 124.63653697 66.90401652 124.63653697 62.21605301 120.52965355 C58.99282884 116.50540162 56.9095011 112.08718034 54.99590111 107.32721138 C53.56167725 103.941344 51.6949473 100.88424716 49.81274414 97.72753906 C49.14073124 96.55397478 48.47110731 95.37903604 47.80493164 94.20214844 C47.47912109 93.62891846 47.15331055 93.05568848 46.81762695 92.46508789 C46.32794434 91.60306763 46.32794434 91.60306763 45.82836914 90.72363281 C44.49118406 88.36999327 43.1523922 86.01727741 41.81274414 83.66503906 C41.2375 82.65256104 40.66225586 81.64008301 40.06958008 80.59692383 C37.45630693 76.08777804 34.76958915 71.62407613 32.07836914 67.16113281 C32.06806168 67.83542831 32.05775421 68.50972382 32.0471344 69.20445251 C31.93931145 76.19556863 31.82469471 83.18654949 31.70605469 90.17749023 C31.6626279 92.78976625 31.62095876 95.40207209 31.58105469 98.0144043 C31.52353907 101.76002 31.4597915 105.50548451 31.39477539 109.25097656 C31.36970665 111.01501076 31.36970665 111.01501076 31.34413147 112.81468201 C31.32418625 113.89572708 31.30424103 114.97677216 31.28369141 116.09057617 C31.26814713 117.04765976 31.25260284 118.00474335 31.23658752 118.99082947 C31.07836914 121.16113281 31.07836914 121.16113281 30.07836914 122.16113281 C27.42380721 122.26208845 24.79581738 122.3008428 22.14086914 122.29394531 C20.94796265 122.2953804 20.94796265 122.2953804 19.73095703 122.29684448 C18.04630454 122.29752624 16.36164943 122.29567224 14.67700195 122.29150391 C12.08937717 122.28615556 9.50192598 122.291449 6.91430664 122.29785156 C5.28149376 122.29719078 3.64868098 122.29590962 2.01586914 122.29394531 C1.23671143 122.29596954 0.45755371 122.29799377 -0.34521484 122.30007935 C-5.80667981 122.27608386 -5.80667981 122.27608386 -6.92163086 121.16113281 C-7.01967951 119.60725118 -7.04794948 118.04891517 -7.0486145 116.49194336 C-7.05143433 115.48231537 -7.05425415 114.47268738 -7.05715942 113.4324646 C-7.05513519 112.3155423 -7.05311096 111.19862 -7.05102539 110.04785156 C-7.05277771 108.87888336 -7.05453003 107.70991516 -7.05633545 106.50552368 C-7.0599935 103.29072842 -7.05912062 100.07597403 -7.05595636 96.86117935 C-7.05343228 93.50372478 -7.05577044 90.14627303 -7.05734253 86.78881836 C-7.05916408 81.1495718 -7.05675829 75.51033832 -7.05200195 69.87109375 C-7.04655936 63.34263022 -7.04832202 56.81419791 -7.05382836 50.28573513 C-7.0583599 44.68998922 -7.05900984 39.09425274 -7.05638969 33.49850559 C-7.05482714 30.15226797 -7.05463255 26.80604504 -7.05792618 23.45980835 C-7.060451 19.73132176 -7.0566145 16.00289608 -7.05102539 12.27441406 C-7.05304962 11.15749176 -7.05507385 10.04056946 -7.05715942 8.88980103 C-7.0543396 7.88017303 -7.05151978 6.87054504 -7.0486145 5.83032227 C-7.04823748 4.94762161 -7.04786045 4.06492096 -7.047472 3.1554718 C-6.778922 -1.10052691 -3.56992272 0.0217185 0 0 Z " fill="#FCFDFE" transform="translate(693.921630859375,275.8388671875)"/>
<path d="M0 0 C11.39396056 10.7613018 16.90979916 29.24690329 17.375 44.4375 C17.23184569 59.51642073 10.49891977 72.50220353 0.1875 83.25 C-4.53409123 87.75794457 -9.48708596 91.51815955 -15 95 C-15.86753906 95.56203125 -16.73507812 96.1240625 -17.62890625 96.703125 C-43.20686151 112.49813493 -74.59422004 119.57152746 -104 124 C-105.00063477 124.15162598 -106.00126953 124.30325195 -107.03222656 124.45947266 C-155.14019867 131.49330973 -205.66266085 131.28319788 -254 127 C-254.868526 126.92458984 -255.737052 126.84917969 -256.63189697 126.77148438 C-286.87133594 124.13503293 -316.82813481 120.2763674 -346.77893066 115.3626709 C-349.73384654 114.88017268 -352.6912468 114.41363727 -355.6484375 113.9453125 C-382.53218202 109.58559414 -409.12093726 103.33596693 -435.5625 96.875 C-436.57955017 96.62741943 -437.59660034 96.37983887 -438.64447021 96.12475586 C-452.52690945 92.73571075 -466.29124067 89.0338831 -480 85 C-480.856008 84.74845154 -481.71201599 84.49690308 -482.59396362 84.23773193 C-496.80252499 80.05580275 -510.91657848 75.58497724 -525 71 C-526.01191406 70.67290039 -527.02382813 70.34580078 -528.06640625 70.00878906 C-533.619502 68.19144451 -539.05515317 66.22108897 -544.46240234 64.00927734 C-548.17280965 62.53353905 -551.93827848 61.22701176 -555.70532227 59.90405273 C-568.37813917 55.45208728 -580.73606022 50.47389052 -593 45 C-589.086484 43.69549467 -586.76901964 44.89865724 -583.078125 46.28125 C-582.39009293 46.53014984 -581.70206085 46.77904968 -580.99317932 47.03549194 C-579.51354876 47.57110566 -578.0352823 48.11049964 -576.55825806 48.65325928 C-572.68113108 50.07550983 -568.79185471 51.46360718 -564.90234375 52.8515625 C-564.13085495 53.12727081 -563.35936615 53.40297913 -562.5644989 53.68704224 C-546.13873616 59.53126251 -529.37316668 64.06520733 -512.48730469 68.36083984 C-509.19054556 69.20800468 -505.90867078 70.10344719 -502.625 71 C-492.90771688 73.59843372 -483.11784998 75.9016291 -473.32910156 78.21337891 C-471.13523829 78.73175874 -468.9418649 79.25221694 -466.74902344 79.77490234 C-420.50747346 90.78579518 -373.29800896 98.31657171 -326 103 C-325.04436157 103.09710266 -324.08872314 103.19420532 -323.10412598 103.29425049 C-265.25715374 109.14417166 -204.87269448 110.73100252 -147.11083984 103.26885986 C-145.07264336 103.00925266 -143.03326257 102.76655721 -140.9921875 102.53076172 C-96.9037653 97.37912543 -40.49918322 87.19437716 -9.58984375 52.27734375 C-2.12505802 42.58009874 2.1968319 32.11213438 2.1875 19.9375 C2.18814453 19.08438232 2.18878906 18.23126465 2.18945312 17.35229492 C2.13898717 11.33136274 1.53291853 5.8442519 0 0 Z " fill="#FAFBFD" transform="translate(903,390)"/>
<path d="M0 0 C0.71019287 0.0485614 1.42038574 0.0971228 2.15209961 0.14715576 C40.949826 2.80259403 80.70386688 6.77879778 118.65185547 15.48144531 C121.40267152 16.08892434 124.16315699 16.62487504 126.9296875 17.15625 C142.51087217 20.16037245 157.98308606 23.52656943 173.4375 27.125 C174.34957214 27.33664795 175.26164429 27.5482959 176.20135498 27.76635742 C187.18911132 30.32097056 198.12239496 33.00837315 209 36 C205.89058451 36.98184549 203.80363959 36.97155183 200.6315918 36.27490234 C199.76977295 36.09058151 198.9079541 35.90626068 198.02001953 35.71635437 C197.08915527 35.5083168 196.15829102 35.30027924 195.19921875 35.0859375 C193.18515066 34.65253821 191.17107144 34.21919068 189.15698242 33.78588867 C188.10127045 33.55533783 187.04555847 33.32478699 185.95785522 33.08724976 C167.29242855 29.02211167 148.6621953 25.3046433 129.75537109 22.54882812 C127.14735617 22.16768019 124.54130448 21.77978329 121.93603516 21.38085938 C30.09587453 7.31976068 -66.62713025 2.26934461 -171 25 C-171.81758789 25.21205078 -172.63517578 25.42410156 -173.47753906 25.64257812 C-203.98039921 33.73000048 -238.69369306 47.32237791 -255.3046875 75.7890625 C-260.42925675 85.49504389 -260.63790904 95.2371585 -261 106 C-266.7737862 100.2262138 -266.360736 89.65479267 -266.4375 81.9375 C-266.33092231 66.97094704 -260.2682229 54.97212639 -250.0859375 44.01171875 C-214.10441129 9.31043411 -155.62054787 2.2292574 -108 -1 C-107.16404297 -1.05784668 -106.32808594 -1.11569336 -105.46679688 -1.17529297 C-70.42064755 -3.44132373 -35.00437794 -2.46248796 0 0 Z " fill="#F9FBFD" transform="translate(384,190)"/>
<path d="M0 0 C0.77915771 0.00202423 1.55831543 0.00404846 2.36108398 0.00613403 C3.15635498 0.00517731 3.95162598 0.00422058 4.77099609 0.00323486 C6.45564859 0.0025531 8.1403037 0.00440711 9.82495117 0.00857544 C12.41257595 0.01392378 15.00002714 0.00863034 17.58764648 0.00222778 C19.22045937 0.00288857 20.85327215 0.00416973 22.48608398 0.00613403 C23.2652417 0.0041098 24.04439941 0.00208557 24.84716797 0 C30.30863294 0.02399549 30.30863294 0.02399549 31.42358398 1.13894653 C31.51949598 2.70782288 31.54546395 4.28102446 31.5438385 5.85282898 C31.54521317 6.87231628 31.54658783 7.89180359 31.54800415 8.94218445 C31.54261124 10.63395058 31.54261124 10.63395058 31.53710938 12.3598938 C31.5372554 13.54022186 31.53740143 14.72054993 31.53755188 15.93664551 C31.53697293 19.18236761 31.53194385 22.42804708 31.52497792 25.67376065 C31.5187436 29.06237685 31.51814052 32.45099382 31.51695251 35.83961487 C31.51383943 42.26050458 31.50562635 48.68137734 31.49560302 55.10225958 C31.48444118 62.41048478 31.47893126 69.71871077 31.47390759 77.02694237 C31.46344371 92.0642881 31.44509852 107.1016118 31.42358398 122.13894653 C18.88358398 122.13894653 6.34358398 122.13894653 -6.57641602 122.13894653 C-6.59896331 106.37977589 -6.61739535 90.62061796 -6.62822819 74.86143589 C-6.63339108 67.54467251 -6.64043364 60.22791984 -6.65185547 52.91116333 C-6.66180252 46.53611635 -6.66826949 40.16107713 -6.67050451 33.7860226 C-6.67181158 30.40846639 -6.6748972 27.03093237 -6.68214607 23.65338326 C-6.68935214 19.8888731 -6.69040714 16.12440968 -6.68994141 12.3598938 C-6.69533432 10.66812767 -6.69533432 10.66812767 -6.70083618 8.94218445 C-6.69946152 7.92269714 -6.69808685 6.90320984 -6.69667053 5.85282898 C-6.69759233 4.96145516 -6.69851412 4.07008135 -6.69946384 3.15169621 C-6.44182829 -1.06256653 -3.55010367 0.01559773 0 0 Z " fill="#FDFDFE" transform="translate(156.576416015625,275.8610534667969)"/>
<path d="M0 0 C3.47485838 2.07012839 5.74352278 4.11634312 7 8 C7.51555338 11.9525759 7.15914688 13.7044415 5.25 17.25 C1.89889879 21.34579037 0.38667774 21.84343961 -4.875 22.4375 C-9.66712268 22.33897037 -11.72173592 20.35822174 -15 17 C-16.73631636 13.52736727 -16.60190402 9.78806987 -16 6 C-11.34455949 0.11944356 -7.22220401 -0.91214687 0 0 Z " fill="#155CAE" transform="translate(851,409)"/>
<path d="M0 0 C5.30383614 0.03448528 7.87916463 0.79319993 11.8125 4.3125 C13.42097182 7.52944364 13.42559149 10.83387222 12.8125 14.3125 C10.63675584 17.00355198 8.90184144 18.76782928 5.8125 20.3125 C3.9603437 20.40834979 2.10462847 20.44233606 0.25 20.4375 C-0.74128906 20.44007813 -1.73257813 20.44265625 -2.75390625 20.4453125 C-5.1875 20.3125 -5.1875 20.3125 -6.1875 19.3125 C-6.2858721 17.98206375 -6.31828592 16.64656656 -6.3203125 15.3125 C-6.32160156 14.508125 -6.32289063 13.70375 -6.32421875 12.875 C-6.32035156 12.029375 -6.31648437 11.18375 -6.3125 10.3125 C-6.31636719 9.466875 -6.32023438 8.62125 -6.32421875 7.75 C-6.32292969 6.945625 -6.32164062 6.14125 -6.3203125 5.3125 C-6.31918457 4.57 -6.31805664 3.8275 -6.31689453 3.0625 C-6.03816282 -0.70721493 -3.17054656 0.08129607 0 0 Z " fill="#165CAE" transform="translate(731.1875,311.6875)"/>
<path d="M0 0 C2 1 2 1 2.86962891 3.05371094 C3.15241699 3.93833008 3.43520508 4.82294922 3.7265625 5.734375 C4.0359375 6.70117188 4.3453125 7.66796875 4.6640625 8.6640625 C4.98117187 9.68242187 5.29828125 10.70078125 5.625 11.75 C5.94984375 12.75289063 6.2746875 13.75578125 6.609375 14.7890625 C8.105757 19.52970129 9 22.94467628 9 28 C3.72 28 -1.56 28 -7 28 C-6.40317702 21.53315857 -4.87545517 15.68706803 -2.9375 9.5 C-2.65583984 8.5821875 -2.37417969 7.664375 -2.08398438 6.71875 C-1.3951987 4.47727797 -0.70044695 2.23784969 0 0 Z " fill="#135AAD" transform="translate(442,319)"/>
<path d="M0 0 C3.47485838 2.07012839 5.74352278 4.11634312 7 8 C7.51555338 11.9525759 7.15914688 13.7044415 5.25 17.25 C1.89889879 21.34579037 0.38667774 21.84343961 -4.875 22.4375 C-9.66712268 22.33897037 -11.72173592 20.35822174 -15 17 C-16.73631636 13.52736727 -16.60190402 9.78806987 -16 6 C-11.34455949 0.11944356 -7.22220401 -0.91214687 0 0 Z M-13 6 C-13.72241241 9.14807359 -13.69537012 11.84840316 -13 15 C-10.56579582 18.50811779 -9.20657416 19.77376734 -5 20.5625 C-1.34092496 19.87642343 0.35167676 18.57265686 3 16 C4.56935594 12.86128812 4.35201103 10.46144178 4 7 C2.08333333 3.91666667 2.08333333 3.91666667 -1 2 C-6.29763755 1.14859396 -9.57473068 1.74436236 -13 6 Z " fill="#DBE5F2" transform="translate(851,409)"/>
<path d="M0 0 C0.66 0.33 1.32 0.66 2 1 C2 5.95 2 10.9 2 16 C-3.28 16 -8.56 16 -14 16 C-9.40525596 10.60117576 -4.72323727 5.28666913 0 0 Z " fill="#135AAD" transform="translate(643,331)"/>
<path d="M0 0 C7.75 -0.125 7.75 -0.125 10 1 C10.06978435 3.51223656 10.0831468 5.68588986 9.4375 8.125 C8.77876382 10.20883241 8.77876382 10.20883241 10 13 C6.66462511 11.88820837 5.36292656 10.52588702 3 8 C3 9.65 3 11.3 3 13 C2.01 13 1.02 13 0 13 C0 8.71 0 4.42 0 0 Z " fill="#BDD1E8" transform="translate(841,413)"/>
<path d="M0 0 C9.83222253 2.0683369 19.63352129 4.25069917 29.41772461 6.53442383 C30.94998838 6.89091372 32.4828855 7.24469072 34.01635742 7.59594727 C36.26623056 8.11142963 38.51411906 8.63486158 40.76171875 9.16015625 C41.78817757 9.393041 41.78817757 9.393041 42.83537292 9.63063049 C46.0664397 10.39521258 48.19845945 11.1323063 51 13 C44.77859889 12.31120202 38.71980388 11.20849315 32.59375 9.93359375 C31.14579041 9.63606956 31.14579041 9.63606956 29.6685791 9.33253479 C26.61178283 8.70374361 23.55588757 8.07069108 20.5 7.4375 C18.41672491 7.0081808 16.33339213 6.57914147 14.25 6.15039062 C9.16599355 5.10349659 4.08279028 4.05278213 -1 3 C-0.67 2.01 -0.34 1.02 0 0 Z " fill="#ADC5E2" transform="translate(542,214)"/>
<path d="M0 0 C0.33 0 0.66 0 1 0 C1.061875 1.051875 1.12375 2.10375 1.1875 3.1875 C2.17404642 7.81667934 3.15048267 9.27325856 7 12 C10.00174266 12.67878603 12.92745203 12.92636595 16 13 C14 15 14 15 10.25 15.4375 C5.37763117 15.33987512 3.33619646 13.41756711 0 10 C-1.49106457 7.01787087 -1.11941467 4.28390342 -1 1 C-0.67 0.67 -0.34 0.34 0 0 Z " fill="#F0F4F9" transform="translate(836,416)"/>
<path d="M0 0 C6.75 -0.125 6.75 -0.125 9 1 C9.06978435 3.51223656 9.0831468 5.68588986 8.4375 8.125 C7.77876382 10.20883241 7.77876382 10.20883241 9 13 C5.31197956 11.77065985 4.27643027 10.06140622 2 7 C3.32 6.34 4.64 5.68 6 5 C6 4.34 6 3.68 6 3 C4.35 2.67 2.7 2.34 1 2 C0.67 3.32 0.34 4.64 0 6 C0 4.02 0 2.04 0 0 Z " fill="#F6F9FC" transform="translate(842,413)"/>
<path d="M0 0 C5.87223268 1.05206362 11.37320988 3.0589755 17 5 C18.24910156 5.40798828 18.24910156 5.40798828 19.5234375 5.82421875 C21.38254079 6.45846157 23.19804647 7.21802017 25 8 C25.33 8.99 25.66 9.98 26 11 C20.26571229 9.1891723 14.6548423 7.14227006 9.0625 4.9375 C8.39984131 4.6801709 7.73718262 4.4228418 7.05444336 4.15771484 C4.22797543 3.03062479 2.1748012 2.1748012 0 0 Z " fill="#D3E0F0" transform="translate(310,434)"/>
<path d="M0 0 C0 0.33 0 0.66 0 1 C-1.670625 1.433125 -1.670625 1.433125 -3.375 1.875 C-7.00291092 2.69241329 -7.00291092 2.69241329 -9 5 C-9.45811675 6.97235333 -9.45811675 6.97235333 -9.625 9.125 C-9.74875 10.40375 -9.8725 11.6825 -10 13 C-10.33 13 -10.66 13 -11 13 C-11.54372951 9.94152152 -12 7.11227195 -12 4 C-7.86817624 -0.68273359 -6.08117775 -1.18979565 0 0 Z " fill="#CEDDEE" transform="translate(848,410)"/>
<path d="M0 0 C4.09924523 -0.32150943 6.34355086 -0.41384837 9.875 1.8125 C12 4 12 4 13 7 C10.63284044 6.59186904 9.31227115 6.32646529 7.625 4.5625 C5.37461998 2.39867306 2.95907532 1.85484398 0 1 C0 0.67 0 0.34 0 0 Z " fill="#EEF3F9" transform="translate(844,409)"/>
<path d="M0 0 C4.455 0.99 4.455 0.99 9 2 C9 2.66 9 3.32 9 4 C5.7 3.67 2.4 3.34 -1 3 C-0.67 2.01 -0.34 1.02 0 0 Z " fill="#DDE7F3" transform="translate(542,214)"/>
<path d="M0 0 C4.455 0.99 4.455 0.99 9 2 C9 2.99 9 3.98 9 5 C2.25 3.375 2.25 3.375 0 0 Z " fill="#F0F4FA" transform="translate(335,443)"/>
<path d="M0 0 C0.66 2.31 1.32 4.62 2 7 C-1.68802044 5.77065985 -2.72356973 4.06140622 -5 1 C-3 0 -3 0 0 0 Z " fill="#DFE8F3" transform="translate(849,419)"/>
<path d="M0 0 C2.475 0.495 2.475 0.495 5 1 C4.67 1.99 4.34 2.98 4 4 C2.68 4 1.36 4 0 4 C0 2.68 0 1.36 0 0 Z " fill="#1F62B1" transform="translate(844,415)"/>
</svg>
