<?xml version="1.0" encoding="UTF-8"?>
<svg version="1.1" xmlns="http://www.w3.org/2000/svg" width="1280" height="1170">
<path d="M0 0 C422.4 0 844.8 0 1280 0 C1280 386.1 1280 772.2 1280 1170 C857.6 1170 435.2 1170 0 1170 C0 783.9 0 397.8 0 0 Z " fill="#FEFEFE" transform="translate(0,0)"/>
<path d="M0 0 C3.39346914 0.02375624 6.78615509 0.02050967 10.1796875 0.01391602 C22.30843635 0.0289858 34.14155275 0.48260482 46.1328125 2.33618164 C47.19773926 2.49707275 48.26266602 2.65796387 49.35986328 2.82373047 C79.81723688 7.76888502 110.22563468 18.85574122 135.1328125 37.33618164 C135.71289062 37.75834961 136.29296875 38.18051758 136.890625 38.61547852 C173.05531842 65.10173526 194.81068348 104.27502708 204.0078125 147.71118164 C204.19883545 148.61167236 204.3898584 149.51216309 204.58666992 150.43994141 C207.4545413 164.99520152 208.46982729 179.5563679 208.39355469 194.36791992 C208.38281566 196.83545475 208.39354345 199.30226201 208.40625 201.76977539 C208.41592022 212.75214807 207.57559082 223.45320211 206.1328125 234.33618164 C205.94428711 235.8037793 205.94428711 235.8037793 205.75195312 237.30102539 C204.37127606 247.57849132 202.37139336 257.46473805 199.1328125 267.33618164 C198.89046875 268.09012207 198.648125 268.8440625 198.3984375 269.62084961 C190.85415774 292.92398337 179.90687648 314.30445588 163.1328125 332.33618164 C162.56933105 332.94349121 162.00584961 333.55080078 161.42529297 334.17651367 C130.39253405 367.23369829 87.95792246 384.15628444 43.54541016 390.01147461 C41.36550357 390.30486418 39.19339249 390.63044372 37.01953125 390.96508789 C14.91978457 394.13402751 -8.81026869 393.35360213 -30.8671875 390.33618164 C-31.6082373 390.23966309 -32.34928711 390.14314453 -33.11279297 390.04370117 C-67.45669852 385.44184452 -102.63757393 373.20596737 -129.8671875 351.33618164 C-130.42051758 350.89419434 -130.97384766 350.45220703 -131.54394531 349.99682617 C-166.34731423 321.93698352 -187.92518614 281.65169149 -193.8671875 237.33618164 C-193.95225555 236.70355408 -194.03732361 236.07092651 -194.12496948 235.41912842 C-195.76495898 222.82774848 -196.21012371 210.34858023 -196.18286133 197.65844727 C-196.17970461 194.60274386 -196.20326488 191.54801633 -196.22851562 188.49243164 C-196.28747108 170.43358724 -194.75649032 152.45570685 -190.0546875 134.96118164 C-189.66567261 133.47098511 -189.66567261 133.47098511 -189.26879883 131.95068359 C-177.36852762 87.39569418 -151.65422684 50.56979046 -111.59765625 27.00415039 C-93.91478673 16.8834905 -75.23975586 9.9970381 -55.3671875 5.58618164 C-54.10793457 5.30629395 -54.10793457 5.30629395 -52.82324219 5.02075195 C-49.84605608 4.40082946 -46.86299553 3.85945114 -43.8671875 3.33618164 C-43.16356079 3.20950104 -42.45993408 3.08282043 -41.73498535 2.95230103 C-27.79115927 0.49803485 -14.14258372 -0.10561819 0 0 Z " fill="#00539F" transform="translate(948.8671875,316.663818359375)"/>
<path d="M0 0 C0.91803406 -0.00012085 1.83606812 -0.0002417 2.78192139 -0.00036621 C19.13011375 0.03013613 34.85511009 1.26868303 50.9375 4.375 C52.08798828 4.5913208 52.08798828 4.5913208 53.26171875 4.81201172 C57.90876283 5.72482395 62.42029233 6.97003037 66.9375 8.375 C67.91895996 8.67535156 68.90041992 8.97570312 69.91162109 9.28515625 C88.60995495 15.07319427 106.38938182 21.79505559 122.9375 32.375 C123.2675 25.115 123.5975 17.855 123.9375 10.375 C150.3375 10.375 176.7375 10.375 203.9375 10.375 C203.9375 53.275 203.9375 96.175 203.9375 140.375 C185.6225 140.7153125 185.6225 140.7153125 166.9375 141.0625 C161.17345703 141.21271606 161.17345703 141.21271606 155.29296875 141.3659668 C150.56835938 141.41564941 150.56835938 141.41564941 148.3503418 141.42488098 C146.81450253 141.44167791 145.27880074 141.48017686 143.74389648 141.53633118 C130.77283614 141.98678846 130.77283614 141.98678846 126.20825195 137.97817993 C124.18292791 135.19595181 122.56161519 132.40288425 120.9375 129.375 C101.67931551 106.08551623 69.69413325 94.47519901 41.20703125 88.2421875 C40.55323486 88.09894043 39.89943848 87.95569336 39.22583008 87.80810547 C33.41032437 86.7074219 27.71310821 86.19791398 21.80078125 86.13671875 C21.04008835 86.128647 20.27939545 86.12057526 19.49565125 86.11225891 C17.89303811 86.09850544 16.29039676 86.08774473 14.68774414 86.07983398 C13.07144396 86.06834101 11.45518093 86.04793167 9.83911133 86.01831055 C-1.81755084 85.80533285 -12.37732638 86.05710959 -22.0625 93.375 C-22.7225 93.375 -23.3825 93.375 -24.0625 93.375 C-26.29494396 97.70856768 -26.32054803 100.67828735 -25.0625 105.375 C-18.86583402 113.26166579 -9.6896924 116.50743261 -0.4375 119.4375 C0.62992432 119.78401611 1.69734863 120.13053223 2.79711914 120.48754883 C9.3786118 122.60840197 15.97878743 124.62519402 22.64453125 126.46484375 C26.29722817 127.47442665 29.92981001 128.54634103 33.5625 129.625 C41.19456193 131.88183083 48.84600862 134.06885377 56.5 136.25 C68.35813034 139.63202485 80.20949021 143.034193 92.03613281 146.52490234 C94.95529453 147.38021378 97.87957492 148.21607774 100.8046875 149.05078125 C131.9307204 158.05622266 160.5050906 171.77707811 183.9375 194.375 C184.73929688 195.11363281 185.54109375 195.85226562 186.3671875 196.61328125 C202.7237684 212.09260608 215.0492933 236.2018473 216.09863281 258.85327148 C216.14458812 262.83989404 216.18313351 266.82561272 216.1875 270.8125 C216.18883942 271.53020569 216.19017883 272.24791138 216.19155884 272.98736572 C216.18732469 283.42235537 215.72314927 293.2607501 212.9375 303.375 C212.64746094 304.64537109 212.64746094 304.64537109 212.3515625 305.94140625 C208.93309953 319.41547782 201.81061767 331.81904966 192.9375 342.375 C192.25171875 343.22320313 191.5659375 344.07140625 190.859375 344.9453125 C177.0889049 361.21486792 157.83472275 372.35245079 137.9375 379.375 C137.24575684 379.62733398 136.55401367 379.87966797 135.84130859 380.13964844 C84.5029679 398.80184463 26.87450583 394.56905577 -22.41796875 371.62890625 C-32.83930474 366.6416336 -43.15514042 361.31941575 -53.0625 355.375 C-53.3925 364.615 -53.7225 373.855 -54.0625 383.375 C-81.7825 383.375 -109.5025 383.375 -138.0625 383.375 C-138.0625 337.505 -138.0625 291.635 -138.0625 244.375 C-119.87125 243.88 -119.87125 243.88 -101.3125 243.375 C-97.5062207 243.22933594 -93.69994141 243.08367187 -89.77832031 242.93359375 C-64.30216175 242.36572965 -64.30216175 242.36572965 -58.16333008 247.82104492 C-55.40766222 251.08085062 -53.58002822 254.53125695 -51.9586792 258.46183777 C-44.02585713 275.39681639 -16.75311159 287.91880276 -0.28808594 294.04858398 C6.99034798 296.61903768 14.36249145 298.86599434 21.9375 300.375 C22.95585938 300.57996094 23.97421875 300.78492188 25.0234375 300.99609375 C42.60675731 303.91323491 62.75686443 304.5160086 79.9375 299.375 C80.94554687 299.07335937 81.95359375 298.77171875 82.9921875 298.4609375 C89.80456441 296.1901452 96.85000295 293.50624557 100.9375 287.375 C100.77705835 284.42745761 100.50877988 282.9237108 98.35546875 280.85546875 C80.78703652 270.67131626 60.47263404 264.60012383 40.95288086 259.3347168 C35.03589378 257.723992 29.20720014 255.8929025 23.375 254 C15.38202787 251.41069753 7.34992498 249.04430098 -0.75 246.8125 C-10.42464107 244.14091276 -20.01697116 241.30647582 -29.55615234 238.18603516 C-32.3087105 237.29532814 -35.07000792 236.43510323 -37.83203125 235.57421875 C-75.51297142 223.65947693 -110.84830732 203.00145427 -129.81640625 167.05078125 C-137.40126886 151.29175592 -140.41795363 135.9535613 -140.3125 118.5625 C-140.32023437 117.29857422 -140.32796875 116.03464844 -140.3359375 114.73242188 C-140.31210144 103.09446413 -139.34594325 91.61118166 -135.5 80.5625 C-135.1136438 79.43956543 -135.1136438 79.43956543 -134.71948242 78.29394531 C-124.44935845 49.70422173 -104.04921269 28.23020089 -76.8125 15.125 C-63.22981536 8.8551093 -48.81818781 4.73471861 -34.0625 2.375 C-33.11914795 2.20726074 -32.1757959 2.03952148 -31.20385742 1.86669922 C-20.79352941 0.16198611 -10.52844058 -0.02132846 0 0 Z " fill="#00539F" transform="translate(526.0625,317.625)"/>
<path d="M0 0 C5.36943336 -1.04254226 10.72972222 -1.8606071 16 0 C20.66845895 3.81532614 23.46665785 9.50854573 26.50390625 14.62207031 C28.92031746 18.46277612 31.77955 21.89995341 34.6875 25.375 C35.77865073 26.69530845 36.86979669 28.01562085 37.9609375 29.3359375 C38.4775293 29.95694336 38.99412109 30.57794922 39.52636719 31.21777344 C40.87975734 32.8545773 42.21400285 34.50429553 43.5390625 36.1640625 C47.49658031 41.10075997 51.56517005 45.70340466 56.10546875 50.109375 C57.98239843 51.98243472 59.71321569 53.92385304 61.4375 55.9375 C67.11619119 62.51961933 73.31416634 68.5358347 79.91015625 74.19140625 C82.2697192 76.23342054 84.57013415 78.33399528 86.875 80.4375 C88.57911246 81.96306138 90.28752745 83.48382898 92 85 C92.88558594 85.78761719 93.77117187 86.57523438 94.68359375 87.38671875 C95.55113281 88.12535156 96.41867187 88.86398437 97.3125 89.625 C98.09238281 90.29789063 98.87226563 90.97078125 99.67578125 91.6640625 C101.89299183 93.23545126 101.89299183 93.23545126 104.32836914 92.78417969 C107.38602435 91.88669376 109.45275447 90.60371274 112.0703125 88.7890625 C113.04097656 88.12583984 114.01164062 87.46261719 115.01171875 86.77929688 C116.55279297 85.71291992 116.55279297 85.71291992 118.125 84.625 C128.48920249 77.57000258 139.04848396 71.09565515 150 65 C148.28877436 61.36598423 146.20066113 58.87362897 143.4375 55.9375 C138.37788117 50.48137077 133.65552322 44.8061566 129 39 C128.06412788 37.84478807 127.12791311 36.68985367 126.19140625 35.53515625 C100 3.13678675 100 3.13678675 100 0 C113.02363583 -2.05894368 113.02363583 -2.05894368 117.66015625 1.1484375 C120.86522853 4.37915035 123.2755111 8.19182481 125.70556641 12.02001953 C127.77660307 15.18790096 130.1361472 18.11049563 132.5 21.0625 C132.95270264 21.6392749 133.40540527 22.2160498 133.87182617 22.81030273 C137.47602044 27.39821794 141.21205673 31.86441625 145.00244141 36.29907227 C148.7260268 40.65576097 152.34434909 45.09105133 155.9296875 49.5625 C158.15898619 52.18718374 160.53598947 54.59608729 163 57 C169.73515651 54.92147642 176.07969642 52.26864219 182.5 49.375 C199.16525847 42.00364457 216.32653431 35.52111913 234 31 C234 27.4257193 233.017063 25.36620078 231.59375 22.08984375 C231.09746094 20.93548828 230.60117187 19.78113281 230.08984375 18.59179688 C229.56519531 17.38587891 229.04054688 16.17996094 228.5 14.9375 C227.46555051 12.55216623 226.43413714 10.16551271 225.40625 7.77734375 C224.71499023 6.18780884 224.71499023 6.18780884 224.00976562 4.56616211 C223 2 223 2 223 0 C227.62 0 232.24 0 237 0 C238.83777996 4.12307127 240.67040571 8.24829839 242.5 12.375 C243.02464844 13.550625 243.54929687 14.72625 244.08984375 15.9375 C244.58613281 17.05898438 245.08242188 18.18046875 245.59375 19.3359375 C246.05458984 20.37282715 246.51542969 21.4097168 246.99023438 22.47802734 C248 25 248 25 248 27 C248.76699219 26.82984375 249.53398438 26.6596875 250.32421875 26.484375 C267.66381888 22.69826022 284.94942183 19.4870629 302.60180664 17.56201172 C305.43502117 17.25027275 308.2651311 16.91682221 311.09570312 16.58203125 C324.1063596 15.10288784 336.91215073 14.74242464 350 15 C350 10.05 350 5.1 350 0 C354.29 0 358.58 0 363 0 C363 4.95 363 9.9 363 15 C364.505625 14.96519531 366.01125 14.93039062 367.5625 14.89453125 C397.16722272 14.42318636 425.57203291 18.35838043 454.53103638 24.00942993 C457.40879749 24.56311331 460.0610446 25 463 25 C466.63 16.75 470.26 8.5 474 0 C478.62 0 483.24 0 488 0 C485.99353962 7.20767322 483.46121075 13.84547925 480.3125 20.625 C479.89677734 21.53378906 479.48105469 22.44257812 479.05273438 23.37890625 C478.04090056 25.58865825 477.023294 27.79553786 476 30 C477.03511719 30.1340625 478.07023437 30.268125 479.13671875 30.40625 C501.31637604 33.81505476 523.45721511 43.77277953 543.73364258 52.99780273 C546.13369883 54.05912245 548.55832548 55.03879781 551 56 C551.37318359 55.14535156 551.37318359 55.14535156 551.75390625 54.2734375 C553.1896178 51.65405155 554.88707456 49.79778356 556.9375 47.625 C561.1590411 43.02460265 565.02296971 38.24041477 568.84375 33.31054688 C572.57496228 28.50661106 576.4506853 23.84755769 580.42578125 19.2421875 C582.41793717 16.84242348 584.08383424 14.34316116 585.73046875 11.6953125 C592.72920296 0.76434287 592.72920296 0.76434287 597.09472656 -0.70507812 C601.83380487 -1.36634487 606.31808478 -0.85557842 611 0 C607.99750218 5.58655463 604.49381261 10.46948891 600.5625 15.4375 C599.94995361 16.21810791 599.33740723 16.99871582 598.70629883 17.80297852 C593.0323012 25.01111904 587.26091075 32.13934098 581.44580078 39.23388672 C580.10424805 40.87265614 578.7677747 42.51538343 577.43359375 44.16015625 C573.50247591 48.99589681 569.52075627 53.74584037 565.3125 58.34375 C563.78403922 60.07893638 563.78403922 60.07893638 563 63 C563.66 63.24234375 564.32 63.4846875 565 63.734375 C582.59236775 71.15615514 598.59299615 82.88777665 614 94 C629.255439 82.93232857 643.03611276 70.02402291 656.375 56.75 C657.02895752 56.10071533 657.68291504 55.45143066 658.35668945 54.7824707 C662.77281637 50.35171899 666.92551459 45.74506484 671 41 C671.845625 40.03578125 672.69125 39.0715625 673.5625 38.078125 C680.60681199 29.90491686 687.09147217 21.3629747 693.51953125 12.69921875 C694.40415039 11.52335205 694.40415039 11.52335205 695.30664062 10.32373047 C696.42122683 8.79422766 697.48991136 7.23002583 698.50585938 5.63330078 C699.89069029 3.52669898 701.15815107 1.72219285 703 0 C706.13894441 -0.63413018 707.83773533 -0.80608094 710.875 -0.5 C711.56335938 -0.46390625 712.25171875 -0.4278125 712.9609375 -0.390625 C714.64307039 -0.29717317 716.32229742 -0.15368268 718 0 C703.75837198 27.99216542 679.34162644 52.65661202 657.4375 74.75 C656.57527832 75.62527344 655.71305664 76.50054688 654.82470703 77.40234375 C649.67073193 82.56315048 644.33912581 87.29817313 638.64379883 91.85302734 C636.15511161 93.87403716 633.76684512 95.96593037 631.390625 98.1171875 C627.0216258 102.03843212 622.45602819 105.61866888 617.75 109.125 C616.89301514 109.7646167 616.03603027 110.4042334 615.15307617 111.06323242 C593.2823532 127.23338552 570.23911733 140.73442256 546 153 C544.80600586 153.60908203 544.80600586 153.60908203 543.58789062 154.23046875 C529.90123881 161.16251539 515.64261949 166.5232872 501.25634766 171.80126953 C499.25124299 172.53939098 497.24995016 173.28809066 495.25537109 174.05419922 C487.201821 177.10878602 478.9464704 179.31967351 470.625 181.5 C469.87765594 181.6973172 469.13031189 181.8946344 468.36032104 182.09793091 C456.97094601 185.09700874 445.58143477 187.72128611 433.95947266 189.66650391 C431.38020703 190.10548682 428.81688762 190.61922807 426.25 191.125 C389.87046354 197.5449182 350.67531899 198.37914257 314 194 C312.88818359 193.87109375 311.77636719 193.7421875 310.63085938 193.609375 C225.2620064 183.47211703 144.91122244 148.3414824 80 92 C79.2884375 91.38898438 78.576875 90.77796875 77.84375 90.1484375 C75.87945955 88.44980929 73.93607087 86.73073002 72 85 C71.13375 84.2265625 70.2675 83.453125 69.375 82.65625 C58.36147699 72.69721323 47.56117034 62.37631526 38 51 C37.15824219 50.04738281 36.31648438 49.09476563 35.44921875 48.11328125 C0 7.85851011 0 7.85851011 0 0 Z " fill="#0456A0" transform="translate(268,744)"/>
<path d="M0 0 C1.0543222 0.00310181 2.10864441 0.00620361 3.19491577 0.00939941 C18.27850208 0.06140538 33.21294667 0.28121271 48.1875 2.25 C49.21327148 2.37890625 50.23904297 2.5078125 51.29589844 2.640625 C133.310917 13.15724359 210.83104885 45.83181569 274.1875 99.25 C275.03489746 99.9620459 275.03489746 99.9620459 275.89941406 100.68847656 C288.29331934 111.12161435 288.29331934 111.12161435 293.4987793 116.56420898 C295.23487564 118.29729345 297.04763798 119.87423309 298.91796875 121.4609375 C303.0948194 125.09345945 306.87695917 128.99440839 310.625 133.0625 C311.27823242 133.76681152 311.93146484 134.47112305 312.60449219 135.19677734 C313.89385357 136.58937713 315.18120731 137.98383909 316.46630859 139.38037109 C317.89488339 140.9321478 319.33122047 142.4767743 320.76953125 144.01953125 C326.4866354 150.23108766 331.67687319 156.81104165 336.82763672 163.49169922 C338.1172111 165.15911658 339.41789842 166.81710773 340.72265625 168.47265625 C345.44759338 174.49636921 349.94926296 180.64773033 354.3125 186.9375 C355.04146484 187.98139893 355.04146484 187.98139893 355.78515625 189.04638672 C359.1875 194.00813802 359.1875 194.00813802 359.1875 196.25 C354.11383994 197.24809706 349.14508922 197.98982405 344.1875 196.25 C339.58224101 192.62125903 336.61987811 187.29087771 333.54882812 182.37890625 C331.58036364 179.30053281 329.37873537 176.43518762 327.125 173.5625 C326.31804688 172.51835937 325.51109375 171.47421875 324.6796875 170.3984375 C320.3433485 164.87914797 315.80186426 159.53774831 311.1875 154.25 C310.41792969 153.36699219 309.64835938 152.48398438 308.85546875 151.57421875 C302.85560691 144.87647314 296.54463287 138.47992653 290.21179199 132.09906006 C289.21261139 131.09183768 288.21491559 130.08313969 287.21887207 129.07281494 C280.56042001 122.32911354 273.61841814 116.14548906 266.1875 110.25 C264.9508395 109.23220806 263.71719439 108.21072671 262.48828125 107.18359375 C260.96432836 105.91064487 259.44036011 104.6377143 257.91601562 103.36523438 C256.67277736 102.32730151 255.43007245 101.28872985 254.1875 100.25 C250.41561074 101.96953775 247.09592721 104.29272687 243.6875 106.625 C230.98344998 115.20262175 217.77334446 123.14547583 204.1875 130.25 C207.41031998 134.77458648 210.81577781 139.02113791 214.5625 143.125 C219.00469856 148.00184154 223.12963579 153.05107248 227.1875 158.25 C227.68910645 158.88969727 228.19071289 159.52939453 228.70751953 160.18847656 C235.18427244 168.44950584 241.61141193 176.74789075 247.9375 185.125 C248.43862305 185.7845166 248.93974609 186.4440332 249.45605469 187.12353516 C251.66285886 190.06210146 253.7200278 192.85433758 255.1875 196.25 C249.78385497 197.38687077 244.49291309 198.17061882 239.1875 196.25 C233.93947074 192.11240811 230.41030708 186.14859418 226.77636719 180.62255859 C224.52040361 177.2538656 222.03440705 174.09880824 219.5 170.9375 C219.05889893 170.37619385 218.61779785 169.8148877 218.16333008 169.23657227 C214.60891146 164.71962155 210.92300212 160.32130545 207.18652344 155.9543457 C203.41255022 151.54298732 199.76974481 147.03959439 196.16015625 142.4921875 C194.30101678 140.37902699 192.45460013 138.89274069 190.1875 137.25 C189.62168213 137.50579834 189.05586426 137.76159668 188.47290039 138.02514648 C166.1999717 148.03848418 142.31200003 158.65188486 118.1875 163.25 C118.61832886 164.26984985 118.61832886 164.26984985 119.05786133 165.31030273 C120.37537488 168.43458582 121.68771659 171.56101671 123 174.6875 C123.45181641 175.75677734 123.90363281 176.82605469 124.36914062 177.92773438 C126.90178274 183.97279986 129.20958944 190.000854 131.1875 196.25 C126.5675 196.25 121.9475 196.25 117.1875 196.25 C116.34445312 194.32414063 115.50140625 192.39828125 114.6328125 190.4140625 C113.81313219 188.550285 112.99185058 186.68722106 112.17041016 184.82421875 C111.60037089 183.52905838 111.03199931 182.23316268 110.46533203 180.93652344 C109.6505361 179.07290963 108.82977975 177.21202241 108.0078125 175.3515625 C107.26942139 173.67054443 107.26942139 173.67054443 106.51611328 171.95556641 C105.33493591 169.18208674 105.33493591 169.18208674 103.1875 167.25 C100.33760055 167.65757985 97.61773206 168.18866944 94.8125 168.8125 C85.33199207 170.76690121 75.81955479 172.27053693 66.23626709 173.60787964 C64.68549605 173.82435905 63.13506577 174.04329645 61.58502197 174.2649231 C46.44336659 176.42447067 31.50101866 177.42851151 16.1875 177.3125 C14.43566406 177.30573242 14.43566406 177.30573242 12.6484375 177.29882812 C9.82810172 177.28726937 7.00779311 177.26934652 4.1875 177.25 C4.1875 183.52 4.1875 189.79 4.1875 196.25 C-0.1025 196.25 -4.3925 196.25 -8.8125 196.25 C-8.8125 189.98 -8.8125 183.71 -8.8125 177.25 C-11.431875 177.29125 -14.05125 177.3325 -16.75 177.375 C-48.44981106 177.5030688 -80.01885703 172.41531958 -110.8125 165.25 C-111.39451172 167.11978516 -111.39451172 167.11978516 -111.98828125 169.02734375 C-113.91671635 174.81264906 -116.43612362 180.28608459 -119 185.8125 C-119.46341797 186.82119141 -119.92683594 187.82988281 -120.40429688 188.86914062 C-121.53620919 191.33134163 -122.67377123 193.79094407 -123.8125 196.25 C-128.4325 196.25 -133.0525 196.25 -137.8125 196.25 C-135.44767299 188.63896973 -132.3766079 181.45851483 -129.125 174.1875 C-128.61388672 173.03572266 -128.10277344 171.88394531 -127.57617188 170.69726562 C-126.32528694 167.87985188 -125.07065677 165.06417202 -123.8125 162.25 C-125.02035156 161.8478125 -126.22820312 161.445625 -127.47265625 161.03125 C-128.29910645 160.75539062 -129.12555664 160.47953125 -129.97705078 160.1953125 C-131.93570933 159.54231388 -133.89506492 158.89140363 -135.85498047 158.2421875 C-175.8204296 144.95422833 -175.8204296 144.95422833 -191.28515625 136.30859375 C-193.6979375 135.0046417 -193.6979375 135.0046417 -195.89453125 135.75390625 C-198.38267399 137.69475894 -200.39947372 139.82990448 -202.5 142.1875 C-202.93715332 142.67766602 -203.37430664 143.16783203 -203.82470703 143.67285156 C-208.30904728 148.73900538 -212.58224291 153.97074885 -216.8125 159.25 C-217.77198265 160.44022734 -218.7316264 161.63032481 -219.69140625 162.8203125 C-224.12907276 168.33401496 -228.54567642 173.86236725 -232.85620117 179.47631836 C-233.694116 180.56510782 -234.5379405 181.64937775 -235.38793945 182.72875977 C-237.2459133 185.10385166 -238.92231072 187.44117169 -240.42578125 190.05859375 C-242.0682192 192.77901423 -243.17699685 194.4536846 -245.8125 196.25 C-251.09364978 197.29929021 -256.49556406 196.76701298 -261.8125 196.25 C-256.12025357 187.12681052 -249.39514609 178.73563985 -242.8125 170.25 C-242.07410889 169.29456299 -242.07410889 169.29456299 -241.32080078 168.31982422 C-235.54007686 160.84630264 -229.59136895 153.54893544 -223.45703125 146.36328125 C-218.11475209 140.0976935 -212.94885351 133.68480529 -207.8125 127.25 C-208.85857422 126.85941406 -208.85857422 126.85941406 -209.92578125 126.4609375 C-224.93963824 120.16283781 -238.67044186 109.72128565 -251.8125 100.25 C-255.73717855 101.90898248 -258.74742485 104.55762715 -261.9375 107.3125 C-262.51008545 107.80202148 -263.0826709 108.29154297 -263.67260742 108.79589844 C-267.94118433 112.45994356 -272.14427996 116.19352643 -276.30078125 119.984375 C-277.71031722 121.25580713 -279.12658589 122.52017247 -280.56567383 123.75805664 C-285.89883707 128.3496047 -290.9125078 133.19975338 -295.875 138.1875 C-296.63876953 138.94740234 -297.40253906 139.70730469 -298.18945312 140.49023438 C-302.93782071 145.24672577 -307.44834545 150.14023152 -311.8125 155.25 C-312.70153046 156.27108804 -313.59083206 157.2919401 -314.48046875 158.3125 C-319.51010425 164.17650914 -324.34875751 170.14318958 -329 176.3125 C-329.51167725 176.98216797 -330.02335449 177.65183594 -330.55053711 178.34179688 C-332.88200917 181.44287741 -335.01346054 184.47715099 -336.78515625 187.93359375 C-338.58280161 191.28788146 -339.93785597 193.74627778 -342.8125 196.25 C-348.06843789 197.63029265 -353.49584444 196.9468432 -358.8125 196.25 C-355.44886205 189.83498057 -351.65096342 183.98203971 -347.3125 178.1875 C-346.70229004 177.36677002 -346.09208008 176.54604004 -345.46337891 175.70043945 C-339.47232811 167.69820666 -333.24586985 159.90016369 -326.8125 152.25 C-326.40859039 151.76457733 -326.00468079 151.27915466 -325.58853149 150.77902222 C-318.29244638 142.02434637 -310.63494468 133.75445392 -302.54858398 125.7253418 C-300.74028392 123.92784195 -298.94304023 122.11977684 -297.14648438 120.31054688 C-291.06703467 114.22450661 -284.92269398 108.46007492 -278.16210938 103.12817383 C-275.8137135 101.25097002 -273.590244 99.28167336 -271.375 97.25 C-266.12593653 92.54713537 -260.5169477 88.37949303 -254.8125 84.25 C-254.18843262 83.79608887 -253.56436523 83.34217773 -252.92138672 82.87451172 C-237.58433887 71.75694154 -221.70603457 61.47123605 -205.03857422 52.45556641 C-203.47183404 51.60707299 -201.90866512 50.75196853 -200.34814453 49.89208984 C-178.19888544 37.7196776 -154.86725645 27.99806827 -130.8125 20.25 C-130.02713867 19.99557129 -129.24177734 19.74114258 -128.43261719 19.47900391 C-101.08007893 10.71443905 -73.31633828 5.37924455 -44.8125 2.25 C-44.08455231 2.16635193 -43.35660461 2.08270386 -42.6065979 1.996521 C-28.37783704 0.38175844 -14.3131985 -0.07530655 0 0 Z " fill="#0456A0" transform="translate(626.8125,83.75)"/>
<path d="M0 0 C78.87 0 157.74 0 239 0 C239 30.03 239 60.06 239 91 C220.85 91 202.7 91 184 91 C184 155.68 184 220.36 184 287 C202.15 287 220.3 287 239 287 C239 317.36 239 347.72 239 379 C160.13 379 81.26 379 0 379 C0 348.64 0 318.28 0 287 C18.15 287 36.3 287 55 287 C55 222.32 55 157.64 55 91 C36.85 91 18.7 91 0 91 C0 60.97 0 30.94 0 0 Z " fill="#00539F" transform="translate(124,322)"/>
<path d="M0 0 C2.50349988 0.01074883 5.00628711 0.00004254 7.50976562 -0.01269531 C9.12435052 -0.01137403 10.73893497 -0.00881229 12.35351562 -0.00488281 C13.09018463 -0.00893127 13.82685364 -0.01297974 14.58584595 -0.01715088 C25.88657505 0.08349154 36.98082985 4.18328069 45.25195312 12.01074219 C65.72666846 34.47782113 65.25624569 68.90920166 65.24755859 97.43823242 C65.24739689 100.26238855 65.26117485 103.08589014 65.28857422 105.90991211 C65.55824952 134.14047099 65.79756757 169.50354202 45.00976562 191.35839844 C32.93416461 202.12912681 17.50993109 202.45021684 2.18945312 202.51074219 C0.26069336 202.54167969 0.26069336 202.54167969 -1.70703125 202.57324219 C-15.42348709 202.62869022 -28.73060456 200.60412921 -39.37304688 191.29199219 C-58.47628261 171.32042755 -59.23450889 140.03395547 -59.32617188 114.07714844 C-59.33187195 112.77913803 -59.33757202 111.48112762 -59.34344482 110.14378357 C-59.35383362 107.4152692 -59.35975392 104.68678319 -59.36328125 101.95825195 C-59.36764632 99.21755521 -59.38148654 96.47717673 -59.40429688 93.73657227 C-59.91161302 31.44882575 -59.91161302 31.44882575 -41.99804688 11.44824219 C-30.01134022 0.44058222 -15.30740042 -0.07828332 0 0 Z " fill="#FEFEFE" transform="translate(953.123046875,411.7392578125)"/>
<path d="M0 0 C13.39845935 10.7290345 19.34908623 28.63539927 21.58447266 45.12988281 C24.56282366 75.65467128 23.3485048 110.07090256 3.04296875 134.78515625 C-1.66669479 139.87386716 -6.69244497 142.91107092 -13.0859375 145.5078125 C-13.82070313 145.8275 -14.55546875 146.1471875 -15.3125 146.4765625 C-26.06152161 150.46589011 -39.83345819 150.00775598 -50.4140625 145.828125 C-65.95439427 138.14883825 -73.87836124 125.77663299 -79.33984375 109.8515625 C-83.10923376 97.27765634 -84.4132853 85.29931856 -84.3359375 72.1953125 C-84.34367187 70.89658203 -84.35140625 69.59785156 -84.359375 68.25976562 C-84.31450739 45.70257288 -80.81690272 19.33030723 -64.27734375 2.40234375 C-45.93343142 -13.45647529 -19.69877814 -14.0916353 0 0 Z " fill="#0355A0" transform="translate(455.0859375,969.4921875)"/>
<path d="M0 0 C0.86753906 0.4125 1.73507812 0.825 2.62890625 1.25 C14.71236039 7.7437036 22.70414446 19.19758671 26.66845703 32.19091797 C27.99611857 37.08634139 29.05067075 42.01857341 30 47 C30.176521 47.90049072 30.35304199 48.80098145 30.53491211 49.72875977 C31.07795791 53.54832443 31.16211173 57.30332775 31.16796875 61.15234375 C31.17296135 62.31812706 31.17296135 62.31812706 31.17805481 63.50746155 C31.18310037 65.15055759 31.18546387 66.7936638 31.18530273 68.43676758 C31.18746598 70.89878243 31.20558208 73.36033126 31.22460938 75.82226562 C31.3092589 98.91078715 27.84272356 124.6225868 11 142 C-0.95395826 152.31642973 -14.46300902 154.80320256 -29.77783203 154.17041016 C-40.73091416 153.33045725 -49.78986973 147.3612774 -57.2890625 139.64453125 C-62.13697466 133.93416281 -65.31545562 127.96243344 -68 121 C-68.35835937 120.12214844 -68.71671875 119.24429687 -69.0859375 118.33984375 C-77.64437828 95.46371068 -77.67635433 67.51632506 -72 44 C-71.73316406 42.73542969 -71.46632813 41.47085938 -71.19140625 40.16796875 C-67.63130166 24.80413962 -60.63789025 11.01866312 -47.1640625 2.12890625 C-33.04102755 -5.93863563 -14.83752866 -7.13986341 0 0 Z " fill="#0355A0" transform="translate(874,964)"/>
<path d="M0 0 C1.18460965 1.02121522 2.35237847 2.06238747 3.5 3.125 C4.0775 3.57875 4.655 4.0325 5.25 4.5 C18.10156629 15.51562825 22.64444121 36.44884458 24.1796875 52.37890625 C26.32795959 80.42306388 24.52247459 113.23678123 5.75 135.9375 C-2.47155032 144.72496965 -13.68164757 149.82828433 -25.63671875 150.36328125 C-38.9210869 150.68576673 -48.83690052 148.50596011 -59.5 140.125 C-60.17804688 139.59648438 -60.85609375 139.06796875 -61.5546875 138.5234375 C-74.30058766 127.26538561 -79.66402142 107.38497995 -81.5 91.125 C-81.84547689 85.47919308 -81.8716651 79.82829092 -81.87060547 74.17358398 C-81.87495212 71.59094905 -81.91131206 69.01006588 -81.94921875 66.42773438 C-82.09688842 44.46144574 -77.64320642 20.93193019 -62.1875 4.3125 C-45.72472923 -11.01110583 -18.55280943 -13.19626216 0 0 Z " fill="#0355A0" transform="translate(330.5,967.875)"/>
<path d="M0 0 C0.83901855 -0.00563965 1.67803711 -0.0112793 2.54248047 -0.01708984 C15.76112362 0.13568194 27.05343581 3.71871072 36.68359375 12.95703125 C52.50331017 29.48959451 55.1332249 50.26634378 55.0625 72.25 C55.06636719 73.44818359 55.07023437 74.64636719 55.07421875 75.88085938 C55.0496508 98.4219541 50.62469286 121.83177484 36.9375 140.3125 C36.39351563 141.05113281 35.84953125 141.78976562 35.2890625 142.55078125 C28.48618194 151.03042815 18.54486488 156.26243382 7.9375 158.3125 C-6.22177639 159.72691003 -20.25861811 158.67098285 -32.0703125 149.99609375 C-39.57022116 143.65793564 -45.39451297 135.17846586 -47.0625 125.3125 C-47.0625 122.6725 -47.0625 120.0325 -47.0625 117.3125 C-40.4625 117.3125 -33.8625 117.3125 -27.0625 117.3125 C-26.4025 120.2825 -25.7425 123.2525 -25.0625 126.3125 C-22.31575734 133.98048992 -18.32101666 136.81047777 -11.0625 140.3125 C-3.52970134 142.82343289 4.14977178 141.59236603 11.3671875 138.62109375 C21.33369811 133.54695841 25.4255335 125.32897591 29.08984375 115.09375 C32.10333496 105.35960479 33.52072092 95.38021799 34.9375 85.3125 C34.525 85.83199219 34.1125 86.35148437 33.6875 86.88671875 C25.89747607 96.29386819 16.98304035 100.63451428 4.9375 102.3125 C-9.83863821 103.24271693 -21.88881211 100.80607973 -33.47265625 91.34375 C-43.6987097 81.9200747 -48.23731898 69.51265425 -49.34375 55.8359375 C-49.77006867 39.81346099 -45.14370943 26.16349185 -34.75 13.875 C-30.36364138 9.29534422 -25.78516989 6.02606647 -20.0625 3.3125 C-18.99708984 2.80396484 -18.99708984 2.80396484 -17.91015625 2.28515625 C-12.07243142 0.05881831 -6.16988925 0.03952885 0 0 Z " fill="#0355A0" transform="translate(176.0625,959.6875)"/>
<path d="M0 0 C1.20269531 -0.01224609 2.40539062 -0.02449219 3.64453125 -0.03710938 C16.76771813 -0.05871726 28.99484956 2.8748909 38.75 12.1875 C47.12569371 22.04846298 51.92623782 31.48598895 51.9375 44.4375 C51.94974609 45.16324219 51.96199219 45.88898437 51.97460938 46.63671875 C52.00676146 58.66160005 47.45488314 69.23012285 39.1796875 77.9296875 C29.30303983 87.10766556 17.4844831 93.31165193 5.69604492 99.65869141 C-11.1490467 108.77215157 -25.95248356 117.29495067 -32.25 136.1875 C-4.53 136.1875 23.19 136.1875 51.75 136.1875 C51.75 142.1275 51.75 148.0675 51.75 154.1875 C16.77 154.1875 -18.21 154.1875 -54.25 154.1875 C-54.25 146.88973546 -53.96508209 141.47824378 -52.0625 134.6875 C-51.83473877 133.85871338 -51.60697754 133.02992676 -51.37231445 132.17602539 C-45.13667551 110.30077632 -30.165333 99.13827215 -11.25 88.1875 C-8.42685766 86.55069452 -5.60550895 84.91103885 -2.78808594 83.2644043 C-0.89656136 82.15932402 0.99844281 81.0601704 2.89746094 79.96801758 C14.19717341 73.37104596 26.16082262 65.53601361 29.75 52.1875 C30.98240255 42.05161777 29.20025611 34.46179287 23.0625 26.375 C18.63840039 21.51074763 11.48801968 18.46011855 4.96484375 17.984375 C-4.55659283 17.84819236 -13.83409812 18.61431425 -21.25 25.1875 C-26.40474692 32.38679798 -29.33449684 39.10100498 -29.8125 48 C-30.14952153 54.08702153 -30.14952153 54.08702153 -31.25 55.1875 C-32.66570123 55.27401611 -34.085595 55.29454904 -35.50390625 55.28515625 C-36.35791016 55.28193359 -37.21191406 55.27871094 -38.09179688 55.27539062 C-38.98962891 55.26701172 -39.88746094 55.25863281 -40.8125 55.25 C-41.71419922 55.24548828 -42.61589844 55.24097656 -43.54492188 55.23632812 C-45.78001314 55.22450225 -48.01497437 55.2080222 -50.25 55.1875 C-50.94859826 39.37848003 -47.94755111 24.6848623 -37.3125 12.375 C-26.75328049 2.71186104 -13.74637089 0.00727321 0 0 Z " fill="#0355A0" transform="translate(731.25,959.8125)"/>
<path d="M0 0 C26.4 0 52.8 0 80 0 C80 5.94 80 11.88 80 18 C58.55 18 37.1 18 15 18 C14.34 23.28 13.68 28.56 13 34 C12.31042892 38.67096321 11.60880872 43.33623792 10.875 48 C10.69324219 49.16789063 10.51148438 50.33578125 10.32421875 51.5390625 C9.88493694 54.35971413 9.44352809 57.18001354 9 60 C9.64066406 59.59007812 10.28132813 59.18015625 10.94140625 58.7578125 C23.7649474 50.76937703 38.3907486 49.92488686 53.25195312 52.37060547 C64.5509382 55.17782487 75.37154329 63.55055519 82 73 C89.64074828 85.7549558 91.16811758 100.25670616 87.6875 114.7109375 C83.5725017 128.41201139 76.36142796 141.68804896 63.4375 148.8125 C46.06876254 156.54387 27.90183568 157.21751927 10 151 C6.36617846 149.32767099 3.20444431 147.38604306 0 145 C-0.71671875 144.48695313 -1.4334375 143.97390625 -2.171875 143.4453125 C-9.11110437 137.99306085 -14.12091851 129.64377487 -16 121 C-16 118.03 -16 115.06 -16 112 C-9.4 112 -2.8 112 4 112 C4.91145833 115.22265625 5.82291667 118.4453125 6.734375 121.66796875 C9.05490197 127.77725735 12.16851072 130.48004259 18 133.25 C19.546875 134.00023437 19.546875 134.00023437 21.125 134.765625 C29.58454088 138.39771049 39.06383486 137.97369231 47.6875 134.9609375 C57.43562857 130.91019489 61.62215455 124.8732173 65.640625 115.234375 C67.2449316 110.82084612 67.50065824 106.72825317 67.4375 102.0625 C67.42505249 100.87454834 67.42505249 100.87454834 67.41235352 99.66259766 C67.23999596 93.7092082 66.47558711 88.97101777 63 84 C62.27103516 82.94425781 62.27103516 82.94425781 61.52734375 81.8671875 C56.65936608 75.62973148 49.8463695 71.41234651 42 70 C29.18909753 69.22448553 19.86716669 70.35830583 10 79 C9.44441406 79.71800781 8.88882812 80.43601562 8.31640625 81.17578125 C4.81042449 83.93681579 1.57306176 83.43640067 -2.75 83.25 C-3.54277344 83.23195313 -4.33554688 83.21390625 -5.15234375 83.1953125 C-7.10208348 83.14833082 -9.05119878 83.07659044 -11 83 C-10.36596531 74.4702878 -9.20436608 66.03819447 -7.95889282 57.581604 C-6.16210118 45.37077811 -4.44471587 33.15661824 -2.98876953 20.8996582 C-2.14894208 13.89476355 -1.07504728 6.98780732 0 0 Z " fill="#0355A0" transform="translate(1061,963)"/>
<path d="M0 0 C4.6241538 0.61851739 9.17955511 1.40817808 13.74804688 2.33789062 C20.81679215 3.69091843 27.30107268 3.96514358 34.6796875 4.4921875 C34.6796875 36.5021875 34.6796875 68.5121875 34.6796875 101.4921875 C26.04134969 101.4921875 17.63580484 101.36010547 9.0546875 100.6796875 C7.93094727 100.59203125 6.80720703 100.504375 5.64941406 100.4140625 C-3.42218304 99.66003279 -12.33327255 98.39922002 -21.29492188 96.83154297 C-24.29336461 96.32915201 -27.30577668 95.94713283 -30.3203125 95.5546875 C-40.40724824 94.14776266 -50.4491118 91.99931242 -60.3203125 89.4921875 C-52.57473489 63.76580472 -31.27024386 38.8735633 -15.63378906 17.33935547 C-14.18514467 15.30209832 -12.79540925 13.23056644 -11.40625 11.15234375 C-10.44031737 9.74464535 -9.47417899 8.3370881 -8.5078125 6.9296875 C-8.08733643 6.2785498 -7.66686035 5.62741211 -7.23364258 4.95654297 C-5.01201309 1.77980007 -3.89727881 0.57771427 0 0 Z " fill="#FCFDFE" transform="translate(583.3203125,147.5078125)"/>
<path d="M0 0 C0 31.68 0 63.36 0 96 C-27 99 -27 99 -38 100 C-41.07812869 97.13225865 -42.77608957 95.09300346 -44.9375 91.625 C-45.52176758 90.76100586 -46.10603516 89.89701172 -46.70800781 89.00683594 C-47.91364773 87.22154889 -49.10392006 85.42579003 -50.27880859 83.62011719 C-52.35117992 80.46540951 -54.53732099 77.40560466 -56.74414062 74.34423828 C-69.41420442 56.72364696 -81.55785927 38.45071377 -91.8125 19.3125 C-92.1439502 18.69503906 -92.47540039 18.07757812 -92.81689453 17.44140625 C-95 13.26440577 -95 13.26440577 -95 11 C-80.72069942 7.91094858 -66.46819276 5.04484666 -52 3 C-50.98099609 2.85135498 -50.98099609 2.85135498 -49.94140625 2.69970703 C-42.15983549 1.57532315 -34.40881005 0.81286644 -26.5625 0.375 C-25.86060547 0.33487793 -25.15871094 0.29475586 -24.43554688 0.25341797 C-16.27888017 -0.13908054 -8.19019193 0 0 0 Z " fill="#FDFDFE" transform="translate(618,772)"/>
<path d="M0 0 C0.79954102 0.00644531 1.59908203 0.01289062 2.42285156 0.01953125 C9.84537065 0.24968688 14.44568051 1.98338261 19.875 7.0859375 C31.21725078 20.07281465 31.53719759 40.69527447 31.44824219 56.98266602 C31.43756105 59.29926001 31.44818079 61.61507057 31.4609375 63.93164062 C31.47734752 81.60288284 31.09534224 101.58913778 18.48828125 115.35546875 C11.10090951 122.07880708 4.64271276 123.08829777 -5.21875 122.8359375 C-13.14534262 122.09497341 -17.88400674 118.41659624 -22.921875 112.3671875 C-32.59025396 97.70481115 -33.21372682 79.70719543 -33.125 62.6875 C-33.12384186 61.99299744 -33.12268372 61.29849487 -33.12149048 60.58294678 C-33.08555399 49.64852515 -32.37599235 39.15748208 -29.8125 28.5 C-29.48765625 27.04207031 -29.48765625 27.04207031 -29.15625 25.5546875 C-26.51378738 15.26795802 -21.2460423 7.39825008 -12.17578125 1.90234375 C-7.97655307 0.15144605 -4.5045722 -0.03758508 0 0 Z " fill="#FDFEFE" transform="translate(424.8125,977.5)"/>
<path d="M0 0 C1.12776855 -0.0165564 1.12776855 -0.0165564 2.27832031 -0.03344727 C9.36805108 0.1474449 15.07237789 2.54784574 20.0625 7.625 C31.14598455 21.87089183 31.39921319 41.43032272 31.32104492 58.64208984 C31.31252992 61.4899936 31.34142747 64.33588603 31.37304688 67.18359375 C31.43595981 83.73828722 30.30915455 102.62854106 18.625 115.5 C11.27326409 122.14483822 4.21109448 123.31356646 -5.59765625 123 C-12.23667225 122.29419099 -16.10345715 119.93677266 -20.75 115.25 C-36.1471959 96.12654208 -35.07914482 66.38171164 -32.78369141 43.17431641 C-30.94628617 29.24972969 -27.65708143 14.81984501 -17.1484375 4.7265625 C-11.6880513 0.72978498 -6.57780385 0.07600121 0 0 Z " fill="#FDFDFE" transform="translate(853.125,977.375)"/>
<path d="M0 0 C0.79760742 0.00572021 1.59521484 0.01144043 2.41699219 0.01733398 C8.46413524 0.20187997 12.67941704 1.09455437 17.0625 5.5 C17.6090625 6.00789062 18.155625 6.51578125 18.71875 7.0390625 C31.49954663 20.25841587 31.46557566 43.5146021 31.375 60.6875 C31.37317719 61.40722992 31.37135437 62.12695984 31.36947632 62.86849976 C31.30213299 78.70032415 30.66131526 94.21514009 23.0625 108.5 C22.70542969 109.18320313 22.34835937 109.86640625 21.98046875 110.5703125 C18.32039488 116.54541542 12.16773505 119.44738247 6.0625 122.5 C-2.65223649 123.30428059 -10.48995046 123.69669237 -17.890625 118.39453125 C-28.38865516 108.67784303 -32.56361479 92.78612853 -33.22631836 78.90551758 C-33.35144383 74.71740103 -33.35945424 70.53239888 -33.32861328 66.34277344 C-33.31260585 63.7670323 -33.32850795 61.19287981 -33.34765625 58.6171875 C-33.3721841 39.40935598 -31.80130011 20.38191685 -18.4140625 5.55859375 C-12.74500039 0.84629764 -7.1015498 -0.05885674 0 0 Z " fill="#FDFDFE" transform="translate(302.9375,977.5)"/>
<path d="M0 0 C27.84000479 0 27.84000479 0 36.5625 0.8125 C37.58512939 0.90233154 38.60775879 0.99216309 39.66137695 1.0847168 C58.12581409 2.77311299 75.99717677 5.52386644 94 10 C82.47411681 40.63767929 59.66847795 68.33408351 40.25830078 94.28027344 C39.12942704 95.82311135 38.06043601 97.40934598 37 99 C30.72060496 99.61562696 24.57773359 98.46881296 18.3671875 97.53515625 C12.26905828 96.78788997 6.12813062 96.43772362 0 96 C0 64.32 0 32.64 0 0 Z " fill="#FDFEFE" transform="translate(631,772)"/>
<path d="M0 0 C2.57265239 2.29162623 4.31940152 5.06123066 6.1875 7.9375 C7.02051636 9.15626831 7.02051636 9.15626831 7.87036133 10.3996582 C9.02658176 12.09181195 10.17388085 13.79009356 11.3125 15.49414062 C13.38049425 18.56501635 15.5266823 21.57446878 17.68286133 24.58374023 C23.64932607 32.92594804 29.41033685 41.40131803 35 50 C35.474375 50.72944824 35.94875 51.45889648 36.4375 52.21044922 C42.13025688 61.00346074 47.64156021 69.88890025 52.8125 79 C53.25142578 79.75966064 53.69035156 80.51932129 54.14257812 81.30200195 C55.17649582 83.15825772 56.09903829 85.07569772 57 87 C56.505 88.485 56.505 88.485 56 90 C38.73182706 93.59842585 21.55510479 96.28707258 4 98 C2.74832031 98.13277344 1.49664063 98.26554687 0.20703125 98.40234375 C-12.1632254 99.52411858 -24.5917327 99 -37 99 C-37 67.32 -37 35.64 -37 3 C-23.635 2.01 -23.635 2.01 -10 1 C-6.23120971 -0.25626343 -3.96180837 -0.59824561 0 0 Z " fill="#FDFEFE" transform="translate(668,149)"/>
<path d="M0 0 C0.80218964 -0.01257339 1.60437927 -0.02514679 2.43087769 -0.0381012 C40.87307433 -0.5232544 81.47319514 5.65303553 111.3203125 32.2734375 C110.9903125 32.9334375 110.6603125 33.5934375 110.3203125 34.2734375 C107.29738823 35.16253287 104.33058898 35.90867909 101.2578125 36.5859375 C100.29915283 36.79959961 99.34049316 37.01326172 98.3527832 37.23339844 C80.08638101 41.16165697 61.19918313 44.57934831 42.5 45.1328125 C39.3884721 45.19640631 39.3884721 45.19640631 36.64355469 45.77172852 C32.73875441 46.36123517 28.90728712 46.43504987 24.96875 46.44140625 C24.1656842 46.44568634 23.36261841 46.44996643 22.53521729 46.45437622 C19.92185926 46.46439017 17.30868619 46.46441867 14.6953125 46.4609375 C13.7970575 46.46000092 12.89880249 46.45906433 11.97332764 46.45809937 C-22.71782365 46.37981501 -57.00482732 42.81943333 -90.6796875 34.2734375 C-88.78300849 29.96825922 -85.9148803 28.0226179 -82.0546875 25.5234375 C-81.39315674 25.08950684 -80.73162598 24.65557617 -80.05004883 24.20849609 C-56.16743305 8.87804042 -28.39576874 0.41135155 0 0 Z " fill="#FCFDFE" transform="translate(616.6796875,880.7265625)"/>
<path d="M0 0 C1.52654205 -0.00392761 1.52654205 -0.00392761 3.08392334 -0.00793457 C33.99499988 -0.01637215 64.86285533 3.14458469 94.75 11.3125 C94.75 12.3025 94.75 13.2925 94.75 14.3125 C92.73416708 15.89330515 90.79755773 17.22867846 88.625 18.5625 C87.67536377 19.15575073 87.67536377 19.15575073 86.70654297 19.76098633 C80.26270166 23.71998415 73.64196546 27.19416809 66.75 30.3125 C65.62207031 30.82554688 64.49414062 31.33859375 63.33203125 31.8671875 C23.58940851 48.30947301 -26.07796196 47.78556413 -66.125 32.5625 C-71.93073453 30.05262614 -77.56820978 27.21368743 -83.1875 24.3125 C-83.96915527 23.9093457 -84.75081055 23.50619141 -85.55615234 23.09082031 C-90.7448619 20.32838995 -95.92515722 17.33711917 -100.25 13.3125 C-100.25 12.6525 -100.25 11.9925 -100.25 11.3125 C-84.88038575 8.00135591 -69.53496108 5.0113303 -53.9375 3 C-52.7198999 2.84112305 -51.5022998 2.68224609 -50.24780273 2.51855469 C-33.53523833 0.46211042 -16.821705 0.04184248 0 0 Z " fill="#FCFDFE" transform="translate(629.25,96.6875)"/>
<path d="M0 0 C2.89990234 1.68310547 2.89990234 1.68310547 6.0859375 3.8671875 C6.65988251 4.25773819 7.23382751 4.64828888 7.82516479 5.05067444 C9.6809799 6.31711598 11.52815871 7.59551537 13.375 8.875 C14.6530485 9.75243055 15.93136982 10.62946385 17.20996094 11.50610352 C25.34140844 17.09579098 33.40573808 22.76640208 41.28271484 28.7109375 C43.16418914 30.1232469 45.05966765 31.51536856 46.95703125 32.90625 C55.99138159 39.55770164 64.59493808 46.5720232 73 54 C73.89332031 54.78117187 74.78664063 55.56234375 75.70703125 56.3671875 C82.02454898 61.95843941 88.35498581 67.72179981 94 74 C94 74.66 94 75.32 94 76 C80.42045216 82.01100787 66.7192777 87.28634683 52.625 91.9375 C51.56891037 92.2863475 51.56891037 92.2863475 50.4914856 92.64224243 C47.17106802 93.73549102 43.84729131 94.81686192 40.51660156 95.87841797 C38.32180165 96.57842566 36.13036654 97.289183 33.94433594 98.01611328 C33.06293945 98.30083496 32.18154297 98.58555664 31.2734375 98.87890625 C30.53270996 99.12326416 29.79198242 99.36762207 29.02880859 99.61938477 C26.58007204 100.07878071 25.28275551 100.01698173 23 99 C21.66650391 97.12426758 21.66650391 97.12426758 20.4765625 94.64453125 C20.02015381 93.72293213 19.56374512 92.80133301 19.09350586 91.85180664 C18.60889893 90.84883545 18.12429199 89.84586426 17.625 88.8125 C8.63097137 70.89865784 -2.49589536 54.3802304 -14 38 C-15.03394812 36.51829472 -16.06779913 35.03652168 -17.1015625 33.5546875 C-21.86343784 26.75095767 -26.61368994 19.98667724 -31.890625 13.56640625 C-33 12 -33 12 -33 10 C-31.94087402 9.60675537 -31.94087402 9.60675537 -30.86035156 9.20556641 C-27.65603697 8.01435377 -24.45301014 6.81971545 -21.25 5.625 C-20.13882813 5.2125 -19.02765625 4.8 -17.8828125 4.375 C-16.81289063 3.97539062 -15.74296875 3.57578125 -14.640625 3.1640625 C-13.65610352 2.79748535 -12.67158203 2.4309082 -11.65722656 2.05322266 C-9.04428136 1.09591945 -9.04428136 1.09591945 -6.95996094 -0.19775391 C-4.19903678 -1.32784817 -2.82242608 -0.92998075 0 0 Z " fill="#FDFDFE" transform="translate(714,135)"/>
<path d="M0 0 C10.01752899 2.28284425 19.70419351 5.37142954 29.4375 8.625 C30.2260437 8.8871228 31.0145874 9.14924561 31.82702637 9.41931152 C44.511422 13.64873031 56.86608609 18.36029354 69 24 C69 28.07587476 67.74008328 28.98590839 65 32 C63.0512563 33.76697368 61.06389506 35.48042774 59.0625 37.1875 C57.17431113 38.84681749 55.43006635 40.56541186 53.6875 42.375 C49.13100933 46.99306487 44.07007275 50.96463597 39 55 C38.48050781 55.41765625 37.96101562 55.8353125 37.42578125 56.265625 C27.54392082 64.20939658 17.32765166 71.64901196 7 79 C6.26813477 79.52271484 5.53626953 80.04542969 4.78222656 80.58398438 C0.55921437 83.59853047 -3.67985887 86.58828001 -7.9375 89.55371094 C-10.03241522 91.02273056 -12.10973718 92.51466365 -14.1875 94.0078125 C-15.52013535 94.943703 -16.85344 95.87864138 -18.1875 96.8125 C-18.78715576 97.25166748 -19.38681152 97.69083496 -20.00463867 98.14331055 C-22.79469354 100.06505014 -24.55257098 101.00939483 -27.9765625 100.9375 C-31.46003672 99.85735296 -34.82962804 98.60239484 -38.1875 97.1875 C-39.50463411 96.64573725 -40.82234892 96.10538428 -42.140625 95.56640625 C-42.78837891 95.30102051 -43.43613281 95.03563477 -44.10351562 94.76220703 C-48.35654799 93.05289098 -52.67894812 91.52719089 -57 90 C-54.17237141 84.80037966 -50.9916377 80.1761745 -47.375 75.5 C-42.07431063 68.53139696 -37.12118712 61.40881762 -32.35107422 54.06933594 C-30.8834526 51.82149335 -29.39746792 49.5864211 -27.91015625 47.3515625 C-17.77217834 32.03975144 -8.67672956 16.17885282 0 0 Z " fill="#FDFDFE" transform="translate(738,785)"/>
<path d="M0 0 C1.16577148 1.52441406 1.16577148 1.52441406 2.12109375 3.515625 C2.49210205 4.26134766 2.86311035 5.00707031 3.24536133 5.77539062 C3.63876709 6.59201172 4.03217285 7.40863281 4.4375 8.25 C13.44389735 26.10326929 24.54150556 42.64471307 36 59 C36.53044922 59.75861328 37.06089844 60.51722656 37.60742188 61.29882812 C43.19239482 69.27638434 48.82280868 77.20922701 54.671875 84.99609375 C56 87 56 87 56 89 C55.42556152 89.2266333 54.85112305 89.4532666 54.25927734 89.68676758 C51.63007443 90.72589341 49.00253364 91.76916084 46.375 92.8125 C45.47136719 93.16892578 44.56773437 93.52535156 43.63671875 93.89257812 C39.85690779 95.39622555 36.238501 96.86957849 32.6640625 98.82421875 C29.42357824 100.25440315 28.35591573 99.97897551 25 99 C22.45141602 97.57641602 22.45141602 97.57641602 19.75390625 95.75390625 C18.75875 95.08649414 17.76359375 94.41908203 16.73828125 93.73144531 C15.69027344 93.01569336 14.64226562 92.29994141 13.5625 91.5625 C12.48226562 90.83256836 11.40203125 90.10263672 10.2890625 89.35058594 C2.43431802 84.02529549 -5.36653482 78.63875749 -13 73 C-13.62777344 72.53674316 -14.25554687 72.07348633 -14.90234375 71.59619141 C-34.36744223 57.19182881 -53.1060979 42.39903539 -70 25 C-68.5393268 22.07865361 -66.56232312 21.74699527 -63.5859375 20.4609375 C-62.44334473 19.96658203 -61.30075195 19.47222656 -60.12353516 18.96289062 C-58.8743832 18.43274525 -57.62486259 17.90346782 -56.375 17.375 C-55.74696472 17.10743896 -55.11892944 16.83987793 -54.47186279 16.56420898 C-42.50418153 11.47591819 -30.38713782 6.96950901 -18 3 C-17.24895996 2.75749512 -16.49791992 2.51499023 -15.72412109 2.26513672 C-3.92195498 -1.49665073 -3.92195498 -1.49665073 0 0 Z " fill="#FDFDFE" transform="translate(511,788)"/>
<path d="M0 0 C3.31939503 1.31631182 6.5395474 2.78928057 9.7421875 4.36328125 C15.23714188 7.00357424 20.63667802 9.24190123 26.4921875 10.98828125 C24.88361149 15.96905276 21.95179226 19.71604852 18.8671875 23.86328125 C17.68591576 25.47800889 16.50630627 27.09395353 15.328125 28.7109375 C14.70389648 29.56703613 14.07966797 30.42313477 13.43652344 31.30517578 C-2.7766097 53.67864805 -17.10316845 76.84135505 -30.5078125 100.98828125 C-54.2305031 97.55573759 -78.62088782 87.49179428 -99.5078125 75.98828125 C-92.79824523 67.93680053 -85.64658336 60.94554147 -77.46484375 54.38671875 C-74.95703512 52.35264412 -72.50687843 50.26831874 -70.06958008 48.15087891 C-54.24941465 34.47485658 -36.74553422 22.77765164 -19.5078125 10.98828125 C-18.651875 10.39692383 -17.7959375 9.80556641 -16.9140625 9.19628906 C-14.5810227 7.58955556 -12.23512829 6.00411094 -9.8828125 4.42578125 C-9.2026709 3.95438721 -8.5225293 3.48299316 -7.82177734 2.99731445 C-5.17008581 1.24900954 -3.23058135 -0.01509617 0 0 Z " fill="#FDFDFE" transform="translate(540.5078125,132.01171875)"/>
<path d="M0 0 C5.19125662 1.51241335 9.62931993 3.80244831 14.3125 6.4375 C15.09431641 6.87489502 15.87613281 7.31229004 16.68164062 7.76293945 C25.02084028 12.48764866 33.04089723 17.66595327 41 23 C42.08410156 23.71929688 43.16820312 24.43859375 44.28515625 25.1796875 C49.3729258 28.62878022 49.3729258 28.62878022 51 30 C51 30.66 51 31.32 51 32 C48.85473633 33.68896484 48.85473633 33.68896484 45.83203125 35.7109375 C45.2896582 36.07527893 44.74728516 36.43962036 44.18847656 36.81500244 C42.40197545 38.01016029 40.60800138 39.19341289 38.8125 40.375 C38.20175629 40.77950378 37.59101257 41.18400757 36.96176147 41.60076904 C21.52568853 51.81260891 5.61841047 61.06782736 -11.07714844 69.07324219 C-13.00991557 70.00477901 -14.93080616 70.95804308 -16.8515625 71.9140625 C-32.80966085 79.75292196 -49.57990242 85.89826086 -66.375 91.6875 C-67.46155884 92.07156006 -67.46155884 92.07156006 -68.57006836 92.46337891 C-74.85870452 94.56390676 -74.85870452 94.56390676 -78 93 C-80.296875 91.14453125 -80.296875 91.14453125 -82.75 88.8125 C-86.97340786 84.88986896 -91.30777292 81.34222878 -96 78 C-91.38592493 74.16909104 -86.48416213 70.79219162 -81.5625 67.375 C-79.75492247 66.11369082 -77.94763178 64.85197048 -76.140625 63.58984375 C-74.81901367 62.66727783 -74.81901367 62.66727783 -73.47070312 61.72607422 C-54.78863769 48.67447317 -36.50838961 35.08992381 -19.7890625 19.5703125 C-17.4549045 17.41922571 -15.09253383 15.32074342 -12.6875 13.25 C-8.03367444 9.20826423 -3.43099507 5.14649261 0 0 Z " fill="#FDFDFE" transform="translate(820,816)"/>
<path d="M0 0 C7.5834894 0.81975613 14.84456312 3.42801805 22 5.9375 C23.12647949 6.33155029 24.25295898 6.72560059 25.41357422 7.1315918 C58.87754137 19.03985674 90.7121211 34.87890636 120 55 C123.72181652 57.39414512 123.72181652 57.39414512 127.453125 59.7734375 C127.96359375 60.17820313 128.4740625 60.58296875 129 61 C129 61.66 129 62.32 129 63 C127.49731445 64.22998047 127.49731445 64.22998047 125.36328125 65.6171875 C124.56801025 66.13619629 123.77273926 66.65520508 122.95336914 67.18994141 C122.08188232 67.74601074 121.21039551 68.30208008 120.3125 68.875 C118.97916626 69.73424072 118.97916626 69.73424072 117.61889648 70.61083984 C108.61835669 76.35083942 99.37947125 81.66043042 90.04345703 86.83300781 C88.37261471 87.7872045 86.75330136 88.83113243 85.15234375 89.8984375 C83 91 83 91 81.16650391 90.85595703 C78.11937431 89.65207644 76.45671013 87.75718716 74.18359375 85.40625 C73.72702896 84.94069702 73.27046417 84.47514404 72.80006409 83.9954834 C71.33850515 82.50397302 69.88718119 81.0030511 68.4375 79.5 C61.32873896 72.14937823 54.04993684 65.33935491 46 59 C44.75706414 57.98688539 43.51590344 56.97158495 42.27734375 55.953125 C23.71951346 40.87880923 3.93887151 27.17660547 -16 14 C-12.04058225 9.77662107 -7.65581029 6.24983886 -3.109375 2.671875 C-1.13248821 1.17080011 -1.13248821 1.17080011 0 0 Z " fill="#FCFDFE" transform="translate(740,113)"/>
<path d="M0 0 C2.83723869 1.28665475 4.26845546 3.16113762 6.265625 5.5390625 C10.25243503 10.11292708 14.38717035 14.01325793 19.015625 17.9140625 C20.14375422 18.90156238 21.26987476 19.89135935 22.39453125 20.8828125 C29.80007224 27.39775248 37.30710759 33.67556152 45.21777344 39.57128906 C47.13957877 41.00664068 49.04987252 42.45663505 50.9609375 43.90625 C62.64240368 52.69439617 74.70590392 60.87998996 86.86865234 68.98168945 C87.53201599 69.42589737 88.19537964 69.87010529 88.87884521 70.32777405 C90.13702495 71.17016591 91.39771209 72.00882802 92.66119385 72.84324646 C96.90295592 75.68872434 96.90295592 75.68872434 98.015625 77.9140625 C97.44714844 78.34976563 96.87867188 78.78546875 96.29296875 79.234375 C95.52082031 79.82992187 94.74867188 80.42546875 93.953125 81.0390625 C93.12554688 81.66941406 92.29796875 82.29976562 91.4453125 82.94921875 C89.04027495 84.8116554 89.04027495 84.8116554 87.2109375 86.78515625 C85.52761072 88.52888949 84.14222443 89.74747838 82.015625 90.9140625 C74.70127388 90.70436207 67.24682099 87.46219297 60.453125 84.9765625 C59.3710376 84.58251221 58.2889502 84.18846191 57.17407227 83.7824707 C23.30378857 71.23384033 -8.34212007 54.52709751 -38.12402344 34.16796875 C-39.34453331 33.34532587 -40.5768438 32.53987168 -41.82128906 31.75390625 C-43.2402911 30.85490087 -44.61774307 29.89084018 -45.984375 28.9140625 C-45.984375 28.2540625 -45.984375 27.5940625 -45.984375 26.9140625 C-44.3581543 25.57641602 -44.3581543 25.57641602 -42.05859375 24.04296875 C-41.20773193 23.47352539 -40.35687012 22.90408203 -39.48022461 22.31738281 C-38.09009155 21.40617676 -38.09009155 21.40617676 -36.671875 20.4765625 C-35.73158447 19.85491211 -34.79129395 19.23326172 -33.82250977 18.59277344 C-5.08573898 -0.22024854 -5.08573898 -0.22024854 0 0 Z " fill="#FCFDFE" transform="translate(428.984375,819.0859375)"/>
<path d="M0 0 C2.89453125 2.06640625 2.89453125 2.06640625 5.8125 4.5625 C6.78832031 5.38878906 7.76414062 6.21507813 8.76953125 7.06640625 C9.50558594 7.70449219 10.24164062 8.34257813 11 9 C9.52131573 13.60384678 5.74794553 15.270088 1.8125 17.5625 C-5.90741382 22.21629298 -13.13264711 27.34474642 -20.33496094 32.75537109 C-22.68267781 34.51030667 -25.05983094 36.22344902 -27.4375 37.9375 C-29.29294564 39.28991371 -31.14698585 40.64425667 -33 42 C-33.58861816 42.42861328 -34.17723633 42.85722656 -34.78369141 43.29882812 C-44.41029219 50.32754198 -53.55853333 57.7305092 -62.46826172 65.64746094 C-64.30904903 67.27289315 -66.18684202 68.85254909 -68.0625 70.4375 C-74.36069988 75.93615112 -80.12875036 82.05453513 -86 88 C-101.26715795 81.06985663 -115.47051225 71.86331294 -129 62 C-127.82364317 58.4709295 -126.99799904 58.03908082 -123.9765625 56.03125 C-123.1304541 55.46583496 -122.2843457 54.90041992 -121.41259766 54.31787109 C-120.49269043 53.71797363 -119.5727832 53.11807617 -118.625 52.5 C-117.67544434 51.87561035 -116.72588867 51.2512207 -115.74755859 50.60791016 C-106.69599062 44.70955851 -97.47202246 39.19373952 -88 34 C-86.68225586 33.27731934 -86.68225586 33.27731934 -85.33789062 32.54003906 C-61.77630353 19.72540376 -37.41880503 9.4952557 -12 1 C-11.28102539 0.75137207 -10.56205078 0.50274414 -9.82128906 0.24658203 C-6.17366594 -0.93295361 -3.62361384 -1.35958458 0 0 Z " fill="#FCFDFD" transform="translate(515,114)"/>
<path d="M0 0 C5.28 0 10.56 0 16 0 C16 50.82 16 101.64 16 154 C9.07 154 2.14 154 -5 154 C-5 118.03 -5 82.06 -5 45 C-16.88 45 -28.76 45 -41 45 C-41 40.05 -41 35.1 -41 30 C-39.67226563 29.75765625 -38.34453125 29.5153125 -36.9765625 29.265625 C-19.76317247 26.84727067 -19.76317247 26.84727067 -6.24609375 17.0625 C-2.99354653 11.67897356 -1.22772751 6.13863756 0 0 Z " fill="#0556A1" transform="translate(977,960)"/>
<path d="M0 0 C4.95 0 9.9 0 15 0 C15 50.49 15 100.98 15 153 C8.4 153 1.8 153 -5 153 C-5 117.03 -5 81.06 -5 44 C-17.21 44 -29.42 44 -42 44 C-42 39.05 -42 34.1 -42 29 C-39.90011719 28.63648438 -39.90011719 28.63648438 -37.7578125 28.265625 C-21.79776531 26.0485325 -21.79776531 26.0485325 -8.125 18.375 C-5.43494919 14.10256636 -3.71622123 9.72897641 -2 5 C-1.34 3.35 -0.68 1.7 0 0 Z " fill="#01549F" transform="translate(549,961)"/>
<path d="M0 0 C5.45628052 4.29750523 8.61064228 10.18847936 10.3359375 16.83984375 C10.63830984 20.09415327 10.66915573 23.32306625 10.6484375 26.58984375 C10.64215332 27.92619873 10.64215332 27.92619873 10.63574219 29.28955078 C10.48422517 38.09526858 9.26797875 45.97116441 3.3359375 52.83984375 C0.48442881 55.13344857 -2.4827074 57.03636653 -5.6640625 58.83984375 C-6.26992187 59.18402344 -6.87578125 59.52820312 -7.5 59.8828125 C-14.6401756 63.20346185 -23.88205211 63.05421368 -31.38671875 61.1484375 C-33.65379164 60.21905427 -35.60977486 59.17179041 -37.6640625 57.83984375 C-38.29828125 57.43894531 -38.9325 57.03804687 -39.5859375 56.625 C-45.80720971 52.03880574 -49.30293411 44.36042182 -50.6640625 36.83984375 C-51.52212158 24.22215531 -50.47064176 13.64323861 -42.16015625 3.48828125 C-30.91188402 -8.9053764 -13.42915429 -8.45003708 0 0 Z " fill="#FCFDFE" transform="translate(197.6640625,983.16015625)"/>
<path d="M0 0 C7.59 0 15.18 0 23 0 C23 7.92 23 15.84 23 24 C15.41 24 7.82 24 0 24 C0 16.08 0 8.16 0 0 Z " fill="#0B5AA3" transform="translate(633,1090)"/>
<path d="M0 0 C7.59 0 15.18 0 23 0 C23 7.92 23 15.84 23 24 C15.41 24 7.82 24 0 24 C0 16.08 0 8.16 0 0 Z " fill="#0B5BA3" transform="translate(633,1000)"/>
</svg>
