<?xml version="1.0" standalone="no"?>
<!DOCTYPE svg PUBLIC "-//W3C//DTD SVG 20010904//EN"
 "http://www.w3.org/TR/2001/REC-SVG-20010904/DTD/svg10.dtd">
<svg version="1.0" xmlns="http://www.w3.org/2000/svg"
 width="1570.000000pt" height="1570.000000pt" viewBox="0 0 1570.000000 1570.000000"
 preserveAspectRatio="xMidYMid meet">

<g transform="translate(0.000000,1570.000000) scale(0.100000,-0.100000)"
fill="#000000" stroke="none">
<path d="M4584 9216 l-34 -34 0 -191 0 -191 224 0 c195 0 225 2 230 16 8 20 8
398 0 418 -5 14 -32 16 -196 16 l-190 0 -34 -34z"/>
<path d="M7968 9221 l-33 -29 -3 -253 c-2 -161 -7 -258 -14 -266 -8 -10 -67
-13 -252 -13 -132 0 -280 -4 -328 -10 -206 -21 -311 -126 -353 -353 -24 -129
-18 -748 9 -852 41 -161 123 -246 281 -289 53 -15 122 -16 580 -14 l520 3 0
1050 0 1050 -187 3 -187 2 -33 -29z m-57 -841 c18 -10 19 -26 19 -478 0 -279
-4 -473 -10 -482 -8 -12 -35 -15 -147 -14 -164 2 -233 22 -282 81 -48 58 -56
127 -56 473 l0 305 25 45 c40 72 66 80 263 80 97 0 177 -4 188 -10z"/>
<path d="M1930 8641 c-11 -21 -15 -1437 -4 -1479 l6 -22 216 2 216 3 8 35 c4
19 5 287 3 595 -3 308 -2 570 1 582 9 31 24 35 164 40 199 8 264 -12 308 -92
15 -27 18 -94 22 -595 l5 -565 220 0 220 0 3 611 c2 554 4 613 19 625 12 11
56 14 182 14 189 0 229 -11 266 -75 19 -34 20 -55 25 -605 l5 -570 222 -3 223
-2 5 22 c3 13 4 289 3 613 -3 550 -5 593 -22 640 -52 136 -142 213 -277 235
-41 6 -418 10 -1046 10 -961 0 -983 0 -993 -19z"/>
<path d="M4562 8652 c-10 -7 -12 -165 -10 -758 l3 -749 221 -3 222 -2 6 22 c3
13 6 350 6 750 0 709 0 728 -19 738 -23 12 -410 14 -429 2z"/>
<path d="M5291 8641 c-13 -24 -15 -1469 -3 -1489 7 -9 60 -12 233 -10 l224 3
3 609 c1 453 5 613 14 623 10 12 45 14 194 11 203 -3 217 -8 259 -79 19 -33
20 -55 23 -600 l3 -567 115 -7 c64 -4 165 -4 225 0 l109 7 0 597 c0 651 -1
660 -58 757 -34 58 -105 115 -176 140 -47 17 -98 19 -603 22 -542 3 -552 3
-562 -17z"/>
<path d="M9350 8650 c-255 -18 -411 -107 -493 -283 -39 -83 -56 -142 -92 -317
-40 -189 -84 -398 -100 -465 -8 -33 -26 -114 -40 -180 -14 -66 -33 -148 -41
-183 -8 -35 -12 -67 -9 -73 10 -15 470 -12 483 4 6 6 26 86 46 177 55 251 63
286 91 415 14 66 33 154 42 195 29 139 72 305 87 340 21 50 62 88 110 101 22
7 101 14 175 18 l135 6 62 115 c44 82 59 119 52 128 -12 13 -319 15 -508 2z"/>
<path d="M10123 8643 c-26 -23 -127 -217 -121 -233 3 -10 89 -13 368 -14 344
-1 367 -2 405 -21 79 -40 77 -31 79 -515 1 -341 -2 -432 -12 -442 -10 -10 -60
-13 -200 -13 -181 0 -189 1 -237 25 -66 34 -98 95 -103 195 -5 89 19 147 79
199 24 21 118 76 209 123 91 47 168 90 172 96 11 17 10 125 -2 132 -5 3 -55
-1 -112 -10 -57 -8 -152 -22 -213 -31 -335 -48 -361 -55 -429 -115 -50 -43
-77 -88 -111 -179 -25 -68 -28 -87 -27 -205 0 -112 4 -141 26 -208 31 -92 59
-140 114 -189 106 -96 122 -98 745 -98 437 0 526 2 536 14 9 10 11 178 9 647
-3 727 4 669 -101 766 -96 87 -95 87 -608 91 -417 3 -447 2 -466 -15z"/>
<path d="M11430 8640 c0 -12 9 -40 19 -63 11 -23 78 -179 151 -347 73 -168
138 -318 145 -335 8 -16 25 -56 39 -88 14 -31 38 -85 52 -120 15 -34 34 -80
44 -102 121 -269 133 -306 128 -398 -4 -81 5 -59 -190 -451 -71 -143 -126
-266 -124 -273 8 -21 423 -19 454 3 12 8 22 19 22 23 0 4 50 111 111 237 156
323 200 413 262 544 30 63 85 178 122 255 37 77 101 210 143 295 41 85 96 200
122 255 26 55 98 203 159 329 61 126 111 235 111 242 0 11 -40 14 -217 14
-120 0 -223 -4 -230 -8 -7 -4 -23 -32 -36 -62 -14 -30 -41 -91 -62 -135 -30
-65 -104 -228 -217 -479 -65 -143 -105 -211 -125 -214 -30 -4 -39 12 -127 228
-252 620 -249 614 -290 644 -25 19 -44 21 -247 24 -217 3 -219 3 -219 -18z"/>
<path d="M13400 8640 c17 -17 20 -33 20 -100 0 -47 4 -80 10 -80 6 0 10 32 10
75 0 53 5 83 16 100 l16 25 -46 0 -46 0 20 -20z"/>
<path d="M13558 8568 c-5 -106 4 -142 13 -55 4 32 10 61 13 65 4 4 16 -4 27
-18 l20 -25 -6 38 c-9 56 -26 87 -46 87 -15 0 -18 -13 -21 -92z"/>
<path d="M13712 8635 c-7 -14 -12 -40 -11 -58 0 -31 1 -31 11 -9 18 36 33 20
36 -39 2 -30 7 -58 13 -63 10 -11 13 134 3 172 -8 30 -38 28 -52 -3z"/>
<path d="M13640 8502 c0 -34 7 -43 26 -35 8 3 14 18 14 34 0 22 -5 29 -20 29
-15 0 -20 -7 -20 -28z"/>
</g>
</svg>
