<?xml version="1.0" encoding="UTF-8"?>
<svg version="1.1" xmlns="http://www.w3.org/2000/svg" width="1280" height="168">
<path d="M0 0 C35 0 35 0 43.6875 7.875 C46.6328125 12.61328125 46.6328125 12.61328125 47.86816406 14.92822266 C49.31390842 17.57459595 51.10364374 19.77716769 53.0625 22.0625 C53.66578125 22.82175781 54.2690625 23.58101562 54.890625 24.36328125 C57.67525684 27.84407105 60.49574972 31.29518783 63.3125 34.75 C67.40577602 39.77351263 71.45361575 44.82685316 75.4375 49.9375 C80.64939598 56.61598816 86.03265437 63.1466225 91.4296875 69.67578125 C94.96922492 73.95829218 98.49077493 78.25512221 102 82.5625 C102.51546387 83.19269043 103.03092773 83.82288086 103.56201172 84.47216797 C107.16782655 88.90404647 110.5652327 93.42031027 114 98 C114 65.66 114 33.32 114 0 C127.2 0 140.4 0 154 0 C154 53.46 154 106.92 154 162 C120 162 120 162 113.0625 156.375 C111.99599638 154.56487917 110.92837234 152.75118079 109.99560547 150.86865234 C108.28609377 147.66006908 105.92706241 144.98443571 103.625 142.1875 C102.70527542 141.01410918 101.78864759 139.83828502 100.875 138.66015625 C97.83816133 134.77707145 94.73783811 130.94728644 91.625 127.125 C91.08262695 126.45895752 90.54025391 125.79291504 89.98144531 125.10668945 C88.32183805 123.07041114 86.66113291 121.03503387 85 119 C78.32200726 110.81887173 71.6715608 102.6237442 65.17236328 94.29956055 C61.07627427 89.06599966 56.88837524 83.90926753 52.67773438 78.76757812 C48.70142726 73.90203334 44.86144917 68.96472036 41 64 C40.67 96.34 40.34 128.68 40 162 C26.8 162 13.6 162 0 162 C0 108.54 0 55.08 0 0 Z " fill="#1B58B5" transform="translate(429,3)"/>
<path d="M0 0 C14.96727266 12.80510003 25.71160827 31.05882446 28.16015625 50.7578125 C29.967249 74.54085931 26.61394132 97.15884203 10.7890625 115.88671875 C9.98275391 116.81291016 9.98275391 116.81291016 9.16015625 117.7578125 C8.71542969 118.34433594 8.27070312 118.93085938 7.8125 119.53515625 C-4.09178947 134.84067128 -26.39545314 144.70341308 -45.19140625 147.44140625 C-72.76383722 149.83259138 -97.71640844 144.89719879 -119.65234375 127.53125 C-135.72731893 113.661683 -145.42107803 94.85482462 -147.83984375 73.7578125 C-149.55280201 47.7665654 -142.81519411 26.33757161 -125.86328125 6.4375 C-93.15685062 -28.71885052 -36.42256215 -28.75729116 0 0 Z M-91.21484375 28.9453125 C-96.08996853 33.60133054 -99.13706309 38.61838359 -101.83984375 44.7578125 C-102.16726563 45.49773437 -102.4946875 46.23765625 -102.83203125 47 C-107.465913 59.04809256 -106.22440393 71.6386579 -101.8046875 83.546875 C-96.46383393 95.24243908 -87.26430856 103.43711057 -75.40234375 108.1328125 C-63.5440332 111.73725428 -50.02294671 111.16521109 -38.83984375 105.7578125 C-27.35391132 99.49111666 -19.34661478 90.42760177 -15.41796875 77.93359375 C-12.0360314 65.20562683 -12.9869319 51.53870003 -19.41796875 39.90234375 C-21.10569609 37.38975868 -22.89145649 35.07256318 -24.83984375 32.7578125 C-25.34 32.12359375 -25.84015625 31.489375 -26.35546875 30.8359375 C-34.37356691 21.68396687 -46.21484679 17.677438 -58.01953125 16.84765625 C-70.85062428 16.54590253 -81.37540494 20.72614056 -91.21484375 28.9453125 Z " fill="#1B58B5" transform="translate(1043.83984375,20.2421875)"/>
<path d="M0 0 C96.45263158 0 96.45263158 0 123 26 C123.62648438 26.59039063 124.25296875 27.18078125 124.8984375 27.7890625 C139.72890342 43.0221655 142.64037591 64.44441668 142.46875 84.68554688 C141.91729922 105.92789053 135.25858317 124.76362729 120 140 C87.35786718 169.29069021 40.44654343 162 0 162 C0 108.54 0 55.08 0 0 Z M41 37 C41 66.37 41 95.74 41 126 C61.01607303 126 71.4905203 125.41984211 87.25 114.8125 C97.63440666 104.1920841 100.51109339 92.53661646 100.42211914 78.13549805 C100.06226141 66.24839416 96.73373089 56.79710718 88.33984375 48.32421875 C74.76671037 35.86414415 59.05131708 37 41 37 Z " fill="#1B58B4" transform="translate(680,3)"/>
<path d="M0 0 C12.54 0 25.08 0 38 0 C41.671875 8.99609375 41.671875 8.99609375 42.94656372 12.11909485 C45.12433499 17.45465471 47.30213614 22.79020238 49.47998047 28.12573242 C54.03667834 39.28932824 58.59305613 50.4530544 63.1484375 61.6171875 C71.36270263 81.74769219 79.58131162 101.87640829 87.8125 122 C88.17950012 122.89739899 88.54650024 123.79479797 88.92462158 124.71939087 C89.63480593 126.45584168 90.34514954 128.19222736 91.05566406 129.92854309 C91.73043428 131.57802041 92.40460558 133.22774288 93.078125 134.87773132 C94.72103418 138.8980704 96.37887041 142.91120352 98.06396484 146.9140625 C98.55590584 148.08884155 98.55590584 148.08884155 99.05778503 149.28735352 C99.67678566 150.76367947 100.30000446 152.23824658 100.92817688 153.71069336 C102.15405693 156.64173234 103 158.78839739 103 162 C88.15 162 73.3 162 58 162 C53.80105288 152.55236898 50.41539667 142.7582762 47 133 C17.795 132.505 17.795 132.505 -12 132 C-12.99 135.3 -13.98 138.6 -15 142 C-15.57631858 143.70611827 -16.16738815 145.40753683 -16.7890625 147.09765625 C-17.09070313 147.91814453 -17.39234375 148.73863281 -17.703125 149.58398438 C-18.00734375 150.40189453 -18.3115625 151.21980469 -18.625 152.0625 C-18.93695313 152.91521484 -19.24890625 153.76792969 -19.5703125 154.64648438 C-21.8720271 160.8720271 -21.8720271 160.8720271 -23 162 C-24.38160115 162.0927833 -25.76788038 162.11747043 -27.15258789 162.11352539 C-28.03342545 162.11344986 -28.914263 162.11337433 -29.8217926 162.11329651 C-30.77907761 162.10813522 -31.73636261 162.10297394 -32.72265625 162.09765625 C-33.69786728 162.0962413 -34.67307831 162.09482635 -35.67784119 162.09336853 C-38.80609143 162.08775133 -41.93427123 162.07519593 -45.0625 162.0625 C-47.17773334 162.05748722 -49.29296781 162.05292393 -51.40820312 162.04882812 C-56.60549296 162.03777631 -61.80274145 162.02102146 -67 162 C-62.69638285 150.16054004 -57.96364905 138.52666409 -53.08761597 126.91253662 C-50.86208718 121.61095985 -48.64672473 116.30513199 -46.4296875 111 C-45.97554977 109.91403534 -45.52141205 108.82807068 -45.05351257 107.709198 C-40.48376656 96.77726972 -35.95645087 85.82800233 -31.4375 74.875 C-30.66254801 72.99787101 -29.88756429 71.12075513 -29.11254883 69.24365234 C-25.41402297 60.2838555 -21.72028037 51.32210272 -18.03175354 42.35818481 C-16.27830609 38.09785905 -14.52318374 33.83822433 -12.76785278 29.57867432 C-11.93047063 27.54529397 -11.09392679 25.51156816 -10.25827026 23.47747803 C-9.1012778 20.66123463 -7.94154996 17.84613198 -6.78125 15.03125 C-6.4415065 14.20219147 -6.101763 13.37313293 -5.75172424 12.51895142 C-5.43211227 11.74506073 -5.11250031 10.97117004 -4.78320312 10.17382812 C-4.50963989 9.50871216 -4.23607666 8.84359619 -3.95422363 8.1583252 C-2.73224316 5.39437014 -1.35149427 2.70298854 0 0 Z M18 48 C17.73896484 48.76852295 17.47792969 49.5370459 17.20898438 50.32885742 C15.97656991 53.9497494 14.73994201 57.56918027 13.5 61.1875 C13.2761261 61.84094391 13.0522522 62.49438782 12.82159424 63.16763306 C9.5160729 72.79639409 6.06160635 82.35018803 2.33789062 91.8269043 C2.02787109 92.62008057 1.71785156 93.41325684 1.3984375 94.23046875 C1.12692871 94.91520264 0.85541992 95.59993652 0.57568359 96.30541992 C-0.10722183 98.01733506 -0.10722183 98.01733506 0 100 C11.88 100 23.76 100 36 100 C33.76360454 92.47510352 33.76360454 92.47510352 31.37426758 85.00927734 C31.09420364 84.16916107 30.81413971 83.3290448 30.52558899 82.46347046 C30.23483994 81.59638458 29.94409088 80.72929871 29.64453125 79.8359375 C29.18478157 78.45881088 29.18478157 78.45881088 28.71574402 77.05386353 C27.74942066 74.16043063 26.7809988 71.26770536 25.8125 68.375 C25.15155299 66.3971821 24.49074444 64.41931793 23.83007812 62.44140625 C22.22165031 57.62706836 20.61134187 52.81336331 19 48 C18.67 48 18.34 48 18 48 Z " fill="#1B58B5" transform="translate(251,3)"/>
<path d="M0 0 C42.57 0 85.14 0 129 0 C127.99537269 4.01850923 126.41332504 6.98409079 124.30859375 10.4765625 C123.9320314 11.11008636 123.55546906 11.74361023 123.16749573 12.39633179 C121.92935019 14.47569897 120.68362936 16.55040914 119.4375 18.625 C118.56811242 20.08058169 117.69897457 21.53631258 116.83007812 22.9921875 C110.99434081 32.75309266 105.05905753 42.44957404 99.06884766 52.11645508 C93.28989157 61.46611905 87.68523272 70.91437578 82.09268188 80.37628174 C76.10027202 90.51095155 70.00527095 100.57208308 63.76171875 110.5546875 C60.7898316 115.33829086 57.89743684 120.1709386 55 125 C78.1 125.33 101.2 125.66 125 126 C125 137.88 125 149.76 125 162 C79.13 162 33.26 162 -14 162 C-11.57711508 157.15423016 -9.28659967 152.65163755 -6.48828125 148.078125 C-5.82183594 146.985 -5.15539063 145.891875 -4.46875 144.765625 C-3.7500256 143.5937343 -3.03127487 142.42185975 -2.3125 141.25 C-1.55565127 140.0106232 -0.79914772 138.77103555 -0.04296875 137.53125 C1.52520002 134.96077332 3.09483621 132.39120172 4.66552734 129.82226562 C7.93924221 124.46543172 11.19478562 119.09758798 14.45059204 113.7298584 C16.21621042 110.81938897 17.98317758 107.9097386 19.75 105 C20.4583397 103.8333372 21.16667304 102.66667054 21.875 101.5 C24 98 24 98 26.125 94.5 C26.4755545 93.92261581 26.82610901 93.34523163 27.18728638 92.75035095 C27.89633073 91.5825138 28.60537614 90.41467729 29.31442261 89.24684143 C31.07438608 86.34808845 32.83433168 83.44932462 34.59423828 80.55053711 C37.91131874 75.08693167 41.2285876 69.62344084 44.54644775 64.16030884 C46.11233065 61.58192931 47.67811728 59.00349133 49.24389648 56.42504883 C49.98977933 55.19682948 50.73570925 53.96863873 51.48168945 52.74047852 C52.51655834 51.03669369 53.55125146 49.33280212 54.5859375 47.62890625 C55.1742334 46.66025635 55.7625293 45.69160645 56.36865234 44.69360352 C57.91931499 42.13322324 59.45993778 39.56677037 61 37 C30.805 36.505 30.805 36.505 0 36 C0 24.12 0 12.24 0 0 Z " fill="#1B58B5" transform="translate(1151,3)"/>
<path d="M0 0 C1.64198364 0.01135986 1.64198364 0.01135986 3.31713867 0.02294922 C20.42299162 0.36928807 35.11276859 5.59733511 47.7890625 17.2890625 C49.60942767 19.28348649 50.70944257 20.96477751 51.75 23.4375 C50.9765625 24.33210938 50.203125 25.22671875 49.40625 26.1484375 C43.37883216 33.13907935 37.44333777 40.17012179 31.75 47.4375 C28.58495969 46.0046777 26.15928682 44.22404383 23.5 42 C16.27863372 36.34287104 8.97338976 34.20926474 -0.25 34.4375 C-5.21579149 35.44060646 -9.03674759 37.45306701 -12.25 41.4375 C-13.70147903 44.34045805 -13.62239025 46.21011779 -13.25 49.4375 C-9.86225669 54.27348763 -6.43326645 56.83644509 -1.0625 59.3125 C-0.37269043 59.64491699 0.31711914 59.97733398 1.02783203 60.31982422 C6.3401295 62.85396747 11.73366618 65.2028377 17.125 67.5625 C31.3659814 73.82024222 45.18636337 81.5312972 51.75 96.4375 C54.28070351 103.2570398 55.27317251 109.49347079 55.1875 116.75 C55.17920166 117.66499268 55.17090332 118.57998535 55.16235352 119.52270508 C54.80747426 133.8328008 49.95922328 144.65875548 39.6875 154.625 C24.16956587 167.61798213 5.26131321 169.78136166 -14.25 168.4375 C-32.22091161 166.5071526 -48.3255926 157.87730084 -60.25 144.4375 C-61.1471875 143.46876953 -61.1471875 143.46876953 -62.0625 142.48046875 C-63.25 140.4375 -63.25 140.4375 -63.04248047 138.06396484 C-62.12221115 135.01397799 -60.97459161 133.63791489 -58.7578125 131.37109375 C-58.05269531 130.63826172 -57.34757812 129.90542969 -56.62109375 129.15039062 C-55.87988281 128.39951172 -55.13867188 127.64863281 -54.375 126.875 C-52.91759094 125.37532864 -51.46180274 123.87408002 -50.0078125 122.37109375 C-49.03545654 121.3819397 -49.03545654 121.3819397 -48.04345703 120.37280273 C-46.29165821 118.48245299 -44.75655978 116.52639077 -43.25 114.4375 C-39.60128279 114.99033594 -38.34258387 116.17629788 -36.125 119.0625 C-29.22730898 127.28951049 -20.41752219 132.61704676 -9.8125 134.25 C-3.55532299 134.76783534 1.65679216 133.5411914 7.1875 130.625 C10.60306249 127.70927592 11.47666766 125.74374166 12 121.328125 C12.21030469 117.41120012 11.9425275 114.86440881 10.3125 111.25 C3.83808118 104.14393056 -4.84812913 100.64346323 -13.5625 97 C-29.61761097 90.09075156 -45.48197229 83.16863661 -53.25 66.4375 C-58.16959752 53.91488812 -57.0227497 41.72681736 -52.4765625 29.328125 C-48.14187431 19.38617962 -39.16513987 11.19649926 -29.625 6.375 C-28.68398438 5.88902344 -27.74296875 5.40304688 -26.7734375 4.90234375 C-17.88159743 1.20562532 -9.60031471 -0.09360363 0 0 Z " fill="#1B58B5" transform="translate(63.25,-0.4375)"/>
</svg>
