<?xml version="1.0" encoding="UTF-8"?>
<svg version="1.1" xmlns="http://www.w3.org/2000/svg" width="3840" height="960">
<path d="M0 0 C39.27 0 78.54 0 119 0 C124.73565768 12.6184469 124.73565768 12.6184469 127.21484375 19.07421875 C127.50270752 19.81548508 127.79057129 20.5567514 128.0871582 21.32048035 C128.71145077 22.92885374 129.3343669 24.53776196 129.95602417 26.14715576 C131.70336879 30.66979066 133.46209879 35.18800498 135.21875 39.70703125 C135.59708481 40.68115967 135.97541962 41.65528809 136.36521912 42.65893555 C141.19043864 55.07691322 146.06407294 67.47588057 150.9375 79.875 C151.40806824 81.0724585 151.87863647 82.26991699 152.36346436 83.50366211 C161.21065998 106.0149902 170.09228319 128.51255981 179 151 C179.44375977 152.12035645 179.88751953 153.24071289 180.34472656 154.39501953 C186.89440907 170.93083551 193.44627107 187.46578735 200 204 C202.27488322 201.72511678 202.96433219 199.96541479 204.15698242 196.98608398 C204.58401962 195.92668106 205.01105682 194.86727814 205.45103455 193.77577209 C205.91449783 192.61097824 206.37796112 191.44618439 206.85546875 190.24609375 C207.60636284 188.37727649 208.35725703 186.50845927 209.10815525 184.63964367 C209.91378379 182.63169506 210.71684837 180.62273843 211.51916504 178.61346436 C213.20272778 174.39734759 214.89325534 170.18404629 216.58496094 165.97119141 C218.62649405 160.88595161 220.66646572 155.80009143 222.70433617 150.71338272 C227.56044959 138.59280728 232.44573353 126.48409652 237.33569336 114.37713623 C238.75372567 110.86577442 240.17094928 107.35408733 241.58789062 103.84228516 C246.28339655 92.20481662 250.98178016 80.56851529 255.68359375 68.93359375 C257.06837513 65.50650661 258.45313707 62.07941161 259.83789062 58.65231323 C260.72985657 56.44500812 261.62194424 54.23775218 262.51416016 52.0305481 C266.67526477 41.73612428 270.83350088 31.44079029 274.94140625 21.125 C275.23278976 20.39371384 275.52417328 19.66242767 275.8243866 18.90898132 C277.12538191 15.64242919 278.42306577 12.37466062 279.71557617 9.10473633 C280.14459229 8.02474365 280.5736084 6.94475098 281.015625 5.83203125 C281.56138184 4.45108276 281.56138184 4.45108276 282.11816406 3.04223633 C283 1 283 1 284 0 C321.29 0 358.58 0 397 0 C397 107.91 397 215.82 397 327 C368.29 327 339.58 327 310 327 C309.505 215.625 309.505 215.625 309 102 C293.87315194 138.61268033 293.87315194 138.61268033 278.9296875 175.296875 C274.37399771 186.5622877 269.78113597 197.8125186 265.1875 209.0625 C264.55075851 210.62201889 264.55075851 210.62201889 263.90115356 212.21304321 C259.41294877 223.20469325 254.92125103 234.19491305 250.42578125 245.18359375 C250.05760788 246.08357086 249.68943451 246.98354797 249.31010437 247.91079712 C247.48254859 252.37772011 245.65429308 256.84435505 243.82495117 261.31054688 C240.17427933 270.22562242 236.53239654 279.14415246 232.9074707 288.06973267 C231.05717211 292.6254711 229.20460267 297.18028489 227.35205078 301.73510742 C226.45597687 303.94034241 225.56110536 306.14606638 224.66748047 308.35229492 C223.42710504 311.41445715 222.182718 314.4749607 220.9375 317.53515625 C220.56753906 318.45168472 220.19757813 319.3682132 219.81640625 320.31251526 C219.47351562 321.15305954 219.130625 321.99360382 218.77734375 322.85961914 C218.48077881 323.59072403 218.18421387 324.32182892 217.87866211 325.0750885 C217 327 217 327 215 330 C212.59555054 330.36076355 212.59555054 330.36076355 209.54052734 330.34057617 C208.39949554 330.34034958 207.25846375 330.34012299 206.08285522 330.33988953 C204.22813095 330.31666374 204.22813095 330.31666374 202.3359375 330.29296875 C201.07359283 330.28872391 199.81124817 330.28447906 198.51065063 330.28010559 C195.15338649 330.26613137 191.79673068 330.23917302 188.43963623 330.20599365 C185.01449852 330.17531352 181.58929799 330.1616047 178.1640625 330.14648438 C171.4425395 330.11334641 164.72130489 330.06309539 158 330 C155.10872894 324.3898524 152.59250956 318.74579972 150.28100586 312.87573242 C149.92923059 311.9909191 149.57745531 311.10610579 149.21502018 310.19447994 C148.0450317 307.2494264 146.88001019 304.30243301 145.71484375 301.35546875 C144.87373415 299.23617434 144.0322532 297.11702729 143.19042969 294.99801636 C141.38245064 290.4455323 139.57642537 285.89228025 137.77194214 281.33840942 C133.20020601 269.8020355 128.61630571 258.27049302 124.03170896 246.73922515 C123.27774833 244.84275458 122.52391316 242.94623418 121.77009392 241.04970741 C110.23247921 212.02451705 98.59433723 183.03998662 86.9375 154.0625 C85.98387241 151.69160119 85.03024893 149.32070073 84.07662964 146.94979858 C79.55278532 135.70315274 75.0278908 124.4569302 70.49972439 113.21202374 C70.1974043 112.46115396 69.89508421 111.71028418 69.58360291 110.93666077 C69.1944969 109.97040063 69.1944969 109.97040063 68.79753017 108.98462009 C67.86235721 106.65748173 66.93145207 104.32863017 66 102 C65.67 176.25 65.34 250.5 65 327 C43.55 327 22.1 327 0 327 C0 219.09 0 111.18 0 0 Z " fill="#009999" transform="translate(1737,43)"/>
<path d="M0 0 C26.73 0 53.46 0 81 0 C81 49.17 81 98.34 81 149 C118.62 149 156.24 149 195 149 C195 99.83 195 50.66 195 0 C221.73 0 248.46 0 276 0 C276 123.42 276 246.84 276 374 C249.27 374 222.54 374 195 374 C195 323.18 195 272.36 195 220 C157.38 220 119.76 220 81 220 C81 270.82 81 321.64 81 374 C54.27 374 27.54 374 0 374 C0 250.58 0 127.16 0 0 Z " fill="#EB6601" transform="translate(33,540)"/>
<path d="M0 0 C35.31 0 70.62 0 107 0 C118.4730997 21.79888942 118.4730997 21.79888942 122.375 29.46875 C122.82223419 30.34517151 123.26946838 31.22159302 123.73025513 32.12457275 C124.67176599 33.96979637 125.61277458 35.81527634 126.55328369 37.66101074 C129.07191639 42.60349403 131.59471512 47.54385056 134.1171875 52.484375 C134.62103973 53.47141418 135.12489197 54.45845337 135.64401245 55.47540283 C140.12062053 64.24240113 144.61842285 72.99837787 149.125 81.75 C155.55669621 94.24232606 161.97154752 106.74317217 168.375 119.25 C169.26228725 120.98291075 170.14957566 122.71582091 171.03686523 124.44873047 C171.4761586 125.3066922 171.91545197 126.16465393 172.36805725 127.0486145 C172.80734055 127.90655609 173.24662384 128.76449768 173.69921875 129.6484375 C174.13886459 130.50710419 174.57851044 131.36577087 175.03147888 132.25045776 C179.34285423 140.67050884 183.65708302 149.08909529 187.97320557 157.50671387 C188.74766308 159.01716878 189.52204444 160.52766274 190.29632568 162.03820801 C199.17951198 179.36809004 208.09360542 196.68201054 217 214 C217.495 108.07 217.495 108.07 218 0 C239.45 0 260.9 0 283 0 C283 107.91 283 215.82 283 327 C248.68 327 214.36 327 179 327 C173.39 316.11 167.78 305.22 162 294 C158.29482517 286.95008688 158.29482517 286.95008688 154.578125 279.90625 C151.22239037 273.54062134 147.92709859 267.14355403 144.625 260.75 C140.07953523 251.94939049 135.5248456 243.15388383 130.9375 234.375 C126.00782268 224.94098994 121.10496122 215.49327757 116.20849609 206.04199219 C112.50538618 198.8965691 108.78968628 191.75789019 105.0625 184.625 C100.51879292 175.92844237 96.00438192 167.21696356 91.5 158.5 C86.82382801 149.45243611 82.14239226 140.40767483 77.4375 131.375 C76.74140625 130.03598633 76.74140625 130.03598633 76.03125 128.66992188 C72.76204433 122.40157535 69.38685825 116.20924012 66 110 C65.67 181.61 65.34 253.22 65 327 C43.55 327 22.1 327 0 327 C0 219.09 0 111.18 0 0 Z " fill="#009999" transform="translate(2514,43)"/>
<path d="M0 0 C26.07 0 52.14 0 79 0 C79.33 35.31 79.66 70.62 80 107 C83.3 104.03 86.6 101.06 90 98 C113.96640308 80.8992367 142.43112641 76.80206127 171.1875 81.25 C187.38568169 84.03852658 201.6394399 90.01762082 214 101 C214.63679688 101.55429687 215.27359375 102.10859375 215.9296875 102.6796875 C226.77982013 112.75825514 232.92211773 127.20965994 236.75 141.25 C236.94867676 141.96285156 237.14735352 142.67570313 237.35205078 143.41015625 C241.15740668 158.30549963 241.28739188 173.57305942 241.22705078 188.84008789 C241.22648519 190.8721262 241.22680612 192.90416492 241.22793579 194.936203 C241.22850452 200.39786877 241.21682885 205.85944487 241.20278788 211.32108998 C241.19019959 217.04921454 241.18910368 222.77734165 241.18673706 228.50547791 C241.18054592 239.32805097 241.16416744 250.15058314 241.14403808 260.97313827 C241.12160503 273.30461017 241.1106671 285.63608412 241.10064721 297.96757138 C241.07979886 323.31174207 241.04315253 348.65585679 241 374 C214.93 374 188.86 374 162 374 C161.98018066 368.29259521 161.96036133 362.58519043 161.93994141 356.70483398 C161.87296753 337.82560324 161.79542679 318.94642675 161.71247292 300.06725979 C161.66244618 288.62338522 161.61600244 277.17951746 161.578125 265.7355957 C161.54508466 255.75589954 161.50518773 245.77625779 161.45720994 235.79662186 C161.43206419 230.51720791 161.41024832 225.2378295 161.39665604 219.95837212 C161.38372669 214.97861479 161.36155767 209.99898012 161.33261681 205.01929092 C161.32362528 203.2018028 161.31787078 201.38429498 161.31578636 199.56678581 C161.58893958 172.25813113 161.58893958 172.25813113 149 149 C140.9043864 142.29073883 131.22154545 141.12860979 121 142 C108.1907987 143.99776534 96.99740616 149.62295132 89 160 C83.21963784 169.64867335 79.69124157 178.92167077 79.7215271 190.25109863 C79.7157347 191.04197608 79.7099423 191.83285354 79.70397437 192.64769697 C79.68707933 195.27624134 79.68410698 197.90460901 79.68115234 200.53320312 C79.67184691 202.42598903 79.66167733 204.31877084 79.65071106 206.21154785 C79.62346638 211.33486902 79.60827804 216.45816278 79.59528303 221.58153725 C79.57962828 226.94139364 79.55284553 232.30119425 79.5272522 237.66101074 C79.48050592 247.80385633 79.44374171 257.94671247 79.41057932 268.08961058 C79.37232861 279.63979225 79.32292616 291.18991785 79.27259517 302.74005222 C79.16933703 326.49333186 79.08152874 350.24663516 79 374 C52.93 374 26.86 374 0 374 C0 250.58 0 127.16 0 0 Z " fill="#EC6501" transform="translate(1379,540)"/>
<path d="M0 0 C77.55 0 155.1 0 235 0 C235 19.8 235 39.6 235 60 C186.82 60 138.64 60 89 60 C89 83.76 89 107.52 89 132 C130.91 132 172.82 132 216 132 C216 150.15 216 168.3 216 187 C174.09 187 132.18 187 89 187 C89 212.08 89 237.16 89 263 C138.17 263 187.34 263 238 263 C238 284.12 238 305.24 238 327 C159.46 327 80.92 327 0 327 C0 219.09 0 111.18 0 0 Z " fill="#009999" transform="translate(1440,43)"/>
<path d="M0 0 C77.22 0 154.44 0 234 0 C234 19.8 234 39.6 234 60 C186.15 60 138.3 60 89 60 C89 83.76 89 107.52 89 132 C130.58 132 172.16 132 215 132 C215 150.15 215 168.3 215 187 C173.42 187 131.84 187 89 187 C89 212.08 89 237.16 89 263 C138.17 263 187.34 263 238 263 C238 284.12 238 305.24 238 327 C159.46 327 80.92 327 0 327 C0 219.09 0 111.18 0 0 Z " fill="#009898" transform="translate(2217,43)"/>
<path d="M0 0 C1.80342375 1.80342375 1.12418364 4.26989446 1.13194394 6.67091066 C1.1282952 7.90318542 1.1282952 7.90318542 1.12457275 9.16035461 C1.1259829 10.02698469 1.12739305 10.89361476 1.12884593 11.78650635 C1.13252064 14.71616664 1.12915256 17.64577917 1.12597656 20.57543945 C1.12737077 22.66852863 1.12926971 24.76161751 1.13163757 26.85470581 C1.13615054 31.38468464 1.13799104 35.91465437 1.13809967 40.44463539 C1.13924295 47.66307977 1.15211368 54.88147326 1.16766357 62.09989929 C1.17023643 63.32162867 1.17280928 64.54335806 1.1754601 65.80210954 C1.18072848 68.30305039 1.18601396 70.80399121 1.19131613 73.304932 C1.22623516 90.10685909 1.25301506 106.90872696 1.25048828 123.71069336 C1.24887641 135.03779936 1.2654864 146.36473408 1.30119491 157.69178551 C1.3193209 163.66271267 1.32930336 169.63335552 1.31671906 175.60430336 C1.25361482 208.68026393 3.24725731 241.13490684 7 274 C-1.0410122 274.01985508 -9.08201512 274.03908039 -17.12304688 274.04882812 C-22.03931756 274.05481601 -26.95556969 274.06191484 -31.87182617 274.07543945 C-35.83346828 274.08627025 -39.79509052 274.09227724 -43.75674629 274.09487724 C-45.27148311 274.09673114 -46.78621879 274.1003511 -48.30094719 274.10573006 C-50.41541813 274.11294307 -52.52980594 274.11399083 -54.64428711 274.11352539 C-55.85007919 274.115746 -57.05587128 274.11796661 -58.29820251 274.12025452 C-61 274 -61 274 -62 273 C-62.36969114 271.00659681 -62.68332633 269.00273672 -62.97265625 266.99609375 C-63.14990234 265.78115234 -63.32714844 264.56621094 -63.50976562 263.31445312 C-63.69216797 262.03505859 -63.87457031 260.75566406 -64.0625 259.4375 C-64.24876953 258.15423828 -64.43503906 256.87097656 -64.62695312 255.54882812 C-65.08834567 252.36640262 -65.54585037 249.18346584 -66 246 C-69.19240062 249.13132861 -72.17165644 252.34114401 -75.0625 255.75 C-89.43582127 271.68615357 -108.90949813 279.74182505 -130 282 C-163.31077503 283.43048967 -191.48916544 278.24991401 -217.28125 256.03515625 C-234.49766212 239.87769011 -243.36338603 215.99271389 -248.25 193.4375 C-248.40114258 192.74358154 -248.55228516 192.04966309 -248.70800781 191.3347168 C-251.84355427 175.74368981 -252.37287599 160.22934721 -252.3125 144.375 C-252.31034485 143.35742615 -252.3081897 142.33985229 -252.30596924 141.29144287 C-252.25630314 126.68932254 -252.03791495 112.33797594 -249 98 C-248.80132324 97.03626465 -248.60264648 96.0725293 -248.39794922 95.07958984 C-240.68466479 58.77804223 -223.5691289 24.72960602 -192.0625 3.5625 C-184.37554195 -1.42022231 -176.52791158 -5.65458344 -168 -9 C-167.32565918 -9.26506348 -166.65131836 -9.53012695 -165.95654297 -9.80322266 C-113.63387023 -29.8270552 -51.01264208 -19.28915529 0 0 Z M-132 42 C-133.24910156 42.49306641 -133.24910156 42.49306641 -134.5234375 42.99609375 C-149.61870898 49.70768369 -158.86677389 63.18018311 -165 78 C-178.405844 113.69054223 -180.22484282 164.15551688 -164.40234375 199.359375 C-159.32488974 208.92026334 -150.88293943 218.25538534 -140.62890625 222.25 C-126.80947779 226.19254125 -111.82740283 225.98887261 -99 219 C-88.27148359 211.98721367 -81.6173172 203.27031654 -78 191 C-77.70907535 187.94713281 -77.70907535 187.94713281 -77.75949097 184.73574829 C-77.75674164 183.49903381 -77.75399231 182.26231934 -77.75115967 180.98812866 C-77.75823649 179.63091943 -77.76550608 178.27371118 -77.77294922 176.91650391 C-77.77351379 175.47721362 -77.77319587 174.03792276 -77.77206421 172.59863281 C-77.7714915 168.70236737 -77.78323251 164.80622563 -77.79721212 160.90998888 C-77.80973316 156.83407249 -77.81089107 152.75815312 -77.81326294 148.68222046 C-77.81947367 140.96879532 -77.83587899 133.25542702 -77.85596192 125.54202688 C-77.87833357 116.75850783 -77.88931753 107.97498604 -77.89935279 99.19144559 C-77.92024558 81.12759819 -77.95541365 63.06380367 -78 45 C-79.08845215 44.52457764 -80.1769043 44.04915527 -81.29833984 43.55932617 C-81.91059418 43.29190109 -82.52284851 43.02447601 -83.15365601 42.74894714 C-97.17067656 37.06311203 -117.95440505 36.19855861 -132 42 Z " fill="#EC6501" transform="translate(899,640)"/>
<path d="M0 0 C0 20.79 0 41.58 0 63 C-2.97 62.01 -5.94 61.02 -9 60 C-23.83156201 55.1715259 -38.60143637 50.6042732 -54 48 C-55.28390625 47.77570313 -56.5678125 47.55140625 -57.890625 47.3203125 C-80.7390954 43.99772617 -108.74794659 42.21609511 -129 55 C-134.14107494 59.07001766 -137.4445415 64.15106534 -138.38671875 70.6796875 C-138.63319392 76.81606939 -137.87648617 82.0870202 -134 87 C-129.9635406 90.60320065 -125.89930131 93.39071183 -121.08203125 95.875 C-120.43120071 96.21595703 -119.78037018 96.55691406 -119.1098175 96.90820312 C-112.74704507 100.20273872 -106.25288265 103.18491863 -99.70892334 106.09869385 C-96.12900817 107.69489564 -92.5593617 109.31384171 -88.98828125 110.9296875 C-88.25049438 111.26314178 -87.51270752 111.59659607 -86.75256348 111.94015503 C5.28217859 153.56485652 5.28217859 153.56485652 19.81835938 188.99462891 C28.51596073 212.17518985 27.96425642 240.61191425 18.16796875 263.34765625 C14.47085297 271.44371946 9.92210245 278.33009642 4 285 C3.45988281 285.68191406 2.91976562 286.36382812 2.36328125 287.06640625 C-18.62114764 313.03019115 -57.9094305 323.09128322 -89.58447266 326.52124023 C-95.0034411 327.05331282 -100.38202138 327.17777383 -105.82421875 327.203125 C-106.836017 327.21013931 -107.84781525 327.21715363 -108.89027405 327.22438049 C-112.15606159 327.24184577 -115.42166739 327.24823749 -118.6875 327.25 C-120.36579895 327.25101212 -120.36579895 327.25101212 -122.07800293 327.25204468 C-207.82999337 327.17000663 -207.82999337 327.17000663 -220 315 C-220.09409479 312.97505769 -220.11743122 310.9468013 -220.11352539 308.91967773 C-220.11344986 307.61840439 -220.11337433 306.31713104 -220.11329651 304.97642517 C-220.10818909 303.54548098 -220.10297308 302.11453718 -220.09765625 300.68359375 C-220.09579203 299.2277074 -220.09436815 297.77182043 -220.09336853 296.31593323 C-220.08954365 292.47720621 -220.07971364 288.63851681 -220.06866455 284.79980469 C-220.05844978 280.88542184 -220.05387077 276.97103294 -220.04882812 273.05664062 C-220.03809134 265.37107657 -220.02101529 257.68554355 -220 250 C-210.62528365 252.03517893 -210.62528365 252.03517893 -206.1875 253.33203125 C-178.17965096 261.34470449 -150.09085547 266.20855794 -120.9375 266.375 C-120.21073059 266.38294586 -119.48396118 266.39089172 -118.73516846 266.39907837 C-102.64886015 266.53464611 -82.62399677 265.48436363 -70.40234375 253.7109375 C-65.55850601 247.80118561 -64.26110649 241.53492893 -64.55859375 233.9921875 C-65.91309478 224.81034867 -70.96575578 219.54169818 -78 214 C-80.83212706 212.16759971 -83.7602265 210.61019224 -86.76953125 209.08984375 C-87.58984329 208.66726791 -88.41015533 208.24469208 -89.25532532 207.80931091 C-97.39006488 203.68404615 -105.73166147 200.09137713 -114.15759277 196.60919189 C-118.52913079 194.80056691 -122.88672401 192.95880806 -127.24609375 191.12109375 C-128.09756989 190.76285522 -128.94904602 190.4046167 -129.82632446 190.03552246 C-183.05260186 167.60930664 -183.05260186 167.60930664 -203 148 C-203.69867187 147.31421875 -204.39734375 146.6284375 -205.1171875 145.921875 C-220.09513073 130.18629261 -226.41755789 109.14375325 -226.3125 87.8125 C-226.30686035 86.6164917 -226.3012207 85.4204834 -226.29541016 84.18823242 C-225.96603882 60.18162766 -218.06187574 39.27513682 -201.16796875 21.94921875 C-149.96304275 -27.55595867 -62.45912941 -14.41364525 0 0 Z " fill="#009999" transform="translate(3080,49)"/>
<path d="M0 0 C0.96373535 0.16564453 1.9274707 0.33128906 2.92041016 0.50195312 C15.72458229 2.72458229 15.72458229 2.72458229 17 4 C17.0940067 5.96369153 17.11743381 7.93079199 17.11352539 9.89672852 C17.11344986 11.15796036 17.11337433 12.4191922 17.11329651 13.71864319 C17.1081891 15.10539794 17.10297309 16.49215229 17.09765625 17.87890625 C17.09579201 19.28995209 17.09436814 20.70099857 17.09336853 22.11204529 C17.08954379 25.83240535 17.0797139 29.5527266 17.06866455 33.27307129 C17.05844948 37.06680781 17.05387071 40.86055058 17.04882812 44.65429688 C17.03809158 52.10288231 17.0210157 59.55143572 17 67 C16.12163483 66.69366135 15.24326965 66.38732269 14.33828735 66.07170105 C-2.64672205 60.15898276 -19.22234147 55.01970001 -37 52 C-37.69029297 51.87157715 -38.38058594 51.7431543 -39.09179688 51.61083984 C-60.09915734 47.73564306 -88.8007341 46.20556295 -108 57 C-109.0725 57.598125 -110.145 58.19625 -111.25 58.8125 C-116.66472407 63.11966687 -119.83241605 68.11125468 -121 75 C-121.16365584 80.87235646 -120.37919862 86.25553415 -116.89453125 91.09375 C-112.41306313 95.60293854 -106.62818492 98.20279754 -101 101 C-100.02466309 101.48710449 -99.04932617 101.97420898 -98.04443359 102.47607422 C-83.85540584 109.51838338 -69.49979526 116.17243075 -55.0625 122.6875 C22.28993671 157.62887844 22.28993671 157.62887844 38 194 C46.86166329 217.91747901 45.41991627 246.06398808 34.98120117 269.23388672 C22.06342409 295.96655524 -2.64656556 312.19348219 -29.98046875 321.8203125 C-48.77381543 327.99240773 -68.84456571 331.10888873 -88.60546875 331.203125 C-89.59502563 331.21013931 -90.58458252 331.21715363 -91.60412598 331.22438049 C-94.79863059 331.24184508 -97.99294932 331.24823768 -101.1875 331.25 C-102.83028427 331.25101212 -102.83028427 331.25101212 -104.5062561 331.25204468 C-137.71024455 331.21960795 -169.53911442 326.95590405 -202 320 C-202 298.22 -202 276.44 -202 254 C-195.25538741 255.68615315 -188.5432282 257.38178686 -181.83642578 259.1940918 C-169.97737708 262.37230015 -158.12242606 265.04848956 -146 267 C-145.08154297 267.15098145 -144.16308594 267.30196289 -143.21679688 267.45751953 C-129.7808756 269.58586865 -116.45505618 270.30354312 -102.875 270.375 C-101.77898468 270.38678284 -101.77898468 270.38678284 -100.66082764 270.39880371 C-84.28371696 270.53625207 -65.23832279 269.16786172 -52.8828125 257.27734375 C-48.95935706 252.53175345 -47.30517902 247.4850292 -46.5625 241.4375 C-47.48176734 234.21468515 -49.6775808 227.17068356 -55 222 C-70.28959309 210.40870134 -89.67404987 203.46255502 -107.21972656 196.12792969 C-187.40918604 162.53859671 -187.40918604 162.53859671 -204.3125 121.83984375 C-212.72830732 98.85107595 -210.27923596 71.20375185 -200.28125 49.08984375 C-195.90977104 40.01441037 -190.17723274 33.00116787 -183 26 C-182.28199219 25.27296875 -181.56398438 24.5459375 -180.82421875 23.796875 C-134.58929386 -20.43540719 -57.00488177 -9.88206618 0 0 Z " fill="#009999" transform="translate(1172,45)"/>
<path d="M0 0 C8.46644472 7.27277446 14.33464092 15.69143983 19.1875 25.6875 C19.62964844 26.58855469 20.07179688 27.48960937 20.52734375 28.41796875 C26.93873075 42.54640515 29.3642911 58.35404958 29.30775452 73.78016663 C29.30903615 75.08414568 29.30903615 75.08414568 29.31034368 76.41446775 C29.31197955 79.30245642 29.30650836 82.1903859 29.30102539 85.07836914 C29.30074308 87.15848794 29.3009021 89.23860684 29.3014679 91.31872559 C29.30175417 96.94818716 29.29588485 102.57762733 29.28889394 108.20708394 C29.28263216 114.09674931 29.28205437 119.98641519 29.28086853 125.87608337 C29.27776354 137.02119328 29.26956137 148.16629335 29.25951904 159.31139892 C29.24833206 172.00302144 29.24284094 184.69464442 29.23782361 197.38627064 C29.22737806 223.48668713 29.20904292 249.58709015 29.1875 275.6875 C3.1175 275.6875 -22.9525 275.6875 -49.8125 275.6875 C-49.83437378 266.95249023 -49.83437378 266.95249023 -49.85668945 258.04101562 C-49.9070852 238.77461268 -49.9735406 219.50828966 -50.04821491 200.24196625 C-50.09308797 188.56382655 -50.13252206 176.88571677 -50.15893555 165.20751953 C-50.18198454 155.02307005 -50.21545917 144.83871592 -50.26120156 134.65434217 C-50.28504098 129.26700926 -50.30383038 123.87977024 -50.31011391 118.49238586 C-50.31620699 113.40998231 -50.33635749 108.32781871 -50.36677551 103.24550438 C-50.37548858 101.39135092 -50.37929249 99.53716601 -50.37750816 97.68299294 C-50.23350722 72.31700368 -50.23350722 72.31700368 -61.8046875 50.6875 C-70.21657967 44.08495822 -79.36031918 42.95066219 -89.8125 43.6875 C-98.91729865 45.09006689 -108.36545912 48.23251798 -115 54.87890625 C-116.8125 56.6875 -116.8125 56.6875 -118.8125 56.6875 C-119.21855469 57.55181641 -119.21855469 57.55181641 -119.6328125 58.43359375 C-120.8227711 60.70712393 -122.18727718 62.67067563 -123.6875 64.75 C-130.10850166 74.27945723 -131.9551101 84.31887265 -131.97071838 95.66648865 C-131.97565636 96.44017747 -131.98059434 97.21386628 -131.98568195 98.01100022 C-132.00096373 100.58732819 -132.00939212 103.16363143 -132.01782227 105.73999023 C-132.02740813 107.59321813 -132.03741862 109.44644387 -132.04782104 111.29966736 C-132.07479943 116.31974008 -132.09584716 121.33982213 -132.11582303 126.35992694 C-132.13772628 131.6103349 -132.1650937 136.86071433 -132.19187927 142.11109924 C-132.24174756 152.04857091 -132.28670811 161.98605848 -132.32990164 171.92356116 C-132.37932418 183.2391256 -132.43422368 194.55466141 -132.48958123 205.87019813 C-132.60331125 229.14260666 -132.70944681 252.41504158 -132.8125 275.6875 C-158.8825 275.6875 -184.9525 275.6875 -211.8125 275.6875 C-211.8218457 268.63713379 -211.83119141 261.58676758 -211.84082031 254.32275391 C-211.8737517 231.58462173 -211.92618856 208.84656127 -211.99042095 186.10849897 C-212.00043457 182.55752185 -212.01027935 179.00654428 -212.02001953 175.45556641 C-212.02293159 174.39547065 -212.02293159 174.39547065 -212.02590248 173.31395881 C-212.05665298 161.97418359 -212.07382678 150.63442844 -212.08569422 139.29461952 C-212.09824746 127.59873238 -212.12605922 115.90294803 -212.16711307 104.20712602 C-212.18967007 97.66312311 -212.2054273 91.11923202 -212.20438385 84.57518387 C-212.20448307 55.896948 -212.8216589 27.60059735 -216.21825171 -0.90030503 C-216.59440815 -4.07956648 -216.8125 -7.10213164 -216.8125 -10.3125 C-195.0325 -10.3125 -173.2525 -10.3125 -150.8125 -10.3125 C-149.53702051 -5.84832178 -148.47334626 -1.88771858 -147.7421875 2.62109375 C-147.48115234 4.21147461 -147.48115234 4.21147461 -147.21484375 5.83398438 C-146.95380859 7.46303711 -146.95380859 7.46303711 -146.6875 9.125 C-146.50574219 10.23810547 -146.32398438 11.35121094 -146.13671875 12.49804688 C-145.69160692 15.22728519 -145.25030997 17.95708252 -144.8125 20.6875 C-142.23770693 18.13594514 -139.7046812 15.57235213 -137.2265625 12.92578125 C-103.2228095 -23.09151292 -39.963693 -31.24233458 0 0 Z " fill="#EC6501" transform="translate(2046.8125,638.3125)"/>
<path d="M0 0 C15.18545314 14.10971264 22.89134398 32.87496321 23.74609375 53.3515625 C24.44717468 82.45648902 18.5548037 105.28401875 -1.75390625 126.828125 C-34.7263932 158.65573393 -85.25461298 163.45366769 -128.62890625 166.203125 C-126.9779191 181.5524016 -120.1635374 195.77526505 -108.62890625 206.203125 C-100.60262356 212.23064468 -92.35736744 215.86353583 -82.62890625 218.203125 C-81.88769531 218.39390625 -81.14648438 218.5846875 -80.3828125 218.78125 C-51.32621133 223.23247401 -20.13541798 213.18005014 3.37109375 196.203125 C6.01617316 198.53922106 7.25908524 200.77852854 8.6394043 204.01000977 C9.05961349 204.98434464 9.47982269 205.9586795 9.9127655 206.96253967 C10.35663101 208.01259689 10.80049652 209.06265411 11.2578125 210.14453125 C11.7196846 211.22314926 12.1815567 212.30176727 12.65742493 213.41307068 C13.63157581 215.69212922 14.602208 217.97269453 15.56958008 220.25463867 C17.05563962 223.75865937 18.55325413 227.25756385 20.05273438 230.75585938 C20.99677845 232.96845799 21.94016063 235.18133915 22.8828125 237.39453125 C23.3327507 238.4466127 23.7826889 239.49869415 24.2462616 240.58265686 C24.86239067 242.03943092 24.86239067 242.03943092 25.4909668 243.52563477 C25.85498093 244.38262466 26.21899506 245.23961456 26.59403992 246.12257385 C27.37109375 248.203125 27.37109375 248.203125 27.37109375 250.203125 C25.33732735 251.65269122 23.33084076 252.93877143 21.18359375 254.203125 C20.52012939 254.59540283 19.85666504 254.98768066 19.1730957 255.3918457 C-24.19524811 280.48575893 -74.57231319 287.99601846 -123.37841797 275.8125 C-149.08684579 268.85131147 -173.59797447 253.20360222 -187.62890625 230.203125 C-187.98049805 229.63110352 -188.33208984 229.05908203 -188.69433594 228.46972656 C-200.86389706 208.45686773 -207.14494023 186.45420229 -209.62890625 163.203125 C-209.73976563 162.25824219 -209.850625 161.31335938 -209.96484375 160.33984375 C-214.51006752 113.96627691 -205.53168497 63.62125233 -175.796875 26.6328125 C-173.15120777 23.41744131 -170.41316647 20.29915309 -167.62890625 17.203125 C-167.03722656 16.53925781 -166.44554688 15.87539063 -165.8359375 15.19140625 C-126.34653022 -26.63811405 -45.28745536 -37.96900257 0 0 Z M-112.62890625 51.203125 C-126.17781121 68.20125202 -133.23981914 88.52036175 -133.62890625 110.203125 C-105.91188336 108.4376181 -73.63339819 105.95932377 -53.62890625 84.203125 C-47.14874373 75.54949182 -44.59123414 66.96478902 -45.62890625 56.203125 C-46.92040575 49.12335957 -50.22845356 43.92985785 -55.62890625 39.203125 C-74.18839383 27.42040444 -98.71379506 36.07261195 -112.62890625 51.203125 Z " fill="#EC6501" transform="translate(2606.62890625,641.796875)"/>
<path d="M0 0 C1.28777344 0.24492188 2.57554687 0.48984375 3.90234375 0.7421875 C22.87730894 4.72467291 41.71562595 15.09572559 53.1640625 31.0078125 C67.69561583 53.59430925 69.95066677 79.83597337 64.5390625 105.71289062 C59.42328255 127.41788452 45.69973671 145.94666347 27 158 C-7.69822453 179.0783607 -47.27027062 183.56765671 -87 186 C-82.02386888 204.32709432 -82.02386888 204.32709432 -71.26171875 219.71875 C-70 221 -70 221 -70 223 C-69.41347656 223.27199219 -68.82695312 223.54398438 -68.22265625 223.82421875 C-66.04311667 224.97719136 -64.34090291 226.25442289 -62.4375 227.8125 C-47.44054273 239.15706177 -28.52640582 240.82714536 -10.37353516 238.69091797 C10.06383196 235.65382204 29.38149556 228.36725912 46 216 C46.66 216 47.32 216 48 216 C50.33080012 221.33390948 52.66025071 226.66840564 54.98852539 232.00341797 C55.77853148 233.81314482 56.56888755 235.62271894 57.35961914 237.43212891 C59.91664064 243.28368095 62.46333358 249.13959651 65 255 C65.28780334 255.66201416 65.57560669 256.32402832 65.87213135 257.00610352 C66.60421131 258.69424673 67.32789096 260.38602624 68.05078125 262.078125 C68.62759644 263.42245605 68.62759644 263.42245605 69.21606445 264.79394531 C70 267 70 267 70 270 C35.12596755 296.93182985 -14.5808676 304.9025908 -57.24365234 299.98413086 C-88.72228353 295.88130562 -119.43372415 283.40295592 -139.34838867 257.64306641 C-154.57981869 237.07095208 -162.45475436 213.24236048 -166 188 C-166.10094971 187.29520508 -166.20189941 186.59041016 -166.3059082 185.86425781 C-172.09855438 138.04765208 -163.51650711 86.94402025 -134 48 C-129.59701583 42.74366874 -124.91216773 37.78290016 -120 33 C-119.56171875 32.505 -119.1234375 32.01 -118.671875 31.5 C-90.65157931 0.9324047 -38.8290254 -7.54888315 0 0 Z M-73.54541016 76.12109375 C-75.90618069 79.17052142 -77.76837161 82.40542763 -79.5625 85.8125 C-79.94599609 86.53808105 -80.32949219 87.26366211 -80.72460938 88.01123047 C-86.35600541 99.14300444 -90.25555395 112.38899317 -90.0625 124.9375 C-90.05347656 125.70964844 -90.04445313 126.48179687 -90.03515625 127.27734375 C-90.02355469 127.84582031 -90.01195313 128.41429687 -90 129 C-72.94758501 129.6975988 -56.27417644 127.1052626 -40 122 C-38.89269531 121.65324219 -37.78539063 121.30648437 -36.64453125 120.94921875 C-23.41162395 116.34853055 -12.74824774 108.96477678 -5.6953125 96.73828125 C-1.92036904 88.86296817 -1.6088134 79.72115199 -3.66015625 71.28515625 C-6.52005594 64.04255313 -11.5879607 58.82969682 -18.625 55.5625 C-39.80903562 48.11599051 -60.2838657 60.38118998 -73.54541016 76.12109375 Z " fill="#EC6501" transform="translate(2291,622)"/>
<path d="M0 0 C16.0452741 14.50847025 23.87189129 33.31686162 25.30419922 54.796875 C26.1883025 75.40621075 22.59737289 93.26649729 12.40625 111.17578125 C11.94605469 112.01496094 11.48585938 112.85414063 11.01171875 113.71875 C-4.18895907 138.93075038 -34.61989027 151.58333976 -61.84765625 158.55078125 C-83.85638923 163.93117587 -106.02725941 165.79421 -128.59375 167.17578125 C-123.64641141 185.84870081 -116.83387218 201.78714543 -99.59375 212.17578125 C-98.65982422 212.75779297 -98.65982422 212.75779297 -97.70703125 213.3515625 C-79.4944735 223.58378041 -56.54282735 221.9420555 -37.03173828 216.86035156 C-23.01000927 212.92314666 -8.94720436 207.30522707 2.72265625 198.41015625 C4.40625 197.17578125 4.40625 197.17578125 6.40625 197.17578125 C6.82398682 198.15224609 7.24172363 199.12871094 7.67211914 200.13476562 C9.25756694 203.84028597 10.84387837 207.54543612 12.43041992 211.25048828 C13.11033437 212.83860728 13.79003025 214.42681988 14.46948242 216.01513672 C15.45951401 218.32936304 16.45041994 220.64321361 17.44140625 222.95703125 C17.76823395 223.72160645 18.09506165 224.48618164 18.43179321 225.27392578 C20.08271076 229.12720264 21.75343737 232.96982403 23.46435547 236.796875 C23.79044296 237.52934448 24.11653046 238.26181396 24.45249939 239.01647949 C25.0705605 240.40119691 25.69318106 241.78389124 26.32106018 243.16418457 C27.596021 246.02486492 28.40625 248.00449975 28.40625 251.17578125 C26.26274228 252.73721576 24.19955878 254.05499889 21.90625 255.36328125 C21.22916992 255.75692871 20.55208984 256.15057617 19.85449219 256.55615234 C-22.92950039 281.12098272 -73.25691906 289.37502917 -121.39404297 276.78515625 C-149.18716674 269.08575148 -173.53979725 253.34882011 -188.59375 228.17578125 C-202.66076385 202.94189942 -208.88649495 174.95798682 -209.59375 146.17578125 C-209.65369141 144.335 -209.65369141 144.335 -209.71484375 142.45703125 C-210.28298526 109.57166367 -204.04902898 75.94443239 -187.59375 47.17578125 C-187.22556152 46.52206543 -186.85737305 45.86834961 -186.47802734 45.19482422 C-170.24366882 16.7314525 -143.60609043 -6.46474488 -111.64794922 -15.29345703 C-75.18264589 -24.71532171 -30.40603522 -25.54684288 0 0 Z M-112.61328125 53.57421875 C-125.86765261 70.85812175 -130.92325822 89.85831149 -132.59375 111.17578125 C-105.02356764 109.40472371 -72.98302931 107.12204978 -52.76171875 85.83984375 C-45.38362011 76.77342344 -43.67031253 67.62640589 -44.59375 56.17578125 C-46.23521394 49.01662529 -49.63575597 43.50364974 -55.59375 39.17578125 C-74.1028973 28.01731499 -99.76444765 38.31467556 -112.61328125 53.57421875 Z " fill="#EC6501" transform="translate(577.59375,640.82421875)"/>
<path d="M0 0 C26.07 0 52.14 0 79 0 C79 29.04 79 58.08 79 88 C103.09 88 127.18 88 152 88 C152 108.79 152 129.58 152 151 C127.91 151 103.82 151 79 151 C79.06157843 176.04991026 79.06157843 176.04991026 79.16015625 201.09960938 C79.20859711 211.32380943 79.25307952 221.54791158 79.27099609 231.7722168 C79.28406707 239.22056908 79.31116925 246.66872075 79.35461307 254.11695999 C79.37710643 258.05504284 79.39291805 261.9928794 79.39188385 265.93103218 C79.39112997 269.65024171 79.40936713 273.36890933 79.44116783 277.08797836 C79.45353025 279.07819102 79.44665994 281.06849532 79.43885803 283.05873108 C79.55254152 293.05892775 80.52292599 305.02119684 86.8125 313.25 C92.48626651 318.76812703 99.39358821 319.77604102 107 320 C110.39757698 319.68718634 113.67077846 319.04787541 117 318.3125 C117.87140625 318.13041992 118.7428125 317.94833984 119.640625 317.76074219 C125.04180724 316.58226567 130.11821969 315.12732147 135.125 312.734375 C137 312 137 312 141 312 C143.31368998 318.88128614 145.60872007 325.76859011 147.89086914 332.66040039 C148.6694575 335.00427747 149.45231015 337.34674251 150.23950195 339.68774414 C151.3701326 343.05252947 152.48534072 346.42209142 153.59765625 349.79296875 C153.952798 350.83897751 154.30793976 351.88498627 154.67384338 352.96269226 C154.99425095 353.94333145 155.31465851 354.92397064 155.64477539 355.93432617 C155.93123428 356.79370285 156.21769318 357.65307953 156.51283264 358.53849792 C157.07286349 361.36815609 156.82650266 363.25008496 156 366 C154.48803711 367.22265625 154.48803711 367.22265625 152.52734375 368.0625 C151.43752197 368.5416687 151.43752197 368.5416687 150.32568359 369.03051758 C149.53758301 369.35044678 148.74948242 369.67037598 147.9375 370 C147.12619629 370.34248779 146.31489258 370.68497559 145.47900391 371.0378418 C113.51168726 384.25635526 72.83370712 389.4028384 39.95947266 376.17919922 C24.76589319 369.64238551 13.05230879 360.07123411 6.52907485 344.49627745 C0.77586861 329.75443856 -0.45791832 314.49194247 -0.34057617 298.81005859 C-0.33972679 297.18180863 -0.34021108 295.55355753 -0.34190369 293.92530823 C-0.34275296 289.5689704 -0.32530357 285.21288809 -0.30418181 280.85660887 C-0.28523374 276.28028429 -0.28365047 271.70395175 -0.28010559 267.12759399 C-0.27083775 258.49018345 -0.24629641 249.8528889 -0.21605712 241.21552908 C-0.18234778 231.37009172 -0.16598583 221.52464836 -0.15097082 211.67916751 C-0.11974119 191.45269953 -0.06479622 171.22639022 0 151 C-14.52 151 -29.04 151 -44 151 C-44 130.54 -44 110.08 -44 89 C-29.48 89 -14.96 89 0 89 C0 59.63 0 30.26 0 0 Z " fill="#EC6501" transform="translate(1163,540)"/>
<path d="M0 0 C0.72433228 0.00215515 1.44866455 0.0043103 2.19494629 0.00653076 C13.29594979 0.0594218 23.95285978 0.58379494 34.75 3.3125 C35.56791016 3.51117676 36.38582031 3.70985352 37.22851562 3.91455078 C54.23464222 8.12820687 70.35739193 14.16793044 84.75 24.3125 C82.83811499 30.33151365 80.65537878 36.14560418 78.1328125 41.93359375 C77.62426224 43.11079735 77.62426224 43.11079735 77.10543823 44.31178284 C76.3929096 45.95872375 75.67854208 47.60487023 74.96240234 49.25024414 C73.88010301 51.73826903 72.80486373 54.22925634 71.73046875 56.72070312 C68.27981338 64.69440174 64.80028718 72.61940166 60.75 80.3125 C55.10239753 77.26672266 49.52700817 74.1781573 44.0625 70.8125 C26.44830428 60.5128668 5.80125889 55.19919928 -14.265625 60.3359375 C-21.25043922 62.62154425 -26.08067774 66.30377086 -30.25 72.3125 C-33.25366433 78.60589193 -33.29564155 86.01427656 -31 92.5625 C-26.97023925 101.74446628 -20.98835847 106.83910478 -11.81469727 110.79321289 C-10.54768681 111.27827841 -9.27720872 111.75435628 -8.00390625 112.22265625 C-7.31106033 112.47962784 -6.61821442 112.73659943 -5.90437317 113.00135803 C1.36893884 115.63492223 8.78401024 117.66237894 16.25765991 119.63796997 C45.60781455 127.43164559 76.63604913 136.01167361 93.75 163.3125 C105.65659147 185.14125103 107.69875167 213.71025534 100.94140625 237.609375 C93.2202462 261.60825934 78.03678876 278.44442584 55.875 290.0625 C14.06301952 309.97953801 -39.15341973 307.15807972 -82.09765625 292.35546875 C-103.05859786 284.78032175 -103.05859786 284.78032175 -108.25 280.3125 C-109.78125446 275.86440689 -108.76633779 273.38707633 -106.8203125 269.21875 C-106.27616699 268.03249023 -105.73202148 266.84623047 -105.17138672 265.62402344 C-104.57289034 264.35337465 -103.97408879 263.08286958 -103.375 261.8125 C-102.47047426 259.86005035 -101.5703671 257.90560839 -100.67080688 255.9508667 C-100.06665864 254.63836527 -99.46100254 253.32655688 -98.85385132 252.01544189 C-95.72044282 245.22729451 -92.83941593 238.33484641 -90.05517578 231.39648438 C-89.72501465 230.60048828 -89.39485352 229.80449219 -89.0546875 228.984375 C-88.63678955 227.94941895 -88.63678955 227.94941895 -88.21044922 226.89355469 C-87.25 225.3125 -87.25 225.3125 -84.25 224.3125 C-81.71856127 225.39999158 -79.31979993 226.55445544 -76.875 227.8125 C-51.77127398 240.13461484 -18.88153998 250.06534807 8.75 241.3125 C11.06640972 240.15252147 13.11173043 238.92586798 15.19921875 237.3984375 C16.75 236.3125 16.75 236.3125 19.75 235.3125 C20.86935073 233.66619807 20.86935073 233.66619807 21.75 231.3125 C22.28625 230.219375 22.8225 229.12625 23.375 228 C26.23973625 220.09982529 26.18097885 210.45437549 22.8125 202.75 C15.27057884 190.02564139 -2.65563839 186.7412856 -15.95117188 183.3046875 C-18.61970838 182.62240644 -21.28906846 181.94344922 -23.95874023 181.265625 C-50.90653848 174.38937643 -81.55951406 165.48306271 -97.40039062 140.49804688 C-109.76049095 119.21962548 -112.95384172 92.50938223 -107.22265625 68.625 C-99.92870189 43.78454498 -84.83989885 25.76362535 -62.25 13.3125 C-54.81380392 9.5812638 -47.22921132 6.84506999 -39.25 4.5625 C-38.56333252 4.36374268 -37.87666504 4.16498535 -37.16918945 3.96020508 C-24.94927028 0.65633772 -12.58866832 -0.06778235 0 0 Z " fill="#EC6501" transform="translate(3001.25,619.6875)"/>
<path d="M0 0 C26.07 0 52.14 0 79 0 C79.01458252 8.77223145 79.02916504 17.54446289 79.04418945 26.58251953 C79.09299519 54.68248299 79.15641768 82.78239657 79.22898628 110.88230831 C79.24025382 115.25047739 79.25139237 119.61864679 79.26245117 123.98681641 C79.26465486 124.85640357 79.26685854 125.72599074 79.269129 126.62192903 C79.3044565 140.68362342 79.32934627 154.74531775 79.35034702 168.80703999 C79.37214535 183.24644144 79.40523393 197.68578554 79.44870156 212.12513816 C79.47514894 221.02778287 79.49289516 229.93035617 79.49934604 238.8330382 C79.50462115 244.94625799 79.52090894 251.0593881 79.54566566 257.17255975 C79.55960831 260.69425118 79.56887881 264.21578234 79.56500816 267.73750305 C78.44121287 292.28615221 78.44121287 292.28615221 88 314 C93.69764016 318.92068923 99.35630593 320.11458157 106.7265625 319.8828125 C116.45969741 319.11789339 125.22606477 316.57708646 134.3671875 313.2421875 C138 312 138 312 141 312 C142.62154886 316.81429996 144.23873152 321.63003922 145.85229492 326.44702148 C146.39901828 328.07728309 146.94682773 329.70718095 147.49584961 331.33666992 C151.25249302 342.48952785 154.76410338 353.68478265 158 365 C123.30611608 381.97511762 83.61747318 389.32109886 45.73046875 378.31640625 C28.26360066 372.15270516 16.05071868 362.96695498 7.56640625 346.16015625 C0.98413705 331.60884897 -0.15876494 315.78973586 -0.12025452 300.03501892 C-0.12110894 298.74917721 -0.12196337 297.4633355 -0.12284368 296.13852888 C-0.12506845 292.59015902 -0.12109514 289.04181961 -0.11606562 285.49345362 C-0.11173219 281.65922019 -0.11320959 277.82498837 -0.1139679 273.99075317 C-0.1144913 267.35453321 -0.11136368 260.71832312 -0.10573006 254.08210564 C-0.09759019 244.48734393 -0.09499729 234.89258697 -0.09374207 225.29782218 C-0.09155546 209.72955128 -0.08490596 194.16128563 -0.07543945 178.59301758 C-0.06625523 163.47322618 -0.05917934 148.35343621 -0.05493164 133.23364258 C-0.05466892 132.30107747 -0.05440619 131.36851237 -0.05413551 130.40768772 C-0.05283044 125.72910913 -0.05156674 121.05053054 -0.05032361 116.37195194 C-0.03996316 77.58129663 -0.02153141 38.79065103 0 0 Z " fill="#EC6501" transform="translate(970,540)"/>
<path d="M0 0 C30.69 0 61.38 0 93 0 C93.02202557 41.51345204 93.04049735 83.02689858 93.05106533 124.54035478 C93.05231611 129.43600151 93.05361042 134.33164822 93.05493164 139.22729492 C93.05519395 140.20197303 93.05545626 141.17665113 93.05572652 142.18086494 C93.06008359 157.98438195 93.06797133 173.78789535 93.0771528 189.59141021 C93.08648833 205.79466262 93.0920554 221.99791313 93.09408849 238.20116812 C93.09546393 248.20784896 93.09981564 258.21451956 93.10791647 268.22119725 C93.11318269 275.07341617 93.11480458 281.92562976 93.11350138 288.77785056 C93.1128578 292.73737747 93.11387769 296.69688645 93.11920547 300.65641022 C93.12403962 304.27528251 93.12433855 307.89412466 93.12089889 311.51299829 C93.12027028 313.45482843 93.12461188 315.39665817 93.12908131 317.33848327 C93.12709026 318.47606128 93.12509921 319.61363929 93.12304783 320.78568935 C93.12342755 321.77562025 93.12380727 322.76555116 93.1241985 323.78547996 C93 326 93 326 92 327 C61.64 327 31.28 327 0 327 C0 219.09 0 111.18 0 0 Z " fill="#009898" transform="translate(1265,43)"/>
<path d="M0 0 C0.33 0.33 0.66 0.66 1 1 C0.87726974 8.95957866 -1.04792746 16.87089683 -2.65234375 24.62890625 C-2.91253799 25.89975571 -3.17273224 27.17060516 -3.44081116 28.47996521 C-3.98786716 31.14729417 -4.5388939 33.81376561 -5.0925293 36.47973633 C-5.80243166 39.90099579 -6.49965006 43.32470843 -7.19373226 46.7492075 C-7.85962772 50.02322842 -8.5379326 53.2946451 -9.21484375 56.56640625 C-9.58838234 58.4146273 -9.58838234 58.4146273 -9.96946716 60.30018616 C-10.20633743 61.42903732 -10.4432077 62.55788849 -10.68725586 63.72094727 C-10.99583778 65.21791893 -10.99583778 65.21791893 -11.31065369 66.74513245 C-11.65188011 67.86129189 -11.65188011 67.86129189 -12 69 C-12.99 69.495 -12.99 69.495 -14 70 C-16.0390625 69.14453125 -16.0390625 69.14453125 -18.625 67.8125 C-33.86252595 60.65245836 -51.54969258 57.91086999 -68 62 C-79.97830733 66.49365412 -88.45590943 73.43473094 -94 85 C-97.71628445 94.20166278 -99.14394109 102.9124637 -99.15821838 112.79553223 C-99.16315636 113.53740705 -99.16809434 114.27928187 -99.17318195 115.04363775 C-99.18842561 117.50630331 -99.19688156 119.96894309 -99.20532227 122.43164062 C-99.21491114 124.20619937 -99.22492181 125.98075588 -99.23532104 127.75531006 C-99.2622668 132.55632174 -99.28333204 137.35734314 -99.30332303 142.15838814 C-99.32524658 147.18190389 -99.35260401 152.20539002 -99.37937927 157.22888184 C-99.42922026 166.7342448 -99.47419085 176.23962428 -99.51740164 185.74501944 C-99.57609835 198.59484878 -99.64233888 211.4446391 -99.70815182 224.29443359 C-99.81159202 244.52959608 -99.90497055 264.76479222 -100 285 C-126.07 285 -152.14 285 -179 285 C-179.0093457 277.88268311 -179.01869141 270.76536621 -179.02832031 263.43237305 C-179.06120611 240.51532021 -179.11361294 217.59834229 -179.17792095 194.68135939 C-179.18793535 191.10633961 -179.19777999 187.53131937 -179.20751953 183.95629883 C-179.2094609 183.24474153 -179.21140228 182.53318424 -179.21340248 181.8000646 C-179.24420764 170.36179579 -179.26134245 158.92354691 -179.27319422 147.48524453 C-179.28571839 135.70012035 -179.31346809 123.91509876 -179.35461307 112.13003951 C-179.37723523 105.53092719 -179.39292332 98.93192681 -179.39188385 92.33276939 C-179.39197562 65.48846866 -179.52507575 39.0342472 -183.64248276 12.45730305 C-184.10405512 7.9937546 -184 3.48735042 -184 -1 C-162.88 -1 -141.76 -1 -120 -1 C-117.53473768 11.32631161 -115.11753509 23.6156281 -113 36 C-112.5153125 35.17757812 -112.030625 34.35515625 -111.53125 33.5078125 C-99.78480549 13.94546453 -85.47751347 -0.85098645 -63.03515625 -7.30859375 C-42.2871718 -12.03496859 -19.20097686 -9.01407116 0 0 Z " fill="#EC6501" transform="translate(2869,629)"/>
<path d="M0 0 C26.07 0 52.14 0 79 0 C79 94.38 79 188.76 79 286 C52.93 286 26.86 286 0 286 C0 191.62 0 97.24 0 0 Z " fill="#EB6501" transform="translate(1688,628)"/>
<path d="M0 0 C0.68449219 0.62390625 1.36898437 1.2478125 2.07421875 1.890625 C3.30205078 2.98117187 3.30205078 2.98117187 4.5546875 4.09375 C14.98661102 13.87861018 21.02966354 25.26686009 25.07421875 38.890625 C25.44353516 40.0971875 25.44353516 40.0971875 25.8203125 41.328125 C30.94270643 61.67639332 25.56634351 82.31644195 15.07421875 99.890625 C12.94780369 103.11962564 10.6669826 106.02645825 8.07421875 108.890625 C7.50574219 109.550625 6.93726562 110.210625 6.3515625 110.890625 C-4.94509604 123.17064448 -21.99620784 131.75944736 -38.65258789 133.11206055 C-61.69183124 134.02971703 -81.37564207 129.75619585 -98.92578125 113.890625 C-99.63347656 113.26414062 -100.34117187 112.63765625 -101.0703125 111.9921875 C-114.35498325 99.54574645 -122.19116028 81.03207866 -123.12890625 62.98046875 C-123.53349433 41.4651449 -117.17447005 22.07549392 -102.25390625 6.265625 C-101.485625 5.481875 -100.71734375 4.698125 -99.92578125 3.890625 C-99.260625 3.189375 -98.59546875 2.488125 -97.91015625 1.765625 C-72.0859049 -23.46723128 -26.94843974 -22.79068047 0 0 Z " fill="#EC6501" transform="translate(3779.92578125,441.109375)"/>
<path d="M0 0 C10.49076212 9.85495836 16.94515056 23.89211378 18.05078125 38.2109375 C18.4580811 56.26075171 13.05340728 71.42482958 0.5234375 84.61328125 C-12.5215767 96.69965607 -27.44500794 100.77699548 -44.75 100.3671875 C-59.48629767 99.73652391 -72.13674035 93.06523524 -82.6796875 82.921875 C-93.57224706 70.77378677 -98.63094456 55.99527054 -98.46484375 39.828125 C-97.16657146 22.49344705 -89.77067677 8.80266432 -76.99609375 -2.87890625 C-53.99125648 -21.93300223 -21.86166345 -18.73856867 0 0 Z " fill="#EC6501" transform="translate(3635.1875,319.875)"/>
<path d="M0 0 C11.42817636 9.49989274 17.99233412 22.1999152 21.0234375 36.59765625 C22.28744301 53.97773205 18.89742896 70.34573066 7.41210938 83.92724609 C-3.47608891 96.04438659 -16.70258251 102.03264174 -32.7578125 103.84375 C-49.66055622 104.65894138 -64.16228191 99.26003698 -76.9140625 88.125 C-87.73185039 77.81941798 -94.04457777 64.60266655 -94.9296875 49.58984375 C-95.14938932 32.3432511 -90.31762597 16.8196084 -78.10546875 4.21484375 C-55.73235426 -16.28466017 -24.50613824 -17.65986753 0 0 Z " fill="#EC6501" transform="translate(3631.7265625,590.96484375)"/>
<path d="M0 0 C9.08924385 7.0621463 15.73435846 17.37638253 17.53515625 28.8671875 C19.06265668 42.38644421 16.2585646 53.68143658 8.3046875 64.79296875 C0.83053204 73.82550075 -10.10800106 80.09637265 -21.875 81.25 C-35.11412239 82.12267527 -46.47432049 78.58372848 -57.09765625 70.57421875 C-65.86925875 62.6814666 -70.91615127 50.74970502 -72.0859375 39.16015625 C-72.60312006 28.16008096 -69.23814127 18.10511038 -62.875 9.25 C-62.43414063 8.61449219 -61.99328125 7.97898438 -61.5390625 7.32421875 C-47.07497121 -11.5292644 -18.59862264 -12.68201383 0 0 Z " fill="#EC6501" transform="translate(3484.875,188.75)"/>
<path d="M0 0 C7.79866023 6.83616735 13.8847145 16.84562561 15.46875 27.1640625 C16.30119591 42.06804599 14.16279793 53.24609396 4.79296875 65.32421875 C-3.52664863 74.5702175 -14.78317852 78.96615972 -26.94140625 80.0703125 C-39.52825391 80.39902234 -51.77735614 76.05799318 -61.03125 67.3515625 C-70.36536984 56.95811 -74.22926079 45.6302082 -73.87890625 31.72265625 C-72.58812429 18.51027011 -66.59452204 7.69225914 -56.53125 -0.8359375 C-39.55018586 -13.64133013 -16.92413669 -12.2752226 0 0 Z " fill="#EC6501" transform="translate(3486.53125,738.8359375)"/>
<path d="M0 0 C9.78577096 7.47017524 15.76981494 16.74811589 18.625 28.75 C18.91075593 31.52752035 18.95957636 34.2717328 18.9375 37.0625 C18.93186035 37.81088135 18.9262207 38.5592627 18.92041016 39.33032227 C18.66477795 51.02233174 14.38973191 60.89928533 6.375 69.5 C-4.01337798 79.18059838 -15.60386337 82.4991474 -29.53515625 82.03515625 C-40.12197397 81.2489531 -51.0089709 76.58620117 -58.375 68.75 C-67.45504555 57.59906686 -71.38494031 46.09489287 -70.375 31.75 C-68.75172609 21.08866714 -64.56559362 11.94174074 -56.375 4.75 C-55.89804688 4.27046875 -55.42109375 3.7909375 -54.9296875 3.296875 C-40.34677921 -10.6519938 -16.32084845 -10.77373228 0 0 Z " fill="#EC6501" transform="translate(3483.375,462.25)"/>
<path d="M0 0 C9.58933352 7.90549221 14.49894013 18.06245831 15.71484375 30.33203125 C16.24207071 42.24736056 11.24661189 53.3267724 3.5 62.1640625 C-7.53819793 70.68172705 -19.60896891 74.22665876 -33.5 73.1640625 C-45.58248394 71.29957227 -56.51575286 66.90838233 -64.16015625 57.015625 C-71.16308107 46.38219125 -72.77044378 34.58055192 -70.5 22.1640625 C-67.51850211 11.26296085 -61.13300918 2.90714487 -51.6875 -3.2734375 C-35.49221936 -12.10950252 -14.88181826 -10.92883528 0 0 Z " fill="#EC6501" transform="translate(1755.5,507.8359375)"/>
<path d="M0 0 C0.886875 0.680625 1.77375 1.36125 2.6875 2.0625 C3.5125 2.59875 4.3375 3.135 5.1875 3.6875 C12.49057384 10.62542014 15.68959584 19.41888651 16.0625 29.3125 C15.88156337 39.16223804 12.66025206 47.98104134 5.6875 55.0625 C-2.28860838 61.79856082 -11.18490013 64.69569802 -21.58203125 64.34375 C-32.34462159 63.235157 -40.22137232 58.31362012 -46.99609375 49.98828125 C-52.19492111 42.38287505 -54.10749203 34.1687723 -53.3125 25.0625 C-51.08509006 13.73252501 -45.51821206 5.92724061 -36.3125 -0.9375 C-25.15543956 -7.3828138 -10.89024889 -6.36976822 0 0 Z " fill="#EC6501" transform="translate(3339.3125,332.9375)"/>
<path d="M0 0 C6.23264242 5.87901732 10.73766311 14.33225205 11.453125 22.9453125 C11.63909007 33.57631588 9.20339765 42.28521502 2.25 50.5 C-5.00327913 57.50370393 -13.23741942 60.69750512 -23.25 61 C-33.26258058 60.69750512 -41.49672087 57.50370393 -48.75 50.5 C-55.43628364 42.60078509 -58.43295178 33.61814625 -58.09765625 23.296875 C-56.82509699 13.05920723 -51.87325014 4.58610011 -43.875 -1.8125 C-30.33394485 -11.32224866 -12.81897088 -10.31091136 0 0 Z " fill="#EC6501" transform="translate(3343.75,610.5)"/>
<path d="M0 0 C6.40340031 5.19386914 10.15281056 11.50513046 11.03515625 19.75 C11.2935626 28.10060532 9.3410667 35.14689469 3.609375 41.3984375 C-3.29549131 47.5734025 -9.93239218 49.16489669 -19.1171875 48.84375 C-26.15526379 48.1132155 -31.09877429 45.51178024 -36.203125 40.5234375 C-42.13773124 32.77547935 -43.27066655 25.07512506 -42.203125 15.5234375 C-40.00827243 8.15281631 -35.62713408 2.69036231 -29.203125 -1.4765625 C-19.73434964 -6.18572254 -8.8660456 -5.94213694 0 0 Z " fill="#EC6501" transform="translate(3199.203125,477.4765625)"/>
</svg>
