<?xml version="1.0" encoding="UTF-8"?>
<svg version="1.1" xmlns="http://www.w3.org/2000/svg" width="800" height="203">
<path d="M0 0 C0.97840851 -0.00524185 1.95681702 -0.0104837 2.96487427 -0.0158844 C5.02035581 -0.02226483 7.07587407 -0.02101969 9.13134766 -0.01245117 C12.24318742 -0.00394622 15.35318478 -0.03275166 18.46484375 -0.06445312 C31.55786325 -0.11115979 43.95372325 0.10744 54.35742188 9.19775391 C64.63549293 20.54377304 64.39741099 33.16521596 64.13061523 47.72998047 C64.07018593 51.19084286 64.06906998 54.64805744 64.07617188 58.109375 C64.06076963 60.33726634 64.04200566 62.56513753 64.01953125 64.79296875 C64.01821701 65.81299988 64.01690277 66.83303101 64.01554871 67.88397217 C63.82062542 76.41057793 61.89667007 84.55005064 55.8203125 90.87109375 C55.24152344 91.48855469 54.66273438 92.10601562 54.06640625 92.7421875 C53.23302734 93.57943359 53.23302734 93.57943359 52.3828125 94.43359375 C51.94759277 94.90877441 51.51237305 95.38395508 51.06396484 95.87353516 C41.48255853 104.7647908 27.2598266 103.16274936 15.18237305 103.03051758 C11.6930319 102.99607124 8.20621053 103.00993167 4.71679688 103.02929688 C2.47655183 103.02240061 0.23631324 103.01273022 -2.00390625 103 C-3.55110603 103.0074398 -3.55110603 103.0074398 -5.12956238 103.01502991 C-14.24758138 102.86793416 -21.398762 100.06748682 -28.6171875 94.43359375 C-29.8046875 92.24609375 -29.8046875 92.24609375 -30.6171875 90.43359375 C-31.6071875 90.10359375 -32.5971875 89.77359375 -33.6171875 89.43359375 C-34.71484375 87.796875 -34.71484375 87.796875 -35.6796875 85.74609375 C-36.00066406 85.08222656 -36.32164062 84.41835937 -36.65234375 83.734375 C-39.37270422 77.24736158 -39.92454709 71.8883965 -39.91796875 64.91796875 C-39.92225388 63.90696106 -39.926539 62.89595337 -39.93095398 61.85430908 C-39.93668356 59.71944933 -39.93720768 57.58457005 -39.93286133 55.44970703 C-39.92971152 52.20831361 -39.95314309 48.96784258 -39.97851562 45.7265625 C-39.98078998 43.64453239 -39.98149148 41.56249985 -39.98046875 39.48046875 C-39.9896785 38.5228363 -39.99888824 37.56520386 -40.00837708 36.57855225 C-39.93534338 25.78137331 -37.28075655 17.20132782 -29.6171875 9.43359375 C-20.91257331 2.03709412 -11.20022478 -0.03585833 0 0 Z M-4.3671875 21.87109375 C-6.7374198 24.83388412 -6.7432697 27.68374289 -6.74658203 31.31640625 C-6.74973419 32.30753418 -6.75288635 33.29866211 -6.75613403 34.31982422 C-6.7541098 35.38861816 -6.75208557 36.45741211 -6.75 37.55859375 C-6.75095673 38.65703613 -6.75191345 39.75547852 -6.75289917 40.88720703 C-6.75357995 43.21061256 -6.75173275 45.53401999 -6.74755859 47.85742188 C-6.74220895 51.41931418 -6.74750706 54.98108038 -6.75390625 58.54296875 C-6.75324545 60.79817736 -6.75196425 63.0533859 -6.75 65.30859375 C-6.75202423 66.3773877 -6.75404846 67.44618164 -6.75613403 68.54736328 C-6.75298187 69.53849121 -6.74982971 70.52961914 -6.74658203 71.55078125 C-6.74578644 72.42331543 -6.74499084 73.29584961 -6.74417114 74.19482422 C-6.70552442 76.60524476 -6.70552442 76.60524476 -5.6171875 79.43359375 C-4.9571875 79.43359375 -4.2971875 79.43359375 -3.6171875 79.43359375 C-3.215 80.39265625 -3.215 80.39265625 -2.8046875 81.37109375 C-1.73050998 83.76491061 -1.73050998 83.76491061 1.3828125 84.43359375 C4.81544508 84.7131869 8.25254131 84.71103498 11.6953125 84.74609375 C12.63310547 84.77509766 13.57089844 84.80410156 14.53710938 84.83398438 C20.29824094 84.8867643 23.98145785 84.54834856 28.3828125 80.43359375 C31.85021167 75.10104806 31.82132513 70.39648137 31.78125 64.25 C31.78555527 62.78940407 31.78555527 62.78940407 31.78994751 61.29930115 C31.79198322 59.24599626 31.78648793 57.19267176 31.77392578 55.1394043 C31.75788281 52.0098089 31.77378261 48.88150829 31.79296875 45.75195312 C31.79098589 43.75129925 31.78714134 41.75064618 31.78125 39.75 C31.78732269 38.82063126 31.79339539 37.89126251 31.7996521 36.93373108 C31.73958919 31.33780587 31.07062277 27.37535989 28.3828125 22.43359375 C23.42313445 17.75408072 18.76919292 17.87932714 12.3203125 18.05859375 C10.99290039 18.06052734 10.99290039 18.06052734 9.63867188 18.0625 C4.31711475 18.13435899 -0.09880754 18.3649245 -4.3671875 21.87109375 Z " fill="#BF191F" transform="translate(322.6171875,60.56640625)"/>
<path d="M0 0 C0.97135895 -0.0033284 1.9427179 -0.0066568 2.94351196 -0.01008606 C4.99260995 -0.01513462 7.04171611 -0.01749503 9.09082031 -0.01733398 C12.20912351 -0.01951903 15.32707186 -0.03769298 18.4453125 -0.05664062 C20.44270713 -0.05957535 22.44010343 -0.06155962 24.4375 -0.0625 C25.36170746 -0.06968552 26.28591492 -0.07687103 27.23812866 -0.08427429 C37.8634442 -0.04716701 46.55323057 2.6636573 54.6796875 9.765625 C67.55355038 23.51725126 62.8515625 41.36641442 62.8515625 59.16796875 C40.0815625 59.16796875 17.3115625 59.16796875 -6.1484375 59.16796875 C-5.10735701 68.53769315 -4.22560224 73.10182755 2.8515625 79.16796875 C6.36971979 80.85581833 9.21509763 81.42896431 13.10083008 81.48681641 C14.63185112 81.51662094 14.63185112 81.51662094 16.19380188 81.54702759 C17.2835582 81.5585788 18.37331451 81.57013 19.49609375 81.58203125 C20.6210173 81.6013974 21.74594086 81.62076355 22.904953 81.64071655 C26.49124616 81.70040585 30.07757159 81.74685569 33.6640625 81.79296875 C36.09832114 81.83115828 38.53256642 81.87021058 40.96679688 81.91015625 C46.92826655 82.00609873 52.88981703 82.0911775 58.8515625 82.16796875 C57.8515625 88.16796875 56.8515625 94.16796875 55.8515625 100.16796875 C47.02785822 100.26102643 38.20432526 100.33191376 29.38023567 100.37521744 C25.28195879 100.39601076 21.18401991 100.42417521 17.0859375 100.46972656 C13.12422278 100.51348195 9.16283129 100.5371678 5.2008934 100.54747772 C3.69633783 100.55481627 2.1917981 100.56914558 0.68738174 100.59088898 C-10.36856478 100.74419233 -19.87930953 99.95571303 -28.2734375 92.04296875 C-29.01851562 91.35976562 -29.76359375 90.6765625 -30.53125 89.97265625 C-32.1484375 88.16796875 -32.1484375 88.16796875 -32.1484375 86.16796875 C-32.8084375 86.16796875 -33.4684375 86.16796875 -34.1484375 86.16796875 C-34.80589854 84.81940913 -35.44875725 83.46372844 -36.0859375 82.10546875 C-36.44558594 81.35136719 -36.80523438 80.59726563 -37.17578125 79.8203125 C-39.38985074 73.78274952 -39.30765594 67.43505592 -39.31640625 61.0859375 C-39.31973465 60.23171707 -39.32306305 59.37749664 -39.32649231 58.49739075 C-39.33153161 56.69805434 -39.33390157 54.89870869 -39.33374023 53.09936523 C-39.33592264 50.37402632 -39.35409919 47.64909541 -39.37304688 44.92382812 C-39.42025946 31.12660222 -39.09354604 20.39925108 -30.1484375 9.16796875 C-21.68019162 1.03620946 -11.17095359 0.0133921 0 0 Z M-4.1484375 24.54296875 C-7.27561797 29.52096271 -7.27561797 29.52096271 -6.1484375 42.16796875 C6.0615625 42.16796875 18.2715625 42.16796875 30.8515625 42.16796875 C31.26983772 32.23144637 31.26983772 32.23144637 27.8515625 24.16796875 C23.35562742 19.79034775 18.79214366 17.88346197 12.5390625 17.79296875 C5.4463895 17.94570464 1.31041994 20.22137328 -4.1484375 24.54296875 Z " fill="#BF191F" transform="translate(708.1484375,62.83203125)"/>
<path d="M0 0 C7.79792241 -0.0698019 15.59577033 -0.12296344 23.39392757 -0.15543652 C27.01574248 -0.17102948 30.63734214 -0.19214953 34.2590332 -0.22631836 C37.7603775 -0.25914149 41.261516 -0.2769008 44.7630024 -0.28463173 C46.73537617 -0.29279505 48.70766826 -0.31617711 50.67991638 -0.33988953 C57.71314502 -0.34119519 63.52018045 0.20722602 70 3 C71.010625 3.391875 72.02125 3.78375 73.0625 4.1875 C74.0215625 4.5896875 74.0215625 4.5896875 75 5 C75 5.66 75 6.32 75 7 C75.556875 7.20625 76.11375 7.4125 76.6875 7.625 C82.54038707 11.10509501 84.99585746 16.40106812 87.17077637 22.60952759 C88.82981359 29.39288457 88.48420054 36.32454514 88.390625 43.26171875 C88.38314864 44.90508836 88.37746232 46.54846698 88.37347412 48.19184875 C88.35832734 52.4811235 88.31914281 56.76984153 88.2746582 61.05889893 C88.23346649 65.44999667 88.21541249 69.8411859 88.1953125 74.23242188 C88.15263559 82.82186779 88.08452053 91.4108643 88 100 C78.50710084 100.09295656 69.01435998 100.16389446 59.52110386 100.20724869 C55.11229358 100.22806369 50.70379624 100.25626894 46.29516602 100.30175781 C42.03520091 100.3454343 37.77553555 100.36918283 33.51536369 100.37950897 C31.89555078 100.38686144 30.27575302 100.40121867 28.6560688 100.42292023 C20.07242409 100.53328502 12.56966352 100.61364115 5 96 C4.071875 95.525625 3.14375 95.05125 2.1875 94.5625 C-3.53555066 90.47460667 -7.24624544 83.98025789 -8.54296875 77.1328125 C-9.62589539 67.11892612 -8.38849774 58.98983622 -2 51 C3.24460405 45.46750599 8.99966687 41.90411888 16.74194336 41.65942383 C18.52464739 41.65989334 20.30740084 41.67651625 22.08984375 41.70703125 C23.03436905 41.71127609 23.97889435 41.71552094 24.95204163 41.71989441 C27.94749324 41.73659067 30.9422542 41.77422594 33.9375 41.8125 C35.97720378 41.82755854 38.01691817 41.8412449 40.05664062 41.85351562 C45.03802361 41.88646453 50.01889499 41.93818396 55 42 C54.6998794 40.2374975 54.39410023 38.47595793 54.0859375 36.71484375 C53.91626465 35.73378662 53.7465918 34.75272949 53.57177734 33.74194336 C52.44688408 28.347547 50.18198032 24.54834694 46 21 C43.03987074 19.24956677 40.8395256 18.73886841 37.41503906 18.68115234 C36.06409149 18.65134781 36.06409149 18.65134781 34.68585205 18.62094116 C33.72217712 18.60938995 32.7585022 18.59783875 31.765625 18.5859375 C30.77246277 18.56657135 29.77930054 18.5472052 28.75604248 18.5272522 C25.58744871 18.46752678 22.41881847 18.42109889 19.25 18.375 C17.10024467 18.33681377 14.95050454 18.29776166 12.80078125 18.2578125 C7.53398915 18.16183109 2.26710536 18.07676296 -3 18 C-2.41509121 11.85845775 -1.45933748 5.99320151 0 0 Z M21.6875 64.25 C19.48344093 67.84179997 19.41675973 69.8444131 20 74 C21.70427443 77.34542759 22.88230829 79.42804534 26.25854492 81.15576172 C29.37349028 82.11501731 31.91916357 82.2273974 35.17578125 82.1953125 C36.33271484 82.18886719 37.48964844 82.18242187 38.68164062 82.17578125 C40.47891602 82.15064453 40.47891602 82.15064453 42.3125 82.125 C43.53001953 82.11597656 44.74753906 82.10695313 46.00195312 82.09765625 C49.00150274 82.07413037 52.00065044 82.04125653 55 82 C55.05423428 79.92346727 55.09289855 77.84652404 55.125 75.76953125 C55.14820313 74.61300049 55.17140625 73.45646973 55.1953125 72.26489258 C54.92753466 67.78865124 53.6417169 65.54980708 51 62 C50.34 62 49.68 62 49 62 C49 61.34 49 60.68 49 60 C45.19407507 58.73135836 41.59129359 58.77679928 37.625 58.75 C36.86960937 58.729375 36.11421875 58.70875 35.3359375 58.6875 C29.31371378 58.64538655 26.07549477 59.98059968 21.6875 64.25 Z " fill="#BE191F" transform="translate(498,63)"/>
<path d="M0 0 C16.5515625 -0.12375 16.5515625 -0.12375 33.4375 -0.25 C38.63971313 -0.30462402 38.63971313 -0.30462402 43.94702148 -0.36035156 C48.22277832 -0.37841797 48.22277832 -0.37841797 50.23231506 -0.3817749 C51.61863866 -0.38786748 53.00494271 -0.40183146 54.39112854 -0.42230225 C62.70059876 -0.53874717 69.69326555 -0.34812073 77 4 C78.010625 4.53625 79.02125 5.0725 80.0625 5.625 C81.0215625 6.305625 81.0215625 6.305625 82 7 C82 7.66 82 8.32 82 9 C82.99 9.33 83.98 9.66 85 10 C86.7890625 12.36328125 86.7890625 12.36328125 88.625 15.3125 C89.23601562 16.27800781 89.84703125 17.24351563 90.4765625 18.23828125 C93.07331512 22.94572767 93.12277408 26.79103098 93.11352539 32.15527344 C93.11367142 32.86786819 93.11381744 33.58046295 93.1139679 34.31465149 C93.11327291 36.66292395 93.10549994 39.01111645 93.09765625 41.359375 C93.0957906 42.99033566 93.09436739 44.62129688 93.09336853 46.2522583 C93.08955494 50.53974969 93.07973454 54.82720708 93.06866455 59.11468506 C93.05662452 64.26173703 93.05204267 69.40880039 93.04621124 74.55586243 C93.03652217 82.37059859 93.01735752 90.18526016 93 98 C82.44 98 71.88 98 61 98 C60.96261719 92.93269531 60.92523438 87.86539063 60.88671875 82.64453125 C60.85643764 79.4316068 60.82528898 76.21873766 60.79101562 73.00585938 C60.736715 67.9078247 60.68560418 62.80989943 60.65356445 57.71166992 C60.62752787 53.60068424 60.58712324 49.49006648 60.53681374 45.3793087 C60.52014736 43.812106 60.50863164 42.24483967 60.50238609 40.67756081 C60.49274219 38.4797179 60.46468146 36.28281571 60.43237305 34.08520508 C60.41571846 32.20989861 60.41571846 32.20989861 60.39872742 30.29670715 C59.97065163 26.75734552 58.96970668 24.91806658 57 22 C57 21.34 57 20.68 57 20 C48.48223072 17.29152842 48.48223072 17.29152842 33 17 C33 43.73 33 70.46 33 98 C22.11 98 11.22 98 0 98 C0 65.66 0 33.32 0 0 Z " fill="#BE191F" transform="translate(179,65)"/>
<path d="M0 0 C1.25244003 0.0028299 2.50488007 0.00565979 3.79527283 0.00857544 C7.09472481 0.01782096 10.39397447 0.03573089 13.69335938 0.0579834 C17.07224068 0.07859131 20.45115183 0.08760882 23.83007812 0.09765625 C30.43758811 0.11962623 37.04492684 0.15410925 43.65234375 0.1953125 C42.66234375 6.4653125 41.67234375 12.7353125 40.65234375 19.1953125 C37.99042969 19.16050781 35.32851562 19.12570313 32.5859375 19.08984375 C29.99114045 19.06640838 27.39635546 19.04821451 24.80151367 19.03051758 C23.00621208 19.01548534 21.21094687 18.99505393 19.41577148 18.96899414 C16.82656849 18.93236464 14.23785347 18.9155304 11.6484375 18.90234375 C10.85336288 18.88685989 10.05828827 18.87137604 9.23912048 18.85542297 C3.97597489 18.85385431 0.3147699 19.69849205 -4.34765625 22.1953125 C-4.67765625 22.8553125 -5.00765625 23.5153125 -5.34765625 24.1953125 C-6.00765625 24.1953125 -6.66765625 24.1953125 -7.34765625 24.1953125 C-9.80184793 31.25111359 -10.4047936 37.80134522 -8.16015625 45.0078125 C-6.06786932 48.68735159 -4.77370355 50.64784666 -1.34765625 53.1953125 C2.88015123 54.01516513 7.10468408 54.12620265 11.40234375 54.2578125 C19.72123669 54.54418523 26.29040228 55.16219113 33.65234375 59.1953125 C34.34038086 59.50734619 35.02841797 59.81937988 35.73730469 60.14086914 C38.77411716 61.81297433 40.51572296 64.51084022 42.65234375 67.1953125 C43.15378906 67.66453125 43.65523438 68.13375 44.171875 68.6171875 C50.13616924 74.97490484 50.93322092 84.33727184 50.796875 92.6171875 C50.25358037 102.30838897 46.56059028 108.66997441 40.27734375 115.9453125 C32.8070275 122.34844071 25.62053429 125.45962606 15.61547852 125.42236328 C14.95121353 125.42265533 14.28694855 125.42294739 13.60255432 125.42324829 C11.43281443 125.42186813 9.26342901 125.40636999 7.09375 125.390625 C5.57917976 125.38689018 4.0646071 125.38404542 2.55003357 125.38204956 C-1.41688831 125.37445001 -5.3836614 125.35483357 -9.3505249 125.3326416 C-13.40618884 125.31210351 -17.46187706 125.30303088 -21.51757812 125.29296875 C-29.46100542 125.27158382 -37.40431227 125.23749285 -45.34765625 125.1953125 C-45.21488281 124.41027344 -45.08210938 123.62523437 -44.9453125 122.81640625 C-44.76871094 121.76582031 -44.59210937 120.71523437 -44.41015625 119.6328125 C-44.23613281 118.60027344 -44.06210937 117.56773437 -43.8828125 116.50390625 C-43.32809686 113.07438693 -42.83896699 109.63448769 -42.34765625 106.1953125 C-24.85765625 105.8653125 -7.36765625 105.5353125 10.65234375 105.1953125 C11.14734375 103.7103125 11.14734375 103.7103125 11.65234375 102.1953125 C12.31234375 102.1953125 12.97234375 102.1953125 13.65234375 102.1953125 C16.21570794 94.17446326 17.06054229 88.30095638 14.65234375 80.1953125 C14.31471802 78.86305961 13.97996387 77.53006114 13.65234375 76.1953125 C12.99234375 76.1953125 12.33234375 76.1953125 11.65234375 76.1953125 C11.32234375 75.5353125 10.99234375 74.8753125 10.65234375 74.1953125 C7.78990509 72.42513563 5.5407552 71.9336847 2.203125 71.8515625 C0.92985352 71.80708984 0.92985352 71.80708984 -0.36914062 71.76171875 C-1.68881836 71.72884766 -1.68881836 71.72884766 -3.03515625 71.6953125 C-12.13366936 71.46359007 -20.28101394 70.74572611 -28.34765625 66.1953125 C-28.34765625 65.5353125 -28.34765625 64.8753125 -28.34765625 64.1953125 C-28.93546875 63.93621094 -29.52328125 63.67710938 -30.12890625 63.41015625 C-36.6120571 59.86040288 -40.47442541 53.24614877 -42.69140625 46.39453125 C-44.5629694 37.27066087 -44.5573913 27.6147826 -40.34765625 19.1953125 C-39.82171875 17.7103125 -39.82171875 17.7103125 -39.28515625 16.1953125 C-36.24285485 11.48465227 -31.87967452 8.42558084 -27.34765625 5.1953125 C-26.60257813 4.66292969 -25.8575 4.13054688 -25.08984375 3.58203125 C-17.18428318 -0.41579496 -8.63816937 -0.07428486 0 0 Z " fill="#BE191F" transform="translate(74.34765625,37.8046875)"/>
<path d="M0 0 C1.18019211 0.00565979 2.36038422 0.01131958 3.57633972 0.01715088 C7.29481988 0.03929451 11.01228668 0.08944961 14.73046875 0.140625 C17.27277241 0.16071842 19.81509138 0.17896416 22.35742188 0.1953125 C28.54460851 0.23908679 34.7312162 0.30577415 40.91796875 0.390625 C40.99797425 5.07094652 40.93793587 9.30077297 39.91796875 13.890625 C39.63953125 15.17453125 39.63953125 15.17453125 39.35546875 16.484375 C39.21109375 17.1134375 39.06671875 17.7425 38.91796875 18.390625 C37.1851062 18.42820923 37.1851062 18.42820923 35.41723633 18.46655273 C31.12139246 18.56089445 26.82570021 18.66104937 22.5300293 18.76293945 C20.67264356 18.80618721 18.81522067 18.84786928 16.95776367 18.88793945 C14.28422867 18.9458887 11.61087894 19.00951152 8.9375 19.07421875 C8.11022903 19.09093124 7.28295807 19.10764374 6.43061829 19.12486267 C0.60697736 19.24383192 0.60697736 19.24383192 -5.08203125 20.390625 C-6.39899795 22.27432971 -6.39899795 22.27432971 -7.08203125 24.390625 C-7.41203125 25.050625 -7.74203125 25.710625 -8.08203125 26.390625 C-8.18723292 27.97251345 -8.23074673 29.55870885 -8.24316406 31.14404297 C-8.25277161 32.13201874 -8.26237915 33.11999451 -8.27227783 34.13790894 C-8.27865265 35.7441362 -8.27865265 35.7441362 -8.28515625 37.3828125 C-8.29370636 39.02904099 -8.29370636 39.02904099 -8.3024292 40.70852661 C-8.3118876 43.03370192 -8.3184165 45.35889068 -8.32226562 47.68408203 C-8.33197243 51.24405258 -8.36298903 54.80344626 -8.39453125 58.36328125 C-8.40106099 60.61978823 -8.40631158 62.87629935 -8.41015625 65.1328125 C-8.42250305 66.19958221 -8.43484985 67.26635193 -8.4475708 68.365448 C-8.4445697 69.35972809 -8.4415686 70.35400818 -8.43847656 71.37841797 C-8.44212219 72.25174774 -8.44576782 73.12507751 -8.44952393 74.02487183 C-8.0073213 76.87157421 -6.87873147 78.18781013 -5.08203125 80.390625 C-5.08203125 81.050625 -5.08203125 81.710625 -5.08203125 82.390625 C-0.21868749 83.62290597 4.60851821 83.61372139 9.59375 83.70703125 C10.98148872 83.7382029 10.98148872 83.7382029 12.39726257 83.77000427 C15.34159182 83.8351906 18.2860074 83.89424058 21.23046875 83.953125 C23.23112858 83.99633964 25.23177981 84.03995486 27.23242188 84.08398438 C32.12751654 84.1908402 37.02269772 84.29219419 41.91796875 84.390625 C41.60909422 86.82863466 41.29602213 89.26597867 40.98046875 91.703125 C40.89345703 92.39341797 40.80644531 93.08371094 40.71679688 93.79492188 C40.3258674 96.79204788 39.87646835 99.51512619 38.91796875 102.390625 C31.25003456 102.49242476 23.58227604 102.56225838 15.91381836 102.61035156 C13.30763232 102.63041035 10.70149096 102.65766411 8.09545898 102.69238281 C4.33956849 102.7411513 0.58427545 102.76365217 -3.171875 102.78125 C-4.90678444 102.81221771 -4.90678444 102.81221771 -6.67674255 102.84381104 C-17.17631557 102.84669362 -24.96862177 99.68891322 -32.95703125 92.765625 C-34.08203125 91.390625 -34.08203125 91.390625 -34.08203125 89.390625 C-34.74203125 89.390625 -35.40203125 89.390625 -36.08203125 89.390625 C-36.73037779 88.121072 -37.3756094 86.84992794 -38.01953125 85.578125 C-38.37917969 84.87042969 -38.73882812 84.16273438 -39.109375 83.43359375 C-40.79346208 79.89633453 -41.21785641 77.10704857 -41.2590332 73.23583984 C-41.27186844 72.18399506 -41.28470367 71.13215027 -41.29792786 70.0484314 C-41.30531479 68.91096466 -41.31270172 67.77349792 -41.3203125 66.6015625 C-41.32838425 65.42856598 -41.33645599 64.25556946 -41.34477234 63.04702759 C-41.35861356 60.56050087 -41.36933554 58.07395515 -41.37719727 55.58740234 C-41.39436905 51.80138616 -41.43825193 48.01625245 -41.48242188 44.23046875 C-41.49255258 41.81250641 -41.5010675 39.39453665 -41.5078125 36.9765625 C-41.52532059 35.85124115 -41.54282867 34.7259198 -41.56086731 33.5664978 C-41.53394615 23.7133529 -38.99298465 16.4834456 -32.08203125 9.390625 C-31.42203125 9.390625 -30.76203125 9.390625 -30.08203125 9.390625 C-30.08203125 8.730625 -30.08203125 8.070625 -30.08203125 7.390625 C-28.76203125 7.060625 -27.44203125 6.730625 -26.08203125 6.390625 C-26.08203125 5.730625 -26.08203125 5.070625 -26.08203125 4.390625 C-17.18651833 1.17672259 -9.43355517 -0.17481311 0 0 Z " fill="#BE191F" transform="translate(439.08203125,60.609375)"/>
<path d="M0 0 C0.83496002 0.00141495 1.66992004 0.0028299 2.53018188 0.00428772 C5.17901292 0.00985451 7.8277573 0.02240078 10.4765625 0.03515625 C12.27994669 0.04017555 14.08333221 0.0447377 15.88671875 0.04882812 C20.29169971 0.05981305 24.69661644 0.07705462 29.1015625 0.09765625 C28.79429225 2.91081983 28.48101098 5.72308144 28.1640625 8.53515625 C28.07705078 9.33759766 27.99003906 10.14003906 27.90039062 10.96679688 C27.21484375 16.984375 27.21484375 16.984375 26.1015625 18.09765625 C24.4530802 18.20664216 22.80039789 18.25347033 21.1484375 18.2734375 C19.63056641 18.30920898 19.63056641 18.30920898 18.08203125 18.34570312 C15.94420751 18.3883562 13.80612742 18.41977682 11.66796875 18.43945312 C5.56902861 18.58584826 5.56902861 18.58584826 -0.0078125 20.828125 C-3.7806054 25.35703548 -4.15647817 29.48785999 -4.21728516 35.2746582 C-4.23235359 36.32913902 -4.23235359 36.32913902 -4.24772644 37.40492249 C-4.27847558 39.71525294 -4.29557022 42.02546796 -4.3125 44.3359375 C-4.33121834 45.94305916 -4.35079225 47.55017106 -4.3711853 49.15727234 C-4.42244231 53.3772709 -4.46210234 57.5973013 -4.49932861 61.81744385 C-4.54646148 66.88619605 -4.60803169 71.95479106 -4.66717529 77.02341461 C-4.75530917 84.71476481 -4.82512933 92.40608609 -4.8984375 100.09765625 C-15.7884375 100.09765625 -26.6784375 100.09765625 -37.8984375 100.09765625 C-37.93854631 82.90880318 -37.93854631 82.90880318 -37.94726562 75.55664062 C-37.953233 70.54873591 -37.96027688 65.54084955 -37.97387695 60.53295898 C-37.98477787 56.49348309 -37.99072956 52.4540269 -37.99331474 48.41453743 C-37.99515603 46.87684888 -37.99875155 45.33916136 -38.00416756 43.80148125 C-38.01147371 41.64033591 -38.01242443 39.47927102 -38.01196289 37.31811523 C-38.0141835 36.09011703 -38.01640411 34.86211884 -38.01869202 33.59690857 C-37.79333681 27.03936088 -36.65154061 21.96296288 -33.8984375 16.09765625 C-33.2384375 16.09765625 -32.5784375 16.09765625 -31.8984375 16.09765625 C-31.65609375 15.34742187 -31.41375 14.5971875 -31.1640625 13.82421875 C-28.34550977 7.75215145 -20.94984494 3.51821923 -14.8984375 1.09765625 C-9.90008012 0.0211228 -5.08323739 -0.03278538 0 0 Z " fill="#BE191E" transform="translate(633.8984375,62.90234375)"/>
<path d="M0 0 C10.89 0 21.78 0 33 0 C33 31.68 33 63.36 33 96 C22.11 96 11.22 96 0 96 C0 64.32 0 32.64 0 0 Z " fill="#BE191F" transform="translate(135,67)"/>
<path d="M0 0 C10.89 0 21.78 0 33 0 C33 8.91 33 17.82 33 27 C22.11 27 11.22 27 0 27 C0 18.09 0 9.18 0 0 Z " fill="#BC1A1F" transform="translate(135,32)"/>
<path d="M0 0 C0.99 0.33 1.98 0.66 3 1 C3.21671657 6.94433423 3.41364377 12.88886478 3.59204102 18.83447266 C3.65557355 20.85808956 3.72456607 22.88154257 3.79907227 24.90478516 C3.90506883 27.8086642 3.9915842 30.71256166 4.07421875 33.6171875 C4.11157639 34.52556366 4.14893402 35.43393982 4.18742371 36.36984253 C4.20767105 37.21056305 4.2279184 38.05128357 4.2487793 38.91748047 C4.27320602 39.65916473 4.29763275 40.400849 4.32279968 41.16500854 C4.21627579 41.77055573 4.10975189 42.37610291 4 43 C3.01 43.66 2.02 44.32 1 45 C0.67 30.15 0.34 15.3 0 0 Z " fill="#A82326" transform="translate(353,89)"/>
<path d="M0 0 C0.66 0 1.32 0 2 0 C2 0.66 2 1.32 2 2 C2.66 2 3.32 2 4 2 C4.33 3.98 4.66 5.96 5 8 C3.5 6.625 3.5 6.625 2 5 C2 4.34 2 3.68 2 3 C1.01 2.67 0.02 2.34 -1 2 C-0.67 1.34 -0.34 0.68 0 0 Z " fill="#B21D2B" transform="translate(234,82)"/>
</svg>
