<?xml version="1.0" encoding="UTF-8"?>
<svg version="1.1" xmlns="http://www.w3.org/2000/svg" width="4158" height="1164">
<path d="M0 0 C0.60457031 0.55042969 1.20914063 1.10085937 1.83203125 1.66796875 C24.73234413 23.38840603 38.23288907 55.9053107 43 86.625 C43.11255127 87.34405518 43.22510254 88.06311035 43.34106445 88.80395508 C44.35964748 96.59791064 44 104.00502964 44 112 C-10.45 112 -64.9 112 -121 112 C-121.99 105.07 -122.98 98.14 -124 91 C-129.20531256 74.93789268 -141.24688367 64.45163367 -155.875 56.625 C-177.31169157 46.57566119 -203.66250558 45.97889821 -225.83813477 53.94970703 C-240.56039328 59.63105874 -252.65760257 68.39570876 -259.5 82.875 C-262.92504496 90.77163143 -264.65317274 98.75585072 -262.38671875 107.31640625 C-257.77953777 117.68763745 -247.04237556 122.9974159 -237 127 C-233.83933454 128.0690483 -230.64646361 128.99211281 -227.43359375 129.890625 C-226.06741913 130.27635429 -226.06741913 130.27635429 -224.67364502 130.6698761 C-215.27006477 133.27770671 -205.77372944 135.42229184 -196.24667358 137.52392578 C-152.47231838 147.2171849 -108.25067513 158.13444484 -67 176 C-66.19981445 176.34095703 -65.39962891 176.68191406 -64.57519531 177.03320312 C-30.58863967 191.63827573 -1.14466166 216.92898136 14 251 C14.48210938 252.06605469 14.96421875 253.13210938 15.4609375 254.23046875 C20.62063763 266.5668427 23.55559757 280.62928354 24 294 C24.03996094 295.09828125 24.07992187 296.1965625 24.12109375 297.328125 C24.7486932 332.03068278 15.4795292 367.64055431 1 399 C0.51877686 400.04510742 0.51877686 400.04510742 0.02783203 401.11132812 C-9.78577979 422.14405635 -22.98100391 440.28826154 -39 457 C-39.50257324 457.52980469 -40.00514648 458.05960938 -40.52294922 458.60546875 C-56.61664563 475.49657798 -75.87170493 489.28352974 -96 501 C-96.63921387 501.37302246 -97.27842773 501.74604492 -97.93701172 502.13037109 C-168.99310499 543.32841426 -253.53883067 555.82191247 -333.31958008 535.41845703 C-371.42924307 525.2453947 -406.16066863 506.9912073 -435 480 C-435.93714844 479.12859375 -436.87429688 478.2571875 -437.83984375 477.359375 C-460.55623207 455.74174192 -475.45423216 427.60740189 -485 398 C-485.65484375 399.11375 -486.3096875 400.2275 -486.984375 401.375 C-500.79196538 424.57800008 -518.08278882 447.68267118 -539 465 C-539.9178125 465.80566406 -540.835625 466.61132812 -541.78125 467.44140625 C-578.57293597 499.63486089 -625.49382026 520.21563665 -674 526 C-674.68344482 526.0928125 -675.36688965 526.185625 -676.07104492 526.28125 C-685.06557658 527.37090662 -694.14110817 527.24291974 -703.1875 527.25 C-704.07883636 527.25100708 -704.97017273 527.25201416 -705.88851929 527.25305176 C-719.80850227 527.24242259 -733.28831937 526.55599077 -747 524 C-747.78922852 523.86609863 -748.57845703 523.73219727 -749.39160156 523.59423828 C-769.14718801 520.2309781 -788.54146882 513.88349152 -806 504 C-806.64791504 503.6376123 -807.29583008 503.27522461 -807.96337891 502.90185547 C-816.21142355 498.24957851 -823.83896021 493.2358719 -831 487 C-832.24523438 485.91912109 -832.24523438 485.91912109 -833.515625 484.81640625 C-836.0443342 482.57857617 -838.52830702 480.30054516 -841 478 C-841.72832031 477.33742188 -842.45664063 476.67484375 -843.20703125 475.9921875 C-873.88349676 446.9186364 -888.42576642 402.28706583 -890.1262207 360.93017578 C-891.58879811 302.08348976 -873.57793279 243.4808786 -837 197 C-835.86304688 195.5459375 -835.86304688 195.5459375 -834.703125 194.0625 C-822.927919 179.36437052 -809.83474218 165.61683767 -795 154 C-794.00355469 153.19820312 -793.00710938 152.39640625 -791.98046875 151.5703125 C-783.7403978 145.00318282 -775.05710783 139.3709048 -766 134 C-764.97011963 133.38125 -764.97011963 133.38125 -763.91943359 132.75 C-708.22319081 99.52175914 -637.72289122 90.45012832 -575 106 C-540.66782299 115.38683849 -508.70857409 133.25194654 -487 162 C-486.40832031 162.77601563 -485.81664062 163.55203125 -485.20703125 164.3515625 C-465.12916116 191.82654263 -453.98882681 227.03727105 -453.796875 261.00390625 C-453.79004196 261.83731033 -453.78320892 262.67071442 -453.77616882 263.52937317 C-453.75919593 266.20712382 -453.75284675 268.88469876 -453.75 271.5625 C-453.74699387 272.9283725 -453.74699387 272.9283725 -453.743927 274.32183838 C-453.7262049 307.1786147 -453.7262049 307.1786147 -458 320 C-413.12 320 -368.24 320 -322 320 C-321.67 328.91 -321.34 337.82 -321 347 C-318.54867976 364.40437367 -314.16003712 378.54867898 -300.52734375 390.1171875 C-281.94685354 403.95922194 -252.22397985 406.44206076 -229.86401367 403.22875977 C-209.68886165 399.94959036 -191.09848524 390.74997619 -176 377 C-175.22269531 376.31550781 -174.44539063 375.63101562 -173.64453125 374.92578125 C-161.91351547 364.00240856 -154.32613856 349.92445491 -152.796875 333.8671875 C-152.54621002 323.21392568 -155.63078609 312.58755123 -162 304 C-180.94499027 285.23858521 -219.21186311 280.43589359 -243.91870117 274.14550781 C-282.05747917 264.40322039 -319.80865586 251.27366934 -352 228 C-353.02996094 227.26265625 -354.05992187 226.5253125 -355.12109375 225.765625 C-377.20306844 209.57026255 -396.42102489 190.98222217 -410 167 C-410.33773438 166.40380859 -410.67546875 165.80761719 -411.0234375 165.19335938 C-426.64773544 137.14598244 -430.26718935 104.94471224 -421.6640625 74.08984375 C-415.78371942 54.33361007 -406.06868358 35.93224951 -393 20 C-392.50467773 19.39333496 -392.00935547 18.78666992 -391.49902344 18.16162109 C-382.27612898 6.95653631 -372.48235901 -3.07253929 -361 -12 C-360.45633789 -12.42539062 -359.91267578 -12.85078125 -359.35253906 -13.2890625 C-337.94678719 -29.91772154 -313.77113254 -41.81703195 -288 -50 C-287.17838379 -50.26409668 -286.35676758 -50.52819336 -285.51025391 -50.80029297 C-264.91832368 -57.32786622 -243.51625119 -61.21144154 -222 -63 C-220.80117187 -63.11085938 -219.60234375 -63.22171875 -218.3671875 -63.3359375 C-141.6408096 -69.36327504 -57.70729373 -53.59234239 0 0 Z M-691.46630859 224.15283203 C-700.42300896 234.94022378 -707.23971405 247.27420834 -713 260 C-713.31888184 260.6904541 -713.63776367 261.3809082 -713.96630859 262.09228516 C-732.17865759 301.85546143 -749.51076312 358.15809755 -734.25 401.375 C-730.16377681 410.62276827 -724.20185655 416.80266192 -715 421 C-702.96275755 425.53976001 -692.88301521 424.70338826 -681 420 C-650.44916195 405.45408724 -634.90299794 368.79420553 -624 339 C-612.02950017 303.95538517 -600.3533448 258.62756393 -616 223 C-621.04962319 213.98792462 -629.22973691 207.26260132 -639 204 C-659.91042336 198.84163397 -677.89181027 208.83946974 -691.46630859 224.15283203 Z " fill="#00ACAD" transform="translate(2291,73)"/>
<path d="M0 0 C0.75350739 -0.00100708 1.50701477 -0.00201416 2.28335571 -0.00305176 C56.96247409 0.04566462 115.97546209 8.86542581 156.8125 48.25 C160.10548574 51.73581824 163.00546921 55.3649444 165.8125 59.25 C166.20743652 59.78786133 166.60237305 60.32572266 167.00927734 60.87988281 C186.62657044 87.84696876 199.01655817 124.8660831 198.8125 158.25 C167.43669452 158.36642081 136.07001897 158.30095329 104.69723129 157.84428024 C102.53893791 157.81306319 100.38063196 157.78290268 98.22232056 157.75296021 C78.40998923 157.4749331 58.61384403 156.95518291 38.8125 156.25 C38.51110107 155.03231934 38.20970215 153.81463867 37.89916992 152.56005859 C34.16238708 137.63468493 29.24324878 121.71322809 15.73046875 112.890625 C5.94738152 107.74348721 -4.99447847 110.03038566 -15.15625 112.92578125 C-25.7771558 116.24099201 -34.9722864 121.78410107 -43.1875 129.25 C-44.39986328 130.34054687 -44.39986328 130.34054687 -45.63671875 131.453125 C-74.95053898 159.24833288 -90.38643552 203.93829093 -91.45146179 243.72953796 C-91.51391215 247.50764218 -91.51812337 251.28400172 -91.5 255.0625 C-91.49817719 255.85303772 -91.49635437 256.64357544 -91.49447632 257.45806885 C-91.41521769 277.87581445 -89.90621852 299.82579715 -76.1875 316.25 C-68.72796216 322.62008644 -61.81596646 324.78179528 -52.08203125 324.62890625 C-36.74947695 323.13717328 -23.70447168 314.96999738 -12.1875 305.25 C-10.6715625 304.1053125 -10.6715625 304.1053125 -9.125 302.9375 C-1.62588121 296.07660409 4.1695461 287.52878106 10.0625 279.29296875 C10.69939302 278.41642482 10.69939302 278.41642482 11.34915257 277.52217293 C12.95609184 275.12323065 12.95609184 275.12323065 14.48262691 271.84731865 C17.19711864 266.54292938 19.47722129 262.1091359 25.26109505 259.98128128 C29.55089511 259.54037858 33.64510076 259.53961691 37.94555664 259.69580078 C39.56933561 259.70299408 41.19315279 259.70388599 42.81694031 259.69898987 C46.30042329 259.70169182 49.77953728 259.74811516 53.26207161 259.82910538 C58.77232808 259.95654767 64.28030903 259.98280442 69.79185486 259.99557495 C79.50089139 260.03092863 89.20744816 260.15185296 98.91546631 260.29144287 C113.53180048 260.50062044 128.1486752 260.63860171 142.7663545 260.70235622 C148.24056466 260.72938725 153.71200012 260.7996056 159.18524754 260.9046967 C162.59333459 260.96278892 166.00112444 260.98805966 169.40963936 261.00515556 C170.98517955 261.02004707 172.56066162 261.0487605 174.13566208 261.09260368 C182.66774231 261.49345055 182.66774231 261.49345055 190.45889091 258.5522728 C192.49283428 256.55443297 194.15064525 254.56105635 195.8125 252.25 C196.90750211 250.95055505 198.01048115 249.65774492 199.125 248.375 C199.69992187 247.71242188 200.27484375 247.04984375 200.8671875 246.3671875 C241.86834962 201.74343274 303.37263752 193.03679929 359.8371582 182.43530273 C379.32064436 178.77326966 398.74110583 174.95339552 418.05859375 170.48828125 C418.85871069 170.30390188 419.65882763 170.11952251 420.48319054 169.92955589 C442.56111722 164.82002712 463.91270159 158.08708757 485.16113281 150.21240234 C489.01990211 148.81173304 492.91061241 147.52515296 496.8125 146.25 C498.70529028 133.00046807 499.8706517 119.29535093 492.1171875 107.71875 C485.5404625 99.51781356 477.38902097 96.99935602 467.2421875 95.56640625 C445.34003515 93.54582044 414.74059629 94.90972945 396.2890625 108.19140625 C383.08542034 119.16667347 375.35083228 132.1172639 367.52734375 147.234375 C366.97558472 148.29640137 366.42382568 149.35842773 365.85534668 150.45263672 C364.50585504 153.05079172 363.15828982 155.64992617 361.8125 158.25 C332.39057144 158.36378347 302.9783414 158.31500364 273.55998611 157.84428024 C271.59923724 157.81308449 269.6384706 157.78301163 267.67770386 157.75296021 C249.37923613 157.46720963 231.09965638 156.9419926 212.8125 156.25 C213.4936103 151.81138301 214.52549624 148.11670692 216.296875 143.98046875 C216.81330566 142.77414795 217.32973633 141.56782715 217.86181641 140.32495117 C218.42763086 139.02866214 218.99455223 137.73285578 219.5625 136.4375 C219.85050476 135.77682526 220.13850952 135.11615051 220.4352417 134.43545532 C232.38065281 107.1098648 246.31987582 80.58577649 266.703125 58.55078125 C268.60285018 56.4786736 270.39476381 54.35158869 272.1875 52.1875 C276.52119052 47.22617155 281.62832248 43.28290406 286.8125 39.25 C288.2046875 38.13431641 288.2046875 38.13431641 289.625 36.99609375 C331.8916424 3.97527938 386.21410727 1.83221633 437.56212616 1.99205017 C440.27971899 2.0000879 442.99730372 2.00505814 445.71490479 2.00939941 C582.60675224 2.26124114 582.60675224 2.26124114 618.8125 35.25 C619.51761719 35.87390625 620.22273438 36.4978125 620.94921875 37.140625 C642.00897552 56.83501443 651.05549724 87.20446442 652.10560608 115.28808594 C652.20411739 118.83788724 652.23616218 122.38647951 652.25 125.9375 C652.2600708 127.24122559 652.2701416 128.54495117 652.28051758 129.88818359 C652.21668154 137.18722367 651.66386242 144.26664068 650.61523438 151.48144531 C650.48505637 152.38137931 650.35487837 153.2813133 650.22075558 154.20851803 C648.43634806 166.18162134 646.16389099 178.06813295 643.91504931 189.96092343 C643.39542636 192.71259925 642.87905618 195.46488187 642.3626278 198.21715873 C640.83116836 206.37846991 639.2906924 214.53806193 637.74756622 222.69717407 C636.87219289 227.32599288 635.99898622 231.95521909 635.12591553 236.58447266 C627.43582173 277.34769672 619.59669006 318.07769232 611.4375 358.75 C611.22853718 359.79243488 611.01957436 360.83486977 610.80427933 361.90889359 C609.42977991 368.76330924 608.049252 375.61648717 606.6640625 382.46875 C606.49373568 383.31319609 606.32340885 384.15764217 606.14792061 385.02767754 C605.66387932 387.4244512 605.17733069 389.82070204 604.68994141 392.21679688 C604.5580948 392.87067414 604.42624819 393.52455141 604.29040623 394.19824314 C602.57893736 402.57541621 600.66797376 410.9003681 598.8125 419.25 C550.9625 419.25 503.1125 419.25 453.8125 419.25 C461.9375 383.26785714 461.9375 383.26785714 464.8125 372.25 C464.36148926 372.56114746 463.91047852 372.87229492 463.44580078 373.19287109 C437.49283441 391.01142321 409.63358369 405.07939079 379.8125 415.25 C378.27239258 415.7756958 378.27239258 415.7756958 376.70117188 416.31201172 C328.26077738 432.57628659 269.62122935 441.86512673 221.61523438 419.1484375 C217.06860615 416.88251227 212.90575644 414.24920633 208.8125 411.25 C207.44544922 410.25033203 207.44544922 410.25033203 206.05078125 409.23046875 C186.68115259 394.23724154 175.48645046 372.51753168 172.13330078 348.48730469 C170.3673356 330.66637752 171.03057877 311.91023207 173.8125 294.25 C173.42618408 294.88800537 173.03986816 295.52601074 172.6418457 296.18334961 C164.36355013 309.79554182 155.81495754 322.84667509 145.8125 335.25 C145.02488281 336.24902344 144.23726562 337.24804688 143.42578125 338.27734375 C131.69918998 352.95137269 118.58038981 366.639521 103.8125 378.25 C102.84957031 379.02988281 101.88664062 379.80976562 100.89453125 380.61328125 C86.99679869 391.65748697 71.91298694 400.80270999 55.8125 408.25 C55.1834375 408.54712891 54.554375 408.84425781 53.90625 409.15039062 C18.24337308 425.92217393 -20.99557523 432.46921007 -60.1875 432.5 C-60.96863159 432.50067474 -61.74976318 432.50134949 -62.55456543 432.50204468 C-118.83209249 432.42564661 -175.58478046 418.13886171 -216.69482422 377.76123047 C-247.06695333 347.01156099 -259.72089749 305.39341547 -260.4375 262.875 C-259.2814497 197.05238613 -235.9348885 132.37903065 -191.3203125 83.60546875 C-189.49254283 81.58688796 -187.74403806 79.52771647 -186 77.4375 C-144.88897415 30.58786413 -80.43647482 5.2355737 -19.51367188 0.44628906 C-13.01260065 0.06263806 -6.51030612 0.00611085 0 0 Z M473.48046875 228.77539062 C472.8294368 228.93810455 472.17840485 229.10081848 471.50764465 229.26846313 C469.3377476 229.81171345 467.16881569 230.35869945 465 230.90625 C463.47331062 231.29066265 461.94661786 231.67506183 460.41992188 232.05944824 C457.1979389 232.87145684 453.97651689 233.68565378 450.75537109 234.50097656 C447.50413279 235.32353753 444.25189046 236.14190768 440.99853516 236.95605469 C379.53946468 249.39453854 379.53946468 249.39453854 332.4609375 286.4609375 C328.02083091 295.05366177 327.47674312 304.65244407 329.390625 314.10546875 C332.7808774 323.79850857 340.29266534 330.87231991 348.96484375 335.99609375 C357.14722427 339.59903497 364.58913635 340.74961745 373.5 340.625 C374.55654785 340.61484863 375.6130957 340.60469727 376.70166016 340.59423828 C385.07942947 340.42896343 392.72211188 339.55157593 400.8125 337.25 C401.50472656 337.05664062 402.19695312 336.86328125 402.91015625 336.6640625 C418.1924133 332.29770334 432.74149833 325.75490365 444.8125 315.25 C445.78058594 314.48042969 446.74867188 313.71085937 447.74609375 312.91796875 C468.09689924 295.93827276 475.66748885 267.92978186 480.0625 243.0625 C480.23789307 242.07016357 480.41328613 241.07782715 480.59399414 240.05541992 C480.83363892 238.64546753 480.83363892 238.64546753 481.078125 237.20703125 C481.22024414 236.37147705 481.36236328 235.53592285 481.50878906 234.67504883 C481.8219593 232.17447004 481.86525564 229.76739832 481.8125 227.25 C478.89993903 227.25 476.30577777 228.06660062 473.48046875 228.77539062 Z M174.8125 290.25 C175.8125 292.25 175.8125 292.25 175.8125 292.25 Z " fill="#00ACAD" transform="translate(2582.1875,169.75)"/>
<path d="M0 0 C67.67275539 -1.7289186 142.95505778 13.63695113 193.73486328 61.06640625 C194.63333984 61.89527344 195.53181641 62.72414062 196.45751953 63.578125 C224.65127359 90.63889976 236.72327508 125.84623036 238.73486328 164.06640625 C238.73486328 168.02640625 238.73486328 171.98640625 238.73486328 176.06640625 C184.28486328 176.06640625 129.83486328 176.06640625 73.73486328 176.06640625 C72.30495109 173.20658187 72.31217879 170.4321398 71.98486328 167.25390625 C70.16919719 152.36472735 63.53524116 138.62840674 51.73486328 129.06640625 C36.43964895 118.12622543 20.09938165 113.65453281 1.48486328 113.75390625 C-0.15929565 113.76127808 -0.15929565 113.76127808 -1.83666992 113.76879883 C-22.07869663 114.06016926 -42.04943324 119.80617807 -57.21826172 133.7109375 C-64.26718348 141.82257838 -66.63954342 150.9567391 -66.54248047 161.41796875 C-65.91907414 169.61883509 -62.46679301 176.63995699 -56.26513672 182.06640625 C-46.69207193 189.00687822 -35.83125577 192.76734902 -24.54248047 195.83203125 C-23.58879074 196.09135437 -22.63510101 196.35067749 -21.6525116 196.61785889 C-10.72715506 199.54183922 0.29784965 202.01461231 11.32876587 204.50305176 C34.02948687 209.64100442 56.50822021 215.15184062 78.73486328 222.06640625 C80.56186768 222.63004883 80.56186768 222.63004883 82.42578125 223.20507812 C98.328708 228.15904694 113.6460596 234.00992164 128.73486328 241.06640625 C129.8730249 241.59814453 129.8730249 241.59814453 131.03417969 242.140625 C166.2756993 258.79242245 199.68436717 284.01631699 213.71679688 321.70361328 C229.09689608 367.24630317 217.53584414 415.98270524 196.9458313 457.99386597 C186.38773886 479.27294853 173.53428936 499.34106775 157.09814453 516.5859375 C155.13243052 518.64912493 153.30066917 520.74864826 151.48486328 522.94140625 C141.89257683 533.95307638 130.42237341 543.37768561 118.73486328 552.06640625 C118.10950684 552.53755859 117.48415039 553.00871094 116.83984375 553.49414062 C74.06159541 585.54306086 19.2282099 605.9179971 -34.26513672 609.06640625 C-35.37308594 609.1319873 -36.48103516 609.19756836 -37.62255859 609.26513672 C-107.70857405 613.06860736 -180.48995379 597.87908618 -233.99169922 549.89428711 C-236.44874209 547.65184173 -238.85633693 545.36066171 -241.26513672 543.06640625 C-242.5084375 541.91978516 -242.5084375 541.91978516 -243.77685547 540.75 C-265.99699365 519.60329845 -280.90423019 490.86517372 -289.45263672 461.69140625 C-289.69062988 460.89065674 -289.92862305 460.08990723 -290.17382812 459.26489258 C-297.58766144 432.96318891 -295.26513672 410.7299688 -295.26513672 382.06640625 C-239.16513672 382.06640625 -183.06513672 382.06640625 -125.26513672 382.06640625 C-125.26513672 389.65640625 -125.26513672 397.24640625 -125.26513672 405.06640625 C-123.72706931 422.7541814 -120.11063599 439.55622783 -106.65966797 452.0703125 C-92.18135751 464.13950768 -72.56772219 467.15776726 -54.26513672 468.06640625 C-52.72212891 468.14761719 -52.72212891 468.14761719 -51.14794922 468.23046875 C-22.54717118 469.01502875 3.80592133 455.88662027 24.32470703 436.63671875 C35.47056444 425.01454265 42.24906656 411.16196648 42.08911133 394.96508789 C41.73799629 384.50235607 38.16678097 375.33679485 31.42236328 367.31640625 C25.42242494 362.29320206 18.9100269 359.03147938 11.60986328 356.31640625 C10.70357178 355.97770508 9.79728027 355.63900391 8.86352539 355.29003906 C-9.53395252 348.56874104 -28.40253925 343.50074781 -47.36328125 338.66748047 C-111.26755812 322.37393288 -178.11036985 293.62509234 -213.39013672 234.375 C-219.28391066 223.97494473 -223.97924176 213.5610205 -227.26513672 202.06640625 C-227.58611328 200.99003906 -227.90708984 199.91367188 -228.23779297 198.8046875 C-236.68900633 164.96052607 -226.54733226 130.25172358 -209.26513672 101.06640625 C-201.59357467 88.56567566 -192.27382667 77.71201284 -182.26513672 67.06640625 C-181.68248047 66.42960937 -181.09982422 65.7928125 -180.49951172 65.13671875 C-137.13986841 19.36820637 -65.2765421 1.90522491 -4.52636719 0.125 C-3.01750938 0.08590198 -1.50871608 0.04423052 0 0 Z " fill="#00ACAD" transform="translate(295.26513671875,8.93359375)"/>
<path d="M0 0 C1.12112938 -0.00855011 1.12112938 -0.00855011 2.26490784 -0.01727295 C3.84057226 -0.0266588 5.41625575 -0.03323116 6.99194336 -0.03710938 C9.34200707 -0.04672404 11.69115966 -0.07777034 14.04101562 -0.109375 C28.30759421 -0.2107165 41.95606041 1.66689853 55.50390625 6.328125 C56.37958252 6.625979 57.25525879 6.92383301 58.1574707 7.23071289 C70.82036511 11.72905428 81.83406662 18.35920283 91.94140625 27.203125 C93.0396875 28.08677734 93.0396875 28.08677734 94.16015625 28.98828125 C105.98360099 38.79258137 114.01771244 51.67333801 120.94140625 65.203125 C121.4206958 66.13294189 121.4206958 66.13294189 121.90966797 67.08154297 C153.4937845 129.17660951 142.25378623 205.67524977 122.05883789 269.59814453 C113.93650213 294.49864842 102.33759494 318.95540629 86.94140625 340.203125 C86.53567383 340.76435059 86.12994141 341.32557617 85.71191406 341.90380859 C80.40289506 349.17265975 74.65310903 355.8977863 68.484375 362.44921875 C66.69605002 364.38588406 65.00268128 366.31346121 63.3359375 368.34765625 C48.64752887 385.86352364 25.52662265 398.88448465 4.94140625 408.203125 C4.27463867 408.50557129 3.60787109 408.80801758 2.92089844 409.11962891 C-36.62526743 426.78257817 -81.88736187 432.50680051 -123.18359375 417.453125 C-143.71125646 409.57221631 -159.6492001 396.65930667 -175.05859375 381.203125 C-179.8501515 407.79611396 -184.49325527 434.41360052 -189.0546875 461.046875 C-189.18498242 461.80757294 -189.31527734 462.56827087 -189.44952059 463.35202026 C-191.19342522 473.53442074 -192.93462172 483.71728363 -194.67510986 493.90026855 C-196.72615793 505.8998653 -198.77912119 517.89913455 -200.83307701 529.89823389 C-201.59790928 534.36670885 -202.36196401 538.83531582 -203.12536132 543.30403614 C-203.48266923 545.39506606 -203.8402889 547.48604237 -204.19804382 549.57699585 C-204.63255811 552.11667826 -205.06656587 554.6564474 -205.49996948 557.19631958 C-205.69172256 558.31614227 -205.88347565 559.43596497 -206.08103943 560.58972168 C-206.24671134 561.55907402 -206.41238325 562.52842636 -206.58307552 563.52715302 C-207.03892971 566.09246592 -207.54761304 568.64822147 -208.05859375 571.203125 C-260.52859375 571.203125 -312.99859375 571.203125 -367.05859375 571.203125 C-358.39979798 523.49428358 -358.39979798 523.49428358 -355.68505859 508.58154297 C-355.49803902 507.55419595 -355.31101945 506.52684894 -355.11833262 505.4683702 C-348.65937179 469.9955258 -342.12233151 434.53702288 -335.58721721 399.0781455 C-333.62171657 388.41322377 -331.65750646 377.74806445 -329.69337487 367.08289051 C-326.38192455 349.10185473 -323.069918 331.12092148 -319.75745177 313.14007282 C-312.39080731 273.15203582 -305.02795858 233.16330002 -297.66628361 193.17434788 C-295.50092599 181.41209791 -293.33530514 169.64989648 -291.16923672 157.88777739 C-289.68873688 149.8483398 -288.20854052 141.80884637 -286.72849983 133.76932424 C-285.84278119 128.9582939 -284.95687053 124.14729907 -284.07051659 119.33638573 C-280.57084038 100.34090051 -277.07871628 81.34415071 -273.6248455 62.34027648 C-273.15556473 59.75893089 -272.68579815 57.17767425 -272.21583557 54.59645271 C-271.98929307 53.3521204 -271.98929307 53.3521204 -271.75817394 52.08265007 C-271.4590306 50.43958172 -271.15986769 48.79651693 -270.86068439 47.15345585 C-270.00520133 42.45320614 -269.15336658 37.752314 -268.30438328 33.05088615 C-267.79226767 30.21918692 -267.27701437 27.38806547 -266.76088142 24.557096 C-266.41120072 22.63320246 -266.06558601 20.7085713 -265.72007751 18.7839241 C-265.51403397 17.65677364 -265.30799042 16.52962318 -265.09570312 15.36831665 C-264.82953186 13.89761939 -264.82953186 13.89761939 -264.5579834 12.39721107 C-264.05859375 10.203125 -264.05859375 10.203125 -263.05859375 9.203125 C-261.19831341 9.10662063 -259.33432346 9.08125208 -257.47154236 9.08287048 C-256.25852951 9.08149582 -255.04551666 9.08012115 -253.79574585 9.07870483 C-252.43926978 9.08224444 -251.08279395 9.08587925 -249.72631836 9.08959961 C-248.30746971 9.08988148 -246.88862091 9.08972376 -245.46977234 9.0891571 C-241.60630574 9.08886911 -237.74286992 9.0947661 -233.87941051 9.10173106 C-229.84616802 9.10796433 -225.8129249 9.10856838 -221.77967834 9.10975647 C-214.13693907 9.11286986 -206.49421402 9.12108336 -198.85148102 9.13110596 C-190.15271356 9.14226684 -181.45394544 9.14777748 -172.75517261 9.15280139 C-154.85630491 9.16326597 -136.95745047 9.18086557 -119.05859375 9.203125 C-119.37122867 11.2636915 -119.68510526 13.32406963 -119.99949646 15.3843689 C-120.17415153 16.53176229 -120.34880659 17.67915569 -120.52875423 18.86131859 C-121.23309918 23.30376653 -122.07698061 27.70918522 -122.96875 32.1171875 C-123.14111679 32.97951996 -123.31348358 33.84185242 -123.49107361 34.73031616 C-123.85016292 36.52345181 -124.21064398 38.31630931 -124.57250977 40.10888672 C-125.12692228 42.85701605 -125.67606413 45.60616289 -126.22460938 48.35546875 C-126.57651641 50.10943652 -126.92871891 51.86334505 -127.28125 53.6171875 C-127.52658226 54.84521591 -127.52658226 54.84521591 -127.77687073 56.09805298 C-128.40523765 59.20090169 -129.05638336 62.19649383 -130.05859375 65.203125 C-122.9701776 59.45924752 -122.9701776 59.45924752 -115.99609375 53.578125 C-83.53023926 25.61045897 -44.34834685 0.27203422 0 0 Z M-111.05859375 136.203125 C-138.14150033 165.79809676 -150.16918466 207.85981478 -149.19921875 247.16162109 C-148.2823443 266.99221466 -142.93126183 287.23183074 -128.05859375 301.203125 C-118.02802404 309.29229412 -104.8067699 311.0543968 -92.28515625 309.8359375 C-78.36776652 307.51158994 -67.86940187 301.1661698 -58.05859375 291.203125 C-57.3728125 290.51605469 -56.68703125 289.82898438 -55.98046875 289.12109375 C-35.26850974 267.14521599 -26.08489688 236.05218356 -20.05859375 207.203125 C-19.68734375 205.49769531 -19.68734375 205.49769531 -19.30859375 203.7578125 C-15.34475559 181.79154268 -15.4514866 154.4647631 -28.05859375 135.203125 C-36.37675211 123.99516498 -46.57940581 117.82790294 -60.30859375 115.69921875 C-80.48184362 113.56031391 -97.15637602 122.15161564 -111.05859375 136.203125 Z " fill="#00ACAD" transform="translate(3551.05859375,172.796875)"/>
<path d="M0 0 C0.64340332 0.20995605 1.28680664 0.41991211 1.94970703 0.63623047 C16.14994261 5.35593223 28.75305674 11.99634128 40 22 C40.75796875 22.66386719 41.5159375 23.32773438 42.296875 24.01171875 C59.54254257 40.09776385 68.17275456 64.83731447 69.12426758 88.02880859 C69.20731385 91.51983729 69.23493222 95.00804156 69.25 98.5 C69.2809375 100.19962891 69.2809375 100.19962891 69.3125 101.93359375 C69.41012732 124.41228361 64.83506339 146.72530319 60.8242259 168.75744915 C60.11317188 172.67219388 59.41053806 176.58845295 58.70645142 180.50445557 C56.98309314 190.07790566 55.24481687 199.64862494 53.50522041 209.21913528 C52.64617253 213.94755854 51.78897351 218.67631698 50.93151855 223.4050293 C46.33848822 248.7284765 41.71947329 274.0471376 37.09028459 299.36399698 C35.54240314 307.83079323 33.99808251 316.29823644 32.45442712 324.76580405 C30.93867396 333.0794836 29.42058529 341.39273446 27.9006716 349.70565438 C27.0045636 354.60696214 26.10933706 359.50842639 25.21650314 364.41033173 C24.38674113 368.9654981 23.55405113 373.5201198 22.71915817 378.07434845 C22.41619385 379.72969152 22.11423787 381.38521954 21.81342316 383.04095459 C21.39979266 385.31670964 20.98235224 387.59173666 20.5640564 389.86663818 C20.21743989 391.76388453 20.21743989 391.76388453 19.86382103 393.69945908 C18.70017807 399.49266625 17.32867643 405.24240212 16 411 C-36.47 411 -88.94 411 -143 411 C-130.38160603 339.87814309 -130.38160603 339.87814309 -125.09458613 311.06789207 C-124.31591518 306.82163324 -123.53972374 302.5749211 -122.76332092 298.32824707 C-120.32453386 284.99112949 -117.88222945 271.65465674 -115.43817288 258.31850386 C-113.80435184 249.40334329 -112.1720959 240.48789929 -110.542759 231.57191801 C-109.63149939 226.58605842 -108.71784049 221.60064707 -107.80221641 216.61558723 C-107.23662717 213.53308875 -106.67332477 210.45017549 -106.11063004 207.36714745 C-105.85279196 205.95697558 -105.59404768 204.54696901 -105.33425713 203.13715553 C-98.83127038 168.42100509 -98.83127038 168.42100509 -109.56640625 135.60546875 C-115.85960975 127.11597947 -122.85405926 121.18091676 -133.203125 118.41015625 C-150.56310666 115.86434888 -166.27324043 119.04829317 -180.8515625 128.93359375 C-197.75071591 141.90547912 -207.02905116 161.27507046 -213.75 181 C-214.09039307 181.98693848 -214.43078613 182.97387695 -214.78149414 183.99072266 C-222.09455446 206.56467515 -225.68179804 230.42178915 -229.82992816 253.74266911 C-230.54453167 257.75291172 -231.2657237 261.76197019 -231.98609924 265.7711792 C-233.34908503 273.36224765 -234.70645325 280.95430863 -236.06165129 288.54677081 C-237.57935606 297.04814757 -239.10328937 305.54840371 -240.62781417 314.04855967 C-243.029887 327.44214088 -245.42783557 340.836452 -247.82202148 354.23144531 C-251.20670612 373.15572495 -254.60370771 392.07780012 -258 411 C-310.47 411 -362.94 411 -417 411 C-415.65799165 401.60594153 -414.21426756 392.31588861 -412.46679688 383.00048828 C-412.21528702 381.64786054 -411.96403936 380.29518403 -411.713027 378.94246387 C-411.17119579 376.02563676 -410.62753213 373.10915949 -410.08241081 370.19294548 C-409.19226857 365.43089753 -408.30633304 360.66807196 -407.42079163 355.90516663 C-406.12911309 348.96016638 -404.83549862 342.01552917 -403.54055786 335.07113647 C-400.40487623 318.25472263 -397.27807559 301.43665593 -394.15069771 284.61869621 C-393.41865494 280.68208163 -392.68646219 276.74549498 -391.95414543 272.80893135 C-386.16727681 241.70093176 -380.40536003 210.58837661 -374.66015625 179.47265625 C-374.27364128 177.37948833 -373.88712471 175.28632071 -373.50060654 173.19315338 C-369.94067482 153.91390731 -366.38245863 134.63434499 -362.82663733 115.35434037 C-361.42429731 107.75104511 -360.02111324 100.14790587 -358.61738008 92.54486769 C-357.81047177 88.17414605 -357.00396996 83.80335053 -356.1986866 79.43232918 C-356.04690628 78.60869489 -355.89512595 77.78506061 -355.73874623 76.93646771 C-355.46464624 75.4488878 -355.19066588 73.96128584 -354.91687006 72.47364992 C-350.70718074 49.62992836 -346.34646839 26.81895903 -342 4 C-293.49 4 -244.98 4 -195 4 C-196.20195174 12.41366215 -197.42204947 20.75547017 -198.9453125 29.10546875 C-199.2074202 30.56331535 -199.2074202 30.56331535 -199.474823 32.0506134 C-200.21010377 36.1399716 -200.95121981 40.2282663 -201.69189453 44.31665039 C-202.23679339 47.32921676 -202.77864243 50.34232046 -203.3203125 53.35546875 C-203.57338669 54.74284492 -203.57338669 54.74284492 -203.83157349 56.1582489 C-204.06213943 57.44152824 -204.06213943 57.44152824 -204.29736328 58.75073242 C-204.50149338 59.87652962 -204.50149338 59.87652962 -204.70974731 61.02507019 C-205.07270331 63.16199518 -205.07270331 63.16199518 -205 66 C-204.48203857 65.47156494 -203.96407715 64.94312988 -203.43041992 64.39868164 C-184.33269451 44.96609433 -184.33269451 44.96609433 -175 38 C-174.43893555 37.57315918 -173.87787109 37.14631836 -173.29980469 36.70654297 C-164.84874428 30.28185206 -156.2411612 24.25021433 -147 19 C-146.31486328 18.6095752 -145.62972656 18.21915039 -144.92382812 17.81689453 C-122.48411506 5.18098751 -98.63679626 -2.99623368 -73 -6 C-72.11570312 -6.11085937 -71.23140625 -6.22171875 -70.3203125 -6.3359375 C-47.04968082 -8.77506887 -22.2991488 -7.33361081 0 0 Z " fill="#00ACAD" transform="translate(1342,178)"/>
<path d="M0 0 C27.98187798 26.11641945 43.19059433 65.80043449 44.7109375 103.52783203 C45.81875903 136.46148653 42.95847969 170.26330781 35.53076172 202.42871094 C34.53076172 203.42871094 34.53076172 203.42871094 32.54066271 203.55290943 C31.6570535 203.55252971 30.77344429 203.55214999 29.86305904 203.55175877 C28.84739988 203.55374981 27.83174072 203.55574086 26.78530401 203.55779225 C25.6559509 203.5548794 24.52659778 203.55196656 23.36302185 203.54896545 C21.57926961 203.55024709 21.57926961 203.55024709 19.75948197 203.55155462 C16.44386157 203.55292281 13.12829947 203.54977532 9.81268609 203.54477656 C6.24279981 203.54047539 2.67291548 203.54191824 -0.89697266 203.54267883 C-7.08698012 203.54320428 -13.27697707 203.54005532 -19.46698189 203.53444099 C-28.41679165 203.5263288 -37.3665963 203.52371106 -46.31640934 203.522453 C-60.83537278 203.52026204 -75.35433062 203.51360076 -89.87329102 203.50415039 C-103.9807126 203.49497741 -118.08813267 203.48789602 -132.19555664 203.48364258 C-133.06450963 203.48337985 -133.93346262 203.48311713 -134.82874752 203.48284645 C-139.18784161 203.48154145 -143.54693571 203.48027773 -147.90602982 203.47903454 C-184.09376993 203.46866055 -220.28150367 203.45104104 -256.46923828 203.42871094 C-256.48794073 206.43394865 -256.50150768 209.43906761 -256.51220703 212.44433594 C-256.51796753 213.28561035 -256.52372803 214.12688477 -256.52966309 214.99365234 C-256.57471233 231.91578569 -253.42374342 248.39491117 -243.46923828 262.42871094 C-243.03095703 263.06164062 -242.59267578 263.69457031 -242.14111328 264.34667969 C-237.95542318 269.79529353 -232.38752132 273.08613136 -226.46923828 276.42871094 C-225.76025391 276.8321875 -225.05126953 277.23566406 -224.32080078 277.65136719 C-208.56152702 285.59138443 -187.95202676 285.26448534 -171.46923828 280.42871094 C-165.97658747 278.46877827 -161.18185442 275.88462944 -156.46923828 272.42871094 C-155.49986328 271.72746094 -154.53048828 271.02621094 -153.53173828 270.30371094 C-146.22457578 264.04587987 -141.95473531 254.65212215 -137.46923828 246.42871094 C-85.32923828 246.42871094 -33.18923828 246.42871094 20.53076172 246.42871094 C19.40343992 253.19264172 19.40343992 253.19264172 17.99951172 256.38964844 C17.68836426 257.10024414 17.3772168 257.81083984 17.05664062 258.54296875 C16.71810059 259.28901367 16.37956055 260.03505859 16.03076172 260.80371094 C15.49781494 261.98465332 15.49781494 261.98465332 14.95410156 263.18945312 C0.23067326 295.2326716 -22.81586512 321.99083516 -51.46923828 342.42871094 C-52.06462402 342.86344727 -52.66000977 343.29818359 -53.2734375 343.74609375 C-108.19346082 383.67944026 -181.49710079 394.34803479 -247.46923828 384.42871094 C-298.49465599 376.21497268 -351.97364946 354.55938814 -383.41064453 311.47558594 C-386.20680645 307.52986461 -388.85616733 303.49720414 -391.46923828 299.42871094 C-392.11634766 298.44515625 -392.76345703 297.46160156 -393.43017578 296.44824219 C-402.27770167 282.25617011 -407.79640031 265.67532464 -411.46923828 249.42871094 C-411.63294922 248.72536621 -411.79666016 248.02202148 -411.96533203 247.29736328 C-417.41173339 222.65914886 -416.17655145 194.06535539 -411.46923828 169.42871094 C-411.27587891 168.39198242 -411.08251953 167.35525391 -410.88330078 166.28710938 C-406.32064852 142.46696648 -399.18841158 119.22021824 -388.46923828 97.42871094 C-387.92710693 96.30988525 -387.92710693 96.30988525 -387.37402344 95.16845703 C-363.71859727 46.78929512 -324.74098701 8.64108022 -277.46923828 -16.57128906 C-276.82905762 -16.91401855 -276.18887695 -17.25674805 -275.52929688 -17.60986328 C-200.67724528 -57.30672436 -91.35875453 -66.81672043 0 0 Z M-219.46923828 80.42871094 C-229.30671884 92.66088288 -241.46923828 110.2408131 -241.46923828 126.42871094 C-198.56923828 126.42871094 -155.66923828 126.42871094 -111.46923828 126.42871094 C-104.24416842 111.97857122 -102.8676319 95.50293057 -107.09423828 79.74121094 C-107.82814409 77.61620841 -108.61831819 75.50962143 -109.46923828 73.42871094 C-110.10539062 71.86443359 -110.10539062 71.86443359 -110.75439453 70.26855469 C-115.80282391 59.14513509 -123.41534774 50.39180181 -134.66455078 45.46777344 C-165.874104 34.24057443 -199.97236887 58.0828481 -219.46923828 80.42871094 Z " fill="#00ACAD" transform="translate(4113.46923828125,221.5712890625)"/>
<path d="M0 0 C31.85808127 30.02485512 44.87585365 73.04162988 46.78076172 115.73974609 C48.07897436 159.74853331 39.14883799 203.6146491 19.8828125 243.19921875 C19.52461426 243.93624023 19.16641602 244.67326172 18.79736328 245.43261719 C9.208501 264.89120546 -3.3388722 282.97239738 -18.02734375 298.92578125 C-19.97590165 301.04552087 -21.86476083 303.20405344 -23.7421875 305.38671875 C-29.39422737 311.85732991 -35.53974582 317.67961403 -42.1171875 323.19921875 C-42.61154297 323.61800293 -43.10589844 324.03678711 -43.61523438 324.46826172 C-76.0528707 351.78568851 -114.86592431 369.89170054 -156.3046875 378.44921875 C-157.02664307 378.60036133 -157.74859863 378.75150391 -158.49243164 378.90722656 C-173.33364048 381.78611239 -188.22549862 382.57789794 -203.3046875 382.51171875 C-204.15236694 382.51022827 -205.00004639 382.50873779 -205.87341309 382.50720215 C-219.48663433 382.46435104 -232.7089313 381.69277822 -246.1171875 379.19921875 C-247.32713379 378.99039063 -247.32713379 378.99039063 -248.56152344 378.77734375 C-274.0678285 374.33610079 -300.36434348 364.96747072 -321.1171875 349.19921875 C-321.96925781 348.5546875 -322.82132813 347.91015625 -323.69921875 347.24609375 C-360.03823357 318.88938172 -380.49170484 279.97597963 -387.4296875 234.69921875 C-387.70209179 232.19422264 -387.93396279 229.71037377 -388.1171875 227.19921875 C-388.18276855 226.33490234 -388.24834961 225.47058594 -388.31591797 224.58007812 C-392.92984747 158.94499472 -370.97522031 91.99615928 -327.76953125 42.22265625 C-326.88612109 41.21422622 -326.00203962 40.20638376 -325.1171875 39.19921875 C-324.35535156 38.32523437 -323.59351563 37.45125 -322.80859375 36.55078125 C-313.96398345 26.55526801 -304.625168 17.43286922 -294.1171875 9.19921875 C-292.67472656 8.03132813 -292.67472656 8.03132813 -291.203125 6.83984375 C-220.83276885 -49.10013557 -106.23638589 -67.38248017 0 0 Z M-189.8046875 78.296875 C-224.71400824 120.62061866 -242.1907247 185.50268624 -237.91503906 239.76464844 C-236.43557907 252.208861 -231.20165717 264.55320201 -221.3828125 272.625 C-212.6400438 278.7485508 -201.68737987 280.37117322 -191.31640625 278.765625 C-172.57597835 274.85225419 -158.34610088 260.72524799 -148.1171875 245.19921875 C-121.70052348 203.70782798 -101.16090751 144.01652535 -110.3671875 94.32421875 C-113.16728091 81.7886154 -117.93402411 70.99913364 -128.83984375 63.484375 C-150.61643494 51.19535527 -174.57533616 60.43375444 -189.8046875 78.296875 Z " fill="#00ACAD" transform="translate(911.1171875,217.80078125)"/>
<path d="M0 0 C5.90573509 3.99786178 13.0655991 9.38119819 16.3125 15.875 C16.6425 8.945 16.9725 2.015 17.3125 -5.125 C23.5825 -5.125 29.8525 -5.125 36.3125 -5.125 C36.4053639 11.60034646 36.47661492 28.32558545 36.51974869 45.05112743 C36.5403148 52.81827293 36.56832047 60.58525462 36.61425781 68.35229492 C36.65430904 75.12738628 36.67997599 81.90235893 36.68885398 88.6775654 C36.69403806 92.26020634 36.70609563 95.84250787 36.73542023 99.42503929 C36.76800287 103.43870033 36.76844781 107.45178306 36.76660156 111.46557617 C36.78098267 112.63443359 36.79536377 113.80329102 36.81018066 115.00756836 C36.73836681 129.52679157 31.76650644 141.9118219 22.3125 152.875 C8.02357009 165.10280388 -7.99720791 169.47397075 -26.5625 169.3125 C-28.40122681 169.30114014 -28.40122681 169.30114014 -30.27709961 169.28955078 C-48.37615349 168.96054257 -61.89644971 163.73452192 -75.27734375 151.4375 C-77.83659862 148.716477 -79.70967461 146.03217834 -81.6875 142.875 C-80.18400623 139.20713607 -78.05021208 137.18589607 -75.0625 134.625 C-74.24523438 133.91859375 -73.42796875 133.2121875 -72.5859375 132.484375 C-71.64621094 131.68773437 -71.64621094 131.68773437 -70.6875 130.875 C-67.30415449 132.00278184 -66.71049061 132.83859887 -64.5625 135.5625 C-56.14560469 145.4263249 -44.6941764 149.97338195 -32.046875 151.62109375 C-19.84825489 152.54308248 -7.09114242 150.56138188 2.56640625 142.5703125 C10.43082546 134.93461241 14.04018359 126.39705255 14.39038086 115.43774414 C14.41050448 112.77024666 14.39996529 110.10494539 14.375 107.4375 C14.37048828 106.51517578 14.36597656 105.59285156 14.36132812 104.64257812 C14.34963938 102.38664952 14.33325455 100.13086033 14.3125 97.875 C13.66087891 98.68843872 13.66087891 98.68843872 12.99609375 99.51831055 C4.57413058 109.88877616 -7.30990709 117.22821425 -20.6875 118.875 C-36.50830103 119.95627777 -51.04371382 116.52490311 -63.39233398 106.18652344 C-75.72738694 95.21770087 -82.89366378 80.23696072 -84.6875 63.875 C-85.83758656 42.97438848 -80.7014952 24.51111093 -67.07519531 8.35595703 C-50.04571841 -9.81800618 -20.86779342 -12.31112499 0 0 Z M-53.5078125 27.07421875 C-57.42110372 32.55085997 -59.71995908 38.46787957 -61.6875 44.875 C-61.88085938 45.49890625 -62.07421875 46.1228125 -62.2734375 46.765625 C-64.62458006 58.74314368 -62.3951544 71.36583928 -55.9375 81.6875 C-49.13687246 90.92417323 -40.39823172 98.79107869 -28.6875 100.875 C-16.02917941 101.93420104 -5.53444893 98.99378239 4.3125 90.875 C11.48852398 84.10113499 15.28540121 78.10055857 15.69525146 68.10342407 C15.76505502 65.12973399 15.77533687 62.15896325 15.75854492 59.18457031 C15.75001833 56.87995476 15.77888261 54.57781025 15.81054688 52.2734375 C15.87183077 39.94468725 13.24290758 33.32361459 4.66796875 24.203125 C-3.57057396 16.06022043 -11.91219942 11.52434929 -23.6875 11.375 C-36.84757139 11.58745644 -45.19136694 17.02666757 -53.5078125 27.07421875 Z " fill="#616062" transform="translate(1684.6875,986.125)"/>
<path d="M0 0 C89.40422078 0 89.40422078 0 104.625 14 C116.14446261 26.13219998 120.51656517 40.09088022 120.42236328 56.51391602 C120.2116385 63.84589888 118.92748235 70.2365063 116 77 C115.59910156 77.93972656 115.19820312 78.87945313 114.78515625 79.84765625 C109.00783313 91.75396563 99.37539034 100.40525611 87 105 C79.87460713 107.24295876 73.18391549 107.25924176 65.75 107.1953125 C64.63753906 107.19329834 63.52507813 107.19128418 62.37890625 107.18920898 C58.25256178 107.17880313 54.12627643 107.15088084 50 107.125 C40.76 107.08375 31.52 107.0425 22 107 C22 126.8 22 146.6 22 167 C14.74 167 7.48 167 0 167 C0 111.89 0 56.78 0 0 Z M22 20 C22 42.11 22 64.22 22 87 C30.91 87.0825 39.82 87.165 49 87.25 C51.79855469 87.28641602 54.59710937 87.32283203 57.48046875 87.36035156 C59.71613804 87.37204175 61.95181589 87.38223279 64.1875 87.390625 C65.90743164 87.4213208 65.90743164 87.4213208 67.66210938 87.45263672 C76.06733599 87.4562785 82.47803818 86.05311605 88.6875 79.9375 C96.43644575 71.74525072 98.37871923 61.52295737 98.27734375 50.67578125 C97.50486283 40.43768903 92.62461819 31.98332354 85.0625 25.1875 C77.60409606 19.86006861 71.70110509 19.58272481 62.72265625 19.70703125 C61.17040344 19.71156311 61.17040344 19.71156311 59.58679199 19.71618652 C55.74525893 19.73180537 51.90386876 19.77368904 48.0625 19.8125 C39.461875 19.874375 30.86125 19.93625 22 20 Z " fill="#616062" transform="translate(2563,937)"/>
<path d="M0 0 C7.26 0 14.52 0 22 0 C22.01458252 2.85462891 22.02916504 5.70925781 22.04418945 8.65039062 C22.09478322 18.13793081 22.16142029 27.62531112 22.23571491 37.11269379 C22.28022629 42.8584805 22.31952364 48.60419943 22.34643555 54.35009766 C22.37266183 59.90697771 22.41319738 65.46359418 22.46318626 71.02030945 C22.4797254 73.12827751 22.49131954 75.23629103 22.49761391 77.34431458 C22.56470049 97.76812874 23.67676292 118.92119106 38 135 C49.09585117 144.73221963 61.52244878 147.74243852 76 147 C88.01838987 145.8266565 97.90676994 141.05599349 106 132 C119.35468503 113.5779246 119.28440238 91.31380988 119.4140625 69.53125 C119.43282012 67.51386769 119.45239675 65.49649284 119.4727478 63.47912598 C119.52359052 58.22520394 119.56346909 52.97125659 119.60089111 47.71722412 C119.64123466 42.33355702 119.69218687 36.94999079 119.7421875 31.56640625 C119.83837841 21.04433543 119.92197774 10.52222124 120 0 C127.26 0 134.52 0 142 0 C142.04542723 11.70170521 142.08201679 23.40335056 142.10362434 35.10512447 C142.11400187 40.5404129 142.12804906 45.97563716 142.15087891 51.41088867 C142.17282468 56.66937949 142.1846138 61.92780911 142.18975449 67.18634224 C142.19341165 69.17909265 142.20055137 71.17184023 142.21146011 73.16456413 C142.36061458 101.57574441 139.34438828 129.47685585 119.0546875 151.0703125 C105.44254505 164.28062049 86.73730664 168.38270085 68.30078125 168.1484375 C48.68816203 167.26644989 32.03670461 161.18713913 18.3515625 146.78515625 C1.16911491 126.4345165 -0.48625856 101.09707138 -0.29296875 75.68359375 C-0.28735889 73.48828932 -0.28309539 71.29298107 -0.28010559 69.09767151 C-0.26876612 63.37835942 -0.23939539 57.65928357 -0.20599365 51.94006348 C-0.17505505 46.08051751 -0.1615499 40.22093259 -0.14648438 34.36132812 C-0.11451305 22.90743271 -0.06183687 11.45377315 0 0 Z " fill="#616062" transform="translate(538,937)"/>
<path d="M0 0 C3.57246448 2.78898606 6.82020814 5.77387237 10 9 C10.57363281 9.56332031 11.14726562 10.12664063 11.73828125 10.70703125 C22.30043528 21.92420258 26.15464213 37.90572572 26.125 52.875 C26.12886719 54.85113281 26.12886719 54.85113281 26.1328125 56.8671875 C26 60 26 60 25 61 C21.8949275 61.09533653 18.81213542 61.12551126 15.70678711 61.11352539 C14.73128403 61.11367142 13.75578094 61.11381744 12.75071716 61.1139679 C9.50957047 61.11326833 6.26848046 61.10547391 3.02734375 61.09765625 C0.78674857 61.09579222 -1.45384702 61.09436825 -3.69444275 61.09336853 C-9.6045951 61.08954213 -15.51472305 61.0797108 -21.42486572 61.06866455 C-27.45055817 61.05845306 -33.47625453 61.05387147 -39.50195312 61.04882812 C-51.33464616 61.03808864 -63.16732106 61.02101076 -75 61 C-74.40916721 63.37770021 -73.80739671 65.75173101 -73.19921875 68.125 C-73.03514526 68.79015625 -72.87107178 69.4553125 -72.70202637 70.140625 C-69.97908217 80.65860118 -64.16199138 88.22259306 -55 94 C-45.33731768 99.58250374 -34.73910965 100.6638135 -23.8203125 98.31640625 C-13.40492782 94.7610129 -6.43579817 89.59258501 -1 80 C1.79239973 80.64279009 4.58390584 81.28908665 7.375 81.9375 C8.56609375 82.21110352 8.56609375 82.21110352 9.78125 82.49023438 C10.54179687 82.66748047 11.30234375 82.84472656 12.0859375 83.02734375 C13.1385376 83.27085571 13.1385376 83.27085571 14.21240234 83.51928711 C16 84 16 84 18 85 C14.48807271 97.05586981 4.91794723 104.46871574 -5.62109375 110.5 C-21.44939776 118.40239249 -40.24163325 119.25095492 -57 114 C-73.16551533 107.44360001 -85.75811129 97.23075514 -92.875 81 C-93.61633322 79.01199568 -94.32587871 77.0117894 -95 75 C-95.31839844 74.09121094 -95.63679688 73.18242188 -95.96484375 72.24609375 C-101.039463 55.43203273 -98.62760696 36.74769694 -90.875 21.1875 C-82.32146406 6.55787933 -69.81097143 -3.49352312 -53.62109375 -8.34375 C-52.75613281 -8.5603125 -51.89117188 -8.776875 -51 -9 C-50.27039062 -9.19078125 -49.54078125 -9.3815625 -48.7890625 -9.578125 C-31.29817392 -12.22380563 -14.89632868 -9.68167911 0 0 Z M-66.40234375 19.8984375 C-72.44914683 27.85242297 -74.19684025 35.08262139 -76 45 C-49.27 45 -22.54 45 5 45 C3.89665447 33.96654473 1.04871724 24.86579185 -7 17 C-25.40121658 2.26627026 -49.6595533 1.92863404 -66.40234375 19.8984375 Z " fill="#616062" transform="translate(3052,989)"/>
<path d="M0 0 C3.57246448 2.78898606 6.82020814 5.77387237 10 9 C10.57363281 9.56332031 11.14726562 10.12664063 11.73828125 10.70703125 C22.30043528 21.92420258 26.15464213 37.90572572 26.125 52.875 C26.12886719 54.85113281 26.12886719 54.85113281 26.1328125 56.8671875 C26 60 26 60 25 61 C21.8949275 61.09533653 18.81213542 61.12551126 15.70678711 61.11352539 C14.73128403 61.11367142 13.75578094 61.11381744 12.75071716 61.1139679 C9.50957047 61.11326833 6.26848046 61.10547391 3.02734375 61.09765625 C0.78674857 61.09579222 -1.45384702 61.09436825 -3.69444275 61.09336853 C-9.6045951 61.08954213 -15.51472305 61.0797108 -21.42486572 61.06866455 C-27.45055817 61.05845306 -33.47625453 61.05387147 -39.50195312 61.04882812 C-51.33464616 61.03808864 -63.16732106 61.02101076 -75 61 C-74.40916721 63.37770021 -73.80739671 65.75173101 -73.19921875 68.125 C-73.03514526 68.79015625 -72.87107178 69.4553125 -72.70202637 70.140625 C-69.97908217 80.65860118 -64.16199138 88.22259306 -55 94 C-45.33731768 99.58250374 -34.73910965 100.6638135 -23.8203125 98.31640625 C-13.40492782 94.7610129 -6.43579817 89.59258501 -1 80 C1.79239973 80.64279009 4.58390584 81.28908665 7.375 81.9375 C8.56609375 82.21110352 8.56609375 82.21110352 9.78125 82.49023438 C10.54179687 82.66748047 11.30234375 82.84472656 12.0859375 83.02734375 C13.1385376 83.27085571 13.1385376 83.27085571 14.21240234 83.51928711 C16 84 16 84 18 85 C14.48807271 97.05586981 4.91794723 104.46871574 -5.62109375 110.5 C-21.44939776 118.40239249 -40.24163325 119.25095492 -57 114 C-73.16551533 107.44360001 -85.75811129 97.23075514 -92.875 81 C-93.61633322 79.01199568 -94.32587871 77.0117894 -95 75 C-95.31839844 74.09121094 -95.63679688 73.18242188 -95.96484375 72.24609375 C-101.039463 55.43203273 -98.62760696 36.74769694 -90.875 21.1875 C-82.32146406 6.55787933 -69.81097143 -3.49352312 -53.62109375 -8.34375 C-52.75613281 -8.5603125 -51.89117188 -8.776875 -51 -9 C-50.27039062 -9.19078125 -49.54078125 -9.3815625 -48.7890625 -9.578125 C-31.29817392 -12.22380563 -14.89632868 -9.68167911 0 0 Z M-66.40234375 19.8984375 C-72.44914683 27.85242297 -74.19684025 35.08262139 -76 45 C-49.27 45 -22.54 45 5 45 C3.89665447 33.96654473 1.04871724 24.86579185 -7 17 C-25.40121658 2.26627026 -49.6595533 1.92863404 -66.40234375 19.8984375 Z " fill="#616062" transform="translate(2245,989)"/>
<path d="M0 0 C6.93 0 13.86 0 21 0 C21.33 36.3 21.66 72.6 22 110 C41.13349987 91.15013995 41.13349987 91.15013995 58.80053711 71.70507812 C78.30238587 48.84184976 78.30238587 48.84184976 89.04296875 47.3046875 C94.80280078 47.10678106 100.38727548 47.7066397 106 49 C104.57925676 52.245613 102.86237319 54.3626159 100.33203125 56.828125 C99.60306641 57.54613281 98.87410156 58.26414062 98.12304688 59.00390625 C97.36056641 59.74511719 96.59808594 60.48632812 95.8125 61.25 C89.49741699 67.41328595 89.49741699 67.41328595 83.5625 73.9375 C78.59102495 79.7274278 73.04732461 84.96108013 67.58789062 90.28515625 C66.3590918 91.49751953 66.3590918 91.49751953 65.10546875 92.734375 C64.36449951 93.45850586 63.62353027 94.18263672 62.86010742 94.92871094 C61.10154693 96.88692425 60.03154968 98.59474459 59 101 C60.07314453 102.40185547 60.07314453 102.40185547 61.16796875 103.83203125 C66.81463516 111.25862512 72.27654545 118.76900313 77.5 126.5 C81.54861977 132.48850803 85.69139747 138.36732642 90.0625 144.125 C94.36608586 149.80202483 98.60375792 155.51922195 102.75 161.3125 C103.27601807 162.03646973 103.80203613 162.76043945 104.34399414 163.50634766 C104.82344482 164.18101074 105.30289551 164.85567383 105.796875 165.55078125 C106.43641113 166.44277222 106.43641113 166.44277222 107.08886719 167.3527832 C108 169 108 169 108 172 C100.40336581 173.20233798 92.48564039 174.18195968 85 172 C79.495565 167.9792066 76.58456441 161.54625812 73.46826172 155.64257812 C71.14344507 151.45837203 68.30312493 147.69977514 65.4375 143.875 C64.36192884 142.40297757 63.2890017 140.92901953 62.21875 139.453125 C61.69023438 138.72544922 61.16171875 137.99777344 60.6171875 137.24804688 C58.94459603 134.92298312 57.29680898 132.58213755 55.65625 130.234375 C55.11556885 129.46109863 54.5748877 128.68782227 54.01782227 127.89111328 C52.99407412 126.42310304 51.97351905 124.95285877 50.95678711 123.47998047 C48.53346114 120.00768906 46.13854487 116.88007647 43 114 C40.4361832 116.39442739 37.87418756 118.79079493 35.3125 121.1875 C34.2306543 122.19780273 34.2306543 122.19780273 33.12695312 123.22851562 C32.42119141 123.88916016 31.71542969 124.54980469 30.98828125 125.23046875 C30.34415283 125.83270264 29.70002441 126.43493652 29.03637695 127.05541992 C28.36437256 127.69713135 27.69236816 128.33884277 27 129 C26.10732422 129.72123047 25.21464844 130.44246094 24.29492188 131.18554688 C21.13666811 135.05877554 21.26923772 137.94072084 21.29296875 142.80078125 C21.27784744 143.63715622 21.26272614 144.47353119 21.24714661 145.33525085 C21.20431562 147.99460913 21.19543644 150.65283138 21.1875 153.3125 C21.16435199 155.12047281 21.13898601 156.92841868 21.11132812 158.73632812 C21.04436129 163.15816829 21.02335793 167.57685659 21 172 C14.07 172 7.14 172 0 172 C0 115.24 0 58.48 0 0 Z " fill="#616062" transform="translate(1251,932)"/>
<path d="M0 0 C3.57265638 2.78913588 6.81729641 5.77664144 10 9 C10.56203125 9.54011719 11.1240625 10.08023438 11.703125 10.63671875 C23.02367745 22.46371697 27.36739282 40.18978109 27.1484375 56.0859375 C26.25957717 73.53566931 19.33031594 89.79925205 6.5703125 101.8671875 C-7.71091092 113.71756438 -24.59325195 118.54976853 -43 117 C-58.49209029 114.84708774 -73.37797354 107.91824096 -83.21923828 95.45605469 C-95.4438134 78.93847057 -98.8183595 60.61980579 -96.609375 40.4296875 C-93.41955361 24.11252424 -84.38520207 10.04890123 -71.125 0.125 C-49.42881911 -14.10032615 -21.63864205 -14.06375983 0 0 Z M-64.6875 22.6875 C-73.8953322 33.68224027 -76.12022927 47.08115129 -75 61 C-72.48470167 73.83373806 -66.67748856 84.31220823 -56 92 C-46.37705411 97.68050551 -37.13952386 99.84509932 -25.984375 97.31640625 C-15.1023582 93.65360451 -6.27155561 86.29949376 -0.45703125 76.36328125 C6.05224497 62.98204186 6.20408412 50.07012025 2 36 C-2.29926388 24.5678665 -9.99163463 16.26261981 -21 11 C-37.23386065 4.45698968 -53.19091311 10.57148494 -64.6875 22.6875 Z " fill="#616062" transform="translate(2805,989)"/>
<path d="M0 0 C3.57265638 2.78913588 6.81729641 5.77664144 10 9 C10.56203125 9.54011719 11.1240625 10.08023438 11.703125 10.63671875 C23.02367745 22.46371697 27.36739282 40.18978109 27.1484375 56.0859375 C26.25957717 73.53566931 19.33031594 89.79925205 6.5703125 101.8671875 C-7.71091092 113.71756438 -24.59325195 118.54976853 -43 117 C-58.49209029 114.84708774 -73.37797354 107.91824096 -83.21923828 95.45605469 C-95.4438134 78.93847057 -98.8183595 60.61980579 -96.609375 40.4296875 C-93.41955361 24.11252424 -84.38520207 10.04890123 -71.125 0.125 C-49.42881911 -14.10032615 -21.63864205 -14.06375983 0 0 Z M-64.6875 22.6875 C-73.8953322 33.68224027 -76.12022927 47.08115129 -75 61 C-72.48470167 73.83373806 -66.67748856 84.31220823 -56 92 C-46.37705411 97.68050551 -37.13952386 99.84509932 -25.984375 97.31640625 C-15.1023582 93.65360451 -6.27155561 86.29949376 -0.45703125 76.36328125 C6.05224497 62.98204186 6.20408412 50.07012025 2 36 C-2.29926388 24.5678665 -9.99163463 16.26261981 -21 11 C-37.23386065 4.45698968 -53.19091311 10.57148494 -64.6875 22.6875 Z " fill="#616062" transform="translate(1044,989)"/>
<path d="M0 0 C1.4535791 0.00737183 1.4535791 0.00737183 2.93652344 0.01489258 C16.62216601 0.23870173 29.19054973 3.76848412 39.375 13.31640625 C49.58085215 24.55604084 51.78410075 38.55764011 51.65625 53.22265625 C51.66109144 54.60697905 51.66825901 55.99129543 51.6776123 57.37559509 C51.70264115 61.70882991 51.69748451 66.0417227 51.6875 70.375 C51.6759354 75.43416395 51.67710014 80.49264752 51.71156311 85.55172539 C51.71863048 87.56363068 51.70174496 89.57557425 51.68444824 91.5874176 C51.6912561 92.80646286 51.69806396 94.02550812 51.70507812 95.28149414 C51.70189575 96.35258926 51.69871338 97.42368439 51.69543457 98.52723694 C52.30763166 101.99248737 53.48386027 103.13709091 56.1875 105.3125 C56.8475 105.6425 57.5075 105.9725 58.1875 106.3125 C58.1875 112.5825 58.1875 118.8525 58.1875 125.3125 C55.83625 125.374375 53.485 125.43625 51.0625 125.5 C49.96977783 125.54096802 49.96977783 125.54096802 48.85498047 125.58276367 C43.33954153 125.65232372 39.79470062 124.19579242 35.38671875 121.01171875 C33.62215797 118.51144533 33.42037877 116.13232507 33 113.125 C32.84144531 112.03832031 32.68289062 110.95164062 32.51953125 109.83203125 C32.35517578 108.58486328 32.35517578 108.58486328 32.1875 107.3125 C31.77242187 107.7971875 31.35734375 108.281875 30.9296875 108.78125 C20.34447074 120.29654857 6.02819222 126.54393302 -9.48828125 127.47265625 C-22.50039957 127.8608258 -35.40019098 124.64089771 -45.125 115.625 C-52.36469153 107.78565725 -55.31472462 98.90618122 -55.8125 88.3125 C-55.21386003 78.95416898 -51.90067422 69.73355194 -44.8125 63.3125 C-27.50058534 50.32145731 -7.50020885 48.64747044 13.37109375 51.6015625 C19.14205604 52.67660358 24.64873629 54.38841008 30.1875 56.3125 C29.38817391 38.22033862 29.38817391 38.22033862 20.0390625 23.32421875 C11.07549106 16.91511221 0.87102019 16.27977693 -9.8125 17.3125 C-19.16702286 19.14590314 -29.49898968 23.0019027 -36.96484375 29.05859375 C-37.57457031 29.47238281 -38.18429688 29.88617187 -38.8125 30.3125 C-41.8125 29.3125 -41.8125 29.3125 -43.41796875 26.66015625 C-43.94003906 25.57605469 -44.46210938 24.49195313 -45 23.375 C-45.52980469 22.29347656 -46.05960938 21.21195313 -46.60546875 20.09765625 C-47.8125 17.3125 -47.8125 17.3125 -47.8125 15.3125 C-32.83441707 6.13899328 -17.81785132 -0.10690711 0 0 Z M-30.06640625 74.23828125 C-33.90322878 78.79611741 -35.38388528 83.18089693 -35.08984375 89.2734375 C-34.07364906 96.74461535 -30.73042489 101.71096392 -24.8125 106.3125 C-17.27357244 111.68161017 -7.67227465 111.32022638 1.1875 110.3125 C5.15703106 109.44765725 8.56915592 108.14435758 12.1875 106.3125 C13.07179688 105.86519531 13.95609375 105.41789062 14.8671875 104.95703125 C21.68563279 101.18361865 27.0681506 96.58341988 30.1875 89.3125 C30.46017924 86.99535568 30.46017924 86.99535568 30.3828125 84.546875 C30.37636719 83.65742187 30.36992187 82.76796875 30.36328125 81.8515625 C30.34652344 80.93117188 30.32976563 80.01078125 30.3125 79.0625 C30.30347656 78.12664062 30.29445313 77.19078125 30.28515625 76.2265625 C30.26163636 73.92161343 30.22876853 71.6171884 30.1875 69.3125 C27.98040017 68.66246375 25.77176108 68.01765255 23.5625 67.375 C22.33273438 67.01535156 21.10296875 66.65570312 19.8359375 66.28515625 C3.44839776 61.91631535 -17.36970854 61.63477031 -30.06640625 74.23828125 Z " fill="#616062" transform="translate(3471.8125,978.6875)"/>
<path d="M0 0 C9.17535676 7.14506505 12.8446403 18.1538853 14.50364685 29.33850098 C15.02827149 33.73028392 15.09495049 38.06381408 15.07446289 42.48242188 C15.07460892 43.32239716 15.07475494 44.16237244 15.0749054 45.02780151 C15.07421433 47.77637404 15.06646006 50.52487696 15.05859375 53.2734375 C15.0567267 55.19014448 15.05530415 57.10685194 15.05430603 59.02355957 C15.05050345 64.04749895 15.04069262 69.07140904 15.02960205 74.09533691 C15.01933919 79.23022058 15.014798 84.36510902 15.00976562 89.5 C14.99906817 99.55991072 14.98148984 109.61979208 14.9609375 119.6796875 C8.0309375 119.6796875 1.1009375 119.6796875 -6.0390625 119.6796875 C-6.0687915 116.42714111 -6.0687915 116.42714111 -6.09912109 113.10888672 C-6.16644758 105.89244365 -6.24407699 98.6761368 -6.32658958 91.45985222 C-6.37623945 87.09061647 -6.42256836 82.72140131 -6.4609375 78.35205078 C-6.49819072 74.12439653 -6.54465065 69.89692912 -6.59712601 65.66943741 C-6.61545991 64.06779428 -6.63064259 62.46611144 -6.64240646 60.86440659 C-6.48699072 39.09728034 -6.48699072 39.09728034 -15.2890625 19.8046875 C-20.29747998 15.93454672 -25.4963772 14.0976085 -31.9140625 14.3984375 C-42.50719577 15.80046984 -52.5110713 21.1516963 -60.0390625 28.6796875 C-65.5039612 36.31668124 -69.32779689 42.60639026 -69.35791016 52.13208008 C-69.36795578 52.864328 -69.3780014 53.59657593 -69.38835144 54.35101318 C-69.41911321 56.75874077 -69.43619883 59.16635752 -69.453125 61.57421875 C-69.47184231 63.24860076 -69.49141614 64.92297339 -69.5118103 66.59733582 C-69.56307811 70.99488796 -69.60273241 75.39247066 -69.63995361 79.79016113 C-69.68002686 84.28140795 -69.73110404 88.77252822 -69.78125 93.26367188 C-69.87794599 102.06893024 -69.96135345 110.87424108 -70.0390625 119.6796875 C-76.9690625 119.6796875 -83.8990625 119.6796875 -91.0390625 119.6796875 C-91.0390625 79.0896875 -91.0390625 38.4996875 -91.0390625 -3.3203125 C-84.7690625 -3.3203125 -78.4990625 -3.3203125 -72.0390625 -3.3203125 C-71.7090625 3.9396875 -71.3790625 11.1996875 -71.0390625 18.6796875 C-69.6159375 17.0090625 -68.1928125 15.3384375 -66.7265625 13.6171875 C-51.38673387 -3.57426179 -20.76253259 -13.44393872 0 0 Z " fill="#616062" transform="translate(3205.0390625,984.3203125)"/>
<path d="M0 0 C9.17535676 7.14506505 12.8446403 18.1538853 14.50364685 29.33850098 C15.02827149 33.73028392 15.09495049 38.06381408 15.07446289 42.48242188 C15.07460892 43.32239716 15.07475494 44.16237244 15.0749054 45.02780151 C15.07421433 47.77637404 15.06646006 50.52487696 15.05859375 53.2734375 C15.0567267 55.19014448 15.05530415 57.10685194 15.05430603 59.02355957 C15.05050345 64.04749895 15.04069262 69.07140904 15.02960205 74.09533691 C15.01933919 79.23022058 15.014798 84.36510902 15.00976562 89.5 C14.99906817 99.55991072 14.98148984 109.61979208 14.9609375 119.6796875 C8.0309375 119.6796875 1.1009375 119.6796875 -6.0390625 119.6796875 C-6.0687915 116.42714111 -6.0687915 116.42714111 -6.09912109 113.10888672 C-6.16644758 105.89244365 -6.24407699 98.6761368 -6.32658958 91.45985222 C-6.37623945 87.09061647 -6.42256836 82.72140131 -6.4609375 78.35205078 C-6.49819072 74.12439653 -6.54465065 69.89692912 -6.59712601 65.66943741 C-6.61545991 64.06779428 -6.63064259 62.46611144 -6.64240646 60.86440659 C-6.48699072 39.09728034 -6.48699072 39.09728034 -15.2890625 19.8046875 C-20.29747998 15.93454672 -25.4963772 14.0976085 -31.9140625 14.3984375 C-42.50719577 15.80046984 -52.5110713 21.1516963 -60.0390625 28.6796875 C-65.5039612 36.31668124 -69.32779689 42.60639026 -69.35791016 52.13208008 C-69.36795578 52.864328 -69.3780014 53.59657593 -69.38835144 54.35101318 C-69.41911321 56.75874077 -69.43619883 59.16635752 -69.453125 61.57421875 C-69.47184231 63.24860076 -69.49141614 64.92297339 -69.5118103 66.59733582 C-69.56307811 70.99488796 -69.60273241 75.39247066 -69.63995361 79.79016113 C-69.68002686 84.28140795 -69.73110404 88.77252822 -69.78125 93.26367188 C-69.87794599 102.06893024 -69.96135345 110.87424108 -70.0390625 119.6796875 C-76.9690625 119.6796875 -83.8990625 119.6796875 -91.0390625 119.6796875 C-91.0390625 79.0896875 -91.0390625 38.4996875 -91.0390625 -3.3203125 C-84.7690625 -3.3203125 -78.4990625 -3.3203125 -72.0390625 -3.3203125 C-71.7090625 3.9396875 -71.3790625 11.1996875 -71.0390625 18.6796875 C-69.6159375 17.0090625 -68.1928125 15.3384375 -66.7265625 13.6171875 C-51.38673387 -3.57426179 -20.76253259 -13.44393872 0 0 Z " fill="#616062" transform="translate(1548.0390625,984.3203125)"/>
<path d="M0 0 C9.17535676 7.14506505 12.8446403 18.1538853 14.50364685 29.33850098 C15.02827149 33.73028392 15.09495049 38.06381408 15.07446289 42.48242188 C15.07460892 43.32239716 15.07475494 44.16237244 15.0749054 45.02780151 C15.07421433 47.77637404 15.06646006 50.52487696 15.05859375 53.2734375 C15.0567267 55.19014448 15.05530415 57.10685194 15.05430603 59.02355957 C15.05050345 64.04749895 15.04069262 69.07140904 15.02960205 74.09533691 C15.01933919 79.23022058 15.014798 84.36510902 15.00976562 89.5 C14.99906817 99.55991072 14.98148984 109.61979208 14.9609375 119.6796875 C8.0309375 119.6796875 1.1009375 119.6796875 -6.0390625 119.6796875 C-6.0687915 116.42714111 -6.0687915 116.42714111 -6.09912109 113.10888672 C-6.16644758 105.89244365 -6.24407699 98.6761368 -6.32658958 91.45985222 C-6.37623945 87.09061647 -6.42256836 82.72140131 -6.4609375 78.35205078 C-6.49819072 74.12439653 -6.54465065 69.89692912 -6.59712601 65.66943741 C-6.61545991 64.06779428 -6.63064259 62.46611144 -6.64240646 60.86440659 C-6.48699072 39.09728034 -6.48699072 39.09728034 -15.2890625 19.8046875 C-20.29747998 15.93454672 -25.4963772 14.0976085 -31.9140625 14.3984375 C-42.50719577 15.80046984 -52.5110713 21.1516963 -60.0390625 28.6796875 C-65.5039612 36.31668124 -69.32779689 42.60639026 -69.35791016 52.13208008 C-69.36795578 52.864328 -69.3780014 53.59657593 -69.38835144 54.35101318 C-69.41911321 56.75874077 -69.43619883 59.16635752 -69.453125 61.57421875 C-69.47184231 63.24860076 -69.49141614 64.92297339 -69.5118103 66.59733582 C-69.56307811 70.99488796 -69.60273241 75.39247066 -69.63995361 79.79016113 C-69.68002686 84.28140795 -69.73110404 88.77252822 -69.78125 93.26367188 C-69.87794599 102.06893024 -69.96135345 110.87424108 -70.0390625 119.6796875 C-76.9690625 119.6796875 -83.8990625 119.6796875 -91.0390625 119.6796875 C-91.0390625 79.0896875 -91.0390625 38.4996875 -91.0390625 -3.3203125 C-84.7690625 -3.3203125 -78.4990625 -3.3203125 -72.0390625 -3.3203125 C-71.7090625 3.9396875 -71.3790625 11.1996875 -71.0390625 18.6796875 C-69.6159375 17.0090625 -68.1928125 15.3384375 -66.7265625 13.6171875 C-51.38673387 -3.57426179 -20.76253259 -13.44393872 0 0 Z " fill="#616062" transform="translate(816.0390625,984.3203125)"/>
<path d="M0 0 C5.81838134 4.78182937 10.35632492 10.40953061 13.63671875 17.22265625 C12.63671875 19.22265625 12.63671875 19.22265625 10.77905273 20.00048828 C9.98829346 20.24138184 9.19753418 20.48227539 8.3828125 20.73046875 C7.10180664 21.12685547 7.10180664 21.12685547 5.79492188 21.53125 C4.89708984 21.80066406 3.99925781 22.07007813 3.07421875 22.34765625 C2.17251953 22.62480469 1.27082031 22.90195312 0.34179688 23.1875 C-1.89122603 23.87276629 -4.12619321 24.550803 -6.36328125 25.22265625 C-11.16015625 20.52734375 -11.16015625 20.52734375 -12.98828125 17.78515625 C-18.4491075 11.89321214 -26.13007435 8.5365593 -34.05078125 7.94921875 C-45.40653252 7.57029762 -54.43827735 9.09259596 -63.67578125 16.28515625 C-72.72539333 24.97655452 -77.22699122 36.68830147 -77.76367188 49.03344727 C-77.99314026 61.79762607 -74.48816296 73.21080586 -66.36328125 83.22265625 C-58.60055856 91.21409001 -49.49807956 95.25749496 -38.36328125 95.72265625 C-28.46147414 95.33384183 -19.61372578 92.01775885 -12.36328125 85.22265625 C-10.08715814 82.64704326 -8.26891033 80.08109987 -6.36328125 77.22265625 C0.76318906 78.92288013 7.72013995 80.80185367 14.63671875 83.22265625 C12.29015207 92.60892297 5.22815788 99.6075489 -2.36328125 105.22265625 C-18.82685877 115.06525388 -37.14723701 117.82770055 -55.84765625 113.3203125 C-66.80073722 109.90051722 -75.40063822 104.40011878 -83.36328125 96.22265625 C-83.9975 95.62066406 -84.63171875 95.01867188 -85.28515625 94.3984375 C-96.96991385 82.48101879 -100.88020874 64.90904695 -100.78540039 48.79614258 C-100.28474568 31.36186822 -93.74808368 16.4537466 -81.36328125 4.22265625 C-80.821875 3.65933594 -80.28046875 3.09601562 -79.72265625 2.515625 C-58.67965561 -17.62401451 -22.31061783 -16.77905969 0 0 Z " fill="#616062" transform="translate(1200.36328125,990.77734375)"/>
<path d="M0 0 C0.69480469 0.5878125 1.38960937 1.175625 2.10546875 1.78125 C1.48153224 5.54244476 -0.2422684 7.97085042 -2.45703125 11.03125 C-3.09769531 11.92328125 -3.73835938 12.8153125 -4.3984375 13.734375 C-4.89214844 14.40984375 -5.38585938 15.0853125 -5.89453125 15.78125 C-9.21387157 15.16490717 -11.25610822 13.96288943 -13.95703125 11.96875 C-25.33632567 4.14430954 -38.41819479 2.62406341 -51.89453125 3.78125 C-57.50061647 4.91411941 -62.20328506 6.50786455 -66.01953125 10.90625 C-69.60856823 16.40944004 -69.62459687 21.28888076 -68.89453125 27.78125 C-62.85313286 37.44748742 -45.77287801 39.08948311 -35.34960938 41.77856445 C-4.6364419 49.73827788 -4.6364419 49.73827788 3.10546875 61.78125 C7.37207551 70.31446352 7.47819779 79.56293448 4.48046875 88.59375 C-0.0665328 99.43417931 -7.13098078 105.55051651 -17.9921875 110.0703125 C-23.54207385 112.02084146 -28.99517295 113.54644967 -34.89453125 113.78125 C-36.03277344 113.8328125 -37.17101563 113.884375 -38.34375 113.9375 C-57.88120424 114.39675456 -77.75225993 110.40056607 -93.89453125 98.78125 C-94.88453125 97.46125 -95.87453125 96.14125 -96.89453125 94.78125 C-93.92453125 90.16125 -90.95453125 85.54125 -87.89453125 80.78125 C-86.16203125 81.77125 -86.16203125 81.77125 -84.39453125 82.78125 C-82.56361606 83.78567056 -80.72986491 84.78492602 -78.89453125 85.78125 C-78.31541992 86.10254883 -77.73630859 86.42384766 -77.13964844 86.75488281 C-61.86841089 95.1647843 -46.17346664 99.63049961 -28.89453125 94.78125 C-23.19603366 92.88839241 -19.66196429 90.31107726 -16.7421875 84.99609375 C-15.27878025 81.17235223 -15.11430873 77.78639229 -15.89453125 73.78125 C-18.52388778 67.97475433 -22.30555875 66.15790252 -27.89453125 63.78125 C-31.08813749 62.68150356 -34.32122489 61.78376833 -37.58203125 60.90625 C-38.93929321 60.52726562 -38.93929321 60.52726562 -40.32397461 60.140625 C-44.11813113 59.08212574 -47.91728295 58.04353737 -51.72167969 57.02246094 C-82.04963374 48.88051457 -82.04963374 48.88051457 -88.89453125 37.78125 C-92.57650594 29.66757727 -91.74228175 19.41923874 -88.92578125 11.19140625 C-84.9698087 1.94581888 -78.77154884 -4.4986915 -69.63671875 -8.7265625 C-47.22156831 -17.66198694 -19.41075677 -14.87896065 0 0 Z " fill="#616062" transform="translate(2443.89453125,992.21875)"/>
<path d="M0 0 C7.26 0 14.52 0 22 0 C22 48.51 22 97.02 22 147 C52.69 147 83.38 147 115 147 C115 153.6 115 160.2 115 167 C77.05 167 39.1 167 0 167 C0 111.89 0 56.78 0 0 Z " fill="#616062" transform="translate(1842,937)"/>
<path d="M0 0 C-3.07517084 11.52164009 -3.07517084 11.52164009 -5 17 C-5.70125 16.71125 -6.4025 16.4225 -7.125 16.125 C-15.53671992 12.83345742 -23.75711133 11.25237044 -32.5625 14.1875 C-38.22072268 18.39489635 -41.2048357 23.95823129 -42.56225586 30.85791016 C-42.98181957 33.86950245 -43.20209882 36.7986259 -43.31640625 39.8359375 C-43.37356812 41.27525635 -43.37356812 41.27525635 -43.43188477 42.74365234 C-43.47498779 43.94199707 -43.51809082 45.1403418 -43.5625 46.375 C-43.706875 50.21125 -43.85125 54.0475 -44 58 C-33.44 58 -22.88 58 -12 58 C-12 63.61 -12 69.22 -12 75 C-22.56 75 -33.12 75 -44 75 C-44 105.36 -44 135.72 -44 167 C-50.93 167 -57.86 167 -65 167 C-65 136.64 -65 106.28 -65 75 C-70.61 75 -76.22 75 -82 75 C-82 69.39 -82 63.78 -82 58 C-76.39 58 -70.78 58 -65 58 C-65.05220703 55.06867187 -65.05220703 55.06867187 -65.10546875 52.078125 C-65.1263646 50.14177609 -65.1471401 48.20542414 -65.16479492 46.26904297 C-65.1869343 44.30030432 -65.22509352 42.33176638 -65.26367188 40.36328125 C-65.37246589 26.0750008 -62.76358942 12.81895525 -52.75 2.125 C-38.00259922 -11.78671473 -16.77705637 -8.34616188 0 0 Z " fill="#616062" transform="translate(2130,937)"/>
<path d="M0 0 C6.93 0 13.86 0 21 0 C21 13.53 21 27.06 21 41 C29.91 41 38.82 41 48 41 C48 46.61 48 52.22 48 58 C39.09 58 30.18 58 21 58 C21.06296612 67.93612374 21.13841695 77.8719389 21.23571491 87.80778694 C21.28040032 92.42164481 21.31966047 97.03541474 21.34643555 101.64941406 C21.37248679 106.10403293 21.41290206 110.5583131 21.46318626 115.01272202 C21.47984267 116.71028295 21.49136459 118.40790245 21.49761391 120.1055336 C21.50726849 122.48754444 21.53534286 124.86869122 21.56762695 127.25048828 C21.56619186 127.94892349 21.56475677 128.6473587 21.5632782 129.36695862 C21.65091025 133.95286007 22.62534347 137.08749118 25 141 C28.8336129 144.59401209 33.0568649 144.48657967 38.0703125 144.37109375 C42.05092029 143.86688343 45.37718537 142.54619298 49.00390625 140.875 C51 140 51 140 53 140 C53.83679277 142.62394306 54.66956942 145.24904384 55.5 147.875 C55.85771484 148.99455078 55.85771484 148.99455078 56.22265625 150.13671875 C58 155.7734375 58 155.7734375 58 158 C44.28721765 163.55293505 29.05439963 168.79784298 14.375 163.3125 C8.46879252 160.49340265 3.92930282 157.01277947 1 151 C-0.24032623 146.81721698 -0.13254906 142.70338286 -0.11352539 138.37597656 C-0.11367142 137.50732468 -0.11381744 136.63867279 -0.1139679 135.74369812 C-0.11327191 132.87598157 -0.10549415 130.00833019 -0.09765625 127.140625 C-0.09579096 125.1509403 -0.09436758 123.16125515 -0.09336853 121.17156982 C-0.08955212 115.93714121 -0.07972929 110.70274039 -0.06866455 105.46832275 C-0.05843162 100.12602108 -0.05386687 94.78371491 -0.04882812 89.44140625 C-0.03810625 78.96092333 -0.02051652 68.48046833 0 58 C-5.61 58 -11.22 58 -17 58 C-17 52.39 -17 46.78 -17 41 C-11.39 41 -5.78 41 0 41 C0 27.47 0 13.94 0 0 Z " fill="#616062" transform="translate(3270,940)"/>
<path d="M0 0 C6.93 0 13.86 0 21 0 C21 13.53 21 27.06 21 41 C29.91 41 38.82 41 48 41 C48 46.61 48 52.22 48 58 C39.09 58 30.18 58 21 58 C21.06296612 67.93612374 21.13841695 77.8719389 21.23571491 87.80778694 C21.28040032 92.42164481 21.31966047 97.03541474 21.34643555 101.64941406 C21.37248679 106.10403293 21.41290206 110.5583131 21.46318626 115.01272202 C21.47984267 116.71028295 21.49136459 118.40790245 21.49761391 120.1055336 C21.50726849 122.48754444 21.53534286 124.86869122 21.56762695 127.25048828 C21.56619186 127.94892349 21.56475677 128.6473587 21.5632782 129.36695862 C21.65091025 133.95286007 22.62534347 137.08749118 25 141 C28.8336129 144.59401209 33.0568649 144.48657967 38.0703125 144.37109375 C42.05092029 143.86688343 45.37718537 142.54619298 49.00390625 140.875 C51 140 51 140 53 140 C53.83679277 142.62394306 54.66956942 145.24904384 55.5 147.875 C55.85771484 148.99455078 55.85771484 148.99455078 56.22265625 150.13671875 C58 155.7734375 58 155.7734375 58 158 C44.28721765 163.55293505 29.05439963 168.79784298 14.375 163.3125 C8.46879252 160.49340265 3.92930282 157.01277947 1 151 C-0.24032623 146.81721698 -0.13254906 142.70338286 -0.11352539 138.37597656 C-0.11367142 137.50732468 -0.11381744 136.63867279 -0.1139679 135.74369812 C-0.11327191 132.87598157 -0.10549415 130.00833019 -0.09765625 127.140625 C-0.09579096 125.1509403 -0.09436758 123.16125515 -0.09336853 121.17156982 C-0.08955212 115.93714121 -0.07972929 110.70274039 -0.06866455 105.46832275 C-0.05843162 100.12602108 -0.05386687 94.78371491 -0.04882812 89.44140625 C-0.03810625 78.96092333 -0.02051652 68.48046833 0 58 C-5.61 58 -11.22 58 -17 58 C-17 52.39 -17 46.78 -17 41 C-11.39 41 -5.78 41 0 41 C0 27.47 0 13.94 0 0 Z " fill="#616062" transform="translate(2873,940)"/>
<path d="M0 0 C7.26 0 14.52 0 22 0 C22.00364563 1.80324738 22.00729126 3.60649475 22.01104736 5.46438599 C22.04796294 22.44505855 22.10546072 39.42555088 22.18390274 56.40608406 C22.22370356 65.13628572 22.25609073 73.8663971 22.27099609 82.59667969 C22.28400723 90.20645343 22.31095803 97.81602861 22.35461307 105.42569053 C22.37724014 109.45458924 22.39290995 113.48324296 22.39188385 117.51221085 C22.39113796 121.30608278 22.40905952 125.09941287 22.44116783 128.89314461 C22.44967169 130.28384873 22.45141339 131.6746136 22.44580269 133.06533241 C22.19412992 142.90214586 22.19412992 142.90214586 27 151 C32.77070596 153.88535298 41.77979941 152.13094556 48 151 C48.53364887 153.05922133 49.05142189 155.12256107 49.5625 157.1875 C49.85253906 158.33605469 50.14257812 159.48460937 50.44140625 160.66796875 C50.98068761 163.88480093 50.88247476 165.89672783 50 169 C37.34209522 172.72584845 23.6719683 176.29972248 11.0859375 170.3203125 C5.45574747 166.75663416 2.57589645 162.05050868 0.60068321 155.79507637 C-0.66216019 149.91886129 -0.38786956 143.91532832 -0.34057617 137.93334961 C-0.33972865 136.42465227 -0.34020747 134.9159537 -0.34190369 133.40725708 C-0.3427602 129.33549581 -0.32519053 125.26400268 -0.30418181 121.19230342 C-0.28535737 116.92822954 -0.28366004 112.6641487 -0.28010559 108.40003967 C-0.27080201 100.33606472 -0.24621119 92.27221259 -0.21605712 84.20829159 C-0.18246045 75.02326895 -0.16601389 65.83824027 -0.15097082 56.65317142 C-0.11966003 37.76870952 -0.06632427 18.88436916 0 0 Z " fill="#616062" transform="translate(3570,932)"/>
<path d="M0 0 C7.26 0 14.52 0 22 0 C22.00364563 1.80324738 22.00729126 3.60649475 22.01104736 5.46438599 C22.04796294 22.44505855 22.10546072 39.42555088 22.18390274 56.40608406 C22.22370356 65.13628572 22.25609073 73.8663971 22.27099609 82.59667969 C22.28400723 90.20645343 22.31095803 97.81602861 22.35461307 105.42569053 C22.37724014 109.45458924 22.39290995 113.48324296 22.39188385 117.51221085 C22.39113796 121.30608278 22.40905952 125.09941287 22.44116783 128.89314461 C22.44967169 130.28384873 22.45141339 131.6746136 22.44580269 133.06533241 C22.19412992 142.90214586 22.19412992 142.90214586 27 151 C32.77070596 153.88535298 41.77979941 152.13094556 48 151 C48.53364887 153.05922133 49.05142189 155.12256107 49.5625 157.1875 C49.85253906 158.33605469 50.14257812 159.48460937 50.44140625 160.66796875 C50.98068761 163.88480093 50.88247476 165.89672783 50 169 C37.34209522 172.72584845 23.6719683 176.29972248 11.0859375 170.3203125 C5.45574747 166.75663416 2.57589645 162.05050868 0.60068321 155.79507637 C-0.66216019 149.91886129 -0.38786956 143.91532832 -0.34057617 137.93334961 C-0.33972865 136.42465227 -0.34020747 134.9159537 -0.34190369 133.40725708 C-0.3427602 129.33549581 -0.32519053 125.26400268 -0.30418181 121.19230342 C-0.28535737 116.92822954 -0.28366004 112.6641487 -0.28010559 108.40003967 C-0.27080201 100.33606472 -0.24621119 92.27221259 -0.21605712 84.20829159 C-0.18246045 75.02326895 -0.16601389 65.83824027 -0.15097082 56.65317142 C-0.11966003 37.76870952 -0.06632427 18.88436916 0 0 Z " fill="#616062" transform="translate(876,932)"/>
<path d="M0 0 C6.93 0 13.86 0 21 0 C21 40.59 21 81.18 21 123 C14.07 123 7.14 123 0 123 C0 82.41 0 41.82 0 0 Z " fill="#616062" transform="translate(3359,981)"/>
<path d="M0 0 C6.93 0 13.86 0 21 0 C21 40.59 21 81.18 21 123 C14.07 123 7.14 123 0 123 C0 82.41 0 41.82 0 0 Z " fill="#616062" transform="translate(1991,981)"/>
<path d="M0 0 C6.93 0 13.86 0 21 0 C21 40.59 21 81.18 21 123 C14.07 123 7.14 123 0 123 C0 82.41 0 41.82 0 0 Z " fill="#616062" transform="translate(1390,981)"/>
<path d="M0 0 C6.27 0 12.54 0 19 0 C19 10.56 19 21.12 19 32 C12.73 32 6.46 32 0 32 C0 21.44 0 10.88 0 0 Z " fill="#616062" transform="translate(2298,935)"/>
<path d="M0 0 C6.93 0 13.86 0 21 0 C21 8.91 21 17.82 21 27 C14.07 27 7.14 27 0 27 C0 18.09 0 9.18 0 0 Z " fill="#616062" transform="translate(3359,932)"/>
<path d="M0 0 C6.93 0 13.86 0 21 0 C21 8.91 21 17.82 21 27 C14.07 27 7.14 27 0 27 C0 18.09 0 9.18 0 0 Z " fill="#616062" transform="translate(1991,932)"/>
<path d="M0 0 C6.93 0 13.86 0 21 0 C21 8.91 21 17.82 21 27 C14.07 27 7.14 27 0 27 C0 18.09 0 9.18 0 0 Z " fill="#616062" transform="translate(1390,932)"/>
</svg>
