<?xml version="1.0" standalone="no"?>
<!DOCTYPE svg PUBLIC "-//W3C//DTD SVG 20010904//EN"
 "http://www.w3.org/TR/2001/REC-SVG-20010904/DTD/svg10.dtd">
<svg version="1.0" xmlns="http://www.w3.org/2000/svg"
 width="650.000000pt" height="217.000000pt" viewBox="0 0 650.000000 217.000000"
 preserveAspectRatio="xMidYMid meet">

<g transform="translate(0.000000,217.000000) scale(0.100000,-0.100000)"
fill="#000000" stroke="none">
<path d="M1022 1989 c-66 -11 -184 -59 -249 -102 -93 -60 -176 -154 -226 -256
-26 -51 -47 -99 -47 -106 0 -7 -27 -22 -59 -34 -72 -26 -193 -105 -243 -157
-105 -112 -170 -252 -190 -408 -11 -86 -10 -103 10 -193 94 -423 510 -656 905
-507 172 65 328 220 388 385 20 55 23 58 77 78 161 62 295 187 367 343 60 133
65 176 65 580 0 270 -3 367 -12 376 -14 14 -700 15 -786 1z m556 -507 l-3
-278 -33 -66 c-31 -63 -118 -165 -162 -188 -20 -11 -20 -9 -20 278 0 211 -3
291 -12 300 -9 9 -88 12 -295 12 -198 0 -283 3 -283 11 0 23 130 140 184 165
82 37 120 42 384 43 l243 1 -3 -278z m-458 -387 l0 -205 -28 0 c-50 0 -128 29
-190 70 -100 67 -170 175 -187 293 l-7 47 206 0 206 0 0 -205z m-634 75 c49
-240 257 -449 505 -507 l76 -18 -23 -37 c-52 -82 -175 -159 -286 -179 -144
-26 -292 23 -391 131 -68 73 -103 143 -118 236 -15 93 6 202 53 281 35 59 143
166 161 160 6 -2 16 -32 23 -67z"/>
<path d="M4182 1528 c-20 -20 -17 -695 3 -773 41 -155 157 -275 303 -315 24
-6 77 -11 118 -11 171 0 313 91 387 249 26 56 32 82 35 158 5 111 -11 175 -67
262 -52 80 -139 145 -233 173 -88 27 -209 23 -283 -10 -26 -11 -51 -21 -56
-21 -5 0 -10 66 -11 148 l-3 147 -90 3 c-62 2 -94 -1 -103 -10z m515 -472
c114 -53 159 -189 100 -301 -77 -149 -298 -154 -383 -9 -52 88 -40 187 29 261
71 74 161 92 254 49z"/>
<path d="M5840 1271 c-73 -23 -106 -42 -159 -87 -109 -94 -164 -242 -142 -384
25 -169 143 -309 299 -356 26 -8 83 -15 127 -15 134 1 222 38 313 135 184 194
145 513 -79 656 -104 68 -246 88 -359 51z m215 -215 c63 -29 100 -72 120 -138
18 -63 18 -63 0 -124 -38 -129 -187 -191 -312 -129 -109 55 -150 184 -93 295
24 46 55 74 110 99 59 27 114 26 175 -3z"/>
<path d="M2313 1263 c-19 -7 -16 -64 6 -98 58 -93 94 -108 267 -115 l141 -5
-219 -279 c-120 -154 -217 -287 -216 -295 3 -14 54 -16 456 -19 503 -2 475 -6
451 65 -18 57 -55 99 -107 125 -42 20 -67 23 -219 28 l-172 5 201 260 c246
320 234 301 218 320 -11 13 -68 15 -404 14 -215 0 -397 -3 -403 -6z"/>
<path d="M3233 1263 c-7 -2 -13 -11 -13 -20 0 -13 138 -327 253 -575 25 -53
48 -106 52 -117 4 -13 -18 -72 -65 -176 -84 -186 -84 -189 20 -183 74 4 126
33 164 90 29 44 436 940 436 960 0 9 -7 19 -16 22 -24 9 -177 7 -192 -3 -8 -4
-59 -107 -113 -227 -55 -120 -103 -222 -107 -226 -4 -4 -54 96 -111 222 -80
177 -108 229 -125 234 -25 7 -166 6 -183 -1z"/>
<path d="M5197 1263 c-16 -4 -17 -30 -15 -416 l3 -412 22 -3 c55 -8 153 75
172 145 7 23 11 165 11 355 0 303 -1 318 -19 328 -19 10 -139 12 -174 3z"/>
</g>
</svg>
