<?xml version="1.0" encoding="UTF-8"?>
<svg version="1.1" xmlns="http://www.w3.org/2000/svg" width="960" height="1291">
<path d="M0 0 C0.68964844 0.26393555 1.37929688 0.52787109 2.08984375 0.79980469 C12.51904327 4.80404322 22.3547593 9.59572242 32.13720703 14.98046875 C33.77889233 15.87898484 35.43345877 16.75387971 37.08984375 17.625 C44.04569457 21.29752956 50.54151416 25.51564949 57 30 C57.90621094 30.62777344 58.81242187 31.25554688 59.74609375 31.90234375 C67.19164864 37.18663452 74.11102381 43.02210425 81 49 C81.62543701 49.53641113 82.25087402 50.07282227 82.89526367 50.62548828 C94.21688959 60.40306796 104.96809543 71.05726063 114 83 C114.40460449 83.52819336 114.80920898 84.05638672 115.22607422 84.60058594 C119.77680749 90.56008279 124.17335638 96.54505062 128.02734375 102.984375 C134.238145 113.28235301 140.00896256 120.40223455 149.9609375 127.1640625 C156.99898372 131.95613901 162.92453675 138.07256834 169 144 C169.67095703 144.64517578 170.34191406 145.29035156 171.03320312 145.95507812 C180.17845677 154.75620181 188.49623387 163.76255235 196 174 C196.42474609 174.56928223 196.84949219 175.13856445 197.28710938 175.72509766 C203.80399812 184.46768631 209.59745131 193.5318719 215 203 C215.33741211 203.58297852 215.67482422 204.16595703 216.02246094 204.76660156 C246.2923808 257.42149631 253.730494 324.26068421 240 383 C239.82098145 383.78826172 239.64196289 384.57652344 239.45751953 385.38867188 C236.52686863 398.11517372 232.20985268 410.03618142 227 422 C226.67628418 422.74523926 226.35256836 423.49047852 226.01904297 424.25830078 C208.85642074 463.26901962 179.84628576 500.05417352 146 526 C144.72601643 527.0019102 143.45262347 528.00457165 142.1796875 529.0078125 C130.37519647 538.22946652 130.37519647 538.22946652 124.328125 541.90234375 C113.46814471 548.52483802 107.04860668 555.31581572 100.27441406 566.04785156 C97.2544949 570.67376605 93.60391297 574.82530155 90 579 C89.33097656 579.77988281 88.66195312 580.55976562 87.97265625 581.36328125 C73.93839538 597.33149985 58.51279529 610.98713032 41 623 C40.14317627 623.5882959 40.14317627 623.5882959 39.26904297 624.18847656 C30.82674023 629.92914602 22.09362774 634.72511969 12.87695312 639.10644531 C11.16715946 639.92042097 9.46588667 640.75223431 7.765625 641.5859375 C-21.64551375 655.69432639 -54.40605651 663.23814969 -87 664 C-87.72574219 664.02046387 -88.45148438 664.04092773 -89.19921875 664.06201172 C-150.6680242 665.61932442 -208.40645992 645.86190869 -256 607 C-256.54108398 606.56042969 -257.08216797 606.12085938 -257.63964844 605.66796875 C-271.38665306 594.42977269 -284.09929251 582.03105323 -295 568 C-295.90298828 566.93265625 -295.90298828 566.93265625 -296.82421875 565.84375 C-302.46570948 559.12600003 -307.2045059 551.82535266 -311.98901367 544.48681641 C-316.66427896 537.34905684 -320.71298251 531.52173505 -328 526.8125 C-345.34067959 515.25866142 -361.7379515 500.05736317 -374.72265625 483.83203125 C-376.18298962 482.01600776 -377.66814094 480.2195062 -379.18359375 478.44921875 C-422.33512626 427.75962887 -437.63790852 358.0983652 -432.53125 293.0078125 C-430.4058556 271.6892565 -424.17252308 251.10252153 -417 231 C-416.57976562 229.80117187 -416.15953125 228.60234375 -415.7265625 227.3671875 C-412.50394696 218.56447256 -408.36521496 210.2795715 -404 202 C-403.61682617 201.27087402 -403.23365234 200.54174805 -402.83886719 199.79052734 C-394.93080102 184.85991677 -385.85803037 170.96420198 -375 158 C-374.18144531 156.99710938 -373.36289062 155.99421875 -372.51953125 154.9609375 C-362.79065463 143.13329112 -352.21041533 132.28787231 -340 123 C-339.3596582 122.51031738 -338.71931641 122.02063477 -338.05957031 121.51611328 C-325.73235933 112.15255741 -312.89474184 103.59786387 -298.5 97.75 C-292.8462307 95.00526413 -289.93462058 89.82617212 -286.5625 84.7578125 C-252.22076309 33.32445729 -192.63834649 0.23954319 -133.25390625 -11.8515625 C-125.59401173 -13.31357848 -117.95435715 -14.30809138 -110.17675781 -14.84863281 C-108.00874131 -14.99939215 -105.84501062 -15.18209204 -103.6796875 -15.3671875 C-68.74348403 -18.09381989 -32.59503017 -12.80519042 0 0 Z " fill="#050402" transform="translate(567,17)"/>
<path d="M0 0 C1.07026237 -0.00551503 1.07026237 -0.00551503 2.16214621 -0.01114148 C4.56502401 -0.02219886 6.9678586 -0.02602559 9.37075806 -0.02983093 C11.0886804 -0.03609394 12.80660139 -0.0427406 14.52452087 -0.04974365 C19.20013702 -0.06716636 23.87574292 -0.07770848 28.5513835 -0.08594918 C31.47045158 -0.09109574 34.38951647 -0.09717157 37.30858231 -0.10346031 C46.43568262 -0.12251436 55.56277483 -0.13674608 64.68989122 -0.14507228 C75.23708031 -0.15485205 85.78405995 -0.18118995 96.33117521 -0.22157317 C104.47643541 -0.25169362 112.62163542 -0.2665372 120.76695025 -0.26985329 C125.63527943 -0.27220809 130.5033849 -0.28122429 135.37165451 -0.30631447 C139.95009057 -0.32952967 144.52815457 -0.333855 149.10663414 -0.32355309 C150.78847806 -0.32305604 152.47033989 -0.32942593 154.15212822 -0.34310913 C156.44570031 -0.36072818 158.73792258 -0.3537727 161.03149414 -0.34057617 C162.31571951 -0.34296453 163.59994488 -0.34535288 164.92308617 -0.34781361 C168.14273071 0.14717102 168.14273071 0.14717102 170.571558 1.95890522 C172.14273071 4.14717102 172.14273071 4.14717102 172.39273071 7.64717102 C170.96444294 11.64637679 170.96444294 11.64637679 167.70913696 13.27217102 C162.86869465 15.51670045 158.09174546 16.09084769 152.83023071 16.64717102 C142.90527906 17.88519815 133.81777712 19.21487104 126.14273071 26.14717102 C125.48273071 26.14717102 124.82273071 26.14717102 124.14273071 26.14717102 C123.86397095 26.71331116 123.58521118 27.27945129 123.29800415 27.86274719 C122.5373501 29.36685539 121.74935139 30.85749216 120.93276978 32.33198547 C117.5665667 38.58138662 115.9473837 44.3428867 114.89273071 51.33467102 C114.73288696 52.24152649 114.57304321 53.14838196 114.40835571 54.0827179 C110.8071563 76.51518923 111.99151924 99.8531728 112.00840521 122.50548744 C112.01097729 127.04941997 112.00857834 131.5933507 112.00701904 136.13728333 C112.00521275 143.75191111 112.0075644 151.36652911 112.01235962 158.9811554 C112.01781497 167.74445516 112.01602413 176.50773169 112.01053321 185.2710309 C112.00597663 192.85128619 112.00536348 200.43153454 112.00797188 208.01179075 C112.00951869 212.51509704 112.00977244 217.01839244 112.00643539 221.521698 C112.00351883 225.75069758 112.00560092 229.97966751 112.01132965 234.20866394 C112.01263647 235.74721223 112.01229917 237.28576308 112.01006699 238.8243103 C111.97948614 262.06787094 112.72187969 285.17595182 129.80288696 302.96748352 C147.45084887 319.4074881 172.76728748 322.70395099 195.93960571 322.33467102 C216.97035624 321.52812258 237.91257475 318.16695053 255.14273071 305.14717102 C255.80788696 304.6702179 256.47304321 304.19326477 257.15835571 303.70185852 C271.93632953 292.12383967 277.64056804 272.769698 281.14273071 255.14717102 C281.39747886 253.9191072 281.39747886 253.9191072 281.65737343 252.66623402 C283.29856166 243.98690712 283.43978531 235.43348324 283.43325806 226.63618469 C283.43925602 225.00672604 283.44606444 223.3772702 283.45361328 221.74781799 C283.47116057 217.35248092 283.47596412 212.9572219 283.47724485 208.56185317 C283.47867448 205.80305105 283.4829595 203.04426825 283.48823929 200.28547096 C283.50670879 190.62387985 283.51491458 180.96234365 283.51333618 171.30073547 C283.51213858 162.35652712 283.53317371 153.41256154 283.56482351 144.46841449 C283.59116925 136.74217563 283.60169575 129.0160151 283.60042536 121.2897318 C283.59992067 116.69649753 283.60532464 112.10347886 283.62678146 107.51029015 C284.536268 67.27065882 284.536268 67.27065882 269.37710571 30.95185852 C268.14273071 29.14717102 268.14273071 29.14717102 267.14273071 26.14717102 C265.42753324 25.12065729 265.42753324 25.12065729 263.14273071 24.14717102 C261.62679321 23.18810852 261.62679321 23.18810852 260.08023071 22.20967102 C251.97916863 17.60251309 242.73905443 16.69432284 233.62319946 15.77217102 C229.93827719 15.11045658 227.33540299 14.08607856 224.14273071 12.14717102 C222.14273071 9.14717102 222.14273071 9.14717102 222.33023071 5.58467102 C223.14273071 2.14717102 223.14273071 2.14717102 226.14273071 0.14717102 C228.04319853 -0.10582864 228.04319853 -0.10582864 230.23325253 -0.11009789 C231.48730936 -0.11977122 231.48730936 -0.11977122 232.76670069 -0.12963998 C233.68517032 -0.12654278 234.60363996 -0.12344558 235.54994202 -0.12025452 C237.01350705 -0.12705119 237.01350705 -0.12705119 238.50663906 -0.13398516 C241.79090138 -0.14669132 245.0749992 -0.14500479 248.35928345 -0.14335632 C250.70788793 -0.14933764 253.05649043 -0.15614227 255.40509033 -0.16371155 C261.79548379 -0.18141791 268.18582373 -0.18606885 274.57623935 -0.18734312 C279.23363435 -0.1884956 283.89102026 -0.19479511 288.54841094 -0.20101608 C301.06766476 -0.21763084 313.58689011 -0.22509992 326.10615455 -0.22367661 C326.81729939 -0.22359669 327.52844423 -0.22351678 328.26113892 -0.22343445 C328.9731501 -0.22335269 329.68516128 -0.22327093 330.41874857 -0.22318669 C341.96189461 -0.22237352 353.50491025 -0.24151822 365.04801857 -0.26971118 C376.89519219 -0.29841894 388.74230216 -0.31225267 400.58951145 -0.31052363 C407.24295056 -0.30985904 413.89626941 -0.31576866 420.54968071 -0.33687973 C426.8049587 -0.35618494 433.05994719 -0.35643949 439.31523514 -0.34184647 C441.61468107 -0.33974774 443.91414476 -0.34452205 446.2135601 -0.35656738 C449.34556347 -0.37191515 452.47655548 -0.36278086 455.60853577 -0.3473053 C456.98289414 -0.36273599 456.98289414 -0.36273599 458.38501734 -0.37847841 C464.52057548 -0.31118854 464.52057548 -0.31118854 467.68100071 2.01718712 C469.44143816 4.58243748 470.09230699 6.8255309 470.89273071 9.83467102 C474.62593277 20.86302938 481.55572632 30.17014792 487.94351196 39.80976868 C491.50700817 45.21751659 494.97651371 50.68467108 498.45523071 56.14717102 C503.25415711 63.65250549 508.07270567 71.14454697 512.92129517 78.61787415 C517.72594562 86.03132404 522.47794026 93.4784243 527.23599243 100.92182922 C531.06203685 106.90451188 534.90118126 112.87809483 538.76773071 118.83467102 C543.54416402 126.1941302 548.25205391 133.59633976 552.95620728 141.00215149 C556.88042826 147.17567336 560.83563032 153.32778663 564.81851196 159.46357727 C568.95399253 165.84060818 573.0491191 172.24320408 577.14273071 178.64717102 C582.04417479 186.3143077 586.95903811 193.97194892 591.91348267 201.60493469 C594.65532019 205.83433776 597.37847007 210.07529108 600.09194946 214.32295227 C600.7919104 215.4186554 601.49187134 216.51435852 602.21304321 217.64326477 C603.58000642 219.78450418 604.94596474 221.92638559 606.31069946 224.06904602 C609.6207581 229.25435965 612.96842136 234.40971927 616.38613892 239.52485657 C617.09349686 240.58407822 617.8008548 241.64329987 618.52964783 242.73461914 C619.06196518 243.53076126 619.59428253 244.32690338 620.14273071 245.14717102 C620.16622283 226.11721292 620.18378924 207.08725782 620.19454288 188.05728817 C620.19967151 179.21883595 620.2066477 170.3803928 620.21817017 161.54194641 C620.22822304 153.82700311 620.23460902 146.11206639 620.23681921 138.39711672 C620.23810855 134.32245445 620.24107907 130.24781099 620.24846077 126.17315483 C620.96956928 93.68051934 620.96956928 93.68051934 617.39273071 61.52217102 C617.21790161 60.61958557 617.04307251 59.71700012 616.86294556 58.7870636 C613.93761778 44.46990849 608.64933535 30.69260906 596.14273071 22.14717102 C588.78703714 18.28844652 580.93967891 16.74609634 572.76382446 15.72529602 C571.61011353 15.57576477 570.45640259 15.42623352 569.26773071 15.27217102 C567.6628479 15.09041321 567.6628479 15.09041321 566.02554321 14.90498352 C562.62087841 14.00999033 561.28843472 12.90302783 559.14273071 10.14717102 C558.64273071 7.14717102 558.64273071 7.14717102 559.14273071 4.14717102 C561.14520024 1.62532704 562.35243151 0.31390269 565.54189205 -0.35898685 C566.8871866 -0.36319724 566.8871866 -0.36319724 568.25965881 -0.36749268 C569.29287262 -0.38021713 570.32608643 -0.39294159 571.39060974 -0.40605164 C572.51851425 -0.39952576 573.64641876 -0.39299988 574.8085022 -0.38627625 C576.00074402 -0.39489182 577.19298584 -0.40350739 578.4213562 -0.41238403 C581.68808459 -0.43119641 584.95417407 -0.43193857 588.220927 -0.42306256 C590.94958025 -0.41795048 593.67814262 -0.42524704 596.4067865 -0.43253464 C602.84497182 -0.44953399 609.28292014 -0.44596797 615.72109985 -0.429245 C622.35941008 -0.41232494 628.99706267 -0.42815568 635.63530105 -0.46046788 C641.33822218 -0.48717396 647.04093872 -0.49443708 652.74391609 -0.48595279 C656.14850684 -0.4810262 659.55270196 -0.48322376 662.95724297 -0.50374031 C666.75450663 -0.52112838 670.55035828 -0.50668819 674.3475647 -0.4839325 C675.47344498 -0.49562469 676.59932526 -0.50731689 677.75932312 -0.5193634 C685.35358051 -0.42660827 685.35358051 -0.42660827 689.37211609 2.49520874 C691.14273071 5.14717102 691.14273071 5.14717102 691.26773071 8.20967102 C689.85724252 11.89261241 688.41857388 12.98574364 685.14273071 15.14717102 C681.94351196 15.83467102 681.94351196 15.83467102 678.45523071 16.14717102 C666.96595946 17.57284702 658.73342452 21.1153635 651.14273071 30.14717102 C637.40095115 49.82814416 637.02875398 75.39227946 636.88638306 98.45674133 C636.87190475 100.2780224 636.85714676 102.09930127 636.84213257 103.920578 C636.7126933 120.43751093 636.64613766 136.95507674 636.59428978 153.47241592 C636.55529673 165.66636861 636.48669432 177.85940478 636.37974203 190.05295491 C636.30689161 198.64941413 636.26845775 207.24562209 636.25526392 215.84237742 C636.24640838 220.96930267 636.22222719 226.09508683 636.16059494 231.22167206 C636.10332485 236.03864847 636.08868186 240.85389568 636.1064682 245.67116165 C636.10559067 247.43525296 636.08936529 249.19941569 636.05642319 250.96319962 C635.65815739 260.410648 635.65815739 260.410648 639.06578445 268.93379974 C641.33465964 271.01068351 643.48597546 272.60780765 646.14273071 274.14717102 C647.2821943 274.81143789 647.2821943 274.81143789 648.44467735 275.4891243 C650.43400648 276.58275886 652.44526309 277.5343915 654.51773071 278.45967102 C663.6203552 282.64082108 663.6203552 282.64082108 665.14273071 285.14717102 C665.16616821 287.61982727 665.16616821 287.61982727 664.14273071 290.14717102 C661.80679321 291.95576477 661.80679321 291.95576477 658.76773071 293.58467102 C657.67589478 294.18408508 656.58405884 294.78349915 655.45913696 295.40107727 C653.42549518 296.47179326 651.39168148 297.54218289 649.35757446 298.61201477 C632.73982222 307.44707892 619.86907094 318.43176368 608.14273071 333.14717102 C606.20810887 335.52270668 604.56224763 337.21155749 602.14273071 339.14717102 C599.25210571 339.14717102 599.25210571 339.14717102 596.14273071 338.14717102 C594.3070276 336.22788615 593.00716209 334.58932603 591.58023071 332.39717102 C591.16313843 331.7859137 590.74604614 331.17465637 590.3163147 330.5448761 C585.4436758 323.30484083 580.9224664 315.82844752 576.36929321 308.38545227 C573.50827507 303.71823581 570.56977371 299.1078719 567.58023071 294.52217102 C563.27428384 287.91141352 559.0388021 281.259622 554.83389282 274.58418274 C550.95452143 268.42718073 547.05312884 262.28450955 543.14273071 256.14717102 C538.83539107 249.38612013 534.54151406 242.61697938 530.26773071 235.83467102 C525.59251842 228.41750989 520.87370539 221.02887315 516.14273071 213.64717102 C510.92528431 205.50643093 505.73129423 197.3519507 500.57583618 189.17182922 C495.05354014 180.41190798 489.48828034 171.67941155 483.92495728 162.94551086 C480.99618259 158.3469334 478.0695538 153.74699075 475.14273071 149.14717102 C473.97607458 147.31383098 472.80940791 145.48049765 471.64273071 143.64717102 C449.47606405 108.81383769 427.30939738 73.98050435 405.14273071 39.14717102 C405.09582463 64.80942624 405.06065127 90.47167495 405.03910637 116.13396454 C405.02883285 128.05179281 405.01484837 139.96959432 404.99185181 151.8874054 C404.97179691 162.28575584 404.95898584 172.68408687 404.95455372 183.08245611 C404.95196665 188.57848358 404.94596966 194.07445556 404.9312706 199.57046509 C402.32381276 253.6778272 402.32381276 253.6778272 422.10366821 302.18232727 C432.03881698 311.75585185 443.37047999 314.21810636 456.62710571 315.42451477 C460.65031418 316.25150762 462.99982378 317.52253467 466.14273071 320.14717102 C466.70095099 323.68256608 466.88872526 325.90384678 465.01773071 329.02217102 C459.67556147 332.22747256 452.31705807 331.29512583 446.29141235 331.29243469 C444.66836433 331.29747261 444.66836433 331.29747261 443.01252747 331.3026123 C439.44263556 331.31209619 435.87279067 331.31406402 432.30288696 331.31513977 C429.81716391 331.3183537 427.33144104 331.32171788 424.84571838 331.32522583 C419.63815879 331.33121038 414.43061577 331.33306638 409.22305298 331.33247375 C402.55390037 331.33180676 395.88486989 331.34603352 389.21573734 331.36324596 C384.08302828 331.37436889 378.95034492 331.37639288 373.81762505 331.37586403 C371.35887726 331.37704334 368.9001288 331.38146239 366.4413929 331.3891964 C363.00200078 331.39900367 359.56283951 331.39611535 356.1234436 331.39009094 C355.11075409 331.39571045 354.09806458 331.40132996 353.0546875 331.40711975 C347.70145693 331.38331695 343.17432258 331.04076156 338.14273071 329.14717102 C336.03064706 326.68307343 336.1388861 325.33555695 336.20523071 322.08467102 C337.14273071 319.14717102 337.14273071 319.14717102 339.28726196 317.51435852 C342.56553747 315.94473277 345.15459324 315.64052352 348.76773071 315.33467102 C358.55772529 314.07376072 366.41017312 310.28213661 372.59194946 302.44795227 C387.23825998 280.71828755 388.60022991 253.21945729 388.57852173 227.86250305 C388.58752693 225.72300195 388.59774137 223.58350565 388.60905457 221.4440155 C388.6352442 215.70527585 388.64257375 209.9666708 388.64450192 204.22787714 C388.64664844 200.63578458 388.6530787 197.0437253 388.66099358 193.45164108 C388.68861985 180.90367743 388.70101213 168.35580863 388.69863892 155.80781555 C388.69682898 144.130203 388.72866641 132.45300274 388.77586991 120.77549469 C388.81507328 110.71727588 388.83119211 100.65919232 388.82927269 90.60089767 C388.82850854 84.60649055 388.83702255 78.61245269 388.86880684 72.6181221 C388.89782068 66.99527466 388.89810901 61.37315125 388.87625694 55.75027847 C388.8731181 53.68911685 388.88021621 51.62791021 388.89833832 49.56682587 C388.92148958 46.75161903 388.90758036 43.93891674 388.88444519 41.12376404 C388.90759122 39.90349555 388.90759122 39.90349555 388.93120486 38.65857518 C388.83301246 33.24685095 387.42264524 30.47644664 383.70495743 26.55090225 C376.92228048 20.45636082 367.98422634 18.13240281 359.14273071 17.14717102 C358.28292603 17.03760071 357.42312134 16.9280304 356.53726196 16.81513977 C343.26543184 15.3448484 331.45142691 14.37594312 320.45523071 22.77217102 C305.31787508 36.86316567 302.0765089 61.91540382 300.97451782 81.41377258 C300.935112 82.06760941 300.89570617 82.72144624 300.85510623 83.3950963 C299.91578901 99.10650449 299.84339791 114.81572158 299.83680844 130.55018902 C299.83221855 134.55571422 299.81415027 138.56117781 299.79701233 142.56666565 C299.74861774 154.39184328 299.71695107 166.21705548 299.69570923 178.04231262 C299.67908227 187.29607385 299.65606944 196.54971292 299.61268848 205.80339265 C299.59470293 209.76124438 299.58226756 213.71893035 299.58398628 217.67682648 C299.59376109 249.5640391 297.86910667 283.36289487 275.14273071 308.14717102 C274.52913696 308.84068665 273.91554321 309.53420227 273.28335571 310.24873352 C260.84736802 323.55832366 244.35868519 329.60034031 227.14273071 334.14717102 C226.03929321 334.47974915 224.93585571 334.81232727 223.79898071 335.15498352 C193.55216254 343.3629876 155.4779619 342.10744289 125.14273071 335.14717102 C123.78994019 334.84238831 123.78994019 334.84238831 122.40982056 334.53144836 C113.43937059 332.45759094 104.45978236 330.16441753 96.14273071 326.14717102 C95.52188599 325.84826965 94.90104126 325.54936829 94.26138306 325.2414093 C84.52651985 320.49242041 76.2581211 315.36545193 68.14273071 308.14717102 C66.91103149 307.20937805 66.91103149 307.20937805 65.65444946 306.25263977 C50.94209617 293.9198895 44.98910157 274.93153801 43.35754204 256.42397499 C42.94924192 250.19562807 42.98042815 243.96138389 42.96914673 237.72212219 C42.96282557 236.19596677 42.9560581 234.66981314 42.94888306 233.1436615 C42.93429854 229.87213715 42.92253799 226.60061948 42.91293526 223.32907677 C42.89729736 218.11316134 42.87333828 212.89730333 42.84803772 207.681427 C42.77736146 192.85306988 42.7177297 178.02467786 42.66592407 163.19624329 C42.63719405 154.99394619 42.60158382 146.79170437 42.55927032 138.58946592 C42.53733747 134.27472252 42.51863722 129.96002822 42.50882149 125.64523888 C42.46609988 107.6367373 42.17463409 89.66518151 41.30654907 71.67573547 C41.27217778 70.89525608 41.23780649 70.11477669 41.20239365 69.31064641 C40.0738515 44.23226916 40.0738515 44.23226916 27.08804321 23.61201477 C18.43520436 17.09632286 7.47826267 16.08929741 -2.93930054 14.80732727 C-6.03049722 14.10798023 -7.59520031 13.34037138 -9.85726929 11.14717102 C-10.81154896 7.94351783 -11.16010999 6.00910226 -10.04476929 2.83467102 C-7.50094267 -0.78024049 -4.09939482 0.01364946 0 0 Z " fill="#000000" transform="translate(263.8572692871094,745.8528289794922)"/>
<path d="M0 0 C0.83033752 0.00270905 1.66067505 0.00541809 2.51617432 0.00820923 C15.13923079 0.07056741 27.01286329 0.88010915 39.1875 4.4375 C40.56879989 4.80417942 41.9503098 5.17006858 43.33203125 5.53515625 C81.22567518 16.02584626 113.71366083 44.43791478 132.984375 78.25 C138.0079705 87.37558958 142.0487844 96.49394606 145.1875 106.4375 C145.74857729 108.08381889 146.31090185 109.72971374 146.875 111.375 C147.31463265 112.7284758 147.75237923 114.08256697 148.1875 115.4375 C148.538125 116.489375 148.88875 117.54125 149.25 118.625 C158.04846493 154.40542406 150.56321475 195.90536144 131.75390625 227.35546875 C124.90641559 238.38566306 117.18716548 248.09590194 108.1875 257.4375 C107.54554688 258.14261719 106.90359375 258.84773438 106.2421875 259.57421875 C95.88857321 270.62255607 82.52929786 278.53942902 69.1875 285.4375 C68.56375488 285.76234375 67.94000977 286.0871875 67.29736328 286.421875 C38.37267405 301.27612214 3.91800154 306.16516963 -27.8125 299.4375 C-28.68390625 299.27121094 -29.5553125 299.10492188 -30.453125 298.93359375 C-69.21649316 291.19486378 -103.90984099 266.20603588 -125.9140625 233.91796875 C-130.45089577 227.04974892 -134.21915999 219.83268727 -137.8125 212.4375 C-138.29203125 211.49519531 -138.7715625 210.55289063 -139.265625 209.58203125 C-147.91123128 191.05964059 -149.99986952 170.16546565 -149.99780273 150.01635742 C-149.99998596 147.64027896 -150.01819181 145.26466848 -150.03710938 142.88867188 C-150.08410602 130.52049292 -148.73283641 118.84651702 -145.5 106.875 C-145.28053711 106.0605542 -145.06107422 105.2461084 -144.83496094 104.40698242 C-137.8768484 79.31447574 -122.10388214 54.91573084 -101.58203125 38.83154297 C-99.58437997 37.25778623 -97.60536751 35.66185098 -95.625 34.06640625 C-81.47771751 22.75502899 -68.01393806 14.20854524 -50.8125 8.4375 C-49.88953125 8.12039062 -48.9665625 7.80328125 -48.015625 7.4765625 C-45.95339184 6.7776177 -43.88535426 6.1040649 -41.8125 5.4375 C-40.94020752 5.12723877 -40.06791504 4.81697754 -39.16918945 4.49731445 C-26.40154275 0.46615914 -13.28236246 -0.1022028 0 0 Z " fill="#FEFEFE" transform="translate(471.8125,189.5625)"/>
<path d="M0 0 C-1.36091438 4.17681556 -2.84634098 8.28061573 -4.4375 12.375 C-5.29413426 14.5823773 -6.14815703 16.79076928 -7 19 C-7.46535156 20.20011719 -7.93070312 21.40023437 -8.41015625 22.63671875 C-14.14180305 37.99701796 -18.81658819 53.74019845 -21 70 C-21.19237015 71.37374532 -21.38508186 72.74744284 -21.578125 74.12109375 C-21.92369411 76.62362499 -22.25213728 79.12648493 -22.5703125 81.6328125 C-22.84551355 83.78938799 -23.15622717 85.94190757 -23.51196289 88.08666992 C-24.09205421 92.73813756 -24.19901256 97.29773026 -24.23828125 101.98046875 C-24.24802979 102.93835297 -24.25777832 103.89623718 -24.26782227 104.88314819 C-24.43780138 125.93272462 -24.23338139 146.29585136 -20 167 C-19.80744629 167.98097656 -19.61489258 168.96195313 -19.41650391 169.97265625 C-15.88275172 187.70931719 -11.07378486 204.94521114 -2.9296875 221.13769531 C-1.96079019 223.07854318 -1.02541877 225.03322136 -0.09375 226.9921875 C6.93702834 241.63217031 15.67996741 254.48908377 26 267 C26.46293457 267.56734863 26.92586914 268.13469727 27.40283203 268.71923828 C34.51407291 277.38291586 42.2266882 285.43074544 50.125 293.375 C51.48395386 294.74785156 51.48395386 294.74785156 52.87036133 296.1484375 C58.93988732 302.18997309 65.28405915 307.69118421 72 313 C72.6997998 313.56444824 73.39959961 314.12889648 74.12060547 314.71044922 C90.07324637 327.53780627 107.35468496 338.51792833 126 347 C126.71269043 347.32806641 127.42538086 347.65613281 128.15966797 347.99414062 C149.06087076 357.5141311 170.24731869 363.06920969 193 366 C193.7530542 366.1023999 194.5061084 366.2047998 195.28198242 366.31030273 C220.41717515 369.47315966 246.14499379 366.3465186 270 358 C270.62632324 357.78118164 271.25264648 357.56236328 271.89794922 357.33691406 C297.45475804 348.18719139 319.43319519 332.54439519 339 314 C339 330.75939887 317.58070479 352.05096346 307 364 C306.19433594 364.91652344 305.38867188 365.83304687 304.55859375 366.77734375 C296.924037 375.36783485 289.00883611 382.84938335 280 390 C278.54980469 391.175625 278.54980469 391.175625 277.0703125 392.375 C263.4593694 403.18063422 248.55568289 412.27447118 233 420 C232.3817334 420.30776367 231.7634668 420.61552734 231.12646484 420.93261719 C210.69563893 431.00333591 188.57022072 437.8611534 166 441 C164.8658667 441.16846436 163.7317334 441.33692871 162.56323242 441.51049805 C152.3207806 442.93314881 142.2713059 443.36012801 131.9375 443.3125 C131.13118134 443.31100952 130.32486267 443.30951904 129.49411011 443.3079834 C117.03529591 443.26677741 104.88823291 442.60179894 92.59326172 440.44873047 C89.93304983 439.98841514 87.26819435 439.58702376 84.59765625 439.19140625 C63.30997501 435.87179729 42.46458454 429.00937981 23.25 419.25 C22.58371582 418.91274902 21.91743164 418.57549805 21.23095703 418.22802734 C-0.42924891 407.16176972 -19.32227221 393.7938414 -37 377 C-37.58974609 376.44425293 -38.17949219 375.88850586 -38.78710938 375.31591797 C-59.19531042 355.96683589 -74.48749627 332.53294735 -88 308 C-88.34933594 307.36610352 -88.69867188 306.73220703 -89.05859375 306.07910156 C-105.30400206 276.18167844 -111.47743431 239.95736169 -111.25 206.25 C-111.24656586 205.41384155 -111.24313171 204.57768311 -111.23959351 203.71618652 C-111.18029224 191.38682074 -110.97770777 179.19506455 -109 167 C-108.84402344 166.02272949 -108.68804687 165.04545898 -108.52734375 164.03857422 C-101.37880954 120.67741903 -83.90809647 79.41189411 -55 46 C-53.99453125 44.82824219 -53.99453125 44.82824219 -52.96875 43.6328125 C-14.62909836 0 -14.62909836 0 0 0 Z " fill="#FBCFAF" transform="translate(255,136)"/>
<path d="M0 0 C0.9283667 0.26796387 1.8567334 0.53592773 2.81323242 0.81201172 C7.62395162 2.22112741 12.15053759 3.81772626 16.69921875 5.9375 C19.1303812 7.06021 21.58972205 8.1084331 24.05200195 9.16064453 C48.32144386 19.61788745 69.25870732 33.47649712 88.46289062 51.56445312 C90.09125472 53.08522518 91.73834675 54.5833852 93.390625 56.078125 C99.31269492 61.4469744 104.8969546 66.83197121 110 73 C110.84046875 73.96421875 111.6809375 74.9284375 112.546875 75.921875 C118.92959039 83.25998634 124.69042402 90.83437052 130 99 C130.69351562 100.05703125 131.38703125 101.1140625 132.1015625 102.203125 C148.20931874 127.51320662 159.43500751 155.63611971 164.34375 185.1875 C164.84896874 188.1225803 165.42290137 190.98400566 166.125 193.875 C168.63974278 204.87805331 168.23967358 216.40179053 168.25 227.625 C168.25133942 228.48527802 168.25267883 229.34555603 168.25405884 230.23190308 C168.24757535 249.49300489 166.66707006 268.24837922 162 287 C161.62394613 288.60912907 161.2490355 290.21852557 160.875 291.828125 C158.58153778 301.53629302 155.95843358 310.81773194 152 320 C151.72317383 320.6614502 151.44634766 321.32290039 151.16113281 322.00439453 C134.86654624 360.89120519 108.64343564 394.66041489 75 420 C74.23429687 420.5775 73.46859375 421.155 72.6796875 421.75 C68.26633523 425 68.26633523 425 66 425 C67.64465443 418.92742978 69.76363457 413.09974476 72.09375 407.2578125 C81.61062954 382.30650651 86.94055816 353.83155561 87.2734375 327.11328125 C87.28610153 326.18629929 87.29876556 325.25931732 87.31181335 324.304245 C87.75521504 283.97067037 81.69033957 246.65481865 64 210 C63.64470215 209.26040039 63.2894043 208.52080078 62.92333984 207.75878906 C53.25156364 187.93761808 40.30415338 169.63554559 25.3125 153.49609375 C23.26342081 151.28433428 21.27800519 149.03577724 19.3125 146.75 C13.68372968 140.29269573 7.54094378 134.52051573 1 129 C0.49452637 128.56478027 -0.01094727 128.12956055 -0.53173828 127.68115234 C-22.10787055 109.17041339 -46.59191378 93.60250302 -73 83 C-74.48306641 82.34257812 -74.48306641 82.34257812 -75.99609375 81.671875 C-82.54765901 78.78326987 -89.08292402 76.78088622 -96.0234375 75.03515625 C-99.45113656 74.16677187 -102.81599165 73.14841701 -106.18994141 72.0925293 C-122.208642 67.14910007 -137.1218637 65.73620728 -153.8125 65.75 C-154.6218399 65.75059418 -155.43117981 65.75118835 -156.26504517 65.75180054 C-158.60002756 65.75834028 -160.93464725 65.77485107 -163.26953125 65.796875 C-163.97408447 65.8012709 -164.6786377 65.80566681 -165.40454102 65.81019592 C-169.06175503 65.86239501 -172.43585329 66.19359246 -176 67 C-177.99923787 67.09996189 -179.99944206 67.1813534 -182 67.25 C-217.11599909 69.67179304 -249.37631951 87.1505638 -275.453125 109.84765625 C-278 112 -278 112 -280 113 C-276.17033276 93.98372127 -257.15984789 74.64474374 -244 61 C-243.33403809 60.30680664 -242.66807617 59.61361328 -241.98193359 58.89941406 C-233.04870279 49.6493455 -224.06667074 40.80277084 -213.66357422 33.21484375 C-211.99218631 31.99429397 -210.34162497 30.74897191 -208.69140625 29.5 C-148.83611078 -15.17592983 -70.04381444 -20.5185544 0 0 Z " fill="#FBCFAF" transform="translate(633,112)"/>
<path d="M0 0 C5.32122379 1.49999852 9.64711711 3.93545478 14.3125 6.8125 C15.0950415 7.29388428 15.87758301 7.77526855 16.68383789 8.27124023 C28.51319207 15.68787857 39.47383702 24.25562086 49.65234375 33.8046875 C51.75968439 35.77527892 53.91813694 37.64295281 56.125 39.5 C60.84799321 43.61944641 64.89441824 48.27723929 69 53 C69.80953125 53.886875 70.6190625 54.77375 71.453125 55.6875 C88.26011426 74.607943 103.61941974 98.1893931 112.00390625 122.17578125 C112.9895584 124.97039499 114.15569374 127.61288581 115.375 130.3125 C121.41985528 144.69772522 125.64094032 160.58304659 128 176 C128.30550781 177.9490625 128.30550781 177.9490625 128.6171875 179.9375 C131.7712852 202.74987714 131.55657304 227.43820841 127 250 C126.80132324 251.03108887 126.60264648 252.06217773 126.39794922 253.12451172 C123.41750936 268.39731254 119.42774423 283.01589201 113.91552734 297.56835938 C113.11761885 299.68760434 112.35772839 301.81471308 111.61328125 303.953125 C103.60292116 325.79518796 89.87298092 346.22566106 75 364 C74.21625 364.96808594 73.4325 365.93617188 72.625 366.93359375 C62.08138574 379.83469926 50.30412138 391.93898854 37 402 C36.45053711 402.42055664 35.90107422 402.84111328 35.33496094 403.27441406 C18.10439427 416.42181847 -0.28944626 427.98040172 -20.6015625 435.69921875 C-23.34175831 436.74805232 -26.00430764 437.88095389 -28.6875 439.0625 C-42.736112 444.70555591 -58.54134553 447.21439892 -73.4375 449.5625 C-74.20642578 449.68818359 -74.97535156 449.81386719 -75.76757812 449.94335938 C-87.07192491 451.7351687 -98.22442553 452.18646061 -109.64916992 452.18530273 C-112.03387739 452.18747394 -114.41810915 452.20565056 -116.80273438 452.22460938 C-132.27655306 452.28368118 -147.19667886 450.82029002 -162.25 447.125 C-163.91675781 446.72692139 -163.91675781 446.72692139 -165.6171875 446.32080078 C-216.01038698 434.15768808 -263.26300885 405.4523966 -295 364 C-295.92011637 362.81214622 -296.84071686 361.62466733 -297.76171875 360.4375 C-300.18812826 357.30195491 -302.59795978 354.15424489 -305 351 C-301.52035124 349.84011708 -300.97263562 350.14931098 -297.71875 351.51171875 C-296.88263184 351.85549561 -296.04651367 352.19927246 -295.18505859 352.5534668 C-294.29898926 352.92769775 -293.41291992 353.30192871 -292.5 353.6875 C-290.66966181 354.43845365 -288.83893608 355.18846347 -287.0078125 355.9375 C-286.13286133 356.2984375 -285.25791016 356.659375 -284.35644531 357.03125 C-269.148543 363.28331759 -253.23771017 367.48308749 -237 370 C-236.02289063 370.16991455 -235.04578125 370.3398291 -234.0390625 370.51489258 C-222.91959043 372.26048159 -211.8941008 372.33829349 -200.65966797 372.31567383 C-197.40167358 372.31252577 -194.14460087 372.33601034 -190.88671875 372.36132812 C-177.3406999 372.40249949 -164.3314236 371.40852523 -151 369 C-149.89188965 368.80124268 -148.7837793 368.60248535 -147.64208984 368.39770508 C-145.07935565 367.89913186 -142.54097278 367.34887899 -140 366.75 C-139.09741455 366.53875488 -138.1948291 366.32750977 -137.26489258 366.10986328 C-97.48628868 356.47390202 -59.42974304 336.85866887 -29.26953125 309.0859375 C-27.1723995 307.15845324 -25.03623645 305.29238643 -22.875 303.4375 C-15.06522021 296.59807361 -8.47472194 289.1010739 -2 281 C-1.06267458 279.86336399 -0.1238083 278.72799731 0.81640625 277.59375 C12.46347865 263.44690238 22.53286502 248.25433943 31 232 C31.3398291 231.34773437 31.6796582 230.69546875 32.02978516 230.0234375 C41.01030857 212.50046499 47.0598232 193.75065707 51.41069031 174.58706665 C51.78449721 172.94605618 52.1635238 171.30621893 52.54963684 169.6680603 C55.36055605 157.65075374 56.59069919 146.24457949 56.41162109 133.90795898 C56.3748543 131.30217354 56.37060605 128.69781678 56.37109375 126.09179688 C56.31490873 112.46288097 55.60660905 98.78530044 52.0625 85.5625 C51.88775146 84.90475586 51.71300293 84.24701172 51.53295898 83.56933594 C51.03420291 81.70956751 50.51774318 79.85457225 50 78 C49.7525 77.07574219 49.505 76.15148437 49.25 75.19921875 C41.23235249 46.63634949 22.94721778 23.28561149 1.94921875 2.9765625 C0 1 0 1 0 0 Z " fill="#F3811F" transform="translate(579,218)"/>
<path d="M0 0 C2.8594053 0.73585047 5.72822223 1.40254882 8.60791016 2.05419922 C61.55332032 14.14142956 110.23263054 44.82508752 143.77587891 87.71435547 C144.82001953 89.00986328 144.82001953 89.00986328 145.88525391 90.33154297 C150.77587891 96.45460547 150.77587891 96.45460547 150.77587891 98.71435547 C149.42039046 98.28096801 148.06656614 97.84237552 146.71337891 97.40185547 C145.95927734 97.15822266 145.20517578 96.91458984 144.42822266 96.66357422 C141.14518211 95.48864218 137.97734831 94.09571753 134.77587891 92.71435547 C124.33196388 88.50921476 113.81859249 85.11631563 102.92382812 82.28466797 C100.95071204 81.76077627 98.98944779 81.19276974 97.02978516 80.62060547 C85.03271493 77.26904299 72.82485253 76.20506655 60.45458984 75.03979492 C57.77587891 74.71435547 57.77587891 74.71435547 55.85124207 74.20309448 C52.33817733 73.37578299 48.74649687 73.55179323 45.15478516 73.54638672 C44.307146 73.54210663 43.45950684 73.53782654 42.58618164 73.53341675 C39.83686065 73.52340495 37.08771472 73.52336726 34.33837891 73.52685547 C33.40283173 73.52779205 32.46728455 73.52872864 31.50338745 73.5296936 C18.17241892 73.55878269 4.97241629 73.6320364 -8.22412109 75.71435547 C-9.20203613 75.86501465 -10.17995117 76.01567383 -11.1875 76.17089844 C-62.19260938 84.32075552 -104.25916604 108.29121293 -141.22412109 143.71435547 C-142.04525391 144.49423828 -142.86638672 145.27412109 -143.71240234 146.07763672 C-167.75987484 169.46058493 -187.08817042 201.1680355 -198.22412109 232.71435547 C-198.85781409 234.43977078 -199.49196979 236.16501619 -200.12646484 237.89013672 C-215.57314348 280.41029987 -224.67818875 330.0915388 -209.22412109 373.71435547 C-208.88574219 374.69782959 -208.88574219 374.69782959 -208.54052734 375.70117188 C-201.18326365 396.99878761 -190.12466655 415.10030689 -176.22412109 432.71435547 C-175.21921305 434.04399362 -174.21693275 435.37566104 -173.22412109 436.71435547 C-177.48356376 435.23384287 -180.97035887 433.02411472 -184.59912109 430.40185547 C-185.20852539 429.96164062 -185.81792969 429.52142578 -186.44580078 429.06787109 C-205.23277258 415.26323878 -222.51948789 398.58193879 -236.22412109 379.71435547 C-236.93012451 378.76689453 -236.93012451 378.76689453 -237.65039062 377.80029297 C-246.19017653 366.33522996 -253.4173015 354.27642996 -260.22412109 341.71435547 C-260.77156982 340.70646973 -260.77156982 340.70646973 -261.33007812 339.67822266 C-269.68028598 324.12899267 -274.67668164 307.68502772 -279.22412109 290.71435547 C-279.53349609 289.58642578 -279.84287109 288.45849609 -280.16162109 287.29638672 C-280.96865126 284.11450217 -281.62555659 280.94232834 -282.22412109 277.71435547 C-282.35947266 276.99344727 -282.49482422 276.27253906 -282.63427734 275.52978516 C-287.57491482 247.98906952 -286.79931457 219.05700452 -281.22412109 191.71435547 C-280.92731445 190.1875415 -280.92731445 190.1875415 -280.62451172 188.62988281 C-278.29372338 176.6911927 -275.53717485 165.10136682 -271.22412109 153.71435547 C-270.70978516 152.3434375 -270.70978516 152.3434375 -270.18505859 150.94482422 C-254.11956164 110.5499236 -228.06061112 73.18817642 -193.22412109 46.71435547 C-192.68384277 46.29766602 -192.14356445 45.88097656 -191.58691406 45.45166016 C-172.114436 30.48290914 -150.49450131 17.75904683 -127.22412109 9.71435547 C-126.00426514 9.2701123 -126.00426514 9.2701123 -124.75976562 8.81689453 C-113.23884028 4.62412035 -101.76947925 1.12026215 -89.72412109 -1.22314453 C-88.71196533 -1.42230469 -87.69980957 -1.62146484 -86.65698242 -1.82666016 C-59.09224561 -6.82508948 -27.09066253 -7.02173956 0 0 Z " fill="#F3811F" transform="translate(526.22412109375,16.28564453125)"/>
<path d="M0 0 C2.37353516 0.10546875 2.37353516 0.10546875 5 1 C6.63818359 3.30078125 6.63818359 3.30078125 8.0234375 6.3125 C8.78285645 7.95605469 8.78285645 7.95605469 9.55761719 9.6328125 C11.73062344 14.70561247 13.72358964 19.81970967 15.625 25 C16.56464759 27.52020592 17.50591277 30.03975906 18.44921875 32.55859375 C18.71076248 33.25858994 18.97230621 33.95858612 19.24177551 34.67979431 C21.79010784 41.48201471 24.40240706 48.25915569 27.01953125 55.03515625 C27.68459686 56.7580336 27.68459686 56.7580336 28.36309814 58.51571655 C30.16628839 63.18571371 31.97006324 67.85547829 33.77789307 72.52368164 C35.06142134 75.83906131 36.34151522 79.15575053 37.62109375 82.47265625 C38.19401909 83.94799583 38.19401909 83.94799583 38.77851868 85.45314026 C40.69154133 90.41958808 42.53265613 95.40715983 44.27758789 100.43530273 C44.77628136 101.87050514 44.77628136 101.87050514 45.28504944 103.33470154 C46.36541918 107.36226366 46.09500574 109.98497894 45 114 C43.44310042 116.49103933 42.55491484 116.84585699 39.75 117.625 C33.53765183 116.21310269 29.3567349 109.44458785 26.08325195 104.30493164 C25.66390381 103.6268042 25.24455566 102.94867676 24.8125 102.25 C24.35254639 101.52482178 23.89259277 100.79964355 23.41870117 100.05249023 C21.41490911 96.88670796 19.43767567 93.70469671 17.4609375 90.52197266 C9.01230589 76.69836663 9.01230589 76.69836663 -1 64 C-1.74378906 63.175 -2.48757812 62.35 -3.25390625 61.5 C-9.50244621 54.92047799 -16.42180736 49.88581613 -24 45 C-24.82113281 44.44441406 -25.64226562 43.88882813 -26.48828125 43.31640625 C-46.81404159 30.16444368 -72.35223046 26.25406608 -95.81640625 31.02734375 C-110.97398451 34.40073344 -124.93604096 41.33198022 -133.72265625 54.6015625 C-140.77488982 66.9039847 -142.95042758 79.40145011 -140.37890625 93.375 C-137.29503234 103.90128961 -130.66855999 113.58241019 -121 119 C-106.50342951 126.10763288 -90.90521892 130.88999505 -75.41699219 135.30517578 C-72.7766654 136.06420306 -70.14205034 136.84120273 -67.5078125 137.62109375 C-55.74334148 141.0962701 -43.9499518 144.41584964 -32.08032227 147.51513672 C-0.28121349 155.9101217 33.38171899 169.68544222 50.9609375 199.23828125 C63.68387725 221.93405753 65.18859575 250.0614935 59 275 C54.25810314 291.59994576 46.60851348 306.14493474 35 319 C34.25234375 319.83015625 33.5046875 320.6603125 32.734375 321.515625 C8.93998112 346.57064902 -24.21600211 358.20951221 -58.24609375 359.2265625 C-74.12154315 359.50997038 -89.97854879 358.68798807 -105.56762695 355.4699707 C-108.97465699 354.81168175 -112.35458812 354.69656544 -115.8125 354.625 C-116.48603516 354.58761719 -117.15957031 354.55023437 -117.85351562 354.51171875 C-123.67513072 354.41144213 -127.58576968 356.24156243 -132 360 C-134.36093591 362.57763694 -136.37834548 365.32217111 -138.375 368.1875 C-139.40259311 369.61924573 -140.43119372 371.05026905 -141.4609375 372.48046875 C-141.90228027 373.10848389 -142.34362305 373.73649902 -142.79833984 374.38354492 C-144 376 -144 376 -146 378 C-148.8515625 378.16796875 -148.8515625 378.16796875 -152 377 C-154.00152418 374.35782059 -155.12847192 371.3672904 -156.375 368.3125 C-156.79088379 367.34755615 -157.20676758 366.3826123 -157.63525391 365.38842773 C-158.84411292 362.56696378 -160.02980514 359.73687517 -161.20703125 356.90209961 C-162.62267723 353.50637984 -164.06367611 350.12138637 -165.5 346.734375 C-168.17482238 340.41625932 -170.83107726 334.09053387 -173.48046875 327.76171875 C-178.92707851 314.75784249 -184.46002742 301.79073942 -189.98919678 288.82180786 C-192.33749882 283.31364744 -194.68330243 277.80444575 -197.02416992 272.29312134 C-197.90164851 270.23111801 -198.78407408 268.17131886 -199.66796875 266.11206055 C-200.12171875 265.04511963 -200.57546875 263.97817871 -201.04296875 262.87890625 C-201.60213989 261.57288452 -201.60213989 261.57288452 -202.17260742 260.24047852 C-203.39749447 256.9236333 -203.70746033 254.46655562 -203 251 C-200.5 248.0625 -200.5 248.0625 -198 246 C-187.41151346 249.5600804 -181.20259149 261.84789422 -175.15893555 270.60522461 C-167.33645307 281.91681111 -158.44991691 292.03271691 -149 302 C-148.17628906 302.87785156 -147.35257813 303.75570313 -146.50390625 304.66015625 C-136.03253078 315.50980801 -124.34975215 324.06320846 -111 331 C-109.66775391 331.70576172 -109.66775391 331.70576172 -108.30859375 332.42578125 C-93.6001914 339.67893233 -77.91868026 342.17777491 -61.6875 342.1875 C-60.62337891 342.19974609 -59.55925781 342.21199219 -58.46289062 342.22460938 C-39.22865876 342.25981541 -21.81522872 336.42833943 -7.625 323.125 C2.89598434 311.8836993 7.40988953 297.27284024 7 282 C5.26129801 268.21849896 -3.45442606 258.3473821 -14 250 C-17.54202237 247.41659836 -21.19165205 245.16937261 -25 243 C-25.60021973 242.65614258 -26.20043945 242.31228516 -26.81884766 241.95800781 C-38.12879949 235.54290121 -49.82890016 230.53929213 -62 226 C-63.12220947 225.58041016 -63.12220947 225.58041016 -64.26708984 225.15234375 C-71.72683529 222.38811496 -79.22794891 219.88017958 -86.875 217.6875 C-116.56541055 209.14661614 -145.56772378 199.42146508 -170 180 C-170.65484375 179.51144531 -171.3096875 179.02289062 -171.984375 178.51953125 C-184.90754554 168.41218915 -192.92618737 151.29757678 -195.61328125 135.36328125 C-196.23557545 129.65548346 -196.18420975 123.92241418 -196.1875 118.1875 C-196.19974609 117.07568359 -196.21199219 115.96386719 -196.22460938 114.81835938 C-196.27179534 87.93808697 -184.69073914 65.69961205 -166.3125 46.8125 C-151.57379367 32.17219898 -132.96877241 22.61324084 -112.953125 17.50097656 C-111.02362053 17.00605867 -109.10532444 16.46809313 -107.1875 15.9296875 C-85.87497545 10.69925494 -61.21196869 13.37186352 -39.98046875 17.57299805 C-24.5589498 21.29730242 -24.5589498 21.29730242 -10 17 C-8.07627068 14.4500239 -6.6374363 11.7149785 -5.1875 8.875 C-4.41104616 7.41358934 -3.63374703 5.95262736 -2.85546875 4.4921875 C-2.24316406 3.33976563 -1.63085938 2.18734375 -1 1 C-0.67 0.67 -0.34 0.34 0 0 Z " fill="#000000" transform="translate(206,722)"/>
<path d="M0 0 C11.55 0 23.1 0 35 0 C41.57484901 16.69000134 48.0997601 33.39475462 54.52050781 50.14453125 C56.23653311 54.61861194 57.95816139 59.09053365 59.6796875 63.5625 C60.33349874 65.26114807 60.98730731 66.95979717 61.64111328 68.65844727 C62.63007407 71.22781692 63.61909493 73.79716334 64.6083374 76.36642456 C67.655525 84.28137251 70.70248696 92.19617171 73.703125 100.12890625 C74.26845947 101.62296997 74.26845947 101.62296997 74.84521484 103.1472168 C75.50950718 104.90685127 76.17146622 106.66736922 76.83056641 108.42895508 C77.96162409 111.9819684 77.96162409 111.9819684 80 115 C80.65742187 113.24816406 80.65742187 113.24816406 81.328125 111.4609375 C85.58796845 100.16549651 89.99694255 88.93606418 94.50073242 77.73583984 C98.0303753 68.95116708 101.52644402 60.15350682 105.00581551 51.34880638 C105.78236317 49.38390208 106.55926864 47.41913963 107.33628845 45.454422 C107.85953094 44.13131847 108.38277007 42.8082136 108.90600586 41.48510742 C109.16648429 40.82644715 109.42696272 40.16778688 109.69533443 39.48916721 C111.00780969 36.16974526 112.31919659 32.84990007 113.62844849 29.52920532 C114.63781874 26.96911809 115.64854598 24.40957553 116.66088867 21.85066223 C117.59604241 19.48674733 118.52917323 17.12203085 119.45996094 14.75639343 C119.88188721 13.69145157 120.30381348 12.6265097 120.73852539 11.52929688 C121.10426163 10.60274292 121.46999786 9.67618896 121.84681702 8.72155762 C123.10307156 5.75674702 124.55998074 2.88003852 126 0 C137.55 0 149.1 0 161 0 C161 47.52 161 95.04 161 144 C152.75 144 144.5 144 136 144 C135.67 107.7 135.34 71.4 135 34 C130.38 45.55 125.76 57.1 121 69 C111 94 101 119 91 144 C83.08 144 75.16 144 67 144 C66.36835937 142.32421875 65.73671875 140.6484375 65.0859375 138.921875 C58.41308448 121.25485927 51.60990916 103.64094835 44.74710083 86.04693604 C42.53914806 80.38589675 40.33668363 74.72274166 38.13671875 69.05859375 C37.50040805 67.42065385 36.86409622 65.78271439 36.2277832 64.14477539 C35.31306436 61.79010589 34.39844787 59.43539699 33.48422241 57.08053589 C32.64359369 54.91548829 31.8023293 52.75068864 30.9609375 50.5859375 C30.24623291 48.74588135 30.24623291 48.74588135 29.51708984 46.86865234 C27.7007188 42.23681848 25.84776057 37.61940143 24 33 C23.67 69.63 23.34 106.26 23 144 C15.41 144 7.82 144 0 144 C0 96.48 0 48.96 0 0 Z " fill="#000000" transform="translate(628,1147)"/>
<path d="M0 0 C20.91375 -0.061875 20.91375 -0.061875 42.25 -0.125 C46.63055664 -0.14320801 51.01111328 -0.16141602 55.52441406 -0.18017578 C60.92919922 -0.18920898 60.92919922 -0.18920898 63.47015381 -0.19088745 C65.22130351 -0.19393165 66.97244938 -0.20090891 68.72357178 -0.21115112 C85.67657696 -0.30523563 102.25635802 -0.04482629 115.47265625 12.234375 C124.55928999 22.73861656 125.83185626 33.47204661 125.19091797 46.79345703 C124.47266954 55.09464536 120.06721708 61.516403 114 67 C111.42399448 68.85418261 108.79153273 70.49184725 106 72 C106.53109375 72.30292969 107.0621875 72.60585937 107.609375 72.91796875 C114.71022028 77.12923648 117.98495067 80.94010781 120.29760742 88.87670898 C121.70490895 95.13448041 122.02700308 101.55351512 122.5 107.9375 C123.10311842 121.85241563 123.10311842 121.85241563 127 135 C129.00637918 136.32081163 129.00637918 136.32081163 131 137 C131 139.31 131 141.62 131 144 C121.76 144 112.52 144 103 144 C97.24819747 132.49639494 97.29321654 119.45394875 96.3203125 106.78125 C95.68590848 99.65862307 95.06360138 93.98577253 91 88 C88.94772049 86.48897108 88.94772049 86.48897108 86.625 86.0625 C85.89539063 85.86785156 85.16578125 85.67320313 84.4140625 85.47265625 C83.61742187 85.31667969 82.82078125 85.16070313 82 85 C81.2069043 84.83177734 80.41380859 84.66355469 79.59667969 84.49023438 C74.41616671 83.78412047 69.26230277 83.76239512 64.0390625 83.68359375 C62.51478638 83.65561707 62.51478638 83.65561707 60.9597168 83.6270752 C57.18156217 83.55902953 53.40327139 83.4987204 49.625 83.4375 C41.16875 83.293125 32.7125 83.14875 24 83 C24 103.13 24 123.26 24 144 C16.08 144 8.16 144 0 144 C0 96.48 0 48.96 0 0 Z M24 18 C24 33.51 24 49.02 24 65 C31.34715889 64.92573454 38.69315997 64.84265845 46.03979492 64.73754883 C48.53517508 64.70444503 51.03062751 64.6763686 53.52612305 64.65356445 C57.12840356 64.61975036 60.73003047 64.56742068 64.33203125 64.51171875 C65.98583549 64.50213387 65.98583549 64.50213387 67.67304993 64.49235535 C78.51872274 64.28987751 88.32906071 62.67093929 96.25 54.75 C100.05366839 48.77280682 101.03035395 41.66074171 99.5 34.73828125 C98.01686994 29.64002166 96.40184071 26.20967552 92 23 C77.77748493 15.69051926 59.61884206 17.86862078 44.0625 17.9375 C37.441875 17.958125 30.82125 17.97875 24 18 Z " fill="#000000" transform="translate(473,1147)"/>
<path d="M0 0 C8.25 0 16.5 0 25 0 C25 19.14 25 38.28 25 58 C53.38 58 81.76 58 111 58 C111 38.86 111 19.72 111 0 C119.25 0 127.5 0 136 0 C136 47.52 136 95.04 136 144 C127.75 144 119.5 144 111 144 C111 121.89 111 99.78 111 77 C82.62 77 54.24 77 25 77 C25 99.11 25 121.22 25 144 C16.75 144 8.5 144 0 144 C0 96.48 0 48.96 0 0 Z " fill="#000000" transform="translate(153,1147)"/>
<path d="M0 0 C9.24 0 18.48 0 28 0 C35.20765085 15.54793255 42.18311445 31.18029851 49.05303955 46.87957764 C53.90337422 57.96301012 58.78135185 69.03154422 63.75 80.0625 C69.76986638 93.43215899 75.66571681 106.8547712 81.51269531 120.30079651 C82.98507122 123.68491594 84.47001743 127.06295264 85.96972656 130.43505859 C86.2942984 131.16794601 86.61887024 131.90083344 86.95327759 132.65592957 C87.5819324 134.07467106 88.21347286 135.4921383 88.84823608 136.90815735 C91 141.77549888 91 141.77549888 91 144 C82.09 144 73.18 144 64 144 C63.02417969 141.69902344 62.04835938 139.39804688 61.04296875 137.02734375 C60.0897938 134.78001596 59.13657383 132.53270728 58.18334961 130.28540039 C57.52477394 128.73268596 56.86624453 127.17995191 56.20776367 125.62719727 C55.25712269 123.38552682 54.30631119 121.14392875 53.35546875 118.90234375 C53.0647197 118.21663803 52.77397064 117.53093231 52.47441101 116.82444763 C52.19434708 116.16429153 51.91428314 115.50413544 51.62573242 114.82397461 C51.35707367 114.18740936 51.08841492 113.55084412 50.81161499 112.89498901 C50.26145222 111.61044842 49.69852188 110.33131503 49.12417603 109.05740356 C47.83754984 106.18171753 47 104.19030863 47 101 C25.22 101 3.44 101 -19 101 C-19.99 104.3 -20.98 107.6 -22 111 C-22.98673974 113.49700061 -24.01853349 115.97682443 -25.1015625 118.43359375 C-25.38349457 119.0782106 -25.66542664 119.72282745 -25.9559021 120.38697815 C-26.84020968 122.40623963 -27.73222472 124.42197014 -28.625 126.4375 C-29.52330843 128.47869386 -30.41998156 130.5205935 -31.31552124 132.56300354 C-32.12101189 134.39801872 -32.93074828 136.2311685 -33.74072266 138.06420898 C-35.03940096 140.97927706 -35.03940096 140.97927706 -36 144 C-44.58 144 -53.16 144 -62 144 C-61.10882334 139.54411668 -59.78546351 135.91392089 -57.9296875 131.83203125 C-57.61693375 131.1329213 -57.30417999 130.43381134 -56.98194885 129.71351624 C-55.950864 127.41109973 -54.91283204 125.11188197 -53.875 122.8125 C-53.14791356 121.19118929 -52.42144158 119.5696029 -51.69555664 117.94775391 C-50.57448192 115.4430787 -49.45305543 112.93856831 -48.32978821 110.43487549 C-44.66413238 102.26356613 -41.04614683 94.07160881 -37.4375 85.875 C-36.19681074 83.05850731 -34.95583895 80.24213915 -33.71484375 77.42578125 C-33.40853027 76.73044281 -33.1022168 76.03510437 -32.78662109 75.31869507 C-30.61507094 70.39077631 -28.4358656 65.46628597 -26.25390625 60.54296875 C-17.34455102 40.42867957 -8.62596966 20.23738129 0 0 Z M14 24 C8.80428905 34.90652526 4.11613936 46.01975713 -0.5703125 57.15185547 C-1.89020843 60.28611434 -3.21442096 63.41852549 -4.5390625 66.55078125 C-5.37785786 68.53895549 -6.21640882 70.52723286 -7.0546875 72.515625 C-7.45146698 73.45400208 -7.84824646 74.39237915 -8.25704956 75.35919189 C-8.6180777 76.21809021 -8.97910583 77.07698853 -9.35107422 77.96191406 C-9.67050995 78.71990295 -9.98994568 79.47789185 -10.31906128 80.2588501 C-11.06070378 81.84362416 -11.06070378 81.84362416 -11 83 C5.5 83 22 83 39 83 C35.34036828 73.24098209 31.67185382 63.61910231 27.5625 54.0625 C26.60873055 51.82709777 25.655607 49.59141985 24.703125 47.35546875 C24.24486328 46.28087402 23.78660156 45.2062793 23.31445312 44.09912109 C20.48333705 37.42412341 17.73944026 30.71303108 15 24 C14.67 24 14.34 24 14 24 Z " fill="#000000" transform="translate(866,1147)"/>
<path d="M0 0 C1.12591553 0.00523682 2.25183105 0.01047363 3.41186523 0.01586914 C4.62680664 0.0190918 5.84174805 0.02231445 7.09350586 0.02563477 C8.37290039 0.03401367 9.65229492 0.04239258 10.97045898 0.05102539 C12.2537207 0.05553711 13.53698242 0.06004883 14.85913086 0.06469727 C18.04211921 0.07652994 21.22501661 0.09301471 24.40795898 0.11352539 C29.46203944 10.85406007 34.38043963 21.64998938 39.22045898 32.48852539 C39.76295288 33.70173462 39.76295288 33.70173462 40.31640625 34.93945312 C46.44818924 48.65510838 52.50060699 62.40479538 58.52609253 76.16741943 C65.25628186 91.53700911 72.0794959 106.86365583 78.94830322 122.17175293 C79.59145625 123.60564038 80.2340177 125.03979336 80.87591553 126.47424316 C82.15985777 129.34224054 83.45072356 132.20611546 84.76831055 135.05883789 C87.40795898 140.80463431 87.40795898 140.80463431 87.40795898 144.11352539 C78.49795898 144.11352539 69.58795898 144.11352539 60.40795898 144.11352539 C59.51592773 141.98012695 58.62389648 139.84672852 57.70483398 137.64868164 C56.82795536 135.55344875 55.95073661 133.45835856 55.07348633 131.36328125 C54.46994149 129.92137239 53.86674325 128.47931839 53.26391602 127.03710938 C52.39099591 124.94890499 51.51689587 122.86119891 50.64233398 120.77368164 C50.36031128 120.09931061 50.07828857 119.42493958 49.78771973 118.73013306 C47.96190012 114.38076895 46.06392659 110.07396371 44.0456543 105.81054688 C43.40795898 104.11352539 43.40795898 104.11352539 43.40795898 101.11352539 C21.62795898 101.11352539 -0.15204102 101.11352539 -22.59204102 101.11352539 C-22.92204102 102.76352539 -23.25204102 104.41352539 -23.59204102 106.11352539 C-24.078777 107.48067082 -24.6069746 108.83372337 -25.17431641 110.16943359 C-25.65470116 111.31004997 -25.65470116 111.31004997 -26.14479065 112.47370911 C-26.48960983 113.27910629 -26.83442902 114.08450348 -27.18969727 114.91430664 C-27.54341904 115.75068161 -27.89714081 116.58705658 -28.26158142 117.44877625 C-29.38816081 120.10975326 -30.52125063 122.7679006 -31.65454102 125.42602539 C-32.42124867 127.2337851 -33.18752961 129.04172586 -33.95336914 130.84985352 C-35.82719774 135.27355073 -37.70980993 139.69335926 -39.59204102 144.11352539 C-48.17204102 144.11352539 -56.75204102 144.11352539 -65.59204102 144.11352539 C-63.68410154 138.38970697 -61.79619089 133.00508507 -59.32641602 127.55493164 C-59.01649216 126.86148148 -58.7065683 126.16803131 -58.38725281 125.4535675 C-57.72217677 123.96672633 -57.05519274 122.48073737 -56.38644409 120.99554443 C-54.94929184 117.80376715 -53.52156776 114.60779791 -52.09300232 111.41217041 C-51.35258898 109.75630594 -50.6116692 108.10066783 -49.87025452 106.44525146 C-46.22576694 98.30659452 -42.62366455 90.14952021 -39.02954102 81.98852539 C-38.10113528 79.881561 -37.17261144 77.77464868 -36.24407959 75.66773987 C-35.62523936 74.26350251 -35.00646479 72.85923622 -34.38775635 71.4549408 C-32.18753941 66.46183751 -29.98248109 61.47088915 -27.77563477 56.48071289 C-26.5058526 53.60842791 -25.23637493 50.73600849 -23.96704102 47.86352539 C-23.65900543 47.16661591 -23.35096985 46.46970642 -23.03359985 45.75167847 C-19.59176389 37.96155627 -16.17138311 30.16280376 -12.79516602 22.34399414 C-12.4910379 21.63995453 -12.18690979 20.93591492 -11.87356567 20.21054077 C-10.42473213 16.85467549 -8.97930132 13.49739754 -7.53881836 10.13793945 C-7.03302246 8.96328125 -6.52722656 7.78862305 -6.00610352 6.57836914 C-5.56218262 5.54317139 -5.11826172 4.50797363 -4.66088867 3.44140625 C-3.14399006 0.13769948 -3.14399006 0.13769948 0 0 Z M10.40795898 24.11352539 C4.66478668 37.25580083 -1.02973677 50.41894263 -6.68966675 63.59725952 C-7.37599208 65.19471665 -8.06294543 66.79190411 -8.7505188 68.38882446 C-9.72292404 70.64785519 -10.69296001 72.90788844 -11.66235352 75.16821289 C-11.95876236 75.85573135 -12.2551712 76.54324982 -12.56056213 77.25160217 C-13.9813118 80.08485035 -13.9813118 80.08485035 -14.59204102 83.11352539 C1.90795898 83.11352539 18.40795898 83.11352539 35.40795898 83.11352539 C33.10371279 76.09113191 33.10371279 76.09113191 30.46264648 69.25561523 C30.11218262 68.41799652 29.76171875 67.58037781 29.40063477 66.71737671 C29.03180176 65.84521515 28.66296875 64.97305359 28.28295898 64.07446289 C27.89479004 63.1493692 27.50662109 62.22427551 27.10668945 61.27114868 C25.87686088 58.34230105 24.64246437 55.41540435 23.40795898 52.48852539 C22.57953703 50.517296 21.75140941 48.54594288 20.92358398 46.57446289 C17.77362045 39.07802148 14.61975191 31.58372144 11.40795898 24.11352539 C11.07795898 24.11352539 10.74795898 24.11352539 10.40795898 24.11352539 Z " fill="#000000" transform="translate(369.592041015625,1146.886474609375)"/>
<path d="M0 0 C1.11646912 0.00067978 1.11646912 0.00067978 2.25549316 0.00137329 C3.03615646 -0.00198532 3.81681976 -0.00534393 4.62113953 -0.00880432 C7.22022061 -0.0183545 9.81923738 -0.02026038 12.41833496 -0.02133179 C14.22661872 -0.02454485 16.03490222 -0.02790896 17.84318542 -0.03141785 C21.64729412 -0.03742155 25.45138007 -0.03925681 29.25549316 -0.03866577 C34.10268075 -0.03856483 38.9497196 -0.05214062 43.79687214 -0.06943798 C47.54010164 -0.08063196 51.28329624 -0.08258261 55.02654076 -0.08205605 C56.81129653 -0.08322798 58.59605344 -0.08760506 60.38079262 -0.09538841 C77.00696881 -0.16102616 93.39119653 0.29612473 106.28161621 12.40054321 C114.37853386 21.68085652 117.48538499 32.6424583 117.15270996 44.80679321 C115.83658781 57.45043855 110.64535061 66.52569286 100.99645996 74.54507446 C87.70975291 84.25550208 71.09105269 84.32707845 55.23083496 84.24429321 C53.83206116 84.24278259 53.83206116 84.24278259 52.4050293 84.24124146 C48.97585796 84.23607389 45.54670438 84.22211356 42.11755371 84.20913696 C34.42442871 84.18851196 26.73130371 84.16788696 18.80505371 84.14663696 C18.80505371 103.94663696 18.80505371 123.74663696 18.80505371 144.14663696 C10.88505371 144.14663696 2.96505371 144.14663696 -5.19494629 144.14663696 C-6.51754689 141.50143577 -6.32085216 139.52330918 -6.32192993 136.55995178 C-6.32474976 135.37225189 -6.32756958 134.184552 -6.33047485 132.96086121 C-6.32845062 131.65116867 -6.32642639 130.34147614 -6.32434082 128.99209595 C-6.32569526 127.6042781 -6.32747543 126.21646061 -6.32965088 124.8286438 C-6.33421975 121.05401315 -6.332438 117.27940976 -6.32927179 113.50477862 C-6.32674589 109.56142778 -6.32908633 105.61807932 -6.33065796 101.67472839 C-6.33247876 95.05281148 -6.33007545 88.4309057 -6.32531738 81.80899048 C-6.31987269 74.14272909 -6.32163928 66.47649428 -6.32714379 58.81023353 C-6.33167477 52.23783052 -6.33232561 45.66543553 -6.32970512 39.09303147 C-6.32814255 35.16330375 -6.32794807 31.23358854 -6.33124161 27.30386162 C-6.33412019 23.61114882 -6.33214489 19.91847047 -6.32634735 16.22576141 C-6.32438415 14.21613615 -6.32737362 12.20650799 -6.33047485 10.19688416 C-6.32765503 9.01200409 -6.32483521 7.82712402 -6.32192993 6.6063385 C-6.32155291 5.57007545 -6.32117588 4.53381239 -6.32078743 3.46614742 C-6.08476269 -0.88427295 -3.80796773 0.02409656 0 0 Z M18.80505371 19.14663696 C18.80505371 34.32663696 18.80505371 49.50663696 18.80505371 65.14663696 C24.55942871 65.16726196 30.31380371 65.18788696 36.24255371 65.20913696 C38.0194458 65.21824097 39.79633789 65.22734497 41.6270752 65.23672485 C49.4752218 65.26070848 57.30295044 65.16606853 65.14099121 64.74429321 C65.82435043 64.71054092 66.50770966 64.67678864 67.21177673 64.64201355 C74.83203855 64.1744804 81.9174645 62.57872656 87.36755371 56.95913696 C92.02922472 50.61333626 92.31781119 43.40953208 91.41052246 35.79898071 C90.24278981 30.68355834 87.95431044 26.57905199 83.55560303 23.64744568 C75.2596887 19.12086604 65.944667 18.71486568 56.69567871 18.85366821 C55.60285583 18.85791306 54.51003296 18.8621579 53.38409424 18.86653137 C49.94081522 18.88313927 46.49815168 18.92075694 43.05505371 18.95913696 C40.70089558 18.97420695 38.34672815 18.98789126 35.99255371 19.00015259 C30.26296713 19.03041449 24.53468804 19.08917035 18.80505371 19.14663696 Z " fill="#000000" transform="translate(16.1949462890625,1146.8533630371094)"/>
<path d="M0 0 C0.66 0.33 1.32 0.66 2 1 C-3.61 6.61 -9.22 12.22 -15 18 C-15 13.07254925 -11.31913617 10.39978807 -8 7 C-5.39491779 4.58973264 -2.72918126 2.2684104 0 0 Z " fill="#DADADA" transform="translate(369,229)"/>
</svg>
